<?xml version="1.0" encoding="UTF-8" standalone="no"?>
<svg
   xmlns:dc="http://purl.org/dc/elements/1.1/"
   xmlns:cc="http://creativecommons.org/ns#"
   xmlns:rdf="http://www.w3.org/1999/02/22-rdf-syntax-ns#"
   xmlns:svg="http://www.w3.org/2000/svg"
   xmlns="http://www.w3.org/2000/svg"
   xmlns:sodipodi="http://sodipodi.sourceforge.net/DTD/sodipodi-0.dtd"
   xmlns:inkscape="http://www.inkscape.org/namespaces/inkscape"
   version="1.0"
   width="798.99359pt"
   height="168.30031pt"
   viewBox="0 0 798.99359 168.30031"
   preserveAspectRatio="xMidYMid meet"
   id="svg10"
   sodipodi:docname="Screenshot-2020-02-10-at-02.54.28.svg"
   inkscape:version="0.92.4 5da689c313, 2019-01-14">
  <metadata
     id="metadata16">
    <rdf:RDF>
      <cc:Work
         rdf:about="">
        <dc:format>image/svg+xml</dc:format>
        <dc:type
           rdf:resource="http://purl.org/dc/dcmitype/StillImage" />
        <dc:title></dc:title>
      </cc:Work>
    </rdf:RDF>
  </metadata>
  <defs
     id="defs14" />
  <sodipodi:namedview
     pagecolor="#ffffff"
     bordercolor="#666666"
     borderopacity="1"
     objecttolerance="10"
     gridtolerance="10"
     guidetolerance="10"
     inkscape:pageopacity="0"
     inkscape:pageshadow="2"
     inkscape:window-width="2400"
     inkscape:window-height="1424"
     id="namedview12"
     showgrid="false"
     fit-margin-top="0"
     fit-margin-left="0"
     fit-margin-right="0"
     fit-margin-bottom="0"
     inkscape:zoom="0.54882353"
     inkscape:cx="533.99108"
     inkscape:cy="87.38022"
     inkscape:window-x="0"
     inkscape:window-y="88"
     inkscape:window-maximized="1"
     inkscape:current-layer="g45" />
  <g
     transform="matrix(0.1,0,0,-0.1,-24.506689,225.76514)"
     id="g8"
     style="fill:#000000;stroke:none">
    <g
       id="g45"
       style="fill:currentColor">
      <g
         id="g51"
         transform="translate(546.62379,4249.9999)">
        <path
           d="m 376.7042,-2827.3472 v -830 l -50,3 c -75,5 -163,52 -226,120 -91,98 -89,83 -89,639 0,265 -3,488 -6,497 -5,14 -28,16 -149,16 -102,0 -145,4 -153,13 -13,16 -1,90 26,150 27,62 114,153 172,180 80,38 128,45 305,43 l 170,-1 z"
           id="path36"
           style="fill:currentColor"
           inkscape:connector-curvature="0" />
        <path
           id="path34"
           transform="matrix(7.4999999,0,0,-7.4999999,0,2460)"
           d="m 146.50977,593.67969 c -15.58334,0.0333 -31.28282,0.70013 -35.88282,1.96679 -31.199997,8.53334 -51.732419,34.39922 -51.732419,65.19922 0,19.2 6.266536,33.8681 20.533203,48.13477 16.933334,16.93333 28.399866,20.53268 64.533206,20.66601 h 24.26562 v 18 18 h -47.33203 c -53.733333,0 -50.40065,-0.80026 -47.333983,11.06641 4.533333,18 17.067187,30.80078 35.867183,36.80078 6,2 66.26563,2 72.26563,0 17.73333,-5.6 28.93372,-16.39974 34.40039,-33.0664 2.66667,-8.26667 2.80078,-11.06667 2.80078,-76 0,-71.33334 -0.13372,-72.80026 -6.40039,-84.9336 -3.2,-6.26666 -13.86615,-16.66719 -20.13281,-19.86719 -2.4,-1.2 -7.2013,-3.06614 -10.66797,-4.13281 -4.13333,-1.26666 -19.60026,-1.86732 -35.18359,-1.83398 z m -8.86915,49.69531 c 2.74584,-0.0292 5.65261,-0.0294 8.58594,0.004 l 21.33399,0.26757 0.40039,17.59961 0.40039,17.73438 h -24.26758 c -23.86667,0 -24.39935,-6.5e-4 -28.66602,-3.33399 -11.33333,-8.66666 -8.00039,-27.20065 5.59961,-31.33398 1.6,-0.5 8.37578,-0.85 16.61328,-0.9375 z"
           style="fill:currentColor;stroke-width:0.13333334"
           inkscape:connector-curvature="0" />
        <path
           style="fill:currentColor;stroke-width:0.13333334"
           d="m 229.56055,593.64648 v 6 c 0,14.13334 12.13268,31.86693 26.66601,38.9336 10.4,4.93333 14.66745,5.73242 30.80078,5.73242 h 15.86719 l 0.26563,86.26758 0.40039,86.40039 4.26757,0.39844 c 12.00001,1.2 31.73217,-11.19844 38.79883,-24.39844 6.13334,-11.46667 5.99987,-9.86836 6.53321,-81.06836 l 0.5332,-67.59961 h 63.59961 c 60.66667,0 63.73385,0.13464 67.86719,2.66797 6.13333,3.73333 8.93359,8.66523 8.93359,15.86523 0,8 -3.86589,13.73464 -11.19922,16.66797 -4.66667,1.86667 -12.26745,2.13281 -52.80078,2.13281 h -47.33398 l 0.40039,49.59961 0.40039,49.73438 3.86718,7.86523 c 7.06667,14.8 23.59896,27.06654 38.26563,28.53321 l 6.5332,0.66797 v -38.80079 c 0,-21.33333 0.53308,-39.06679 1.06641,-39.46679 0.53333,-0.26667 17.06797,15.20039 36.66797,34.40039 34.53333,34.13333 39.73346,38.26666 51.46679,42 5.86667,1.86666 19.73295,1.86666 25.59961,0 10.26667,-3.2 21.06589,-9.99922 21.19922,-13.19922 0,-1.06667 -16.26562,-18.00156 -36.26562,-37.60156 -23.33334,-22.66667 -35.86641,-35.99883 -35.06641,-36.79883 0.8,-0.66667 3.46667,-2.00026 6,-2.9336 6.4,-2.53333 15.73242,-8.80026 21.73242,-14.93359 2.8,-2.8 5.33438,-5.06641 5.73438,-5.06641 0.26666,0 0.5332,1.59961 0.5332,3.59961 0,5.73334 3.59896,24.26706 6.26563,32.40039 7.73333,24.4 26.53307,47.60026 49.0664,60.9336 8.66667,5.06666 25.86667,11.59961 36,13.59961 6,1.2 53.06732,1.46588 187.33399,1.19922 l 179.33398,-0.39844 7.86524,-3.86719 c 14.93333,-7.33333 25.73333,-21.73307 28.00003,-37.0664 0.6666,-4.40001 0.4011,-6.40118 -0.7989,-7.20118 -0.9333,-0.66666 -21.4677,-1.46523 -45.73434,-1.86523 l -44,-0.66797 -8.93359,-4.26562 c -4.93333,-2.26667 -11.73307,-6.80053 -15.06641,-9.86719 -7.6,-7.06667 -14.53294,-16.66589 -13.59961,-19.19922 0.53334,-1.33333 6.13321,-1.86758 24.53321,-2.26758 23.6,-0.4 23.73463,-0.53411 32.66796,-4.80078 14.66667,-7.06667 25.99818,-22.79857 27.46485,-37.86523 l 0.66797,-6.4004 h -42.80078 c -23.6,0 -43.0668,-0.53307 -43.4668,-1.0664 -2.66667,-4.4 14.80065,-23.20117 27.33398,-29.20117 12.8,-6.13334 17.73399,-7.06641 39.33399,-7.06641 20.66667,0 27.33203,-1.19987 37.33203,-6.5332 13.86664,-7.2 24.13364,-22.93282 24.93364,-38.13282 l 0.2675,-5.33398 -39.60153,-0.40039 c -38.26667,-0.26667 -46.66576,0.26849 -65.73242,4.53516 -5.86667,1.33333 -24.93386,10.2664 -31.86719,15.0664 -7.33333,5.06667 -21.46641,18.66615 -27.06641,26.13281 -14.13333,18.93334 -20.66549,39.46667 -20.79883,66 0,21.86667 2.26641,32.66667 11.06641,50 2.53333,5.06667 4.79974,9.7323 5.06641,10.26563 0.26666,0.66667 -20.53425,1.06836 -46.26758,1.06836 -50.26667,0 -49.46615,0.13203 -44.13281,-6.66797 1.46666,-1.86667 2.66601,-3.73281 2.66601,-4.13281 0,-0.53334 6.53464,-11.86589 14.66797,-25.19922 8.13333,-13.33333 14.66602,-24.53464 14.66602,-24.66797 0,-0.26667 4.79935,-8.26667 10.66601,-18 5.86667,-9.73333 10.66797,-17.73333 10.66797,-18 0,-0.13333 6.53268,-11.33268 14.66602,-24.66602 8.13333,-13.33333 14.66601,-24.66692 14.66601,-24.93359 0,-0.4 1.06654,-2.26615 2.53321,-4.13281 1.33333,-2 3.7345,-5.73373 5.20117,-8.40039 1.46666,-2.66667 3.46705,-6.00013 4.40039,-7.4668 0.93333,-1.46667 1.19883,-3.73359 0.79883,-4.93359 -0.8,-2 -10.39987,-2.13282 -112.53321,-2.13282 -117.6,0 -121.73372,0.13282 -140.40039,6.13282 -16.66666,5.33333 -38.93216,20.13424 -48.79883,32.26758 -2.8,3.46666 -5.86796,7.06523 -6.66796,7.86523 -0.93334,0.93333 -2.93321,3.73372 -4.53321,6.40039 -1.6,2.53333 -3.06679,4.66797 -3.46679,4.66797 -0.26667,0 -1.33321,-3.20169 -2.53321,-7.06836 -5.73333,-19.6 -23.86601,-39.06628 -42.66601,-45.59961 -1.46667,-0.53333 -6,-1.73216 -10,-2.79883 -5.86667,-1.46666 -31.99961,-1.73385 -133.59961,-1.86719 z m 497.51562,50.77149 c 48.39115,0 49.13516,0.61198 45.28516,4.69531 -0.66667,0.66667 -2.40052,3.33386 -3.86719,5.86719 -1.46667,2.53333 -6.93424,12.13203 -12.26758,21.33203 -5.33333,9.2 -10.79948,18.66693 -12.13281,20.93359 -1.46667,2.4 -3.59974,6.39935 -5.06641,8.66602 -2,3.73333 -11.19987,19.46706 -24.5332,42.40039 -1.46667,2.53333 -3.8668,6.93437 -5.4668,9.73438 -5.73333,10.8 -3.99921,10.26562 -37.19922,10.26562 -16.26666,0 -33.33333,-0.66536 -38,-1.33203 -16.13333,-2.26667 -32.53489,-12.66706 -41.60156,-26.40039 -2.13333,-3.33334 -4,-6.80104 -4,-7.73438 0,-1.2 6.53308,-1.73281 25.06641,-2.13281 l 24.93359,-0.5332 8.40039,-4.40039 c 9.33334,-4.93334 18.53321,-14.39974 22.53321,-23.06641 3.33333,-7.06667 6.13307,-18.13385 5.0664,-19.86719 -0.53333,-0.66666 -17.99869,-1.19922 -43.33203,-1.19922 -23.33333,0 -42.80117,-0.53255 -43.20117,-1.19921 -1.06667,-1.73334 6.1345,-12.26836 13.20117,-19.06836 6.53333,-6.4 15.86563,-11.73308 26.26563,-15.06641 4.53333,-1.33333 20.93281,-1.7319 76.13281,-1.86523 8.98333,-0.0167 16.87018,-0.0293 23.7832,-0.0293 z"
           id="path2"
           transform="matrix(7.4999999,0,0,-7.4999999,0,2460)"
           inkscape:connector-curvature="0" />
      </g>
    </g>
  </g>
</svg>
