<?xml version="1.0" encoding="UTF-8"?>
<svg width="214px" height="28px" viewBox="0 0 214 28" version="1.1" xmlns="http://www.w3.org/2000/svg" xmlns:xlink="http://www.w3.org/1999/xlink">
    <!-- Generator: Sketch 55.2 (78181) - https://sketchapp.com -->
    <title>logo-acerbis--black</title>
    <desc>Created with Sketch.</desc>
    <defs>
        <polygon id="path-1" points="0.000260186124 0.0002 213.676817 0.0002 213.676817 27.195 0.000260186124 27.195"></polygon>
    </defs>
    <g id="Page-1" stroke="none" stroke-width="1" fill="none" fill-rule="evenodd">
        <g id="Artboard">
            <g id="logo-acerbis--black">
                <mask id="mask-2" fill="currentColor">
                    <use xlink:href="#path-1"></use>
                </mask>
                <g id="path-1"></g>
                <path d="M176.7076,10.076 C173.5066,10.076 170.4716,11.8 169.9266,13.911 L167.4926,23.314 C166.9396,25.43 169.0806,27.153 172.2706,27.153 C175.4776,27.153 178.5196,25.43 179.0766,23.314 L181.4946,13.911 C182.0496,11.8 179.9006,10.076 176.7076,10.076 L176.7076,10.076 Z M177.3076,7.804 C180.4786,7.804 183.5336,6.077 184.0846,3.968 C184.6316,1.837 182.5066,0.119 179.2896,0.119 C176.1036,0.119 173.0596,1.837 172.5066,3.968 C171.9616,6.077 174.1006,7.804 177.3076,7.804 L177.3076,7.804 Z M211.1916,12.139 L197.2776,1.061 C196.3986,0.425 195.1466,0.065 193.7346,0.065 C190.6686,0.065 187.7286,1.724 187.2036,3.768 C186.9396,4.802 187.3526,5.807 188.3636,6.516 L201.4086,16.915 C202.2276,17.59 202.4286,18.149 202.1356,18.878 C201.4776,20.48 199.5476,20.436 199.5476,20.436 L187.7646,20.463 C184.9806,20.463 182.3056,21.969 181.8366,23.829 C181.4066,25.43 182.4376,27.153 185.7076,27.153 C185.7076,27.153 193.3016,27.195 197.8556,27.153 C205.2236,27.153 212.2286,23.197 213.4786,18.336 C214.0906,16.016 213.2736,13.829 211.1916,12.139 L211.1916,12.139 Z M103.0766,0.065 L84.5046,0.059 C81.7206,0.059 79.0406,1.586 78.5576,3.456 C78.0866,5.311 79.8986,6.751 82.6916,6.751 L101.0746,6.751 C103.9456,6.751 106.5916,5.356 107.0836,3.505 C107.5346,1.669 105.7676,0.128 103.0766,0.065 L103.0766,0.065 Z M100.1916,10.277 L80.2336,10.277 C76.7696,10.277 76.0986,12.263 76.0276,12.495 L72.8716,24.661 C72.2316,27.074 75.3046,27.153 75.6536,27.153 L95.8096,27.153 C98.5646,27.153 101.1736,25.732 101.6776,23.843 C102.1466,22.013 100.2396,20.426 97.5046,20.426 L85.3166,20.426 L86.2126,16.899 L98.4616,16.915 C101.2296,16.915 103.8656,15.43 104.3366,13.585 C104.8086,11.761 102.9486,10.277 100.1916,10.277 L100.1916,10.277 Z M65.6996,20.513 L62.4836,20.53 C56.9376,20.53 53.2286,17.431 54.2056,13.6 C55.1836,9.855 60.5636,6.824 66.2146,6.824 L69.4856,6.824 C72.2816,6.751 74.9396,5.311 75.4266,3.456 C75.8986,1.62 74.0496,0.181 71.2846,0.096 C69.5066,0.022 68.5396,-0.027 66.9206,0.015 C55.2986,0.248 45.0676,6.113 43.1156,13.671 C41.1896,21.097 48.6906,27.153 59.8686,27.153 L63.9646,27.153 C66.7386,27.153 69.3556,25.68 69.8376,23.843 C70.3146,22.013 68.4696,20.513 65.6996,20.513 L65.6996,20.513 Z M31.0996,2.534 C30.3156,0.944 28.8946,0.133 26.8496,0.133 C24.7806,0.133 22.7846,1.107 21.5316,2.334 L0.9346,22.542 C0.5576,22.952 0.1896,23.394 0.0946,23.843 C-0.4234,25.836 1.2246,27.153 4.2306,27.153 C6.0966,27.153 8.4176,26.176 9.7756,24.777 L24.1666,10.819 L29.1556,20.454 L20.3036,20.463 C17.5086,20.48 14.8556,21.974 14.3686,23.829 C13.9106,25.689 15.7846,27.195 18.5826,27.195 L35.5896,27.195 C38.3026,27.195 40.9886,25.646 41.4676,23.829 C41.6296,23.211 41.3466,22.574 41.1346,22.057 L31.0996,2.534 Z M132.1546,13.846 L131.6866,13.671 L132.0986,13.329 C134.9186,11.065 136.5846,8.991 137.0336,7.11 C138.3536,1.748 132.1646,0.059 128.9616,0.059 L115.3386,0.059 C112.5626,0.059 110.0276,1.5 109.5536,3.339 C109.0726,5.197 110.9756,6.77 113.7156,6.77 L123.4436,6.751 C124.9066,6.751 125.8856,7.551 125.6446,8.531 C125.3816,9.496 123.9986,10.291 122.5256,10.291 L112.6566,10.303 C109.9636,10.374 107.4766,11.843 107.0036,13.623 C106.5216,15.455 108.2936,16.899 111.0456,16.899 L119.8796,16.899 C120.8076,16.899 121.5186,17.089 121.9246,17.509 C122.5556,18.149 122.2566,19.333 122.2326,19.386 L121.2276,23.321 C120.6686,25.44 122.8226,27.153 126.0066,27.153 C129.2036,27.153 132.2526,25.44 132.7856,23.321 L134.4436,16.861 C134.8936,15.125 132.1646,13.872 132.1546,13.846 L132.1546,13.846 Z M168.4696,7.555 C169.4716,3.753 164.9906,0.37 158.5146,0.015 L146.3716,0.015 C143.6136,0.015 140.9776,1.5 140.5106,3.339 C140.0186,5.245 141.8226,6.751 144.6236,6.751 L154.7626,6.751 C156.2196,6.751 157.2156,7.544 156.9656,8.508 C156.6976,9.48 155.3036,10.277 153.8486,10.277 L143.6706,10.277 C140.9086,10.277 138.2796,11.761 137.7976,13.585 C137.3266,15.426 139.1826,16.899 141.9396,16.899 L152.0626,16.899 C153.5166,16.899 154.5396,17.709 154.2586,18.657 C153.7216,20.436 151.6876,20.436 151.6876,20.436 L141.0596,20.436 C138.3366,20.436 135.7256,21.941 135.2306,23.786 C134.7606,25.646 136.6116,27.153 139.3836,27.153 L151.4966,27.153 C157.4756,27.153 164.5516,23.458 165.4886,19.826 C166.0276,17.789 165.0476,15.816 162.8426,14.412 C162.8426,14.412 162.2646,14.043 161.9846,13.905 L161.2976,13.585 L162.7976,13.066 C165.8656,11.666 167.9436,9.659 168.4696,7.555 L168.4696,7.555 Z" id="Fill-1" fill="currentColor" fill-rule="nonzero" mask="url(#mask-2)"></path>
            </g>
        </g>
    </g>
</svg>