<?xml version="1.0" encoding="UTF-8" standalone="no"?>
<!-- Generator: Adobe Illustrator 14.0.0, SVG Export Plug-In . SVG Version: 6.00 Build 43363)  -->

<svg
   xmlns:dc="http://purl.org/dc/elements/1.1/"
   xmlns:cc="http://creativecommons.org/ns#"
   xmlns:rdf="http://www.w3.org/1999/02/22-rdf-syntax-ns#"
   xmlns:svg="http://www.w3.org/2000/svg"
   xmlns="http://www.w3.org/2000/svg"
   xmlns:sodipodi="http://sodipodi.sourceforge.net/DTD/sodipodi-0.dtd"
   xmlns:inkscape="http://www.inkscape.org/namespaces/inkscape"
   version="1.1"
   id="Layer_1"
   x="0px"
   y="0px"
   width="75.972"
   height="77.918999"
   viewBox="0 0 75.972 77.918999"
   enable-background="new 0 0 250 88"
   xml:space="preserve"
   sodipodi:docname="asics.svg"
   inkscape:version="0.92.4 5da689c313, 2019-01-14"><metadata
   id="metadata21"><rdf:RDF><cc:Work
       rdf:about=""><dc:format>image/svg+xml</dc:format><dc:type
         rdf:resource="http://purl.org/dc/dcmitype/StillImage" /><dc:title></dc:title></cc:Work></rdf:RDF></metadata><defs
   id="defs19" /><sodipodi:namedview
   pagecolor="#ffffff"
   bordercolor="#666666"
   borderopacity="1"
   objecttolerance="10"
   gridtolerance="10"
   guidetolerance="10"
   inkscape:pageopacity="0"
   inkscape:pageshadow="2"
   inkscape:window-width="2400"
   inkscape:window-height="1424"
   id="namedview17"
   showgrid="false"
   fit-margin-top="0"
   fit-margin-left="0"
   fit-margin-right="0"
   fit-margin-bottom="0"
   inkscape:zoom="2.488"
   inkscape:cx="41.221865"
   inkscape:cy="38.96"
   inkscape:window-x="0"
   inkscape:window-y="88"
   inkscape:window-maximized="1"
   inkscape:current-layer="g14" />
<g
   id="g14"
   transform="translate(-5,-5.041)">
	<path
   d="m 29.219,60.303 c -4.446,0 -6.583,-3.418 -5.467,-7.372 2.304,-8.195 17.109,-20.339 27.198,-20.339 7.357,0 6.797,6.583 2.484,12.198 L 51.05,47.429 C 42.499,55.82 34.572,60.303 29.219,60.303 M 65.279,5.041 C 52.403,5.046 38.224,12.923 29.319,20.383 l 0.703,1.019 C 43.844,11.713 63.023,5.413 68.31,14.863 71.102,19.848 66.363,29.916 59.689,37.873 61.285,34.359 60.231,27.612 50.925,27.612 35.455,27.612 5,48.105 5,69.078 c 0,8.401 5.828,13.882 15.428,13.882 25.696,0 60.544,-42.12 60.544,-63.275 0,-7.473 -4.299,-14.644 -15.693,-14.644"
   id="path2"
   inkscape:connector-curvature="0"
   style="fill:currentColor" />





</g>
</svg>
