<?xml version="1.0" encoding="UTF-8" standalone="no"?>
<svg
   xmlns:dc="http://purl.org/dc/elements/1.1/"
   xmlns:cc="http://creativecommons.org/ns#"
   xmlns:rdf="http://www.w3.org/1999/02/22-rdf-syntax-ns#"
   xmlns:svg="http://www.w3.org/2000/svg"
   xmlns="http://www.w3.org/2000/svg"
   xmlns:sodipodi="http://sodipodi.sourceforge.net/DTD/sodipodi-0.dtd"
   xmlns:inkscape="http://www.inkscape.org/namespaces/inkscape"
   sodipodi:docname="blk.svg"
   inkscape:version="1.0rc1 (09960d6, 2020-04-09)"
   id="svg8"
   version="1.1"
   viewBox="0 0 48.318966 12.88575"
   height="12.88575mm"
   width="48.318966mm">
  <defs
     id="defs2" />
  <sodipodi:namedview
     inkscape:window-maximized="1"
     inkscape:window-y="0"
     inkscape:window-x="0"
     inkscape:window-height="720"
     inkscape:window-width="1200"
     fit-margin-bottom="0"
     fit-margin-right="0"
     fit-margin-left="0"
     fit-margin-top="0"
     showgrid="false"
     inkscape:document-rotation="0"
     inkscape:current-layer="layer1"
     inkscape:document-units="mm"
     inkscape:cy="-73.818519"
     inkscape:cx="115.56746"
     inkscape:zoom="1.5197434"
     inkscape:pageshadow="2"
     inkscape:pageopacity="0.0"
     borderopacity="1.0"
     bordercolor="#666666"
     pagecolor="#ffffff"
     id="base" />
  <metadata
     id="metadata5">
    <rdf:RDF>
      <cc:Work
         rdf:about="">
        <dc:format>image/svg+xml</dc:format>
        <dc:type
           rdf:resource="http://purl.org/dc/dcmitype/StillImage" />
        <dc:title></dc:title>
      </cc:Work>
    </rdf:RDF>
  </metadata>
  <g
     transform="translate(-65.422625,-151.72487)"
     id="layer1"
     inkscape:groupmode="layer"
     inkscape:label="Layer 1">
    <path
       inkscape:connector-curvature="0"
       id="path103"
       d="m 65.422625,158.26043 v -6.35 h 7.15689 c 7.969969,0 8.450809,0.0894 9.121961,1.69568 0.573716,1.37309 0.147685,2.47103 -1.301778,3.35484 l -0.765635,0.46685 0.910281,0.38034 c 3.004115,1.2552 3.093741,4.94753 0.152503,6.2827 -1.012942,0.45982 -1.7899,0.50852 -8.196618,0.51378 l -7.077604,0.006 z m 12.640788,2.86379 c 0.227257,-0.22725 0.232792,-0.40568 0.02052,-0.66145 -0.21813,-0.26283 -1.306232,-0.35026 -4.359331,-0.35026 h -4.068644 v 0.66146 0.66146 h 4.048125 c 2.750269,0 4.147899,-0.0998 4.35933,-0.31121 z m 0,-5.02708 c 0.227257,-0.22725 0.232792,-0.40568 0.02052,-0.66146 -0.21813,-0.26283 -1.306232,-0.35025 -4.359331,-0.35025 h -4.068644 v 0.66146 0.66146 h 4.048125 c 2.750269,0 4.147899,-0.0998 4.35933,-0.31121 z m 7.732129,8.21281 c -0.509323,-0.13902 -1.193932,-0.55164 -1.521354,-0.91694 -0.576983,-0.64372 -0.595313,-0.83358 -0.595313,-6.16615 v -5.50199 l 1.375402,0.21743 c 0.919607,0.14537 1.599129,0.4409 2.050521,0.89181 0.656974,0.65626 0.677397,0.78447 0.759889,4.77014 l 0.08477,4.09576 h 4.346999 c 4.065841,0 4.347001,0.0319 4.347001,0.49349 0,0.8012 -1.009264,1.84922 -2.062557,2.14176 -1.212771,0.33682 -7.525205,0.31864 -8.78536,-0.0253 z m 11.641667,-6.04952 v -6.35 h 2.116666 2.116665 v 5.55625 c 0,5.14132 -0.0382,5.59448 -0.51198,6.06824 -0.53325,0.53324 -2.099842,1.07149 -3.126039,1.07403 l -0.595312,0.001 z m 11.588881,5.97728 c -0.53836,-0.19222 -2.3106,-1.52644 -3.93833,-2.96495 l -2.9595,-2.61546 2.29779,-0.0766 2.2978,-0.0766 3.4341,2.82623 c 1.88875,1.55442 3.49722,2.92836 3.57438,3.0532 0.22238,0.35982 -3.6239,0.2407 -4.70624,-0.14575 z m -4.28847,-9.52095 2.62146,-2.74992 2.3688,-0.0282 2.3688,-0.0282 -1.04282,1.12448 c -0.57354,0.61846 -1.75513,1.86862 -2.62574,2.77812 l -1.58292,1.65365 h -2.36452 -2.36452 z"
       style="fill:currentColor;stroke-width:0.264583" />
  </g>
</svg>
