<?xml version="1.0" encoding="UTF-8" standalone="no"?>
<!-- Generator: Adobe Illustrator 13.0.1, SVG Export Plug-In  -->

<svg
   xmlns:dc="http://purl.org/dc/elements/1.1/"
   xmlns:cc="http://creativecommons.org/ns#"
   xmlns:rdf="http://www.w3.org/1999/02/22-rdf-syntax-ns#"
   xmlns:svg="http://www.w3.org/2000/svg"
   xmlns="http://www.w3.org/2000/svg"
   xmlns:sodipodi="http://sodipodi.sourceforge.net/DTD/sodipodi-0.dtd"
   xmlns:inkscape="http://www.inkscape.org/namespaces/inkscape"
   version="1.1"
   x="0px"
   y="0px"
   width="402.40701"
   height="137.144"
   viewBox="-4.998 -4.998 402.40701 137.144"
   enable-background="new -4.998 -4.998 501 259"
   xml:space="preserve"
   id="svg50"
   sodipodi:docname="capelli.svg"
   inkscape:version="0.92.4 5da689c313, 2019-01-14"><metadata
   id="metadata54"><rdf:RDF><cc:Work
       rdf:about=""><dc:format>image/svg+xml</dc:format><dc:type
         rdf:resource="http://purl.org/dc/dcmitype/StillImage" /><dc:title></dc:title></cc:Work></rdf:RDF></metadata><sodipodi:namedview
   pagecolor="#ffffff"
   bordercolor="#666666"
   borderopacity="1"
   objecttolerance="10"
   gridtolerance="10"
   guidetolerance="10"
   inkscape:pageopacity="0"
   inkscape:pageshadow="2"
   inkscape:window-width="2400"
   inkscape:window-height="1424"
   id="namedview52"
   showgrid="false"
   fit-margin-top="0"
   fit-margin-left="0"
   fit-margin-right="0"
   fit-margin-bottom="0"
   inkscape:zoom="1.8223938"
   inkscape:cx="81.835216"
   inkscape:cy="-37.635818"
   inkscape:window-x="0"
   inkscape:window-y="88"
   inkscape:window-maximized="1"
   inkscape:current-layer="svg50" />
<defs
   id="defs2">
</defs>



<path
   d="m 214.319,113.855 -20.083,-0.068 c -1.641,0 -3.003,-1.338 -3.003,-2.983 0,-1.655 1.362,-2.998 3.003,-2.998 l 27.339,-0.024 v -6.973 h -27.339 c -5.508,0 -9.976,4.497 -9.976,9.995 0,5.493 4.468,9.98 9.976,9.98 h 19.331 c 1.196,0 2.158,0.967 2.158,2.153 0,1.201 -0.962,2.173 -2.158,2.173 l -29.297,0.073 v 6.963 l 29.297,-0.078 c 5.044,0 9.116,-4.102 9.116,-9.131 0,-4.77 -3.686,-8.696 -8.364,-9.082 z"
   id="path10"
   style="fill:currentColor"
   inkscape:connector-curvature="0" />
<path
   d="m 300.081,100.813 -18.447,0.054 c -5.508,0 -10,4.473 -10,9.961 v 11.265 c 0,5.508 4.492,9.976 10,9.976 l 18.447,-0.049 c 5.518,0 9.99,-4.482 9.99,-9.976 v -11.26 c 0,-5.493 -4.473,-9.971 -9.99,-9.971 z m 2.988,21.231 c 0,1.66 -1.318,3.003 -2.988,3.003 l -18.447,0.039 c -1.65,0 -3.003,-1.343 -3.003,-2.993 v -11.265 c 0,-1.646 1.353,-2.983 3.013,-2.983 l 18.438,-0.049 c 1.67,0 2.988,1.348 2.988,2.988 v 11.26 z"
   id="path12"
   style="fill:currentColor"
   inkscape:connector-curvature="0" />
<path
   d="m 256.897,100.813 h -28.423 v 6.963 l 28.423,0.024 c 1.646,0 2.983,1.353 2.983,3.003 0,1.641 -1.338,2.983 -2.983,2.983 l -24.995,0.034 c -1.909,0.005 -3.472,1.567 -3.472,3.477 v 14.756 h 6.978 v -11.274 h 21.489 c 5.488,0 9.976,-4.478 9.976,-9.976 0,-5.498 -4.488,-9.99 -9.976,-9.99 z"
   id="path14"
   style="fill:currentColor"
   inkscape:connector-curvature="0" />
<polygon
   points="423.853,155.972 430.825,155.972 430.825,131.792 446.543,131.792 446.543,124.829 408.159,124.829 408.159,131.792 423.853,131.792 "
   id="polygon16"
   style="fill:currentColor"
   transform="translate(-50.105,-24.016)" />
<path
   d="m 344.319,100.813 h -28.452 v 6.963 l 28.452,0.024 c 1.641,0 2.998,1.353 2.998,3.003 0,1.646 -1.357,2.983 -2.998,2.983 l -24.985,0.034 c -1.904,0.005 -3.467,1.563 -3.472,3.477 v 14.658 h 6.953 v -11.167 h 21.543 c 1.655,0 2.998,1.328 2.998,3.101 v 8.066 h 6.953 v -8.164 c 0,-2.407 -0.854,-4.697 -2.417,-6.494 1.563,-1.821 2.417,-4.102 2.417,-6.494 0,-5.503 -4.487,-9.99 -9.99,-9.99 z"
   id="path18"
   style="fill:currentColor"
   inkscape:connector-curvature="0" />
<path
   d="m 259.441,92.556 h 33.457 v -16.66 h -33.457 c -6.802,0 -11.602,-3.057 -11.602,-9.023 h 45.234 v -7.666 c 0,-16.855 -5.229,-33.687 -33.486,-33.687 -28.574,0 -35.259,16.831 -35.259,33.687 0.001,17.036 6.534,33.349 35.113,33.349 z m 0.146,-50.708 c 7.354,0 11.519,2.222 12.012,10.205 h -23.76 c 0.684,-8.134 4.639,-10.205 11.748,-10.205 z"
   id="path20"
   style="fill:currentColor"
   inkscape:connector-curvature="0" />
<rect
   x="303.71298"
   y="-3.7329991"
   width="23.657"
   height="96.289001"
   id="rect22"
   style="fill:currentColor" />
<rect
   x="338.54199"
   y="-3.7329991"
   width="23.687"
   height="96.289001"
   id="rect24"
   style="fill:currentColor" />
<rect
   x="373.24899"
   y="26.979998"
   width="23.003"
   height="65.575996"
   id="rect26"
   style="fill:currentColor" />
<path
   d="m 384.841,20.198 c 8.999,0 12.568,-3.584 12.568,-12.759 0,-9.546 -3.901,-12.437 -12.759,-12.437 -8.32,0 -12.427,3.047 -12.427,12.437 10e-4,9.175 4.108,12.759 12.618,12.759 z"
   id="path28"
   style="fill:currentColor"
   inkscape:connector-curvature="0" />
<path
   d="m 217.419,59.338 c 0,-18.54 -7.192,-34.048 -36.543,-34.048 -29.365,0 -35.513,20.854 -35.513,34.546 v 61.148 h 22.583 V 61.375 c 0,-1.104 0.015,-4.761 0.073,-5.791 0.356,-7.085 2.412,-12.69 13.34,-12.69 11.812,0 13.169,6.436 13.34,11.904 0.02,0.693 0.02,3.901 0.02,4.541 0,9.648 -0.093,16.758 -13.081,16.758 h -7.744 v 16.646 h 8.638 c 30.556,-10e-4 34.887,-15.133 34.887,-33.405 z"
   id="path30"
   style="fill:currentColor"
   inkscape:connector-curvature="0" />
<path
   d="m -4.998,58.425 v 0.327 c 0,17.065 5.444,33.359 34.033,33.359 H 57.414 V 71.878 H 29.036 c -7.646,0 -10.732,-1.875 -10.732,-13.125 v -0.327 c 0,-11.206 3.481,-12.681 11.152,-12.681 H 57.815 V 25.476 H 29.456 c -28.589,0 -34.454,15.923 -34.454,32.949 z"
   id="path32"
   style="fill:currentColor"
   inkscape:connector-curvature="0" />
<path
   d="M 102.097,25.52 H 75.466 V 42.2 h 22.808 c 4.868,0 18.843,-0.82 18.384,8.96 l -30.2,0.034 c -11.382,0 -20.645,9.248 -20.645,20.649 0,11.377 9.263,20.654 20.645,20.654 l 50.615,-0.039 c 0,0 0.137,-24.844 0.137,-33.579 -0.001,-17.05 -6.544,-33.359 -35.113,-33.359 z m 14.468,50.474 -24.258,0.034 c -2.788,0 -5.073,-2.29 -5.073,-5.078 0,-2.803 2.285,-5.083 5.073,-5.083 l 24.258,0.01 z"
   id="path34"
   style="fill:currentColor"
   inkscape:connector-curvature="0" />







</svg>
