<?xml version="1.0" encoding="utf-8"?>
<!-- Generator: Adobe Illustrator 16.0.0, SVG Export Plug-In . SVG Version: 6.00 Build 0)  -->
<!DOCTYPE svg PUBLIC "-//W3C//DTD SVG 1.1//EN" "http://www.w3.org/Graphics/SVG/1.1/DTD/svg11.dtd">
<svg version="1.1" id="Layer_1" xmlns="http://www.w3.org/2000/svg" xmlns:xlink="http://www.w3.org/1999/xlink" x="0px" y="0px"
	 width="193.726px" height="160px" viewBox="90.594 0 193.726 160" enable-background="new 90.594 0 193.726 160"
	 xml:space="preserve">
<path fill="currentColor" d="M221.613,103.936c-2.069-1.812-4.743-4.227-7.418-6.642c-0.604,0.948-1.811,1.812-3.623,2.501
	c-1.553,0.604-3.535,1.035-5.434,1.294l-2.07,0.259c-0.086,0.172-0.172,0.346-0.345,0.519
	C211.693,106.264,223.77,105.833,221.613,103.936"/>
<path fill="currentColor" d="M241.711,94.533c-2.849-1.379-8.799-4.141-15.009-7.072c-0.519,1.639-2.501,3.191-5.778,4.658
	c-1.381,0.604-3.709,1.466-6.47,1.896c0.345,0.689,0.431,1.553,0.173,2.33c-0.086,0.172-0.173,0.43-0.259,0.604
	C228.772,106.092,244.901,96.086,241.711,94.533"/>
<path fill="currentColor" d="M280.093,8.798c-3.277,1.812-7.073,2.415-9.573,2.674c-5.435,0.604-10.695,2.76-15.699,5.865l-0.604,2.933
	c-0.259,1.294-1.035,4.312-3.191,7.763c0.086,0,0.174,0,0.26,0c1.208,0,2.156,0.604,2.674,1.639
	c19.234-8.712,27.257-17.596,29.499-23.375C282.508,7.245,281.387,8.108,280.093,8.798"/>
<path fill="currentColor" d="M280.697,18.286c-1.812,0.776-12.594,5.434-26.651,11.472c0.172,0.345,0.258,0.69,0.345,1.035
	c0.345,2.329-1.553,7.159-4.312,11.385c-0.689,1.035-1.553,2.243-2.588,3.364c0.174,0,0.346,0,0.519,0
	c1.38,0,2.587,0.862,3.019,2.156C284.406,39.332,284.061,16.819,280.697,18.286"/>
<path fill="currentColor" d="M258.271,80.906c-3.709-0.777-11.816-2.502-21.563-4.572v0.086c-0.172,1.725-1.64,2.846-2.674,3.537
	c-1.035,0.689-2.501,1.38-4.054,2.07c-1.122,0.431-2.848,1.035-4.917,1.553c1.38,0.689,2.069,2.156,1.812,3.622
	C243.867,92.032,262.066,81.682,258.271,80.906"/>
<path fill="currentColor" d="M278.799,41.919c-4.571,0.949-15.094,3.191-27.773,5.865c0.086,0.259,0.174,0.604,0.174,0.949
	c0.086,3.105-3.883,7.504-6.298,9.66c-0.517,0.518-1.12,0.949-1.812,1.466c0.432,0.172,0.777,0.345,1.121,0.604
	c0.518,0.518,0.863,1.122,0.949,1.812C274.142,59.773,282.681,41.057,278.799,41.919"/>
<path fill="currentColor" d="M271.468,62.103c-5.003,0.086-15.526,0.259-26.308,0.345c0,0.086,0,0.173,0,0.345
	c0,0.862-0.26,2.07-2.328,4.312c-1.208,1.294-2.935,2.674-4.658,3.881c-0.862,0.604-2.07,1.38-3.536,2.07
	c1.466,0.604,2.069,1.897,2.069,3.105C265.172,79.871,275.436,62.103,271.468,62.103"/>
<path fill="currentColor" d="M216.18,64.69c5.951-13.369,13.714-25.876,21.822-35.191c4.916-5.606,9.918-10.091,15.008-13.369
	c5.692-3.709,11.471-5.952,17.164-6.555c8.539-1.035,13.197-4.14,14.146-9.488c-3.019,2.501-7.849,3.967-14.49,4.571
	c-16.388,1.466-31.913,18.717-46.921,35.45c-12.336,13.628-23.979,38.124-35.45,41.402c-11.473-3.364-23.116-27.774-35.45-41.402
	C137,23.289,121.474,6.038,105.086,4.571C98.443,3.968,93.613,2.501,90.594,0c0.949,5.348,5.606,8.453,14.146,9.488
	c5.692,0.69,11.472,2.846,17.164,6.555c5.09,3.278,10.093,7.849,15.009,13.37c8.193,9.401,15.957,21.908,21.907,35.277
	c2.675,6.038,4.83,11.903,6.814,17.166c3.019,8.107,5.606,15.095,8.97,20.011c1.812,2.588,3.709,4.485,5.952,5.778
	c1.984,1.207,4.228,1.812,6.643,1.812c0.172,0,0.259,0,0.431,0s0.259,0,0.431,0c2.415,0,4.658-0.604,6.643-1.812
	c2.155-1.207,4.14-3.104,5.951-5.778c3.363-4.916,5.951-11.902,8.971-20.011C211.35,76.593,213.506,70.642,216.18,64.69"/>
<path fill="currentColor" d="M204.88,98.242c4.14-0.518,7.936-2.156,6.899-3.104c-1.294-1.209-2.674-2.33-3.882-3.451
	C206.863,94.016,205.915,96.172,204.88,98.242"/>
<path fill="currentColor" d="M223.855,86.081c-2.242-1.035-4.483-2.157-6.641-3.104c-0.519,1.726-2.33,3.019-5.607,3.881l-1.982,0.519
	c-0.519,1.207-0.948,2.501-1.38,3.622C215.145,93.154,225.84,87.029,223.855,86.081"/>
<path fill="currentColor" d="M243.867,26.307l-1.296,5.089c-0.258,1.121-0.86,2.329-1.639,3.45c7.073-4.917,9.747-11.558,10.523-15.008
	C248.783,21.649,246.281,23.892,243.867,26.307"/>
<path fill="currentColor" d="M251.284,30.965c-1.208,0.518-5.435,2.329-11.126,4.83c-0.347,0.432-0.777,0.949-1.296,1.38
	c0.175,0.949,0,1.984-0.604,3.536c-0.518,1.208-1.207,2.588-2.156,3.968c-0.774,1.208-1.896,2.674-3.363,4.227
	c1.035,0.259,1.897,1.035,2.242,2.07C248.438,46.146,252.664,30.361,251.284,30.965"/>
<path fill="currentColor" d="M241.969,62.534c-3.363,0.086-7.676,0.086-11.558,0.172l0,0c0.173,2.588-3.02,5.521-4.055,6.297
	c-0.775,0.69-1.812,1.466-3.104,2.156c0.432,0.518,0.688,1.208,0.688,1.897C234.811,72.625,244.125,62.534,241.969,62.534"/>
<path fill="currentColor" d="M247.834,48.388c-2.156,0.431-6.986,1.38-12.767,2.587c0,0.173,0.086,0.345,0.086,0.518
	c0.261,2.156-1.725,5.089-3.621,7.073c-0.604,0.604-1.295,1.294-2.243,1.984c0.604,0.431,0.948,1.121,1.122,1.897
	C242.832,60.464,250.422,47.871,247.834,48.388"/>
<path fill="currentColor" d="M233.258,75.558c-2.847-0.604-6.125-1.294-9.229-1.984c-0.173,1.466-1.38,2.933-3.535,4.399
	c-1.121,0.862-2.502,1.552-3.795,2.07c0.258,0.432,0.431,0.863,0.518,1.294C226.702,81.854,236.362,76.248,233.258,75.558"/>
<path fill="currentColor" d="M211.35,82.545c-0.173,0.432-0.346,0.862-0.432,1.293c0,0.086-0.086,0.173-0.086,0.26
	c2.846-0.777,4.483-1.983,3.19-2.588c-0.604-0.26-1.295-0.604-1.897-0.863C211.78,81.164,211.607,81.854,211.35,82.545"/>
<path fill="currentColor" d="M215.402,71.849c-0.431,1.121-0.86,2.156-1.293,3.277l0,0c-0.432,1.035-0.775,2.07-1.207,3.105l0,0
	c5.435-1.035,9.057-5.003,8.021-5.262C219.284,72.625,217.387,72.194,215.402,71.849C215.402,71.763,215.402,71.849,215.402,71.849"
	/>
<path fill="currentColor" d="M218.681,64.172L218.681,64.172c-0.173,0.518-0.431,0.949-0.604,1.38c-0.173,0.431-0.345,0.862-0.519,1.208
	c-0.086,0.086-0.086,0.172-0.172,0.345c-0.172,0.345-0.259,0.604-0.432,0.949c0,0.086-0.086,0.173-0.086,0.259
	c-0.173,0.345-0.26,0.69-0.433,1.035c0,0.086-0.086,0.086-0.086,0.172c-0.172,0.432-0.345,0.776-0.518,1.208
	c8.453-1.208,12.766-8.021,11.473-8.021c-2.416,0-5.176,0.086-8.108,0.086C219.111,63.31,218.854,63.741,218.681,64.172"/>
<path fill="currentColor" d="M224.115,53.305c-0.175,0.345-0.433,0.69-0.604,1.035c0,0,0,0,0,0.086c-0.173,0.345-0.345,0.69-0.518,1.035
	v0.086c-0.174,0.345-0.346,0.69-0.519,1.035v0.086c-0.173,0.345-0.345,0.69-0.518,1.035v0.086c-0.173,0.345-0.346,0.69-0.518,1.035
	c0,0,0,0,0,0.086c-0.174,0.345-0.346,0.69-0.518,1.035l0,0c-0.174,0.345-0.346,0.69-0.519,1.035l0,0
	c-0.174,0.345-0.346,0.69-0.518,1.122c10.35-2.588,13.714-10.782,12.42-10.523C229.894,52.097,227.22,52.701,224.115,53.305
	L224.115,53.305"/>
<path fill="currentColor" d="M226.185,49.768L226.185,49.768c-0.345,0.518-0.604,1.122-0.948,1.639
	c8.798-5.521,11.73-14.232,10.695-13.801c-0.689,0.259-1.553,0.69-2.502,1.121C230.756,42.264,228.428,45.973,226.185,49.768"/>
<path fill="currentColor" d="M239.727,30.62c-1.812,2.07-3.537,4.14-5.176,6.383C237.828,34.587,239.295,32.431,239.727,30.62"/>
<path fill="currentColor" d="M169.688,101.003c-1.896-0.259-3.795-0.69-5.434-1.294c-1.812-0.689-3.02-1.467-3.623-2.502
	c-2.674,2.416-5.348,4.744-7.417,6.643c-2.156,1.896,10.005,2.414,18.803-2.07c-0.086-0.172-0.172-0.346-0.345-0.518
	L169.688,101.003z"/>
<path fill="currentColor" d="M160.287,96.432c-0.26-0.777-0.172-1.639,0.172-2.328c-2.76-0.432-5.089-1.295-6.469-1.897
	c-3.278-1.468-5.263-3.021-5.779-4.658c-6.21,2.935-12.162,5.779-15.008,7.073c-3.191,1.466,12.938,11.559,27.342,2.415
	C160.459,96.775,160.374,96.604,160.287,96.432"/>
<path fill="currentColor" d="M120.179,17.423c-5.002-3.191-10.264-5.262-15.698-5.865c-2.587-0.259-6.296-0.863-9.573-2.674
	c-1.295-0.69-2.416-1.553-3.364-2.588c2.243,5.779,10.264,14.663,29.413,23.461c0.518-1.035,1.466-1.639,2.674-1.639
	c0.086,0,0.172,0,0.259,0c-2.07-3.45-2.933-6.469-3.19-7.763L120.179,17.423z"/>
<path fill="currentColor" d="M123.975,47.698c0.432-1.294,1.639-2.156,3.02-2.156c0.173,0,0.345,0,0.518,0
	c-1.035-1.122-1.812-2.329-2.587-3.364c-2.76-4.226-4.572-9.057-4.313-11.385c0.087-0.345,0.174-0.69,0.346-1.035
	C106.897,23.72,96.03,18.976,94.305,18.286C90.853,16.819,90.594,39.332,123.975,47.698"/>
<path fill="currentColor" d="M148.125,87.115c-0.346-1.467,0.431-2.932,1.811-3.622c-2.069-0.519-3.795-1.035-4.917-1.552
	c-1.552-0.604-2.933-1.295-4.054-2.071c-1.035-0.69-2.501-1.812-2.674-3.537v-0.086c-9.747,2.07-17.941,3.795-21.563,4.571
	C112.934,81.682,131.133,92.032,148.125,87.115"/>
<path fill="currentColor" d="M130.875,60.464c0.345-0.259,0.689-0.518,1.122-0.604c-0.69-0.518-1.294-1.035-1.812-1.466
	c-2.415-2.156-6.469-6.642-6.296-9.66c0-0.345,0.086-0.604,0.172-0.949c-12.766-2.674-23.288-4.916-27.859-5.865
	c-3.882-0.776,4.657,17.854,33.639,20.442C129.926,61.585,130.271,60.981,130.875,60.464"/>
<path fill="currentColor" d="M138.292,76.076c0-1.208,0.604-2.501,2.069-3.105c-1.466-0.69-2.674-1.466-3.535-2.07
	c-1.726-1.208-3.364-2.588-4.658-3.881c-2.07-2.157-2.329-3.45-2.329-4.313c0-0.086,0-0.172,0-0.345
	c-10.782,0-21.305-0.173-26.308-0.259C99.564,62.103,109.829,79.871,138.292,76.076"/>
<path fill="currentColor" d="M170.034,98.242c-1.035-1.983-1.984-4.227-2.934-6.555c-1.294,1.121-2.587,2.242-3.968,3.449
	C162.099,96,165.894,97.725,170.034,98.242"/>
<path fill="currentColor" d="M163.479,86.771c-3.277-0.863-5.089-2.156-5.605-3.883c-2.156,1.034-4.399,2.069-6.643,3.104
	c-2.069,0.948,8.625,7.073,15.698,4.917c-0.432-1.208-0.949-2.415-1.38-3.622L163.479,86.771z"/>
<path fill="currentColor" d="M131.133,26.307c-2.415-2.415-5.002-4.658-7.59-6.555c0.689,3.537,3.45,10.178,10.522,15.008
	c-0.775-1.122-1.293-2.243-1.639-3.45L131.133,26.307z"/>
<path fill="currentColor" d="M123.716,30.965c-1.38-0.604,2.846,15.181,16.215,19.925c0.345-1.035,1.208-1.812,2.243-2.07
	c-1.466-1.553-2.587-3.019-3.364-4.227c-0.863-1.38-1.639-2.76-2.156-3.967c-0.604-1.553-0.775-2.588-0.604-3.537
	c-0.431-0.431-0.862-0.949-1.294-1.38C129.149,33.294,124.923,31.482,123.716,30.965"/>
<path fill="currentColor" d="M150.972,73.057c0-0.69,0.259-1.38,0.69-1.897c-1.293-0.69-2.329-1.466-3.105-2.156
	c-0.949-0.863-4.227-3.709-4.054-6.297l0,0c-3.882-0.086-8.194-0.086-11.559-0.172C130.789,62.534,140.19,72.625,150.972,73.057"/>
<path fill="currentColor" d="M139.931,50.976c-5.779-1.208-10.609-2.156-12.765-2.587c-2.588-0.518,5.002,12.076,17.423,14.059
	c0.086-0.776,0.518-1.466,1.122-1.897c-0.863-0.69-1.64-1.38-2.243-1.984c-1.897-1.984-3.881-4.917-3.623-7.073
	C139.845,51.321,139.845,51.148,139.931,50.976"/>
<path fill="currentColor" d="M157.7,81.424c0.086-0.432,0.258-0.949,0.517-1.294c-1.38-0.518-2.674-1.208-3.795-2.07
	c-2.156-1.552-3.278-3.019-3.537-4.399c-3.105,0.69-6.382,1.38-9.229,1.984C138.638,76.248,148.298,81.854,157.7,81.424"/>
<path fill="currentColor" d="M163.651,82.545c-0.259-0.604-0.518-1.295-0.689-1.984c-0.69,0.347-1.294,0.604-1.897,0.863
	c-1.294,0.604,0.346,1.811,3.191,2.587c0-0.087-0.086-0.173-0.086-0.259C163.91,83.32,163.823,82.891,163.651,82.545"/>
<path fill="currentColor" d="M160.805,75.041L160.805,75.041c-0.431-1.122-0.863-2.156-1.294-3.278l0,0
	c-1.984,0.431-3.881,0.776-5.606,1.208c-1.034,0.259,2.675,4.227,8.021,5.262l0,0C161.667,77.197,161.236,76.162,160.805,75.041"/>
<path fill="currentColor" d="M158.562,69.348c-0.172-0.345-0.259-0.69-0.431-1.035c0-0.086-0.086-0.172-0.086-0.259
	c-0.172-0.345-0.259-0.604-0.432-0.949c-0.086-0.086-0.086-0.172-0.172-0.345c-0.173-0.431-0.345-0.863-0.518-1.208
	c-0.173-0.432-0.345-0.863-0.604-1.294l0,0c-0.172-0.431-0.431-0.862-0.604-1.294c-2.933,0-5.693-0.086-8.108-0.086
	c-1.208,0,3.105,6.728,11.473,8.021c-0.172-0.432-0.346-0.776-0.519-1.208C158.562,69.434,158.562,69.434,158.562,69.348"/>
<path fill="currentColor" d="M154.853,61.067c-0.172-0.345-0.345-0.69-0.518-1.035c0,0,0,0,0-0.086c-0.172-0.345-0.345-0.69-0.519-1.035
	c0,0,0,0,0-0.086c-0.172-0.345-0.345-0.69-0.517-1.035v-0.086c-0.173-0.345-0.345-0.69-0.518-1.035v-0.086
	c-0.174-0.345-0.346-0.69-0.519-1.035v-0.086c-0.173-0.345-0.345-0.69-0.518-1.035c0,0,0,0,0-0.086
	c-0.172-0.345-0.346-0.69-0.604-1.035l0,0c-3.104-0.69-5.779-1.208-7.935-1.725c-1.294-0.259,2.069,7.935,12.42,10.523
	C155.198,61.757,155.025,61.413,154.853,61.067L154.853,61.067"/>
<path fill="currentColor" d="M141.656,38.728c-1.035-0.431-1.897-0.776-2.502-1.121c-1.12-0.431,1.898,8.28,10.696,13.801
	c-0.345-0.518-0.604-1.122-0.949-1.639C146.573,45.973,144.158,42.264,141.656,38.728"/>
<path fill="currentColor" d="M140.362,37.003c-1.639-2.243-3.363-4.399-5.175-6.383C135.705,32.431,137.171,34.587,140.362,37.003"/>
<path fill="currentColor" d="M103.188,160h-3.104c-1.466,0-2.587-0.432-3.45-1.207c-0.776-0.777-1.208-1.898-1.208-3.363v-8.885
	c0-1.467,0.432-2.588,1.208-3.363c0.776-0.777,1.984-1.209,3.45-1.209h3.019c1.466,0,2.587,0.432,3.364,1.209
	c0.777,0.775,1.208,1.896,1.208,3.363v1.293c0,0.432-0.172,0.604-0.604,0.604h-2.328c-0.432,0-0.604-0.172-0.604-0.604v-1.121
	c0-0.604-0.086-1.035-0.345-1.293c-0.259-0.26-0.69-0.346-1.294-0.346H100.6c-0.604,0-1.035,0.086-1.208,0.346
	c-0.259,0.258-0.345,0.689-0.345,1.293v8.539c0,0.604,0.086,1.035,0.345,1.294s0.69,0.345,1.208,0.345h1.897
	c0.604,0,1.035-0.086,1.294-0.345s0.345-0.69,0.345-1.294v-1.121c0-0.432,0.172-0.604,0.604-0.604h2.328
	c0.432,0,0.604,0.172,0.604,0.604v1.295c0,1.465-0.431,2.586-1.208,3.363C105.775,159.654,104.654,160,103.188,160"/>
<path fill="currentColor" d="M126.821,160h-2.674c-0.345,0-0.431-0.172-0.345-0.604l4.399-16.82c0.173-0.432,0.431-0.604,0.862-0.604
	h3.709c0.432,0,0.776,0.172,0.862,0.604l4.399,16.82c0.086,0.432,0,0.604-0.346,0.604h-2.674c-0.172,0-0.345,0-0.431-0.086
	s-0.172-0.26-0.172-0.432l-0.776-3.105h-5.434l-0.776,3.105c0,0.259-0.086,0.346-0.172,0.432C127.166,160,126.993,160,126.821,160
	 M130.875,145.424l-1.984,8.107h4.142l-1.984-8.107H130.875z"/>
<path fill="currentColor" d="M154.163,155.43v-0.519c0-0.431,0.172-0.604,0.604-0.604h2.416c0.431,0,0.604,0.174,0.604,0.604v0.259
	c0,0.689,0.172,1.207,0.431,1.467c0.259,0.258,0.776,0.432,1.553,0.432h1.294c0.69,0,1.208-0.174,1.553-0.432
	c0.259-0.26,0.432-0.777,0.432-1.553v-0.346c0-0.518-0.259-0.949-0.69-1.207c-0.431-0.26-0.948-0.432-1.639-0.518
	c-0.69-0.087-1.38-0.174-2.156-0.347c-0.775-0.172-1.466-0.345-2.155-0.604c-0.69-0.258-1.208-0.774-1.64-1.465
	c-0.431-0.777-0.689-1.727-0.689-2.848v-1.121c0-1.467,0.432-2.588,1.208-3.363c0.862-0.777,1.983-1.209,3.449-1.209h2.761
	c1.466,0,2.587,0.433,3.449,1.209c0.862,0.775,1.208,1.896,1.208,3.363v0.518c0,0.433-0.172,0.604-0.604,0.604h-2.415
	c-0.431,0-0.604-0.172-0.604-0.604v-0.172c0-0.69-0.173-1.209-0.432-1.467c-0.258-0.26-0.776-0.432-1.552-0.432h-0.949
	c-0.776,0-1.294,0.172-1.553,0.432c-0.259,0.258-0.432,0.862-0.432,1.725v0.519c0,0.863,0.776,1.381,2.329,1.554
	c1.554,0.172,3.02,0.432,4.228,0.948c0.689,0.259,1.208,0.774,1.639,1.466c0.433,0.69,0.69,1.639,0.69,2.762v0.947
	c0,1.467-0.432,2.588-1.208,3.364c-0.862,0.774-1.983,1.207-3.45,1.207h-3.02c-1.466,0-2.587-0.433-3.449-1.207
	C154.508,158.016,154.163,156.895,154.163,155.43"/>
<path fill="currentColor" d="M189.613,160h-2.328c-0.432,0-0.604-0.172-0.604-0.604v-14.061c0-0.173-0.086-0.345-0.345-0.345h-3.191
	c-0.431,0-0.604-0.173-0.604-0.604v-1.898c0-0.432,0.172-0.604,0.604-0.604h10.61c0.431,0,0.604,0.172,0.604,0.604v1.898
	c0,0.432-0.173,0.604-0.604,0.604h-3.191c-0.26,0-0.346,0.086-0.346,0.345v14.061C190.217,159.828,189.958,160,189.613,160"/>
<path fill="currentColor" d="M218.336,160h-3.105c-1.467,0-2.588-0.432-3.449-1.207c-0.776-0.777-1.208-1.898-1.208-3.363v-8.885
	c0-1.467,0.432-2.588,1.208-3.363c0.775-0.777,1.982-1.209,3.449-1.209h3.105c1.466,0,2.588,0.432,3.449,1.209
	c0.776,0.775,1.208,1.896,1.208,3.363v8.885c0,1.465-0.432,2.586-1.208,3.363C220.924,159.654,219.802,160,218.336,160
	 M215.748,156.98h1.983c0.604,0,1.035-0.086,1.293-0.344c0.26-0.261,0.347-0.691,0.347-1.296v-8.539
	c0-0.604-0.087-1.034-0.347-1.293c-0.258-0.26-0.688-0.346-1.293-0.346h-1.983c-0.604,0-1.035,0.086-1.294,0.346
	c-0.26,0.259-0.346,0.689-0.346,1.293v8.539c0,0.604,0.086,1.035,0.346,1.296C214.713,156.809,215.145,156.98,215.748,156.98"/>
<path fill="currentColor" d="M243.004,160h-2.328c-0.432,0-0.604-0.172-0.604-0.604v-16.82c0-0.432,0.174-0.604,0.604-0.604h6.641
	c1.468,0,2.588,0.432,3.45,1.207c0.862,0.776,1.208,1.897,1.208,3.364v2.156c0,2.069-0.863,3.536-2.502,4.227v0.087l3.021,6.209
	c0.172,0.432,0,0.69-0.519,0.69h-2.242c-0.346,0-0.604,0-0.689-0.086c-0.173-0.087-0.259-0.261-0.346-0.519l-2.761-6.037h-1.896
	c-0.26,0-0.347,0.086-0.347,0.345v5.778C243.607,159.828,243.436,160,243.004,160 M243.953,150.512h2.76
	c0.604,0,1.035-0.086,1.294-0.345s0.431-0.69,0.431-1.208v-2.156c0-0.604-0.172-1.035-0.431-1.293
	c-0.259-0.26-0.69-0.432-1.294-0.432h-2.76c-0.174,0-0.347,0.086-0.347,0.346v4.83C243.607,150.426,243.693,150.512,243.953,150.512
	"/>
<path fill="currentColor" d="M279.145,160h-9.143c-0.433,0-0.604-0.172-0.604-0.604v-16.82c0-0.432,0.173-0.604,0.604-0.604h9.143
	c0.346,0,0.519,0.172,0.519,0.604v1.898c0,0.432-0.173,0.604-0.519,0.604h-5.865c-0.26,0-0.346,0.086-0.346,0.346v3.622
	c0,0.173,0.086,0.345,0.346,0.345h4.83c0.433,0,0.604,0.174,0.604,0.604v1.897c0,0.432-0.172,0.604-0.604,0.604h-4.83
	c-0.26,0-0.346,0.086-0.346,0.345v3.883c0,0.172,0.086,0.344,0.346,0.344h5.865c0.346,0,0.519,0.174,0.519,0.604v1.897
	C279.662,159.828,279.49,160,279.145,160"/>
</svg>
