<?xml version="1.0" encoding="UTF-8" standalone="no"?>
<!-- Generated by IcoMoon.io -->

<svg
   xmlns:dc="http://purl.org/dc/elements/1.1/"
   xmlns:cc="http://creativecommons.org/ns#"
   xmlns:rdf="http://www.w3.org/1999/02/22-rdf-syntax-ns#"
   xmlns:svg="http://www.w3.org/2000/svg"
   xmlns="http://www.w3.org/2000/svg"
   xmlns:sodipodi="http://sodipodi.sourceforge.net/DTD/sodipodi-0.dtd"
   xmlns:inkscape="http://www.inkscape.org/namespaces/inkscape"
   version="1.1"
   width="28.664"
   height="27.999001"
   viewBox="0 0 28.664 27.999001"
   id="svg8"
   sodipodi:docname="charly.svg"
   inkscape:version="0.92.4 5da689c313, 2019-01-14">
  <metadata
     id="metadata14">
    <rdf:RDF>
      <cc:Work
         rdf:about="">
        <dc:format>image/svg+xml</dc:format>
        <dc:type
           rdf:resource="http://purl.org/dc/dcmitype/StillImage" />
        <dc:title>Charly</dc:title>
      </cc:Work>
    </rdf:RDF>
  </metadata>
  <defs
     id="defs12" />
  <sodipodi:namedview
     pagecolor="#ffffff"
     bordercolor="#666666"
     borderopacity="1"
     objecttolerance="10"
     gridtolerance="10"
     guidetolerance="10"
     inkscape:pageopacity="0"
     inkscape:pageshadow="2"
     inkscape:window-width="2400"
     inkscape:window-height="1424"
     id="namedview10"
     showgrid="false"
     fit-margin-top="0"
     fit-margin-left="0"
     fit-margin-right="0"
     fit-margin-bottom="0"
     inkscape:zoom="4.4428571"
     inkscape:cx="22.550244"
     inkscape:cy="14"
     inkscape:window-x="0"
     inkscape:window-y="88"
     inkscape:window-maximized="1"
     inkscape:current-layer="svg8" />
  <title
     id="title2">Charly</title>
  <path
     d="M 28.664,4.908 V 4.124 C 28.664,1.829 26.834,0 24.54,0 H 12.923 C 10.658,0 8.799,1.859 8.799,4.124 v 0.494 c 0,2.527 -1.946,4.618 -4.385,4.851 L 4.124,9.498 C 1.859,9.498 0,11.357 0,13.622 v 0.784 c 0,2.295 1.83,4.124 4.124,4.124 h 0.348 c 2.44,0.261 4.327,2.324 4.327,4.822 v 0.523 c 0,2.266 1.83,4.124 4.124,4.124 H 24.54 c 2.265,0 4.124,-1.859 4.124,-4.124 v -0.784 c 0,-2.295 -1.83,-4.124 -4.124,-4.124 L 13.243,18.938 C 10.6,18.88 8.829,16.643 8.829,14.087 v -0.203 c 0,-2.527 1.946,-4.618 4.414,-4.851 L 24.54,9.004 c 2.265,0.029 4.124,-1.83 4.124,-4.095 z"
     id="path6"
     inkscape:connector-curvature="0"
     style="fill:currentColor" />
</svg>
