<?xml version="1.0" encoding="UTF-8" standalone="no"?>
<svg
   xmlns:dc="http://purl.org/dc/elements/1.1/"
   xmlns:cc="http://creativecommons.org/ns#"
   xmlns:rdf="http://www.w3.org/1999/02/22-rdf-syntax-ns#"
   xmlns:svg="http://www.w3.org/2000/svg"
   xmlns="http://www.w3.org/2000/svg"
   xmlns:sodipodi="http://sodipodi.sourceforge.net/DTD/sodipodi-0.dtd"
   xmlns:inkscape="http://www.inkscape.org/namespaces/inkscape"
   width="121.73738"
   height="41.855186"
   viewBox="0 0 121.73738 41.855186"
   version="1.1"
   id="svg21"
   sodipodi:docname="diadora.svg"
   inkscape:version="0.92.4 5da689c313, 2019-01-14">
  <metadata
     id="metadata27">
    <rdf:RDF>
      <cc:Work
         rdf:about="">
        <dc:format>image/svg+xml</dc:format>
        <dc:type
           rdf:resource="http://purl.org/dc/dcmitype/StillImage" />
        <dc:title>355FAD57-1D6D-4F6A-A1B6-E78145E64784</dc:title>
      </cc:Work>
    </rdf:RDF>
  </metadata>
  <defs
     id="defs25" />
  <sodipodi:namedview
     pagecolor="#ffffff"
     bordercolor="#666666"
     borderopacity="1"
     objecttolerance="10"
     gridtolerance="10"
     guidetolerance="10"
     inkscape:pageopacity="0"
     inkscape:pageshadow="2"
     inkscape:window-width="2400"
     inkscape:window-height="1424"
     id="namedview23"
     showgrid="false"
     fit-margin-top="0"
     fit-margin-left="0"
     fit-margin-right="0"
     fit-margin-bottom="0"
     inkscape:zoom="5.6190476"
     inkscape:cx="18.555215"
     inkscape:cy="8.7533937"
     inkscape:window-x="0"
     inkscape:window-y="88"
     inkscape:window-maximized="1"
     inkscape:current-layer="header-default-/-Desktop" />
  <!-- Generator: sketchtool 56.2 (101010) - https://sketch.com -->
  <title
     id="title2">355FAD57-1D6D-4F6A-A1B6-E78145E64784</title>
  <desc
     id="desc4">Created with sketchtool.</desc>
  <g
     id="Search"
     transform="translate(28.830639,9.6829973e-5)"
     style="fill:none;fill-rule:evenodd;stroke:none;stroke-width:1">
    <g
       id="header-default-/-Desktop"
       transform="translate(-96,-34)">
      <g
         id="layout/header-Desktop-HD"
         transform="translate(-268.83051)"
         style="fill:currentColor">
        <g
           id="asset/logo"
           transform="translate(336,34)">
          <path
             d="m 119.98097,25.712499 0.0151,-3.92 c 0.004,-0.47544 0.4007,-0.86856 0.87751,-0.86576 0.48352,0.0045 0.87022,0.39648 0.86359,0.88032 l -0.0185,19.18056 c -0.006,0.47712 -0.3951,0.87024 -0.87862,0.867455 -0.48352,0 -0.92955,-0.397615 -0.92955,-0.876975 l 0.0134,-3.94464 -0.11585,0.1232 c -1.88988,2.82408 -5.10665,4.66816 -8.74818,4.64968 -5.77597,-0.0308 -10.42932,-4.73592 -10.40368,-10.5168 0.0314,-5.7792 4.73964,-10.43616 10.51113,-10.406066 3.61019,0.01303 6.78275,1.861026 8.64689,4.655426 l 0.16677,0.1736"
             id="Fill-1"
             inkscape:connector-curvature="0" />
          <path
             d="m 83.118508,41.845704 c 5.708257,0.03176 10.35489,-4.575925 10.384134,-10.282324 0.02952,-5.7092 -4.569547,-10.3628 -10.275006,-10.392063 -5.705459,-0.02954 -10.35489,4.578143 -10.387447,10.280063 -0.02453,5.713679 4.577337,10.36448 10.278319,10.394324"
             id="Fill-3"
             inkscape:connector-curvature="0" />
          <path
             d="m 47.443019,25.712499 0.01567,-3.92 c 0.0073,-0.47544 0.397899,-0.86856 0.875266,-0.86576 0.482404,0.0045 0.86967,0.39648 0.865231,0.88032 l -0.01851,19.18056 c -0.0067,0.47712 -0.394542,0.87024 -0.876945,0.867455 -0.481844,0 -0.927872,-0.397615 -0.927872,-0.876975 l 0.0095,-3.94464 -0.114725,0.1232 c -1.88988,2.82408 -5.106651,4.66816 -8.748743,4.64968 -5.775413,-0.0308 -10.429321,-4.73592 -10.403684,-10.5168 0.02865,-5.7792 4.738519,-10.43616 10.507216,-10.406066 3.612991,0.01303 6.78611,1.861026 8.64689,4.655426 l 0.170688,0.1736"
             id="Fill-4"
             inkscape:connector-curvature="0" />
          <path
             d="m 25.231746,6.9570013 c 0.483523,0.00334 0.875266,-0.3847417 0.879743,-0.8674617 l -0.0084,-3.5117601 c 0,-0.48272 -0.386147,-0.87304 -0.870229,-0.87584 -0.476248,-0.00896 -0.865193,0.38584 -0.870789,0.86576 l 0.0039,3.5134401 c 0,0.48272 0.386147,0.87304 0.865753,0.8758617"
             id="Fill-5"
             inkscape:connector-curvature="0" />
          <path
             d="m 25.222231,41.854538 c 0.481844,0.0044 0.870789,-0.385879 0.870789,-0.871959 l -0.0039,-19.18168 c 0.0084,-0.47992 -0.380551,-0.86912 -0.864074,-0.87361 -0.483523,-0.0022 -0.876945,0.38753 -0.876945,0.86633 l 0.0045,19.18504 c 0,0.47936 0.386147,0.875879 0.86967,0.875879"
             id="Fill-6"
             inkscape:connector-curvature="0" />
          <path
             d="m 97.958292,31.376899 c 0.04309,-7.7084 6.320498,-13.8964 14.022168,-13.85384 0.48184,0 0.89879,-0.36736 0.89879,-0.8512 0.004,-0.48384 -0.41247,-0.891519 -0.88816,-0.896197 -6.09496,-0.03004 -11.407,3.406117 -14.032798,8.463477 l 0.0011,0.03696 0.01007,-2.478 c 0,-0.4844 -0.385587,-0.87752 -0.863514,-0.87752 -0.483522,0 -0.871348,0.38192 -0.871348,0.86576 l -0.0056,19.18392 c 0,0.48384 0.391743,0.87304 0.873587,0.875899 0.476807,0.0055 0.855679,-0.387579 0.855679,-0.866939 v -9.60232"
             id="Fill-7"
             inkscape:connector-curvature="0" />
          <path
             d="M 69.69291,25.7125 69.705781,0.86417954 C 69.705781,0.38593953 70.1048,-0.00718049 70.583846,0 c 0.482403,0 0.869669,0.39601953 0.863586,0.87705954 V 40.983141 c -0.0051,0.4816 -0.397412,0.87192 -0.880935,0.87192 h -0.08898 c -0.477926,-0.009 -0.865192,-0.3976 -0.865192,-0.87696 l 0.02294,-3.94464 -0.113046,0.12768 c -1.888762,2.8168 -5.110009,4.66368 -8.747624,4.6452 -5.777651,-0.0308 -10.43044,-4.7404 -10.405358,-10.51064 0.03032,-5.783121 4.735716,-10.446801 10.510009,-10.420481 3.610193,0.02128 6.783312,1.86928 8.644092,4.66368 l 0.169569,0.1736"
             id="Fill-8"
             inkscape:connector-curvature="0" />
          <path
             d="m 19.324818,25.7125 0.01007,-24.84832046 c 0,-0.47824001 0.399018,-0.87136003 0.876945,-0.86417954 0.483523,0 0.873587,0.39601953 0.86805,0.87705954 l -0.0029,40.10608146 c -0.0056,0.4816 -0.399018,0.87192 -0.881421,0.87192 h -0.08394 c -0.484083,-0.009 -0.864634,-0.3976 -0.864634,-0.87696 l 0.01735,-3.94464 -0.114725,0.12768 c -1.888202,2.8168 -5.103853,4.66368 -8.747623,4.6452 C 4.627736,41.775541 -0.02841077,37.065941 0,31.295701 0.0320296,25.51258 4.7385433,20.8489 10.507241,20.87522 c 3.610192,0.02128 6.788908,1.86928 8.648568,4.66368 l 0.169009,0.1736"
             id="Fill-9"
             inkscape:connector-curvature="0" />
          <path
             d="m 73.269529,2.8544195 1.019092,-0.8624 c 0.970403,0.37184 4.425577,1.75504 8.869623,2.1868 3.587248,0.34832 6.55722,-0.67032 8.964761,-2.47744 l 5.779331,3.4552 c -3.53912,2.62024 -7.442,2.99768 -8.548395,3.03464 2.66945,1.79704 6.550505,5.8363205 8.548395,9.0540805 H 90.131831 C 87.426565,11.26562 81.947758,5.2495395 73.269529,2.8544195"
             id="Fill-11"
             inkscape:connector-curvature="0" />
        </g>
      </g>
    </g>
  </g>
</svg>
