<?xml version="1.0" encoding="UTF-8" standalone="no"?>
<svg
   xmlns:dc="http://purl.org/dc/elements/1.1/"
   xmlns:cc="http://creativecommons.org/ns#"
   xmlns:rdf="http://www.w3.org/1999/02/22-rdf-syntax-ns#"
   xmlns:svg="http://www.w3.org/2000/svg"
   xmlns="http://www.w3.org/2000/svg"
   xmlns:sodipodi="http://sodipodi.sourceforge.net/DTD/sodipodi-0.dtd"
   xmlns:inkscape="http://www.inkscape.org/namespaces/inkscape"
   sodipodi:docname="esquadrao.svg"
   inkscape:version="1.0rc1 (09960d6, 2020-04-09)"
   id="svg8"
   version="1.1"
   viewBox="0 0 24.298185 20.111771"
   height="20.111771mm"
   width="24.298185mm">
  <defs
     id="defs2" />
  <sodipodi:namedview
     inkscape:window-maximized="1"
     inkscape:window-y="0"
     inkscape:window-x="0"
     inkscape:window-height="720"
     inkscape:window-width="1200"
     fit-margin-bottom="0"
     fit-margin-right="0"
     fit-margin-left="0"
     fit-margin-top="0"
     showgrid="false"
     inkscape:document-rotation="0"
     inkscape:current-layer="layer1"
     inkscape:document-units="mm"
     inkscape:cy="79.280719"
     inkscape:cx="74.199127"
     inkscape:zoom="1.9124339"
     inkscape:pageshadow="2"
     inkscape:pageopacity="0.0"
     borderopacity="1.0"
     bordercolor="#666666"
     pagecolor="#ffffff"
     id="base" />
  <metadata
     id="metadata5">
    <rdf:RDF>
      <cc:Work
         rdf:about="">
        <dc:format>image/svg+xml</dc:format>
        <dc:type
           rdf:resource="http://purl.org/dc/dcmitype/StillImage" />
        <dc:title></dc:title>
      </cc:Work>
    </rdf:RDF>
  </metadata>
  <g
     transform="translate(-92.360205,-133.06642)"
     id="layer1"
     inkscape:groupmode="layer"
     inkscape:label="Layer 1">
    <path
       sodipodi:nodetypes="ssssssscssscsscccsssssssssssssscsssssscsscssss"
       inkscape:connector-curvature="0"
       id="path58"
       d="m 94.949289,153.1545 c -0.07699,-0.13081 -0.24902,-0.89709 -0.382283,-1.70285 -0.237352,-1.43511 -0.209729,-1.48742 1.353411,-2.56289 2.113189,-1.45391 4.314883,-2.37218 6.780513,-2.82798 2.3667,-0.4375 2.39212,-0.45462 2.08959,-1.40781 -0.1475,-0.46471 -0.53227,-0.73214 -1.05339,-0.73214 -1.58252,0 -5.37618,1.41378 -7.531233,2.80666 l -2.175294,1.40596 -0.202646,-0.95979 c -0.111455,-0.52788 -0.271331,-1.30201 -0.355281,-1.7203 -0.274545,-1.36795 4.235251,-3.93386 8.329974,-4.73945 1.86392,-0.36671 2.12017,-0.51384 2.02735,-1.16406 -0.0669,-0.46824 -0.40904,-0.78721 -0.9226,-0.85999 -1.35966,-0.19269 -5.431169,1.24087 -7.713061,2.71573 l -2.150111,1.38968 -0.342012,-1.72974 -0.342011,-1.72973 1.801216,-1.19454 c 2.252906,-1.49408 3.826773,-2.15553 6.399989,-2.68973 2.23027,-0.463 2.59212,-0.27037 2.65562,1.41374 0.0183,0.48507 0.11332,0.68351 0.21119,0.44097 0.0979,-0.24253 0.46548,-0.44097 0.81693,-0.44097 1.35737,0 5.23605,-1.45027 7.42149,-2.77496 2.51096,-1.52201 2.74035,-1.44767 2.79203,0.90492 0.0193,0.8772 -0.23389,1.32589 -1.13661,2.01443 -1.70598,1.30121 -4.70591,2.5677 -7.23512,3.05447 -1.95248,0.37577 -2.20999,0.51837 -2.11667,1.17212 0.0947,0.66345 0.31172,0.73557 1.99775,0.66392 1.12519,-0.0478 2.68337,-0.44291 3.84608,-0.97521 1.07502,-0.49217 2.0091,-0.84032 2.07574,-0.77369 0.0666,0.0666 0.2227,0.86208 0.34683,1.76767 l 0.22568,1.64652 -1.54708,0.6776 c -0.85089,0.37269 -2.53927,0.87017 -3.75194,1.10553 -2.0053,0.38919 -2.20486,0.50806 -2.20486,1.31332 0,0.86347 0.0486,0.88039 1.96156,0.68295 2.07048,-0.21369 5.89442,-1.81616 7.7973,-3.26756 1.27541,-0.97281 1.35132,-0.92106 1.69485,1.15531 l 0.24621,1.48817 -2.16807,1.4013 c -2.18894,1.41478 -4.3408,2.26688 -6.83646,2.70713 -1.51239,0.2668 -1.97133,-0.10609 -1.98984,-1.61672 -0.006,-0.49713 -0.12389,-0.71174 -0.26998,-0.49185 -0.14255,0.21454 -0.88111,0.50454 -1.64125,0.64444 -2.18287,0.40174 -5.001946,1.56321 -6.908905,2.84649 -0.965035,0.64943 -1.817603,1.07374 -1.894596,0.94293 z"
       style="fill:currentColor;stroke-width:0.352778" />
  </g>
</svg>
