<?xml version="1.0" encoding="UTF-8" standalone="no"?>
<svg
   xmlns:dc="http://purl.org/dc/elements/1.1/"
   xmlns:cc="http://creativecommons.org/ns#"
   xmlns:rdf="http://www.w3.org/1999/02/22-rdf-syntax-ns#"
   xmlns:svg="http://www.w3.org/2000/svg"
   xmlns="http://www.w3.org/2000/svg"
   xmlns:sodipodi="http://sodipodi.sourceforge.net/DTD/sodipodi-0.dtd"
   xmlns:inkscape="http://www.inkscape.org/namespaces/inkscape"
   sodipodi:docname="everlast.svg"
   inkscape:version="1.0rc1 (09960d6, 2020-04-09)"
   id="svg8"
   version="1.1"
   viewBox="0 0 24.322075 8.1226254"
   height="8.1226254mm"
   width="24.322075mm">
  <defs
     id="defs2" />
  <sodipodi:namedview
     inkscape:window-maximized="1"
     inkscape:window-y="0"
     inkscape:window-x="0"
     inkscape:window-height="720"
     inkscape:window-width="1200"
     fit-margin-bottom="0"
     fit-margin-right="0"
     fit-margin-left="0"
     fit-margin-top="0"
     showgrid="false"
     inkscape:document-rotation="0"
     inkscape:current-layer="g12"
     inkscape:document-units="mm"
     inkscape:cy="-16.844118"
     inkscape:cx="-212.0376"
     inkscape:zoom="1.5245511"
     inkscape:pageshadow="2"
     inkscape:pageopacity="0.0"
     borderopacity="1.0"
     bordercolor="#666666"
     pagecolor="#ffffff"
     id="base" />
  <metadata
     id="metadata5">
    <rdf:RDF>
      <cc:Work
         rdf:about="">
        <dc:format>image/svg+xml</dc:format>
        <dc:type
           rdf:resource="http://purl.org/dc/dcmitype/StillImage" />
        <dc:title></dc:title>
      </cc:Work>
    </rdf:RDF>
  </metadata>
  <g
     transform="translate(9.2624322,-151.70427)"
     id="layer1"
     inkscape:groupmode="layer"
     inkscape:label="Layer 1">
    <g
       transform="matrix(0.03307292,0,0,-0.03307292,-84.06049,172.70352)"
       id="g12">
      <path
         inkscape:connector-curvature="0"
         id="path32"
         style="fill:currentColor;fill-opacity:1;fill-rule:nonzero;stroke:none"
         d="m 2997.0179,578.64489 c -5.87,0.437 -11.73,0.742 -17.69,0.976 -0.1,0.067 -29.75,1.035 -45.35,0.653 -126.105,-2.61 -240.421,-38.426 -327.406,-94.5318 -5.613,-3.6132 -12.476,-2.8789 -15.492,-1.6796 -14.051,5.3634 -80.496,30.4414 -82.578,31.2114 -2.426,0.949 -7.902,1.718 -3.281,7.792 10.461,13.77 28.887,23.86 43.586,32.286 24.734,14.211 53.867,25.586 80.804,34.796 -7.425,-0.664 -10.871,-0.753 -15.679,-1.269 -12.856,-1.406 -25.676,-3.422 -38.344,-6.066 -39.684,-8.289 -81.914,-20.868 -116.988,-41.668 -5.723,-3.399 -13.344,-0.559 -13.344,-0.559 l -50.645,18.273 c 0,0 -8.453,2.528 0.489,7.344 57.558,31.153 125.222,52.762 198.41,63.594 8.547,1.25 17.113,2.383 25.828,3.328 -7.18,0.481 -23.34,1.406 -24.402,1.406 -12.422,0.442 -24.914,0.52 -37.539,0.254 -110.114,-2.293 -211.317,-29.648 -293.071,-74.16 -3.246,-1.863 -3.597,-6.379 -0.972,-7.43 36.468,-16.945 352.601,-163.07775 353.031,-163.234 3.582,-1.67969 8.258,0.27344 10.465,3.20312 63.152,82.77348 170.711,146.43788 300.308,174.27688 22.62,4.922 45.99,8.633 69.86,11.204" />
    </g>
  </g>
</svg>
