<?xml version="1.0" encoding="UTF-8" standalone="no"?>
<svg
   xmlns:dc="http://purl.org/dc/elements/1.1/"
   xmlns:cc="http://creativecommons.org/ns#"
   xmlns:rdf="http://www.w3.org/1999/02/22-rdf-syntax-ns#"
   xmlns:svg="http://www.w3.org/2000/svg"
   xmlns="http://www.w3.org/2000/svg"
   xmlns:sodipodi="http://sodipodi.sourceforge.net/DTD/sodipodi-0.dtd"
   xmlns:inkscape="http://www.inkscape.org/namespaces/inkscape"
   version="1.0"
   width="400.000000pt"
   height="200.000000pt"
   viewBox="0 0 400.000000 200.000000"
   preserveAspectRatio="xMidYMid meet"
   id="svg14"
   sodipodi:docname="forzaask.svg"
   inkscape:version="0.92.4 5da689c313, 2019-01-14">
  <metadata
     id="metadata20">
    <rdf:RDF>
      <cc:Work
         rdf:about="">
        <dc:format>image/svg+xml</dc:format>
        <dc:type
           rdf:resource="http://purl.org/dc/dcmitype/StillImage" />
      </cc:Work>
    </rdf:RDF>
  </metadata>
  <defs
     id="defs18" />
  <sodipodi:namedview
     pagecolor="#ffffff"
     bordercolor="#666666"
     borderopacity="1"
     objecttolerance="10"
     gridtolerance="10"
     guidetolerance="10"
     inkscape:pageopacity="0"
     inkscape:pageshadow="2"
     inkscape:window-width="2400"
     inkscape:window-height="1424"
     id="namedview16"
     showgrid="false"
     inkscape:zoom="0.885"
     inkscape:cx="566.44649"
     inkscape:cy="93.480816"
     inkscape:window-x="0"
     inkscape:window-y="88"
     inkscape:window-maximized="1"
     inkscape:current-layer="g12" />
  <g
     transform="translate(0.000000,200.000000) scale(0.100000,-0.100000)"
     fill="none"
     stroke="none"
     id="g12">
    <path
       style="fill:currentColor;stroke-width:1"
       d="M 396.66602 34.533203 L 391.59961 51.599609 C 379.33294 92.666274 380.26758 90.40026 376.26758 90.933594 C 372.80091 91.333594 372.66602 91.600651 372.66602 99.333984 L 372.66602 107.33398 L 388.40039 107.73242 L 404 108.13281 L 404 99.333984 C 404 91.067318 403.86602 90.666016 400.66602 90.666016 C 398.26602 90.666016 397.59948 90.132682 398.13281 88.666016 C 398.79948 87.199349 401.33411 86.666016 408.80078 86.666016 C 416.66745 86.666016 418.66602 87.066016 418.66602 88.666016 C 418.66602 89.732682 417.46667 90.666016 416 90.666016 C 413.6 90.666016 413.33398 91.600651 413.33398 99.333984 L 413.33398 108 L 428.66602 108 L 444 108 L 444 99.466797 C 444 91.066797 443.86706 90.800391 440.40039 90.400391 C 436.93372 90.000391 436.53268 88.932681 428.66602 62.666016 L 420.5332 35.333984 L 408.66602 34.933594 L 396.66602 34.533203 z M 90.533203 34.666016 L 90.933594 42.933594 C 91.333594 51.066927 91.466406 51.332422 95.066406 51.732422 L 98.800781 52.132812 L 98.400391 71.066406 L 98 90 L 94.400391 90.400391 C 90.800391 90.800391 90.666016 91.066797 90.666016 99.466797 L 90.666016 108.13281 L 106.40039 107.73242 L 122 107.33398 L 122 99.333984 C 122 91.600651 121.86706 91.333594 118.40039 90.933594 C 115.06706 90.533594 114.66602 89.999219 114.66602 85.199219 L 114.66602 80 L 122 80 L 129.33398 80 L 129.33398 71.333984 L 129.33398 62.666016 L 122 62.666016 L 114.66602 62.666016 L 114.66602 57.333984 L 114.66602 52 L 120.66602 52 C 126.13268 52 126.66602 52.267318 126.66602 55.333984 C 126.66602 58.533984 127.06602 58.666016 134.66602 58.666016 L 142.66602 58.666016 L 142.66602 46.666016 L 142.66602 34.666016 L 116.66602 34.666016 L 90.533203 34.666016 z M 226.66602 34.666016 L 226.66602 43.333984 C 226.66602 51.733984 226.8 52 230 52 L 233.33398 52 L 233.33398 71.333984 L 233.33398 90.666016 L 230 90.666016 C 226.8 90.666016 226.66602 90.933985 226.66602 99.333984 L 226.66602 108 L 241.33398 108 L 256 108 L 256 99.333984 C 256 91.600651 255.73398 90.666016 253.33398 90.666016 C 251.20065 90.666016 250.66602 89.732682 250.66602 86.666016 C 250.66602 82.932682 250.93242 82.666016 255.73242 82.666016 C 259.86576 82.666016 261.19974 83.332682 263.06641 86.666016 C 265.19974 90.132682 265.20013 90.666016 263.4668 90.666016 C 261.73346 90.666016 261.33398 92.400651 261.33398 99.333984 L 261.33398 108 L 276.66602 108 L 292 108 L 292 99.333984 C 292 90.800651 292.00039 90.666016 288.40039 90.666016 C 285.33372 90.666016 284.00026 89.467187 280.93359 83.867188 L 277.33398 77.199219 L 280.5332 71.599609 C 284.79987 63.99961 285.73333 59.599739 284 53.066406 C 281.86667 45.59974 277.86732 40.533984 271.33398 37.333984 C 266.53398 35.067318 263.06758 34.666016 246.26758 34.666016 L 226.66602 34.666016 z M 334.40039 34.666016 C 317.20039 34.666016 302.79987 34.932552 302.5332 35.199219 C 302.26654 35.465885 302.13372 40.932552 302.40039 47.199219 L 302.80078 58.666016 L 310.80078 58.666016 C 318.26745 58.666016 318.66602 58.533984 318.66602 55.333984 C 318.66602 52.133984 319.06602 52 326.66602 52 C 331.06602 52 334.66602 52.266016 334.66602 52.666016 C 334.66602 52.932682 329.73385 60.934245 323.86719 70.267578 C 317.86719 79.734244 310.00039 91.99961 306.40039 97.599609 L 300 108 L 332 108 L 364 108 L 364 96 L 364 84 L 356 84 C 348.4 84 348 84.133984 348 87.333984 C 348 90.533984 347.6 90.666016 340 90.666016 C 335.6 90.666016 332 90.4 332 90 C 332 89.6 339.19948 77.867187 348.13281 63.867188 C 356.93281 49.867188 364.53359 37.59987 364.93359 36.533203 C 365.46693 34.933203 360.80039 34.666016 334.40039 34.666016 z M 184.41602 34.783203 C 177.99935 34.79987 171.60065 35.266146 169.33398 36.132812 C 167.46732 36.932812 164.53359 38.800391 162.93359 40.400391 C 157.20026 45.733724 155.60026 50.666928 154.93359 64.933594 C 153.46693 98.266926 160.00091 107.86667 184.26758 108 C 200.93424 108 207.06615 104.93333 212.13281 94 C 214.13281 89.733333 214.66602 85.333333 214.66602 72 C 214.66602 62.8 214.00065 53.199349 213.33398 50.666016 C 211.86732 45.199349 205.19961 38.132812 199.59961 36.132812 C 197.26628 35.199479 190.83268 34.766536 184.41602 34.783203 z M 184.66602 52 C 190.26602 52 194.79909 52.666276 195.73242 53.599609 C 196.79909 54.666276 197.33398 60.533985 197.33398 71.333984 C 197.33398 82.133984 196.79909 87.99974 195.73242 89.066406 C 194.79909 89.99974 190.26706 90.666016 184.40039 90.666016 C 176.26706 90.666016 174.53398 90.266146 173.33398 88.132812 C 171.46732 84.399479 171.59961 55.599609 173.59961 53.599609 C 174.53294 52.666276 179.06602 52 184.66602 52 z M 250.66602 52 L 256.93359 52 C 266.40026 52 270.79909 57.333594 265.73242 62.933594 C 264.26576 64.666927 261.73307 65.333984 257.06641 65.333984 L 250.66602 65.333984 L 250.66602 58.666016 L 250.66602 52 z M 408.40039 55.333984 L 410.66602 62 C 412.79935 68.4 412.80039 68.666406 410.40039 69.066406 C 404.80039 70.133073 404.26706 69.066666 406.40039 62 L 408.40039 55.333984 z M 81.199219 121.33398 L 81.599609 124.93359 L 82 128.66602 L 267.59961 129.06641 L 453.33398 129.33398 L 453.33398 125.33398 L 453.33398 121.33398 L 267.19922 121.33398 L 81.199219 121.33398 z M 81.333984 136 L 81.333984 139.33398 L 81.333984 142.66602 L 267.33398 142.66602 L 453.33398 142.66602 L 453.33398 139.33398 L 453.33398 136 L 267.33398 136 L 81.333984 136 z M 263.4668 155.49609 C 245.79154 155.9819 232.64922 169.34115 237.19922 186.13281 C 239.86589 195.86615 249.46732 202.66667 265.33398 206 C 276.40065 208.26667 279.33346 209.73346 281.4668 213.4668 C 286.2668 222.6668 264.80013 224.40013 257.4668 215.4668 C 256.13346 213.8668 253.19987 213.33398 246.5332 213.33398 L 237.33398 213.33398 L 237.33398 226 L 237.33398 238.66602 L 245.86719 238.66602 C 250.53385 238.66602 254.66693 238.13346 254.93359 237.4668 C 255.20026 236.80013 259.06576 237.20039 263.73242 238.40039 C 270.79909 240.13372 273.33346 240.13411 279.4668 238.80078 C 303.60013 233.33411 307.19922 204.93242 285.19922 193.73242 C 281.99922 191.99909 275.33372 189.86745 270.40039 188.80078 C 259.33372 186.53411 254.66602 183.73398 254.66602 179.33398 C 254.66602 171.86732 268.40013 171.3332 277.4668 178.5332 C 282.13346 182.39987 283.46706 182.80039 290.40039 182.40039 L 298 182 L 298.40039 168.93359 L 298.80078 156 L 290.13281 156 C 285.33281 156 281.19935 156.53255 280.66602 157.19922 C 280.26602 157.99922 278.53424 158.00065 276.26758 157.33398 C 271.86758 155.95898 267.5457 155.38398 263.4668 155.49609 z M 163.19922 156 L 156 180.26758 C 152.13333 193.73424 147.73372 208.40026 146.40039 212.93359 C 144.00039 220.80026 143.6 221.33398 140 221.33398 L 136 221.33398 L 136 230 L 136 238.80078 L 153.06641 238.40039 L 170 238 L 170.40039 229.59961 L 170.80078 221.33398 L 166.5332 221.33398 C 163.3332 221.33398 162.53255 220.93255 163.19922 219.19922 C 163.59922 217.99922 164 216.53385 164 215.86719 C 164 215.06719 169.06706 214.66693 176.40039 214.93359 C 188.00039 215.33359 188.66641 215.46758 189.06641 218.26758 C 189.46641 220.80091 188.93281 221.33398 186.13281 221.33398 C 182.79948 221.33398 182.66602 221.6 182.66602 230 L 182.66602 238.66602 L 199.33398 238.66602 L 216 238.66602 L 216 230.13281 C 216 221.73281 215.86706 221.46641 212.40039 221.06641 C 208.40039 220.66641 209.46745 223.46627 192.80078 167.59961 L 189.19922 156 L 176.26758 156 L 163.19922 156 z M 319.86719 156 L 320.26758 164.93359 C 320.66758 173.60026 320.8 174 324 174 L 327.33398 174 L 327.73242 197.73242 L 328 221.33398 L 324 221.33398 L 320 221.33398 L 320 230 L 320 238.66602 L 336.66602 238.66602 L 353.33398 238.66602 L 353.33398 230 C 353.33398 221.6 353.2 221.33398 350 221.33398 C 344.13333 221.33398 344.40026 217.59974 350.93359 211.06641 L 356.93359 205.06641 L 361.19922 212.40039 C 365.86589 220.66706 366.13398 221.33398 363.33398 221.33398 C 361.73398 221.33398 361.33398 223.2 361.33398 230 L 361.33398 238.66602 L 378 238.66602 L 394.66602 238.66602 L 394.66602 230 C 394.66602 221.46667 394.66693 221.33398 390.93359 221.33398 C 387.60026 221.33398 386.26693 219.73398 378.93359 207.33398 C 374.40026 199.60065 370.66602 192.66667 370.66602 192 C 370.66602 189.46667 389.73281 173.6 392.13281 174 C 394.39948 174.4 394.66602 173.59922 394.66602 165.19922 L 394.66602 156 L 377.19922 156 L 359.73242 156 L 360.26758 166 L 360.66602 176 L 352.93359 183.73242 L 345.19922 191.33398 L 345.59961 182.66602 C 345.99961 174.39935 346.13398 174 349.33398 174 C 352.53398 174 352.66641 173.60026 353.06641 164.93359 L 353.4668 156 L 336.66602 156 L 319.86719 156 z M 176.60352 176.26367 C 176.62926 176.24977 176.64935 176.25091 176.66602 176.26758 C 176.79935 176.40091 178.26576 181.06758 179.73242 186.26758 L 182.40039 196 L 176.5332 196 C 173.3332 196 170.66602 195.46745 170.66602 194.80078 C 170.66602 194.13411 171.8668 189.59935 173.4668 184.66602 C 174.8418 180.04102 176.21729 176.47217 176.60352 176.26367 z "
       transform="matrix(7.5000003,0,0,-7.5000003,0,2000)"
       id="rect22" />
  </g>
</svg>
