<?xml version="1.0" encoding="UTF-8" standalone="no"?>
<!-- Created with Inkscape (http://www.inkscape.org/) -->

<svg
   xmlns:dc="http://purl.org/dc/elements/1.1/"
   xmlns:cc="http://creativecommons.org/ns#"
   xmlns:rdf="http://www.w3.org/1999/02/22-rdf-syntax-ns#"
   xmlns:svg="http://www.w3.org/2000/svg"
   xmlns="http://www.w3.org/2000/svg"
   xmlns:sodipodi="http://sodipodi.sourceforge.net/DTD/sodipodi-0.dtd"
   xmlns:inkscape="http://www.inkscape.org/namespaces/inkscape"
   width="163.13353mm"
   height="121.02364mm"
   viewBox="0 0 163.13353 121.02364"
   version="1.1"
   id="svg8"
   inkscape:version="0.92.4 (5da689c313, 2019-01-14)"
   sodipodi:docname="frankiegarage.svg">
  <defs
     id="defs2" />
  <sodipodi:namedview
     id="base"
     borderopacity="1.0"
     inkscape:pageopacity="0.0"
     inkscape:pageshadow="2"
     inkscape:zoom="1.4"
     inkscape:cx="411.76352"
     inkscape:cy="270.92987"
     inkscape:document-units="mm"
     inkscape:current-layer="layer1"
     showgrid="false"
     inkscape:window-width="2400"
     inkscape:window-height="1440"
     inkscape:window-x="0"
     inkscape:window-y="80"
     inkscape:window-maximized="1"
     fit-margin-top="0"
     fit-margin-left="0"
     fit-margin-right="0"
     fit-margin-bottom="0" />
  <metadata
     id="metadata5">
    <rdf:RDF>
      <cc:Work
         rdf:about="">
        <dc:format>image/svg+xml</dc:format>
        <dc:type
           rdf:resource="http://purl.org/dc/dcmitype/StillImage" />
        <dc:title></dc:title>
      </cc:Work>
    </rdf:RDF>
  </metadata>
  <g
     inkscape:label="Layer 1"
     inkscape:groupmode="layer"
     id="layer1"
     transform="translate(438.3077,-149.1105)">
    <path
       style="fill:currentColor;stroke-width:0.95333993"
       d="m -391.47414,251.45394 c -6.55421,-10.27415 -12.05647,-19.04752 -12.22725,-19.49638 -0.17077,-0.44887 1.92084,-4.04385 4.64802,-7.98886 l 4.9585,-7.17273 -4.95695,-7.55036 c -3.62075,-5.51507 -4.87368,-8.27743 -4.64802,-10.24757 l 0.30895,-2.69721 12.62155,-0.26594 12.62154,-0.26593 1.44715,-2.79848 1.44715,-2.79848 -25.0321,0.48449 -25.03211,0.48449 -7.03431,-8.3231 c -10.13613,-11.99322 -11.98317,-11.31268 32.84313,-12.10095 50.56386,-0.88917 64.50941,-0.81914 63.80514,0.32039 -0.35064,0.56735 0.78455,0.95334 2.80375,0.95334 1.86613,0 3.39296,0.39125 3.39296,0.86945 0,0.4782 -11.1706,15.08212 -24.82356,32.45315 l -24.82357,31.5837 1.85629,2.58209 c 1.02096,1.42015 3.07691,3.74095 4.56878,5.15733 l 2.71248,2.57524 15.36402,-19.23064 15.36403,-19.23064 -2.91254,-3.62426 c -2.43995,-3.03619 -2.76786,-4.02323 -2.02095,-6.08312 l 0.89159,-2.45886 16.20678,0.12306 16.20678,0.12305 3.81336,2.72932 c 6.93965,4.96689 7.40994,4.13498 -22.10285,39.09814 l -26.51749,31.41467 -11.91675,0.0309 -11.91675,0.0309 z m 57.67707,-12.8253 c 28.67986,-33.17969 28.48315,-32.9363 27.23974,-33.70477 -0.51531,-0.31848 -13.06256,13.05516 -27.8828,29.71919 l -26.94586,30.29824 -8.12316,0.2788 c -10.67136,0.36624 -8.35487,2.07365 2.82185,2.07987 l 8.10339,0.005 24.78684,-28.67585 z m -25.71012,-32.55608 c 11.95046,-14.81252 22.36881,-27.68261 23.15187,-28.60019 1.28913,-1.5106 1.23604,-1.66835 -0.56146,-1.66835 -1.4443,0 -7.76022,7.07843 -23.17999,25.97851 -11.65713,14.28819 -21.81188,26.70224 -22.56611,27.58679 -1.32075,1.54896 -0.94517,3.6351 0.65445,3.6351 0.42522,0 10.55078,-12.11934 22.50124,-26.93186 z m -48.41206,-18.5696 c -1.96627,-0.20568 -5.18379,-0.20568 -7.15005,0 -1.96627,0.20568 -0.35751,0.37396 3.57502,0.37396 3.93253,0 5.54129,-0.16828 3.57503,-0.37396 z m 21.95877,-0.9583 c -2.47302,-0.19567 -6.76305,-0.1977 -9.5334,-0.004 -2.77034,0.19316 -0.74696,0.35325 4.49641,0.35573 5.24337,0.002 7.51002,-0.15558 5.03699,-0.35125 z m 9.04292,-0.87923 c -0.64544,-0.26114 -1.93245,-0.27704 -2.86002,-0.0353 -0.92757,0.24171 -0.39948,0.45537 1.17353,0.4748 1.57301,0.0194 2.33193,-0.17834 1.68649,-0.43948 z m 72.56502,3.57518 c -6.69227,-0.81675 -7.99438,-2.12556 -7.99438,-8.03553 0,-4.38888 0.36921,-5.22841 3.86648,-8.79187 l 3.86648,-3.93966 -10.21149,-0.62479 c -5.61633,-0.34364 -16.47255,-0.62853 -24.12496,-0.63309 -19.80297,-0.38617 -17.35038,-0.25125 -17.35038,-0.25125 0,0 3.31435,-3.45554 8.93654,-9.05435 l 8.83631,-8.79957 27.15227,0.0338 27.15228,0.0338 4.52837,7.52836 c 2.56759,4.26859 4.52511,8.69149 4.52084,10.2146 -0.006,1.99086 -2.24898,5.33925 -8.66619,12.93465 -9.60169,11.36457 -8.48343,10.85294 -20.51217,9.3849 z m 17.82886,-9.38489 c 3.42574,-3.53928 6.79648,-7.29306 7.49054,-8.34173 0.69405,-1.04867 -2.02129,1.41809 -6.03409,5.48171 l -7.29601,7.38838 -7.37015,0.16026 -7.37016,0.16027 5.72004,0.63281 c 3.14602,0.34805 6.37505,0.70493 7.17562,0.79308 0.80057,0.0881 4.25845,-2.73551 7.68421,-6.27478 z"
       id="path880"
       inkscape:connector-curvature="0"
       sodipodi:nodetypes="ccscsccccccccsscssscsccccsccccssccccccsccccccscsscssssssccccccccccssscsccscccsccsccccccccc" />
  </g>
</svg>
