<?xml version="1.0" encoding="UTF-8" standalone="no"?>
<!-- Generator: Adobe Illustrator 23.0.1, SVG Export Plug-In . SVG Version: 6.00 Build 0)  -->

<svg
   xmlns:dc="http://purl.org/dc/elements/1.1/"
   xmlns:cc="http://creativecommons.org/ns#"
   xmlns:rdf="http://www.w3.org/1999/02/22-rdf-syntax-ns#"
   xmlns:svg="http://www.w3.org/2000/svg"
   xmlns="http://www.w3.org/2000/svg"
   xmlns:sodipodi="http://sodipodi.sourceforge.net/DTD/sodipodi-0.dtd"
   xmlns:inkscape="http://www.inkscape.org/namespaces/inkscape"
   version="1.1"
   id="Layer_1"
   x="0px"
   y="0px"
   viewBox="0 0 329.83999 76.930003"
   xml:space="preserve"
   sodipodi:docname="hummel.svg"
   width="329.84"
   height="76.93"
   inkscape:version="0.92.4 5da689c313, 2019-01-14"><metadata
   id="metadata27"><rdf:RDF><cc:Work
       rdf:about=""><dc:format>image/svg+xml</dc:format><dc:type
         rdf:resource="http://purl.org/dc/dcmitype/StillImage" /><dc:title></dc:title></cc:Work></rdf:RDF></metadata><defs
   id="defs25" /><sodipodi:namedview
   pagecolor="#ffffff"
   bordercolor="#666666"
   borderopacity="1"
   objecttolerance="10"
   gridtolerance="10"
   guidetolerance="10"
   inkscape:pageopacity="0"
   inkscape:pageshadow="2"
   inkscape:window-width="2400"
   inkscape:window-height="1424"
   id="namedview23"
   showgrid="false"
   fit-margin-top="0"
   fit-margin-left="0"
   fit-margin-right="0"
   fit-margin-bottom="0"
   inkscape:zoom="2.6635834"
   inkscape:cx="103.20253"
   inkscape:cy="34.654101"
   inkscape:window-x="0"
   inkscape:window-y="88"
   inkscape:window-maximized="1"
   inkscape:current-layer="g20" />
<g
   id="g20"
   transform="translate(-119.76,-3.29)">
	<g
   id="g14">
		
		
		
		
		
		
	</g>
	
	<path
   d="m 369.67,37.24 v 36.78 c 0,3.65 -2.96,6.19 -6.6,6.19 h -3.6 c -3.65,0 -6.6,-2.55 -6.6,-6.19 V 41.67 c 0,-2.21 -1.86,-2.65 -3.19,-2.65 h -0.75 c -1.29,0 -3.16,0.44 -3.16,2.67 v 32.34 c 0,3.65 -2.96,6.19 -6.6,6.19 h -3.6 c -0.06,0 -0.12,0 -0.18,0 -3.57,-0.08 -6.43,-2.6 -6.43,-6.19 V 41.68 c 0,-2.21 -1.9,-2.65 -3.19,-2.65 h -0.78 c -1.34,0 -3.17,0.44 -3.17,2.65 v 32.35 c 0,3.65 -2.96,6.19 -6.6,6.19 h -3.6 c -3.65,0 -6.6,-2.55 -6.6,-6.19 V 37.25 c 0,-7.61 3.33,-13.73 14.85,-13.73 h 35.92 c 10.47,-0.01 13.88,6.11 13.88,13.72 z m 44.7,21.99 h -23.2 c 0,0 0,3.09 0,3.52 0,1.04 0.51,2.67 2.31,2.67 0.99,0.01 28.37,0.06 28.37,0.06 3.65,0 6.19,2.59 6.19,5.79 v 3.16 c 0,3.2 -2.55,5.79 -6.19,5.79 H 388.1 c -6.29,0 -13.73,-2.92 -13.73,-13.02 V 36.54 c 0,-9.88 7.27,-13.02 13.73,-13.02 h 26.28 c 6.29,0 13.73,2.92 13.73,13.02 v 9.68 c -0.01,10.09 -7.45,13.01 -13.74,13.01 z M 412.23,41.7 v -0.65 c 0,-1.16 -0.52,-2.8 -2.91,-2.8 h -15.24 c -2.39,0 -2.91,1.64 -2.91,2.8 v 3.45 h 18.2 c 2.37,-0.03 2.86,-1.65 2.86,-2.8 z M 443,3.29 h -3.6 c -3.65,0 -6.6,2.55 -6.6,6.19 v 64.54 c 0,3.65 2.96,6.19 6.6,6.19 h 3.6 c 3.65,0 6.6,-2.55 6.6,-6.19 V 9.48 c 0,-3.65 -2.96,-6.19 -6.6,-6.19 z M 224.33,23.51 h -3.6 c -3.65,0 -6.6,2.55 -6.6,6.19 v 32.09 c 0,2.36 -1.87,2.91 -3.19,2.91 H 198.2 c -1.32,0 -3.19,-0.53 -3.19,-2.91 V 29.7 c 0,-3.65 -2.96,-6.19 -6.6,-6.19 h -3.6 c -3.65,0 -6.6,2.55 -6.6,6.19 v 36.78 c 0,6.29 3.33,13.73 14.85,13.73 h 23.03 c 11.52,0 14.85,-7.44 14.85,-13.73 V 29.7 c -0.01,-3.64 -2.96,-6.19 -6.61,-6.19 z m 62.06,0 h -35.92 c -11.52,0 -14.85,6.12 -14.85,13.73 v 36.78 c 0,3.65 2.96,6.19 6.6,6.19 h 3.6 c 3.65,0 6.6,-2.55 6.6,-6.19 V 41.67 c 0,-2.21 1.83,-2.65 3.17,-2.65 h 0.78 c 1.28,0 3.19,0.44 3.19,2.65 v 32.35 c 0,3.59 2.86,6.11 6.43,6.19 0.06,0 0.12,0 0.18,0 h 3.6 c 3.65,0 6.6,-2.55 6.6,-6.19 V 41.68 c 0,-2.23 1.87,-2.67 3.16,-2.67 h 0.75 c 1.33,0 3.19,0.44 3.19,2.65 v 32.35 c 0,3.65 2.96,6.19 6.6,6.19 h 3.6 c 3.65,0 6.6,-2.55 6.6,-6.19 V 37.23 c 0.03,-7.6 -3.38,-13.72 -13.88,-13.72 z m -127.75,0 H 136.56 V 9.48 c 0,-3.65 -2.96,-6.19 -6.6,-6.19 h -3.6 c -3.65,0 -6.6,2.55 -6.6,6.19 v 64.54 c 0,3.65 2.96,6.19 6.6,6.19 h 3.6 c 3.65,0 6.6,-2.55 6.6,-6.19 V 39.28 h 16.93 c 1.32,0 3.19,0.49 3.19,2.91 v 31.82 c 0,3.65 2.96,6.19 6.6,6.19 h 3.6 c 3.65,0 6.6,-2.55 6.6,-6.19 V 37.23 c 0.02,-6.27 -3.32,-13.72 -14.84,-13.72 z"
   id="path18"
   inkscape:connector-curvature="0" />
</g>
</svg>