<?xml version="1.0" encoding="UTF-8" standalone="no"?>
<!-- Created with Inkscape (http://www.inkscape.org/) -->

<svg
   xmlns:dc="http://purl.org/dc/elements/1.1/"
   xmlns:cc="http://creativecommons.org/ns#"
   xmlns:rdf="http://www.w3.org/1999/02/22-rdf-syntax-ns#"
   xmlns:svg="http://www.w3.org/2000/svg"
   xmlns="http://www.w3.org/2000/svg"
   xmlns:sodipodi="http://sodipodi.sourceforge.net/DTD/sodipodi-0.dtd"
   xmlns:inkscape="http://www.inkscape.org/namespaces/inkscape"
   width="61.916164mm"
   height="12.01136mm"
   viewBox="0 0 61.916164 12.01136"
   version="1.1"
   id="svg8"
   sodipodi:docname="icone.svg"
   inkscape:version="0.92.4 5da689c313, 2019-01-14">
  <defs
     id="defs2" />
  <sodipodi:namedview
     id="base"
     pagecolor="#ffffff"
     bordercolor="#666666"
     borderopacity="1.0"
     inkscape:pageopacity="0.0"
     inkscape:pageshadow="2"
     inkscape:zoom="0.7"
     inkscape:cx="-121.80185"
     inkscape:cy="137.73689"
     inkscape:document-units="mm"
     inkscape:current-layer="g75"
     showgrid="false"
     inkscape:window-width="2400"
     inkscape:window-height="1424"
     inkscape:window-x="0"
     inkscape:window-y="88"
     inkscape:window-maximized="1"
     fit-margin-top="0"
     fit-margin-left="0"
     fit-margin-right="0"
     fit-margin-bottom="0" />
  <metadata
     id="metadata5">
    <rdf:RDF>
      <cc:Work
         rdf:about="">
        <dc:format>image/svg+xml</dc:format>
        <dc:type
           rdf:resource="http://purl.org/dc/dcmitype/StillImage" />
        <dc:title></dc:title>
      </cc:Work>
    </rdf:RDF>
  </metadata>
  <g
     inkscape:label="Layer 1"
     inkscape:groupmode="layer"
     id="layer1"
     transform="translate(-274.44829,-264.80152)">
    <g
       id="g75"
       transform="translate(-17.372519,36.348656)">
      <path
         style="fill:currentColor;stroke-width:0.35277778"
         d="m 292.16213,239.97577 c -0.56908,-0.6857 -0.37643,-11.21637 0.20875,-11.41086 0.23041,-0.0766 0.74634,0.18819 1.14653,0.58837 0.66465,0.66466 0.7276,1.1488 0.7276,5.59594 0,4.81576 -0.19859,5.715 -1.26208,5.715 -0.22848,0 -0.59784,-0.2198 -0.8208,-0.48845 z m 6.05858,-0.0346 c -1.86261,-0.80973 -2.56174,-2.362 -2.56327,-5.69121 -0.001,-2.37028 0.12543,-3.02398 0.73538,-3.79941 1.30963,-1.66492 2.3989,-1.9808 6.8305,-1.9808 3.78898,0 4.07447,0.0477 4.07447,0.68035 0,1.41595 -0.90861,1.78909 -4.35643,1.78909 -4.34622,0 -4.8158,0.32216 -4.8158,3.30397 0,3.37228 0.22458,3.541 4.99379,3.75159 3.48416,0.15384 4.01015,0.25745 4.11569,0.81069 0.25833,1.35416 -0.54016,1.65948 -4.30198,1.64494 -2.26262,-0.009 -3.99066,-0.19547 -4.71235,-0.50921 z m 13.05277,0 c -1.82202,-0.79209 -2.56261,-2.37692 -2.55806,-5.4742 0.004,-3.06208 0.41245,-4.06873 2.11528,-5.21948 1.1431,-0.77248 1.51071,-0.82286 5.22626,-0.71614 l 3.99668,0.11479 1.18002,1.28852 c 1.33138,1.45379 1.81772,3.52362 1.43212,6.09498 -0.2817,1.87855 -1.31505,3.28912 -2.89228,3.94813 -1.53995,0.64343 -6.98972,0.61996 -8.50002,-0.0366 z m 7.94025,-2.49559 c 0.68116,-0.4771 0.78406,-0.86802 0.78406,-2.97861 0,-3.17124 -0.44568,-3.52778 -4.40973,-3.52778 -3.91752,0 -4.40972,0.3763 -4.40972,3.37139 0,3.24929 0.51126,3.68417 4.33123,3.68417 2.07197,0 3.14784,-0.15951 3.70416,-0.54917 z m 16.86064,2.46425 c -0.4327,-0.43271 -0.55436,-1.35737 -0.55436,-4.21333 0,-4.56429 -0.17891,-4.75731 -4.40973,-4.75731 -3.99472,0 -4.40972,0.3424 -4.40972,3.63831 0,3.76966 -0.63909,5.51149 -2.02847,5.52851 -0.32929,0.004 -0.44097,-1.09933 -0.44097,-4.35674 0,-4.80207 0.30454,-5.63084 2.48307,-6.7574 1.38976,-0.71868 7.40243,-0.71868 8.79219,0 2.17463,1.12454 2.48307,1.95923 2.48307,6.71965 0,3.61786 -0.0912,4.35939 -0.55802,4.53854 -0.74688,0.2866 -0.72464,0.29218 -1.35706,-0.34023 z m 6.17349,-0.0635 c -1.88385,-0.9606 -2.61695,-2.23478 -2.78261,-4.83637 -0.1153,-1.81086 0.01,-2.59062 0.61648,-3.84396 1.08628,-2.24395 2.24136,-2.6962 6.88619,-2.6962 4.35999,0 5.44215,0.39314 6.35036,2.30705 0.50849,1.07156 0.53716,1.44913 0.1762,2.32055 -0.84339,2.03615 -1.79157,2.42795 -5.87575,2.42795 -3.60379,0 -3.67876,-0.0165 -3.5684,-0.78492 0.16269,-1.13272 1.53707,-1.67338 4.26894,-1.67932 1.80658,-0.004 2.44246,-0.13586 2.59711,-0.53886 0.46181,-1.20347 -0.52721,-1.58301 -4.12507,-1.58301 -3.31661,0 -3.48908,0.0383 -4.19014,0.92952 -0.97156,1.23513 -1.00234,3.94846 -0.058,5.11682 0.6175,0.76403 1.00366,0.8474 4.6743,1.00922 3.89068,0.17151 4.00448,0.19964 4.12026,1.01843 0.0655,0.46313 -0.0933,0.97664 -0.35278,1.14113 -0.25951,0.16449 -2.05934,0.30126 -3.99962,0.30393 -2.66952,0.004 -3.82206,-0.14521 -4.73742,-0.61196 z"
         id="path83"
         inkscape:connector-curvature="0" />
    </g>
  </g>
</svg>
