<svg id="svg" xmlns="http://www.w3.org/2000/svg" xmlns:xlink="http://www.w3.org/1999/xlink" width="400" height="80.43087971274686" viewBox="0, 0, 400,80.43087971274686" version="1.1"><g id="svgg"><path id="path0" d="M71.333 40.167 L 71.333 80.333 78.333 80.333 L 85.333 80.333 85.333 40.167 L 85.333 0.000 78.333 0.000 L 71.333 0.000 71.333 40.167 M288.500 40.167 L 288.500 80.333 295.333 80.333 L 302.167 80.333 302.167 40.167 L 302.167 0.000 295.333 0.000 L 288.500 0.000 288.500 40.167 M186.293 0.291 C 184.902 0.377,184.999 -0.829,184.998 16.365 C 184.997 24.827,184.998 42.681,184.999 56.042 L 185.000 80.333 192.125 80.333 L 199.250 80.333 199.206 53.208 C 199.164 26.609,199.189 24.359,199.525 24.847 C 199.686 25.080,199.669 24.945,199.420 24.042 C 199.225 23.336,199.173 22.333,199.331 22.333 C 199.424 22.333,199.500 22.430,199.500 22.548 C 199.500 22.666,199.722 23.022,199.993 23.340 C 200.265 23.657,200.491 23.992,200.496 24.083 C 200.501 24.175,200.692 24.427,200.920 24.642 C 201.147 24.858,201.334 25.121,201.334 25.226 C 201.334 25.331,201.559 25.679,201.833 26.000 C 202.108 26.321,202.333 26.677,202.333 26.792 C 202.333 26.906,202.396 27.000,202.472 27.000 C 202.548 27.000,202.717 27.202,202.847 27.449 C 202.977 27.697,203.252 28.083,203.458 28.307 C 203.665 28.532,203.833 28.783,203.833 28.865 C 203.833 28.947,203.983 29.175,204.167 29.372 C 204.350 29.569,204.500 29.828,204.500 29.948 C 204.500 30.068,204.560 30.167,204.633 30.167 C 204.707 30.167,204.980 30.504,205.241 30.917 C 205.502 31.329,205.779 31.667,205.858 31.667 C 205.936 31.667,206.000 31.746,206.000 31.842 C 206.000 32.006,207.268 33.981,207.492 34.167 C 207.547 34.212,207.891 34.718,208.255 35.290 C 208.619 35.862,208.973 36.331,209.042 36.332 C 209.110 36.333,209.167 36.417,209.167 36.519 C 209.167 36.698,210.188 38.186,210.617 38.633 C 210.732 38.752,210.948 39.108,211.098 39.424 C 211.248 39.741,211.438 40.000,211.519 40.000 C 211.600 40.000,211.667 40.083,211.667 40.184 C 211.667 40.343,211.889 40.662,212.669 41.618 C 212.759 41.729,212.833 41.897,212.833 41.993 C 212.833 42.089,212.908 42.167,213.000 42.167 C 213.092 42.167,213.167 42.260,213.167 42.375 C 213.167 42.490,213.354 42.801,213.584 43.068 C 213.813 43.334,214.000 43.604,214.000 43.667 C 214.000 43.730,214.187 43.999,214.416 44.266 C 214.646 44.532,214.833 44.795,214.833 44.849 C 214.833 44.904,215.021 45.166,215.250 45.432 C 215.479 45.699,215.666 46.010,215.666 46.125 C 215.667 46.240,215.733 46.333,215.814 46.333 C 215.896 46.333,216.079 46.577,216.221 46.875 C 216.474 47.403,216.691 47.711,217.458 48.633 C 217.664 48.881,217.833 49.158,217.834 49.250 C 217.834 49.342,218.059 49.679,218.333 50.000 C 218.608 50.321,218.833 50.671,218.833 50.778 C 218.833 50.885,218.891 50.997,218.961 51.028 C 219.167 51.117,220.333 52.777,220.333 52.981 C 220.333 53.083,220.396 53.167,220.472 53.167 C 220.548 53.167,220.717 53.373,220.847 53.625 C 220.977 53.877,221.180 54.185,221.298 54.309 C 221.589 54.618,222.833 56.458,222.833 56.581 C 222.833 56.636,222.983 56.842,223.167 57.038 C 223.350 57.235,223.500 57.495,223.500 57.615 C 223.500 57.735,223.564 57.833,223.642 57.833 C 223.721 57.833,223.998 58.171,224.259 58.583 C 224.520 58.996,224.793 59.333,224.867 59.333 C 224.940 59.333,225.000 59.432,225.000 59.552 C 225.000 59.672,225.150 59.931,225.333 60.128 C 225.517 60.325,225.667 60.535,225.667 60.596 C 225.667 60.697,226.792 62.310,226.995 62.500 C 227.044 62.546,227.189 62.788,227.319 63.039 C 227.448 63.289,227.691 63.643,227.860 63.824 C 228.029 64.005,228.167 64.219,228.167 64.301 C 228.167 64.382,228.320 64.587,228.508 64.757 C 228.695 64.927,228.966 65.313,229.110 65.616 C 229.254 65.919,229.438 66.167,229.519 66.167 C 229.600 66.167,229.668 66.260,229.669 66.375 C 229.670 66.490,229.821 66.771,230.003 67.000 C 230.864 68.080,231.500 68.996,231.500 69.157 C 231.500 69.254,231.562 69.333,231.639 69.333 C 231.715 69.333,231.883 69.540,232.013 69.792 C 232.143 70.044,232.289 70.287,232.338 70.333 C 232.512 70.497,233.667 72.169,233.667 72.257 C 233.667 72.307,233.805 72.495,233.973 72.676 C 234.142 72.857,234.386 73.211,234.515 73.461 C 234.644 73.712,234.881 74.062,235.042 74.240 C 235.202 74.417,235.333 74.620,235.333 74.690 C 235.333 74.759,235.521 75.018,235.750 75.266 C 235.979 75.513,236.167 75.800,236.167 75.904 C 236.167 76.008,236.317 76.201,236.500 76.333 C 236.683 76.465,236.833 76.637,236.833 76.715 C 236.833 76.793,237.373 77.639,238.032 78.595 L 239.230 80.333 247.678 80.333 C 255.120 80.333,256.151 80.302,256.341 80.074 C 256.460 79.931,256.487 79.828,256.403 79.844 C 256.045 79.912,255.850 79.814,255.756 79.520 C 255.702 79.348,255.472 78.992,255.245 78.729 C 255.019 78.465,254.834 78.119,254.834 77.958 C 254.833 77.798,254.753 77.667,254.655 77.667 C 254.393 77.667,254.000 77.230,254.000 76.938 C 254.000 76.800,253.924 76.639,253.831 76.582 C 253.737 76.524,253.712 76.396,253.773 76.296 C 253.840 76.188,253.807 76.163,253.692 76.234 C 253.577 76.306,253.441 76.199,253.353 75.968 C 253.180 75.515,253.195 75.232,253.387 75.296 C 253.463 75.321,253.479 75.268,253.424 75.178 C 253.368 75.088,253.214 75.056,253.082 75.107 C 252.803 75.214,252.524 74.964,252.080 74.208 C 251.905 73.910,251.703 73.667,251.631 73.667 C 251.559 73.667,251.500 73.573,251.500 73.458 C 251.499 73.344,251.275 72.987,251.000 72.667 C 250.725 72.346,250.501 71.990,250.500 71.875 C 250.500 71.760,250.427 71.667,250.338 71.667 C 250.248 71.667,250.050 71.423,249.896 71.125 C 249.743 70.827,249.463 70.448,249.274 70.283 C 248.975 70.023,248.959 69.938,249.148 69.634 C 249.335 69.335,249.330 69.299,249.115 69.381 C 248.876 69.473,248.333 69.039,248.333 68.756 C 248.333 68.682,248.142 68.444,247.907 68.227 C 247.669 68.006,247.533 67.747,247.600 67.640 C 247.673 67.522,247.645 67.494,247.526 67.567 C 247.411 67.638,247.333 67.579,247.333 67.419 C 247.333 67.271,247.145 66.976,246.914 66.762 C 246.683 66.548,246.536 66.267,246.587 66.135 C 246.642 65.990,246.512 65.807,246.256 65.670 C 246.023 65.545,245.833 65.378,245.833 65.298 C 245.833 65.218,245.677 64.987,245.486 64.785 C 245.295 64.582,245.021 64.192,244.878 63.917 C 244.735 63.642,244.497 63.303,244.350 63.165 C 244.203 63.026,244.001 62.764,243.901 62.582 C 243.440 61.743,243.213 61.417,242.708 60.872 C 242.410 60.550,242.167 60.196,242.167 60.086 C 242.167 59.975,242.017 59.749,241.833 59.583 C 241.650 59.417,241.500 59.191,241.500 59.080 C 241.500 58.969,241.302 58.681,241.061 58.439 C 240.819 58.198,240.675 58.000,240.740 58.000 C 240.806 58.000,240.591 57.687,240.263 57.303 C 239.935 56.920,239.667 56.524,239.667 56.423 C 239.667 56.323,239.517 56.132,239.333 56.000 C 239.150 55.868,239.000 55.682,239.000 55.587 C 239.000 55.491,238.809 55.207,238.575 54.955 C 238.341 54.702,238.189 54.431,238.238 54.352 C 238.287 54.273,238.141 54.069,237.914 53.898 C 237.686 53.727,237.500 53.512,237.500 53.419 C 237.499 53.326,237.274 52.987,236.999 52.667 C 236.724 52.346,236.530 51.999,236.569 51.896 C 236.608 51.794,236.421 51.548,236.153 51.350 C 235.886 51.152,235.667 50.880,235.667 50.745 C 235.667 50.610,235.610 50.500,235.542 50.499 C 235.473 50.499,235.154 50.087,234.833 49.583 C 234.512 49.080,234.194 48.668,234.125 48.668 C 234.056 48.667,234.000 48.552,234.000 48.411 C 234.000 48.271,233.897 48.117,233.771 48.068 C 233.645 48.020,233.371 47.647,233.162 47.240 C 232.952 46.833,232.718 46.500,232.640 46.500 C 232.563 46.500,232.500 46.406,232.500 46.292 C 232.499 46.177,232.275 45.821,232.000 45.500 C 231.725 45.179,231.501 44.833,231.500 44.732 C 231.500 44.630,231.313 44.406,231.083 44.234 C 230.854 44.062,230.667 43.865,230.667 43.797 C 230.667 43.598,229.559 41.923,229.267 41.681 C 229.120 41.559,229.000 41.352,229.000 41.222 C 229.000 41.091,228.813 40.810,228.583 40.598 C 228.354 40.386,228.167 40.123,228.167 40.015 C 228.167 39.907,227.985 39.637,227.763 39.414 C 227.541 39.192,227.311 38.858,227.252 38.672 C 227.193 38.486,227.076 38.333,226.993 38.333 C 226.910 38.333,226.719 38.097,226.570 37.807 C 226.420 37.518,226.156 37.129,225.982 36.943 C 225.809 36.756,225.667 36.505,225.667 36.385 C 225.667 36.265,225.605 36.167,225.531 36.167 C 225.456 36.167,225.227 35.868,225.022 35.503 C 224.817 35.139,224.551 34.782,224.430 34.712 C 224.310 34.641,224.091 34.347,223.943 34.057 C 223.795 33.768,223.550 33.407,223.398 33.255 C 223.192 33.049,223.169 32.931,223.311 32.789 C 223.415 32.685,223.499 32.521,223.497 32.425 C 223.496 32.329,223.431 32.351,223.353 32.474 C 223.240 32.652,223.134 32.616,222.849 32.308 C 222.287 31.698,221.500 30.635,221.500 30.485 C 221.500 30.410,221.313 30.161,221.083 29.932 C 220.854 29.703,220.667 29.399,220.667 29.258 C 220.667 29.116,220.610 28.999,220.542 28.999 C 220.473 28.998,220.232 28.717,220.006 28.374 C 219.780 28.031,219.497 27.637,219.376 27.500 C 219.022 27.096,218.354 26.110,218.190 25.750 C 218.107 25.567,217.880 25.274,217.686 25.099 C 217.492 24.925,217.330 24.700,217.327 24.599 C 217.323 24.499,217.098 24.157,216.827 23.840 C 216.555 23.522,216.333 23.166,216.333 23.048 C 216.333 22.930,216.277 22.832,216.208 22.830 C 216.140 22.828,215.858 22.490,215.583 22.080 C 215.308 21.670,215.027 21.334,214.958 21.334 C 214.890 21.333,214.833 21.225,214.833 21.092 C 214.833 20.959,214.646 20.648,214.417 20.401 C 214.188 20.154,214.000 19.899,214.000 19.835 C 214.000 19.771,213.813 19.501,213.584 19.234 C 213.354 18.968,213.166 18.675,213.164 18.583 C 213.162 18.492,212.975 18.240,212.747 18.024 C 212.520 17.808,212.333 17.562,212.333 17.478 C 212.333 17.393,211.973 16.857,211.532 16.287 C 211.091 15.717,210.587 15.006,210.412 14.708 C 210.238 14.410,210.036 14.167,209.964 14.167 C 209.892 14.167,209.833 14.068,209.833 13.948 C 209.833 13.828,209.683 13.569,209.500 13.372 C 209.317 13.175,209.166 12.955,209.166 12.882 C 209.166 12.809,208.941 12.487,208.667 12.167 C 208.392 11.846,208.167 11.530,208.167 11.466 C 208.167 11.401,207.979 11.161,207.750 10.932 C 207.521 10.703,207.333 10.405,207.333 10.271 C 207.333 10.137,207.274 10.003,207.202 9.972 C 207.130 9.942,206.627 9.279,206.083 8.500 C 205.540 7.721,205.037 7.058,204.964 7.028 C 204.892 6.997,204.833 6.845,204.833 6.690 C 204.833 6.534,204.683 6.299,204.500 6.167 C 204.317 6.035,204.167 5.844,204.167 5.743 C 204.167 5.642,203.942 5.308,203.667 5.000 C 203.392 4.692,203.167 4.384,203.167 4.315 C 203.167 4.247,203.071 4.091,202.955 3.970 C 202.838 3.849,202.371 3.225,201.917 2.583 C 201.463 1.942,200.997 1.304,200.882 1.167 C 200.767 1.029,200.565 0.767,200.433 0.583 C 200.202 0.261,190.159 0.053,186.293 0.291 M223.000 0.352 C 219.929 0.408,215.673 0.464,213.542 0.477 C 210.096 0.497,209.667 0.530,209.667 0.769 C 209.667 1.104,210.346 2.333,210.531 2.333 C 210.605 2.333,210.667 2.427,210.667 2.542 C 210.667 2.656,210.854 2.968,211.084 3.234 C 211.313 3.501,211.500 3.770,211.500 3.833 C 211.500 3.896,211.687 4.166,211.916 4.432 C 212.146 4.699,212.333 4.968,212.333 5.030 C 212.333 5.092,212.432 5.242,212.552 5.363 C 212.753 5.567,214.038 7.390,214.984 8.814 C 215.204 9.145,215.447 9.442,215.525 9.472 C 215.603 9.503,215.667 9.615,215.667 9.722 C 215.667 9.829,215.892 10.179,216.167 10.500 C 216.441 10.821,216.666 11.177,216.666 11.292 C 216.666 11.406,216.734 11.500,216.816 11.500 C 216.898 11.500,217.202 11.869,217.492 12.321 C 217.781 12.772,218.138 13.241,218.285 13.362 C 218.518 13.556,242.926 13.881,252.691 13.820 C 253.786 13.813,254.508 13.877,254.576 13.988 C 254.637 14.086,255.079 14.167,255.560 14.167 C 256.040 14.167,256.520 14.253,256.626 14.359 C 256.731 14.465,257.045 14.545,257.323 14.537 C 257.600 14.529,257.871 14.592,257.924 14.678 C 257.976 14.763,258.159 14.833,258.330 14.833 C 258.675 14.833,261.051 15.989,261.139 16.200 C 261.169 16.273,261.301 16.333,261.431 16.333 C 261.560 16.333,261.667 16.390,261.667 16.459 C 261.667 16.529,261.880 16.680,262.140 16.795 C 262.915 17.138,265.500 20.064,265.500 20.598 C 265.500 20.664,265.688 20.966,265.919 21.267 C 266.149 21.569,266.384 22.154,266.440 22.568 C 266.497 22.981,266.626 23.303,266.726 23.284 C 266.827 23.266,266.932 23.438,266.961 23.667 C 266.990 23.896,267.100 24.256,267.206 24.466 C 267.345 24.744,267.350 25.029,267.223 25.504 C 267.073 26.068,267.091 26.198,267.358 26.439 C 267.764 26.807,267.808 28.623,267.414 28.774 C 267.208 28.853,267.181 29.068,267.270 29.936 C 267.347 30.684,267.323 31.000,267.190 31.000 C 267.085 31.000,267.000 31.254,267.000 31.566 C 267.000 31.912,266.904 32.168,266.753 32.226 C 266.617 32.278,266.547 32.428,266.598 32.560 C 266.648 32.692,266.609 32.849,266.511 32.910 C 266.413 32.970,266.333 33.139,266.333 33.286 C 266.333 33.432,266.146 33.798,265.917 34.098 C 265.688 34.399,265.500 34.686,265.500 34.737 C 265.500 35.094,262.462 38.082,261.803 38.374 C 261.544 38.488,261.333 38.631,261.333 38.692 C 261.333 38.835,259.670 39.667,259.384 39.667 C 259.264 39.667,259.167 39.742,259.167 39.833 C 259.167 39.925,258.979 40.000,258.750 40.000 C 258.521 40.000,258.333 40.075,258.333 40.167 C 258.333 40.258,258.113 40.333,257.843 40.333 C 257.574 40.333,257.307 40.408,257.250 40.500 C 257.193 40.592,256.886 40.667,256.568 40.667 C 256.249 40.667,255.813 40.782,255.598 40.922 C 255.299 41.118,255.054 41.143,254.547 41.029 C 254.043 40.916,253.770 40.942,253.401 41.141 C 252.980 41.368,252.025 41.396,246.083 41.356 C 237.972 41.301,237.581 41.374,238.750 42.734 C 238.979 43.001,239.167 43.270,239.167 43.333 C 239.167 43.396,239.354 43.666,239.583 43.932 C 239.812 44.199,240.000 44.461,240.000 44.516 C 240.000 44.570,240.187 44.833,240.416 45.099 C 240.646 45.365,240.833 45.677,240.833 45.792 C 240.833 45.906,240.896 46.000,240.972 46.000 C 241.048 46.000,241.217 46.206,241.347 46.458 C 241.476 46.710,241.624 46.954,241.675 47.000 C 241.725 47.046,242.210 47.721,242.752 48.500 C 243.294 49.279,243.797 49.942,243.869 49.972 C 243.941 50.003,244.000 50.115,244.000 50.222 C 244.000 50.329,244.188 50.635,244.417 50.901 C 244.646 51.167,244.834 51.430,244.834 51.484 C 244.834 51.539,245.059 51.846,245.333 52.167 C 245.608 52.487,245.833 52.837,245.833 52.944 C 245.833 53.051,245.900 53.164,245.982 53.194 C 246.064 53.225,246.271 53.483,246.441 53.767 C 246.775 54.327,248.356 56.565,248.755 57.044 C 248.890 57.205,249.000 57.398,249.000 57.473 C 249.000 57.547,249.188 57.785,249.417 58.000 C 249.646 58.215,249.834 58.472,249.834 58.571 C 249.834 58.669,250.059 59.012,250.333 59.333 C 250.608 59.654,250.833 60.010,250.833 60.125 C 250.833 60.240,250.896 60.333,250.972 60.333 C 251.048 60.333,251.217 60.540,251.347 60.792 C 251.477 61.044,251.681 61.353,251.801 61.479 C 251.920 61.605,252.402 62.280,252.871 62.979 C 253.341 63.678,253.787 64.275,253.862 64.306 C 253.938 64.336,254.000 64.454,254.000 64.568 C 254.000 64.682,254.188 64.951,254.417 65.167 C 254.646 65.382,254.834 65.639,254.834 65.737 C 254.834 65.836,255.059 66.179,255.333 66.500 C 255.608 66.821,255.833 67.177,255.833 67.292 C 255.833 67.406,255.900 67.500,255.981 67.500 C 256.062 67.500,256.253 67.762,256.405 68.083 C 256.558 68.404,256.741 68.667,256.813 68.667 C 256.885 68.667,257.050 68.873,257.180 69.125 C 257.310 69.377,257.536 69.716,257.682 69.878 C 257.827 70.040,258.052 70.377,258.182 70.628 C 258.311 70.878,258.548 71.181,258.708 71.301 C 258.869 71.421,259.000 71.630,259.000 71.765 C 259.000 71.900,259.112 72.054,259.250 72.106 C 259.387 72.159,259.500 72.307,259.500 72.434 C 259.500 72.562,259.575 72.667,259.667 72.667 C 259.758 72.667,259.833 72.765,259.833 72.885 C 259.833 73.005,259.983 73.265,260.167 73.462 C 260.350 73.658,260.500 73.879,260.500 73.951 C 260.500 74.024,260.688 74.301,260.917 74.568 C 261.146 74.834,261.334 75.096,261.334 75.151 C 261.334 75.205,261.559 75.512,261.833 75.833 C 262.108 76.154,262.333 76.510,262.333 76.625 C 262.333 76.740,262.392 76.833,262.464 76.833 C 262.536 76.833,262.737 77.077,262.911 77.375 C 263.294 78.031,264.202 79.229,264.375 79.306 C 264.444 79.336,264.500 79.467,264.500 79.597 C 264.500 79.727,264.575 79.833,264.667 79.833 C 264.758 79.833,264.833 79.946,264.833 80.083 C 264.833 80.302,265.934 80.333,273.740 80.333 C 282.525 80.333,282.646 80.329,282.621 80.002 C 282.605 79.791,282.538 79.729,282.436 79.830 C 282.269 79.997,281.333 79.153,281.333 78.835 C 281.333 78.743,281.081 78.386,280.772 78.042 C 280.463 77.698,280.158 77.248,280.094 77.042 C 280.030 76.835,279.889 76.666,279.780 76.665 C 279.518 76.662,278.794 75.531,278.922 75.324 C 278.978 75.235,279.104 75.212,279.204 75.273 C 279.306 75.336,279.337 75.308,279.276 75.208 C 279.215 75.111,279.025 75.068,278.853 75.113 C 278.492 75.208,277.564 74.134,277.748 73.836 C 277.809 73.739,277.786 73.679,277.697 73.704 C 277.514 73.756,276.934 73.136,276.533 72.458 C 276.384 72.206,276.205 72.000,276.135 72.000 C 276.018 72.000,275.500 71.127,275.500 70.930 C 275.500 70.883,275.631 70.886,275.792 70.938 C 276.029 71.014,276.039 71.000,275.841 70.860 C 275.708 70.766,275.548 70.720,275.486 70.758 C 275.351 70.842,274.500 70.019,274.500 69.804 C 274.500 69.721,274.342 69.487,274.149 69.285 C 273.956 69.082,273.617 68.635,273.397 68.292 C 273.176 67.948,272.927 67.667,272.843 67.667 C 272.759 67.667,272.558 67.365,272.396 66.997 C 272.233 66.629,271.928 66.215,271.717 66.077 C 271.506 65.939,271.333 65.750,271.333 65.658 C 271.333 65.566,271.090 65.223,270.792 64.896 C 270.494 64.568,270.250 64.214,270.250 64.109 C 270.250 64.003,270.006 63.679,269.708 63.389 C 269.410 63.099,269.167 62.780,269.167 62.681 C 269.167 62.581,269.085 62.500,268.986 62.500 C 268.887 62.500,268.840 62.406,268.882 62.292 C 268.924 62.177,269.061 62.108,269.187 62.139 C 269.314 62.169,269.358 62.136,269.287 62.065 C 269.216 61.994,268.999 61.912,268.805 61.882 C 268.335 61.810,267.794 61.168,267.891 60.796 C 267.934 60.633,267.911 60.536,267.839 60.580 C 267.672 60.683,267.000 60.103,267.000 59.855 C 267.000 59.752,266.916 59.667,266.814 59.667 C 266.710 59.667,266.666 59.520,266.715 59.333 C 266.763 59.150,266.746 59.034,266.677 59.077 C 266.515 59.177,265.479 58.169,265.578 58.008 C 265.620 57.941,265.394 57.635,265.077 57.327 C 264.760 57.020,264.500 56.687,264.500 56.587 C 264.500 56.488,264.237 56.159,263.917 55.856 C 263.596 55.554,263.333 55.214,263.333 55.101 C 263.333 54.988,263.108 54.680,262.833 54.417 C 262.558 54.153,262.333 53.848,262.333 53.739 C 262.333 53.630,262.221 53.447,262.083 53.333 C 261.729 53.039,261.773 52.779,262.161 52.880 C 262.341 52.927,262.575 52.861,262.681 52.733 C 262.787 52.605,263.053 52.500,263.273 52.500 C 263.492 52.500,263.839 52.413,264.044 52.307 C 264.815 51.909,265.001 51.833,265.215 51.833 C 265.500 51.833,267.233 50.978,267.306 50.802 C 267.336 50.727,267.505 50.667,267.681 50.667 C 267.856 50.667,268.000 50.592,268.000 50.500 C 268.000 50.408,268.150 50.333,268.333 50.333 C 268.517 50.333,268.667 50.267,268.667 50.186 C 268.667 50.105,268.798 49.995,268.958 49.941 C 269.400 49.792,270.330 49.227,270.728 48.865 C 270.924 48.687,271.170 48.514,271.276 48.480 C 272.001 48.243,275.950 44.310,276.564 43.213 C 276.654 43.052,276.864 42.774,277.031 42.596 C 277.197 42.417,277.333 42.204,277.333 42.124 C 277.333 42.043,277.577 41.626,277.875 41.197 C 278.553 40.219,278.833 39.694,278.833 39.398 C 278.833 39.271,278.908 39.167,279.000 39.167 C 279.092 39.167,279.167 39.021,279.167 38.843 C 279.167 38.665,279.242 38.473,279.333 38.417 C 279.425 38.360,279.500 38.166,279.500 37.985 C 279.500 37.804,279.618 37.611,279.762 37.556 C 279.938 37.488,279.994 37.331,279.931 37.080 C 279.873 36.849,279.935 36.623,280.093 36.492 C 280.233 36.376,280.313 36.187,280.269 36.073 C 280.225 35.959,280.295 35.727,280.423 35.558 C 280.551 35.389,280.658 35.010,280.661 34.717 C 280.664 34.423,280.760 34.123,280.875 34.050 C 281.112 33.899,281.135 33.572,281.298 28.138 C 281.363 25.969,281.474 24.137,281.543 24.068 C 281.613 23.998,281.509 23.770,281.313 23.562 C 281.017 23.246,280.970 23.039,281.037 22.341 C 281.100 21.689,281.065 21.500,280.882 21.500 C 280.712 21.500,280.661 21.327,280.698 20.875 C 280.734 20.438,280.657 20.157,280.443 19.943 C 280.274 19.774,280.172 19.498,280.216 19.329 C 280.261 19.158,280.194 18.982,280.065 18.933 C 279.777 18.822,279.757 18.171,280.042 18.155 C 280.156 18.149,280.081 18.063,279.875 17.963 C 279.644 17.852,279.500 17.632,279.500 17.391 C 279.500 17.176,279.425 17.000,279.333 17.000 C 279.242 17.000,279.167 16.886,279.167 16.748 C 279.167 16.609,279.100 16.365,279.019 16.206 C 278.938 16.047,278.771 15.692,278.648 15.417 C 278.524 15.142,278.253 14.685,278.045 14.401 C 277.837 14.117,277.667 13.799,277.667 13.693 C 277.667 13.587,277.592 13.500,277.500 13.500 C 277.408 13.500,277.333 13.402,277.333 13.281 C 277.333 13.161,277.183 12.902,277.000 12.705 C 276.817 12.508,276.667 12.276,276.667 12.188 C 276.667 12.100,276.420 11.774,276.118 11.463 C 275.816 11.153,275.387 10.640,275.166 10.324 C 274.389 9.218,271.182 6.333,270.729 6.333 C 270.618 6.333,270.503 6.270,270.472 6.192 C 270.388 5.979,268.824 4.914,268.208 4.650 C 267.910 4.523,267.667 4.362,267.667 4.293 C 267.667 4.223,267.521 4.167,267.343 4.167 C 267.165 4.167,266.973 4.092,266.917 4.000 C 266.860 3.908,266.668 3.833,266.490 3.833 C 266.312 3.833,266.167 3.758,266.167 3.667 C 266.167 3.575,266.073 3.499,265.958 3.498 C 265.844 3.498,265.375 3.312,264.917 3.087 C 264.458 2.862,263.952 2.675,263.792 2.672 C 263.631 2.669,263.500 2.592,263.500 2.500 C 263.500 2.408,263.279 2.333,263.010 2.333 C 262.740 2.333,262.473 2.258,262.417 2.167 C 262.360 2.075,262.060 2.000,261.750 2.000 C 261.440 2.000,261.145 1.933,261.094 1.851 C 261.044 1.769,260.720 1.659,260.376 1.606 C 260.032 1.553,259.262 1.429,258.667 1.331 C 258.071 1.232,256.908 1.089,256.083 1.013 C 255.258 0.936,254.321 0.784,254.000 0.674 C 253.277 0.428,231.355 0.200,223.000 0.352 M311.583 0.328 L 309.083 0.417 309.041 40.375 L 308.999 80.333 315.833 80.333 L 322.667 80.333 322.667 79.292 C 322.667 78.719,322.672 65.355,322.677 49.593 C 322.682 33.832,322.728 20.869,322.779 20.786 C 322.870 20.639,325.763 23.532,338.055 36.062 C 341.371 39.442,344.293 42.404,344.550 42.645 C 345.680 43.706,367.621 65.686,374.500 72.649 L 382.083 80.325 390.875 80.329 C 395.710 80.331,399.667 80.273,399.667 80.199 C 399.667 80.041,399.000 79.294,397.030 77.246 C 394.704 74.827,393.375 73.265,393.454 73.042 C 393.499 72.914,393.433 72.869,393.285 72.926 C 393.030 73.024,392.765 72.579,392.925 72.320 C 392.976 72.238,392.899 72.216,392.753 72.272 C 392.507 72.366,391.667 71.609,391.667 71.292 C 391.667 71.223,391.595 71.167,391.508 71.167 C 391.334 71.167,389.987 69.959,389.024 68.940 C 388.690 68.586,387.554 67.417,386.500 66.343 C 385.446 65.269,384.058 63.807,383.417 63.094 C 382.775 62.380,381.742 61.276,381.120 60.640 C 380.485 59.990,380.040 59.403,380.104 59.299 C 380.176 59.184,380.141 59.163,380.013 59.242 C 379.809 59.368,373.432 53.056,371.020 50.342 C 370.413 49.659,368.154 47.331,366.000 45.168 C 363.846 43.006,360.985 40.077,359.643 38.660 C 358.301 37.243,355.622 34.484,353.689 32.529 C 351.756 30.574,349.404 28.147,348.463 27.135 C 347.521 26.124,344.950 23.481,342.750 21.262 C 340.550 19.043,338.000 16.414,337.083 15.419 C 336.167 14.425,333.392 11.566,330.917 9.067 C 328.442 6.568,325.517 3.581,324.417 2.428 L 322.417 0.333 318.472 0.333 C 316.302 0.333,314.427 0.312,314.305 0.286 C 314.183 0.261,312.958 0.279,311.583 0.328 M91.818 0.697 C 91.729 0.863,91.667 17.288,91.667 40.656 L 91.667 80.333 98.845 80.333 L 106.024 80.333 105.980 50.953 C 105.956 34.793,105.988 21.487,106.052 21.384 C 106.116 21.280,106.086 21.168,105.985 21.134 C 105.883 21.100,105.827 20.887,105.859 20.661 C 105.910 20.300,106.362 20.705,109.583 23.996 C 111.600 26.056,115.889 30.406,119.115 33.662 C 122.341 36.919,125.941 40.567,127.115 41.769 C 131.548 46.307,141.656 56.591,146.117 61.102 C 148.665 63.679,153.969 69.060,157.902 73.060 L 165.055 80.333 171.861 80.333 L 178.667 80.333 178.625 40.458 L 178.583 0.583 171.917 0.500 C 168.250 0.454,165.119 0.444,164.958 0.478 C 164.682 0.536,164.667 2.025,164.664 28.894 C 164.663 44.490,164.617 57.419,164.562 57.625 C 164.473 57.954,163.741 57.280,158.606 52.142 C 155.385 48.920,152.771 46.215,152.796 46.130 C 152.821 46.045,152.779 46.014,152.702 46.062 C 152.625 46.109,151.741 45.323,150.739 44.313 C 149.737 43.304,148.219 41.790,147.366 40.948 C 146.514 40.106,144.901 38.488,143.783 37.353 C 142.665 36.217,141.609 35.167,141.437 35.019 C 140.918 34.572,140.452 34.099,139.724 33.280 C 139.342 32.851,138.967 32.498,138.890 32.496 C 138.813 32.494,138.525 32.228,138.250 31.903 C 137.418 30.923,136.521 30.001,136.382 29.983 C 136.309 29.974,135.912 29.586,135.500 29.121 C 135.087 28.655,134.855 28.337,134.984 28.413 C 135.142 28.507,135.180 28.489,135.099 28.359 C 135.034 28.253,134.883 28.167,134.763 28.167 C 134.644 28.167,134.142 27.748,133.648 27.235 C 133.154 26.723,132.610 26.179,132.440 26.027 C 132.269 25.875,131.782 25.387,131.357 24.944 C 130.931 24.501,130.218 23.788,129.771 23.361 C 129.324 22.933,128.837 22.443,128.688 22.271 C 128.539 22.100,128.121 21.687,127.759 21.355 C 127.398 21.022,126.760 20.385,126.343 19.939 C 125.925 19.492,125.363 18.930,125.094 18.689 C 124.825 18.447,124.337 17.958,124.011 17.601 C 123.684 17.244,123.281 16.831,123.116 16.684 C 122.951 16.537,119.388 13.017,115.199 8.861 C 111.011 4.706,107.284 1.082,106.919 0.809 L 106.254 0.312 99.111 0.365 C 92.618 0.412,91.955 0.442,91.818 0.697 M91.076 8.667 C 91.076 12.471,91.098 14.027,91.125 12.125 C 91.152 10.223,91.152 7.110,91.125 5.208 C 91.098 3.306,91.076 4.862,91.076 8.667 M220.958 14.124 C 221.806 14.154,223.194 14.154,224.042 14.124 C 224.890 14.094,224.196 14.069,222.500 14.069 C 220.804 14.069,220.110 14.094,220.958 14.124 M235.208 14.115 C 235.369 14.157,235.631 14.157,235.792 14.115 C 235.952 14.073,235.821 14.039,235.500 14.039 C 235.179 14.039,235.048 14.073,235.208 14.115 M242.375 14.115 C 242.535 14.157,242.798 14.157,242.958 14.115 C 243.119 14.073,242.987 14.039,242.667 14.039 C 242.346 14.039,242.215 14.073,242.375 14.115 M91.063 18.667 C 91.063 19.721,91.090 20.152,91.123 19.625 C 91.156 19.098,91.156 18.235,91.123 17.708 C 91.090 17.181,91.063 17.612,91.063 18.667 M91.078 36.750 C 91.078 42.250,91.099 44.476,91.125 41.696 C 91.151 38.917,91.151 34.417,91.125 31.696 C 91.099 28.976,91.078 31.250,91.078 36.750 M357.086 35.380 C 357.247 35.635,357.420 35.802,357.472 35.751 C 357.523 35.699,357.391 35.491,357.179 35.287 L 356.793 34.917 357.086 35.380 M19.083 40.311 C 18.611 40.470,17.500 41.176,17.500 41.319 C 17.500 41.385,17.181 41.617,16.792 41.834 C 16.402 42.051,16.007 42.331,15.914 42.455 C 15.821 42.579,15.588 42.771,15.396 42.882 C 15.043 43.086,13.827 43.975,13.290 44.422 C 13.128 44.557,12.936 44.667,12.863 44.667 C 12.790 44.667,12.584 44.800,12.406 44.963 C 12.229 45.127,11.783 45.482,11.417 45.754 C 11.050 46.026,10.713 46.292,10.667 46.345 C 10.621 46.398,10.096 46.765,9.500 47.159 C 8.904 47.554,8.342 47.965,8.250 48.072 C 8.158 48.180,7.708 48.521,7.250 48.831 C 6.792 49.141,6.379 49.437,6.333 49.489 C 6.287 49.541,6.130 49.658,5.983 49.750 C 5.704 49.924,4.430 50.865,4.000 51.215 C 3.862 51.326,3.225 51.789,2.583 52.243 C 1.942 52.698,1.320 53.163,1.202 53.279 C 1.084 53.394,0.766 53.620,0.494 53.780 L 0.000 54.072 0.000 67.119 C 0.000 77.593,0.042 80.167,0.213 80.167 C 0.410 80.167,1.564 79.368,2.750 78.410 C 3.025 78.188,3.344 78.005,3.458 78.003 C 3.573 78.001,3.667 77.941,3.667 77.869 C 3.667 77.797,3.873 77.616,4.125 77.465 C 4.377 77.315,4.733 77.051,4.917 76.879 C 5.100 76.707,5.813 76.175,6.500 75.697 C 7.733 74.840,8.818 74.042,9.362 73.590 C 9.515 73.463,9.815 73.267,10.028 73.155 C 10.242 73.042,10.454 72.901,10.500 72.841 C 10.546 72.781,10.883 72.512,11.250 72.242 C 11.617 71.973,11.954 71.708,12.000 71.655 C 12.046 71.602,12.544 71.248,13.107 70.868 C 13.670 70.489,14.233 70.078,14.357 69.956 C 14.482 69.834,14.958 69.480,15.417 69.170 C 15.875 68.859,16.287 68.563,16.333 68.511 C 16.379 68.459,16.535 68.342,16.680 68.250 C 17.133 67.963,18.518 66.933,18.977 66.542 C 19.219 66.336,19.510 66.167,19.625 66.167 C 19.740 66.167,19.834 66.110,19.834 66.042 C 19.835 65.973,20.111 65.729,20.447 65.500 C 20.784 65.271,21.140 65.004,21.238 64.907 C 21.336 64.810,21.979 64.340,22.667 63.863 C 23.913 62.998,24.986 62.208,25.544 61.744 C 25.705 61.610,25.874 61.500,25.918 61.500 C 26.009 61.500,27.894 60.077,28.402 59.625 C 28.582 59.465,28.828 59.333,28.948 59.333 C 29.068 59.333,29.167 59.275,29.167 59.203 C 29.167 59.131,29.373 58.949,29.625 58.799 C 29.877 58.649,30.233 58.386,30.417 58.214 C 30.600 58.043,31.125 57.648,31.583 57.337 C 32.042 57.026,32.454 56.730,32.500 56.678 C 32.546 56.626,32.703 56.508,32.850 56.417 C 33.165 56.220,34.458 55.260,34.877 54.911 C 35.038 54.777,35.230 54.667,35.304 54.667 C 35.377 54.667,35.583 54.535,35.760 54.375 C 35.938 54.215,36.384 53.861,36.750 53.588 C 37.117 53.316,37.562 52.960,37.740 52.797 C 37.917 52.634,38.161 52.500,38.281 52.500 C 38.402 52.500,38.500 52.444,38.500 52.375 C 38.500 52.306,38.838 52.037,39.250 51.776 C 39.663 51.516,40.000 51.253,40.001 51.193 C 40.001 51.133,40.413 50.821,40.917 50.500 C 41.420 50.179,41.832 49.860,41.832 49.792 C 41.833 49.723,41.927 49.666,42.042 49.666 C 42.156 49.666,42.512 49.437,42.833 49.158 C 43.154 48.879,43.623 48.525,43.875 48.373 C 44.127 48.220,44.333 48.036,44.333 47.964 C 44.333 47.892,44.432 47.833,44.552 47.833 C 44.672 47.833,44.916 47.700,45.094 47.537 C 45.271 47.374,45.679 47.063,46.000 46.845 C 46.321 46.627,46.658 46.361,46.750 46.255 C 46.842 46.148,47.479 45.671,48.167 45.195 C 49.410 44.334,50.483 43.544,51.044 43.077 C 51.205 42.943,51.397 42.833,51.470 42.833 C 51.544 42.833,51.749 42.702,51.927 42.542 C 52.105 42.381,52.550 42.027,52.917 41.755 C 54.175 40.821,54.447 40.511,54.167 40.332 C 53.883 40.150,19.625 40.130,19.083 40.311 M362.500 61.385 C 362.500 61.414,362.744 61.658,363.042 61.927 L 363.583 62.417 363.094 61.875 C 362.638 61.370,362.500 61.257,362.500 61.385 " stroke="none" fill="currentColor" fill-rule="evenodd"></path><path id="path1" d="M0.000 13.488 L 0.000 26.975 1.303 27.946 C 2.862 29.107,3.948 29.906,4.888 30.586 C 5.270 30.862,6.296 31.617,7.167 32.264 C 8.037 32.910,9.125 33.691,9.583 34.000 C 10.042 34.309,10.454 34.605,10.500 34.659 C 10.546 34.713,11.296 35.276,12.167 35.911 C 13.037 36.545,14.275 37.447,14.917 37.915 C 15.558 38.383,16.477 39.050,16.958 39.397 C 17.894 40.072,18.003 40.305,17.542 40.635 C 15.581 42.038,12.132 44.544,9.583 46.417 C 8.392 47.293,6.993 48.305,6.476 48.666 C 5.959 49.026,5.415 49.442,5.268 49.589 C 5.120 49.737,5.000 49.800,5.000 49.731 C 5.000 49.661,4.794 49.794,4.542 50.027 C 4.290 50.259,3.558 50.815,2.917 51.261 C 2.275 51.707,1.712 52.116,1.667 52.170 C 1.621 52.223,1.227 52.520,0.792 52.829 C 0.130 53.298,-0.285 54.000,0.099 54.000 C 0.207 54.000,1.198 53.329,1.333 53.165 C 1.379 53.109,1.942 52.693,2.583 52.241 C 3.225 51.788,3.862 51.326,4.000 51.215 C 4.430 50.865,5.704 49.924,5.983 49.750 C 6.130 49.658,6.287 49.541,6.333 49.489 C 6.379 49.437,6.792 49.141,7.250 48.831 C 7.708 48.521,8.158 48.180,8.250 48.072 C 8.342 47.965,8.904 47.554,9.500 47.159 C 10.096 46.765,10.621 46.398,10.667 46.345 C 10.713 46.292,11.050 46.026,11.417 45.754 C 11.783 45.482,12.229 45.127,12.406 44.963 C 12.584 44.800,12.790 44.667,12.863 44.667 C 12.936 44.667,13.128 44.557,13.290 44.422 C 13.827 43.975,15.043 43.086,15.396 42.882 C 15.588 42.771,15.821 42.576,15.914 42.449 C 16.007 42.322,16.320 42.096,16.609 41.946 C 16.898 41.797,17.260 41.549,17.413 41.397 C 17.566 41.244,17.967 40.923,18.304 40.684 L 18.917 40.250 36.417 40.209 C 47.512 40.183,54.008 40.228,54.167 40.330 C 54.447 40.511,54.176 40.820,52.917 41.755 C 52.550 42.027,52.105 42.381,51.927 42.542 C 51.749 42.702,51.544 42.833,51.470 42.833 C 51.397 42.833,51.205 42.943,51.044 43.077 C 50.483 43.544,49.410 44.334,48.167 45.195 C 47.479 45.671,46.842 46.148,46.750 46.255 C 46.658 46.361,46.321 46.627,46.000 46.845 C 45.679 47.063,45.271 47.374,45.094 47.537 C 44.916 47.700,44.672 47.833,44.552 47.833 C 44.432 47.833,44.333 47.892,44.333 47.964 C 44.333 48.036,44.127 48.220,43.875 48.373 C 43.623 48.525,43.154 48.879,42.833 49.158 C 42.512 49.437,42.156 49.666,42.042 49.666 C 41.927 49.666,41.833 49.723,41.832 49.792 C 41.832 49.860,41.420 50.179,40.917 50.500 C 40.413 50.821,40.001 51.133,40.001 51.193 C 40.000 51.253,39.663 51.516,39.250 51.776 C 38.838 52.037,38.500 52.306,38.500 52.375 C 38.500 52.444,38.402 52.500,38.281 52.500 C 38.161 52.500,37.917 52.634,37.740 52.797 C 37.562 52.960,37.117 53.316,36.750 53.588 C 36.384 53.861,35.938 54.215,35.760 54.375 C 35.583 54.535,35.377 54.667,35.304 54.667 C 35.230 54.667,35.038 54.777,34.877 54.911 C 34.458 55.260,33.165 56.220,32.850 56.417 C 32.703 56.508,32.546 56.626,32.500 56.678 C 32.454 56.730,32.042 57.026,31.583 57.337 C 31.125 57.648,30.600 58.043,30.417 58.214 C 30.233 58.386,29.877 58.649,29.625 58.799 C 29.373 58.949,29.167 59.131,29.167 59.203 C 29.167 59.275,29.068 59.333,28.948 59.333 C 28.828 59.333,28.582 59.465,28.402 59.625 C 27.894 60.077,26.009 61.500,25.918 61.500 C 25.874 61.500,25.705 61.610,25.544 61.744 C 24.986 62.208,23.913 62.998,22.667 63.863 C 21.979 64.340,21.336 64.810,21.238 64.907 C 21.140 65.004,20.784 65.271,20.447 65.500 C 20.111 65.729,19.835 65.973,19.834 66.042 C 19.834 66.110,19.740 66.167,19.625 66.167 C 19.510 66.167,19.219 66.336,18.977 66.542 C 18.518 66.933,17.133 67.963,16.680 68.250 C 16.535 68.342,16.379 68.459,16.333 68.511 C 16.287 68.563,15.875 68.859,15.417 69.170 C 14.958 69.480,14.482 69.834,14.357 69.956 C 14.233 70.078,13.670 70.489,13.107 70.868 C 12.544 71.248,12.046 71.602,12.000 71.655 C 11.954 71.708,11.617 71.973,11.250 72.242 C 10.883 72.512,10.546 72.781,10.500 72.841 C 10.454 72.901,10.242 73.042,10.028 73.155 C 9.815 73.267,9.515 73.463,9.362 73.590 C 8.818 74.042,7.733 74.840,6.500 75.697 C 5.813 76.175,5.100 76.707,4.917 76.879 C 4.733 77.051,4.377 77.315,4.125 77.465 C 3.873 77.616,3.667 77.797,3.667 77.869 C 3.667 77.941,3.573 78.000,3.458 78.000 C 3.344 78.000,3.052 78.169,2.810 78.375 C 2.124 78.960,0.794 79.896,0.334 80.117 C -0.074 80.314,-0.070 80.318,0.527 80.326 C 1.134 80.333,1.957 79.811,4.906 77.548 C 5.359 77.201,6.306 76.504,7.012 76.000 C 7.717 75.496,9.206 74.408,10.320 73.583 C 11.435 72.758,12.625 71.896,12.966 71.667 C 13.307 71.438,14.597 70.496,15.834 69.575 C 17.071 68.653,19.008 67.228,20.138 66.408 C 22.593 64.625,23.802 63.741,26.501 61.750 C 27.619 60.925,29.155 59.800,29.914 59.250 C 33.094 56.944,34.012 56.272,35.833 54.915 C 36.887 54.130,38.425 53.004,39.250 52.414 C 40.075 51.825,41.612 50.700,42.667 49.914 C 43.721 49.129,45.258 48.003,46.083 47.411 C 46.908 46.819,48.121 45.941,48.779 45.459 C 49.436 44.977,50.824 43.962,51.862 43.202 C 52.900 42.442,53.864 41.729,54.003 41.618 C 54.143 41.507,54.536 41.207,54.878 40.950 C 55.220 40.693,55.500 40.344,55.500 40.173 C 55.500 39.873,54.627 39.000,54.326 39.000 C 54.245 39.000,53.407 38.425,52.464 37.723 C 50.283 36.098,48.519 34.804,47.064 33.760 C 45.918 32.938,44.451 31.867,42.250 30.247 C 41.608 29.775,40.521 28.978,39.833 28.476 C 35.916 25.618,35.067 24.996,34.917 24.875 C 34.825 24.801,34.487 24.559,34.167 24.337 C 33.846 24.115,33.546 23.888,33.500 23.833 C 33.454 23.779,33.154 23.554,32.833 23.334 C 32.210 22.907,29.650 21.041,26.167 18.474 C 23.491 16.503,22.162 15.528,20.179 14.083 C 19.046 13.258,17.549 12.165,16.851 11.655 C 16.154 11.144,14.983 10.288,14.250 9.753 C 13.517 9.218,12.518 8.474,12.031 8.099 C 11.096 7.379,9.293 6.068,6.978 4.428 C 6.211 3.884,5.312 3.209,4.980 2.928 C 4.648 2.647,3.804 2.016,3.105 1.525 C 1.927 0.700,1.588 0.333,2.000 0.333 C 2.092 0.333,2.167 0.258,2.167 0.167 C 2.167 0.073,1.694 0.000,1.083 0.000 L 0.000 0.000 0.000 13.488 M70.667 40.167 C 70.667 80.222,70.668 80.333,71.000 80.333 C 71.332 80.333,71.333 80.222,71.333 40.167 C 71.333 0.111,71.332 0.000,71.000 0.000 C 70.668 0.000,70.667 0.111,70.667 40.167 M85.333 40.167 C 85.333 75.759,85.362 80.333,85.583 80.333 C 85.805 80.333,85.833 75.759,85.833 40.167 C 85.833 4.574,85.805 0.000,85.583 0.000 C 85.362 0.000,85.333 4.574,85.333 40.167 M90.948 0.792 C 91.022 1.227,91.061 19.302,91.033 40.958 L 90.982 80.333 91.325 80.333 L 91.667 80.333 91.669 40.625 C 91.671 18.785,91.732 0.822,91.805 0.707 C 91.907 0.546,93.604 0.475,99.096 0.405 L 106.254 0.312 106.919 0.809 C 107.284 1.082,111.011 4.706,115.199 8.861 C 119.388 13.017,122.951 16.537,123.116 16.684 C 123.281 16.831,123.684 17.244,124.011 17.601 C 124.337 17.958,124.825 18.447,125.094 18.689 C 125.363 18.930,125.925 19.492,126.343 19.939 C 126.760 20.385,127.398 21.022,127.759 21.355 C 128.121 21.687,128.539 22.100,128.688 22.271 C 128.837 22.443,129.324 22.933,129.771 23.361 C 130.218 23.788,130.931 24.501,131.357 24.944 C 131.782 25.387,132.269 25.875,132.440 26.027 C 132.610 26.179,133.154 26.723,133.648 27.235 C 134.142 27.748,134.644 28.167,134.763 28.167 C 134.883 28.167,135.034 28.253,135.099 28.359 C 135.180 28.489,135.142 28.507,134.984 28.413 C 134.855 28.337,135.087 28.655,135.500 29.121 C 135.912 29.586,136.309 29.974,136.382 29.983 C 136.521 30.001,137.418 30.923,138.250 31.903 C 138.525 32.228,138.813 32.494,138.890 32.496 C 138.967 32.498,139.342 32.851,139.724 33.280 C 140.452 34.099,140.918 34.572,141.437 35.019 C 141.609 35.167,142.665 36.217,143.783 37.353 C 144.901 38.488,146.514 40.106,147.366 40.948 C 148.219 41.790,149.737 43.304,150.739 44.313 C 151.741 45.323,152.625 46.109,152.702 46.062 C 152.779 46.014,152.821 46.045,152.796 46.130 C 152.771 46.215,155.385 48.920,158.606 52.142 C 163.741 57.280,164.473 57.954,164.562 57.625 C 164.617 57.419,164.663 44.490,164.664 28.894 C 164.667 2.025,164.682 0.536,164.958 0.478 C 165.119 0.444,168.250 0.454,171.917 0.500 L 178.583 0.583 178.625 40.458 C 178.667 80.195,178.669 80.333,179.000 80.333 C 179.332 80.333,179.333 80.208,179.333 40.167 L 179.333 0.000 171.750 0.000 C 165.798 0.000,164.165 0.045,164.160 0.208 C 164.156 0.323,164.158 12.989,164.163 28.355 C 164.168 43.721,164.129 56.405,164.076 56.542 C 164.008 56.719,163.062 55.884,160.841 53.688 C 159.114 51.980,157.149 50.042,156.475 49.380 C 155.801 48.718,152.518 45.441,149.178 42.097 C 145.838 38.754,143.033 36.063,142.944 36.118 C 142.855 36.173,142.827 36.145,142.882 36.056 C 143.016 35.839,139.607 32.452,139.423 32.619 C 139.344 32.691,139.324 32.671,139.379 32.575 C 139.505 32.354,127.608 20.448,127.434 20.621 C 127.364 20.692,127.331 20.663,127.361 20.556 C 127.392 20.449,123.254 16.203,118.167 11.121 C 106.933 -0.101,107.716 0.717,107.967 0.466 C 108.077 0.357,108.167 0.207,108.167 0.133 C 108.167 0.060,104.262 0.000,99.490 0.000 L 90.813 0.000 90.948 0.792 M184.667 40.167 C 184.667 66.892,184.723 80.333,184.834 80.333 C 184.945 80.333,185.000 67.057,184.999 40.659 C 184.997 15.488,185.055 0.875,185.157 0.684 C 185.504 0.036,199.971 -0.060,200.433 0.583 C 200.565 0.767,200.767 1.029,200.882 1.167 C 200.997 1.304,201.463 1.942,201.917 2.583 C 202.371 3.225,202.838 3.849,202.955 3.970 C 203.071 4.091,203.167 4.247,203.167 4.315 C 203.167 4.384,203.392 4.692,203.667 5.000 C 203.942 5.308,204.167 5.642,204.167 5.743 C 204.167 5.844,204.317 6.035,204.500 6.167 C 204.683 6.299,204.833 6.534,204.833 6.690 C 204.833 6.845,204.892 6.997,204.964 7.028 C 205.037 7.058,205.540 7.721,206.083 8.500 C 206.627 9.279,207.130 9.942,207.202 9.972 C 207.274 10.003,207.333 10.137,207.333 10.271 C 207.333 10.405,207.521 10.703,207.750 10.932 C 207.979 11.161,208.167 11.401,208.167 11.466 C 208.167 11.530,208.392 11.846,208.667 12.167 C 208.941 12.487,209.166 12.809,209.166 12.882 C 209.166 12.955,209.317 13.175,209.500 13.372 C 209.683 13.569,209.833 13.828,209.833 13.948 C 209.833 14.068,209.892 14.167,209.964 14.167 C 210.036 14.167,210.238 14.410,210.412 14.708 C 210.587 15.006,211.091 15.717,211.532 16.287 C 211.973 16.857,212.333 17.393,212.333 17.478 C 212.333 17.562,212.520 17.808,212.747 18.024 C 212.975 18.240,213.162 18.492,213.164 18.583 C 213.166 18.675,213.354 18.968,213.584 19.234 C 213.813 19.501,214.000 19.771,214.000 19.835 C 214.000 19.899,214.188 20.154,214.417 20.401 C 214.646 20.648,214.833 20.959,214.833 21.092 C 214.833 21.225,214.890 21.333,214.958 21.334 C 215.027 21.334,215.308 21.670,215.583 22.080 C 215.858 22.490,216.140 22.828,216.208 22.830 C 216.277 22.832,216.333 22.930,216.333 23.048 C 216.333 23.166,216.555 23.522,216.827 23.840 C 217.098 24.157,217.323 24.499,217.327 24.599 C 217.330 24.700,217.492 24.925,217.686 25.099 C 217.880 25.274,218.107 25.567,218.190 25.750 C 218.354 26.110,219.022 27.096,219.376 27.500 C 219.497 27.637,219.780 28.031,220.006 28.374 C 220.232 28.717,220.473 28.998,220.542 28.999 C 220.610 28.999,220.667 29.116,220.667 29.258 C 220.667 29.399,220.854 29.703,221.083 29.932 C 221.313 30.161,221.500 30.410,221.500 30.485 C 221.500 30.638,222.293 31.705,222.869 32.328 C 223.079 32.554,223.228 32.835,223.201 32.953 C 223.174 33.071,223.217 33.167,223.295 33.167 C 223.374 33.167,223.615 33.485,223.831 33.875 C 224.047 34.265,224.320 34.641,224.437 34.712 C 224.554 34.782,224.817 35.139,225.022 35.503 C 225.227 35.868,225.456 36.167,225.531 36.167 C 225.605 36.167,225.667 36.265,225.667 36.385 C 225.667 36.505,225.809 36.756,225.982 36.943 C 226.156 37.129,226.420 37.518,226.570 37.807 C 226.719 38.097,226.910 38.333,226.993 38.333 C 227.076 38.333,227.193 38.486,227.252 38.672 C 227.311 38.858,227.541 39.192,227.763 39.414 C 227.985 39.637,228.167 39.907,228.167 40.015 C 228.167 40.123,228.354 40.386,228.583 40.598 C 228.813 40.810,229.000 41.091,229.000 41.222 C 229.000 41.352,229.120 41.559,229.267 41.681 C 229.559 41.923,230.667 43.598,230.667 43.797 C 230.667 43.865,230.854 44.062,231.083 44.234 C 231.313 44.406,231.500 44.630,231.500 44.732 C 231.501 44.833,231.725 45.179,232.000 45.500 C 232.275 45.821,232.499 46.177,232.500 46.292 C 232.500 46.406,232.563 46.500,232.640 46.500 C 232.718 46.500,232.952 46.833,233.162 47.240 C 233.371 47.647,233.645 48.020,233.771 48.068 C 233.897 48.117,234.000 48.271,234.000 48.411 C 234.000 48.552,234.056 48.667,234.125 48.668 C 234.194 48.668,234.512 49.080,234.833 49.583 C 235.154 50.087,235.473 50.499,235.542 50.499 C 235.610 50.500,235.667 50.610,235.667 50.745 C 235.667 50.880,235.886 51.152,236.153 51.350 C 236.421 51.548,236.608 51.794,236.569 51.896 C 236.530 51.999,236.724 52.346,236.999 52.667 C 237.274 52.987,237.499 53.326,237.500 53.419 C 237.500 53.512,237.686 53.727,237.914 53.898 C 238.141 54.069,238.287 54.273,238.238 54.352 C 238.189 54.431,238.341 54.702,238.575 54.955 C 238.809 55.207,239.000 55.491,239.000 55.587 C 239.000 55.682,239.150 55.868,239.333 56.000 C 239.517 56.132,239.667 56.323,239.667 56.423 C 239.667 56.524,239.935 56.920,240.263 57.303 C 240.591 57.687,240.806 58.000,240.740 58.000 C 240.675 58.000,240.819 58.198,241.061 58.439 C 241.302 58.681,241.500 58.969,241.500 59.080 C 241.500 59.191,241.650 59.417,241.833 59.583 C 242.017 59.749,242.167 59.975,242.167 60.086 C 242.167 60.196,242.410 60.550,242.708 60.872 C 243.213 61.417,243.440 61.743,243.901 62.582 C 244.001 62.764,244.203 63.026,244.350 63.165 C 244.497 63.303,244.735 63.642,244.878 63.917 C 245.021 64.192,245.295 64.582,245.486 64.785 C 245.677 64.987,245.833 65.218,245.833 65.298 C 245.833 65.378,246.023 65.545,246.256 65.670 C 246.512 65.807,246.642 65.990,246.587 66.135 C 246.536 66.267,246.683 66.548,246.914 66.762 C 247.145 66.976,247.333 67.271,247.333 67.419 C 247.333 67.579,247.411 67.638,247.526 67.567 C 247.645 67.494,247.673 67.522,247.600 67.640 C 247.533 67.747,247.669 68.006,247.907 68.227 C 248.142 68.444,248.333 68.695,248.333 68.785 C 248.333 69.041,248.956 69.540,249.062 69.368 C 249.114 69.284,248.528 68.323,247.760 67.233 C 245.392 63.870,244.195 62.159,242.814 60.167 C 242.083 59.112,241.395 58.136,241.285 57.998 C 241.174 57.859,240.713 57.184,240.260 56.498 C 239.807 55.811,239.393 55.212,239.341 55.167 C 239.288 55.121,238.955 54.655,238.600 54.131 C 238.244 53.608,237.814 53.030,237.643 52.847 C 237.473 52.664,237.333 52.447,237.333 52.364 C 237.333 52.282,237.053 51.848,236.710 51.399 C 236.367 50.950,235.733 50.058,235.302 49.417 C 233.798 47.180,233.000 46.083,232.834 46.028 C 232.742 45.997,232.667 45.895,232.667 45.802 C 232.667 45.708,232.189 44.945,231.605 44.107 C 231.021 43.269,230.290 42.219,229.980 41.775 C 229.670 41.330,229.248 40.730,229.041 40.441 C 228.834 40.153,228.484 39.654,228.263 39.333 C 228.041 39.012,227.251 37.887,226.508 36.833 C 225.764 35.779,224.817 34.410,224.403 33.792 C 223.989 33.173,223.596 32.667,223.528 32.667 C 223.461 32.667,223.317 32.460,223.207 32.208 C 223.097 31.956,222.368 30.850,221.586 29.750 C 220.804 28.650,219.809 27.234,219.374 26.603 C 218.939 25.973,218.417 25.223,218.215 24.937 C 216.748 22.868,215.747 21.437,215.141 20.542 C 214.754 19.969,214.376 19.500,214.302 19.500 C 214.227 19.500,214.167 19.398,214.167 19.273 C 214.167 19.148,213.932 18.754,213.646 18.398 C 213.359 18.042,212.569 16.925,211.890 15.917 C 211.210 14.908,210.304 13.596,209.877 13.000 C 209.449 12.404,208.107 10.492,206.895 8.750 C 205.683 7.008,204.592 5.474,204.470 5.339 C 204.349 5.205,204.175 4.968,204.083 4.812 C 203.992 4.656,203.339 3.671,202.634 2.624 C 201.692 1.225,201.376 0.624,201.445 0.360 L 201.539 -0.000 193.103 -0.000 L 184.667 0.000 184.667 40.167 M208.167 0.353 C 208.167 0.547,208.454 0.978,208.804 1.311 C 209.155 1.644,209.818 2.442,210.278 3.083 C 210.996 4.085,213.994 8.380,214.871 9.662 C 215.030 9.894,215.537 10.608,216.000 11.250 C 216.462 11.892,217.067 12.768,217.345 13.198 C 217.898 14.055,218.736 14.486,219.284 14.194 C 219.718 13.963,250.262 14.095,252.019 14.336 C 252.766 14.438,253.611 14.504,253.897 14.483 C 254.183 14.462,254.867 14.535,255.417 14.646 C 261.765 15.925,265.674 19.593,266.756 25.290 C 266.813 25.587,266.924 25.870,267.004 25.919 C 267.238 26.064,267.395 24.846,267.195 24.445 C 267.095 24.246,266.990 23.896,266.961 23.667 C 266.932 23.438,266.827 23.266,266.726 23.284 C 266.626 23.303,266.497 22.981,266.440 22.568 C 266.384 22.154,266.149 21.569,265.919 21.267 C 265.688 20.966,265.500 20.664,265.500 20.598 C 265.500 20.064,262.915 17.138,262.140 16.795 C 261.880 16.680,261.667 16.529,261.667 16.459 C 261.667 16.390,261.560 16.333,261.431 16.333 C 261.301 16.333,261.169 16.273,261.139 16.200 C 261.051 15.989,258.675 14.833,258.330 14.833 C 258.159 14.833,257.976 14.763,257.924 14.678 C 257.871 14.592,257.600 14.529,257.323 14.537 C 257.045 14.545,256.731 14.465,256.626 14.359 C 256.520 14.253,256.040 14.167,255.560 14.167 C 255.079 14.167,254.637 14.086,254.576 13.988 C 254.508 13.877,253.786 13.813,252.691 13.820 C 242.926 13.881,218.518 13.556,218.285 13.362 C 218.138 13.241,217.781 12.772,217.492 12.321 C 217.202 11.869,216.898 11.500,216.816 11.500 C 216.734 11.500,216.666 11.406,216.666 11.292 C 216.666 11.177,216.441 10.821,216.167 10.500 C 215.892 10.179,215.667 9.829,215.667 9.722 C 215.667 9.615,215.603 9.503,215.525 9.472 C 215.447 9.442,215.204 9.145,214.984 8.814 C 214.038 7.390,212.753 5.567,212.552 5.363 C 212.432 5.242,212.333 5.092,212.333 5.030 C 212.333 4.968,212.146 4.699,211.916 4.432 C 211.687 4.166,211.500 3.896,211.500 3.833 C 211.500 3.770,211.313 3.501,211.084 3.234 C 210.854 2.968,210.667 2.656,210.667 2.542 C 210.667 2.427,210.605 2.333,210.531 2.333 C 210.354 2.333,209.667 1.110,209.667 0.796 C 209.667 0.215,252.016 0.125,254.000 0.701 C 254.321 0.795,255.258 0.934,256.083 1.011 C 256.908 1.089,258.071 1.232,258.667 1.331 C 259.262 1.429,260.032 1.553,260.376 1.606 C 260.720 1.659,261.044 1.769,261.094 1.851 C 261.145 1.933,261.440 2.000,261.750 2.000 C 262.060 2.000,262.360 2.075,262.417 2.167 C 262.473 2.258,262.740 2.333,263.010 2.333 C 263.279 2.333,263.500 2.408,263.500 2.500 C 263.500 2.592,263.631 2.669,263.792 2.672 C 263.952 2.675,264.458 2.862,264.917 3.087 C 265.375 3.312,265.844 3.498,265.958 3.498 C 266.073 3.499,266.167 3.575,266.167 3.667 C 266.167 3.758,266.312 3.833,266.490 3.833 C 266.668 3.833,266.860 3.908,266.917 4.000 C 266.973 4.092,267.165 4.167,267.343 4.167 C 267.521 4.167,267.667 4.223,267.667 4.293 C 267.667 4.362,267.910 4.523,268.208 4.650 C 268.824 4.914,270.388 5.979,270.472 6.192 C 270.503 6.270,270.618 6.333,270.729 6.333 C 271.182 6.333,274.389 9.218,275.166 10.324 C 275.387 10.640,275.816 11.153,276.118 11.463 C 276.420 11.774,276.667 12.100,276.667 12.188 C 276.667 12.276,276.817 12.508,277.000 12.705 C 277.183 12.902,277.333 13.161,277.333 13.281 C 277.333 13.402,277.408 13.500,277.500 13.500 C 277.592 13.500,277.667 13.587,277.667 13.693 C 277.667 13.799,277.837 14.117,278.045 14.401 C 278.253 14.685,278.524 15.142,278.648 15.417 C 278.771 15.692,278.938 16.047,279.019 16.206 C 279.100 16.365,279.167 16.609,279.167 16.748 C 279.167 16.886,279.242 17.000,279.333 17.000 C 279.425 17.000,279.500 17.176,279.500 17.391 C 279.500 17.632,279.644 17.852,279.875 17.963 C 280.081 18.063,280.156 18.149,280.042 18.155 C 279.757 18.171,279.777 18.822,280.065 18.933 C 280.194 18.982,280.261 19.158,280.216 19.329 C 280.172 19.498,280.274 19.774,280.443 19.943 C 280.657 20.157,280.734 20.438,280.698 20.875 C 280.661 21.323,280.712 21.500,280.879 21.500 C 281.057 21.500,281.094 21.704,281.038 22.375 C 280.979 23.089,281.025 23.305,281.289 23.543 C 281.603 23.828,281.613 23.819,281.635 23.234 C 281.656 22.673,281.001 19.831,280.678 19.083 C 280.598 18.900,280.444 18.487,280.333 18.167 C 280.223 17.846,280.075 17.433,280.005 17.250 C 279.822 16.776,278.531 14.147,278.287 13.754 C 277.557 12.574,276.753 11.408,276.637 11.361 C 276.561 11.331,276.500 11.213,276.500 11.099 C 276.500 10.702,272.735 7.014,271.250 5.957 C 268.833 4.236,265.347 2.445,263.191 1.815 C 262.553 1.629,262.509 1.587,262.827 1.470 C 263.247 1.315,263.131 1.000,262.655 1.000 C 262.475 1.000,262.175 0.906,261.988 0.792 C 261.703 0.618,261.613 0.629,261.441 0.859 C 261.273 1.085,261.104 1.109,260.493 0.991 C 260.084 0.912,259.689 0.845,259.615 0.841 C 259.541 0.837,259.527 0.758,259.584 0.665 C 260.003 -0.012,260.485 0.000,233.679 0.000 L 208.167 0.000 208.167 0.353 M287.834 40.167 C 287.832 80.242,287.833 80.333,288.166 80.333 C 288.499 80.333,288.500 80.241,288.500 40.167 C 288.500 0.157,288.499 -0.000,288.168 -0.000 C 287.837 -0.000,287.836 0.158,287.834 40.167 M302.167 40.167 C 302.167 80.222,302.168 80.333,302.500 80.333 C 302.832 80.333,302.833 80.222,302.833 40.167 C 302.833 0.111,302.832 0.000,302.500 0.000 C 302.168 0.000,302.167 0.111,302.167 40.167 M308.333 40.167 C 308.333 80.208,308.334 80.333,308.666 80.333 C 308.998 80.333,308.999 80.195,309.041 40.375 L 309.083 0.417 311.667 0.333 C 313.087 0.287,316.087 0.271,318.333 0.296 L 322.417 0.341 324.417 2.432 C 325.517 3.582,328.442 6.568,330.917 9.067 C 333.392 11.566,336.167 14.425,337.083 15.419 C 338.000 16.414,340.550 19.043,342.750 21.262 C 344.950 23.481,347.521 26.124,348.463 27.135 C 349.404 28.147,351.756 30.574,353.689 32.529 C 355.622 34.484,358.301 37.243,359.643 38.660 C 360.985 40.077,363.846 43.006,366.000 45.168 C 368.154 47.331,370.413 49.659,371.020 50.342 C 373.432 53.056,379.809 59.368,380.013 59.242 C 380.141 59.163,380.176 59.184,380.104 59.299 C 380.040 59.403,380.485 59.990,381.120 60.640 C 381.742 61.276,382.775 62.380,383.417 63.094 C 384.058 63.807,385.446 65.269,386.500 66.343 C 387.554 67.417,388.690 68.586,389.024 68.940 C 389.987 69.959,391.334 71.167,391.508 71.167 C 391.595 71.167,391.667 71.223,391.667 71.292 C 391.667 71.498,392.442 72.333,392.633 72.333 C 392.731 72.333,392.860 72.489,392.920 72.679 C 392.990 72.897,393.122 72.989,393.279 72.929 C 393.433 72.869,393.500 72.912,393.454 73.042 C 393.375 73.265,394.704 74.827,397.030 77.246 C 399.000 79.294,399.667 80.041,399.667 80.199 C 399.667 80.273,399.742 80.333,399.833 80.333 C 400.653 80.333,399.873 79.294,396.372 75.720 C 394.380 73.686,390.812 70.030,388.444 67.594 C 386.035 65.115,384.060 63.213,383.960 63.275 C 383.856 63.339,383.830 63.306,383.898 63.197 C 383.966 63.087,383.067 62.032,381.715 60.637 C 375.736 54.465,372.600 51.355,372.448 51.449 C 372.357 51.505,372.331 51.473,372.390 51.376 C 372.513 51.177,372.320 50.957,369.275 47.833 C 359.897 38.209,356.786 35.006,356.327 34.500 C 356.036 34.179,354.174 32.264,352.190 30.243 C 350.207 28.223,346.673 24.585,344.337 22.160 C 342.002 19.734,338.739 16.371,337.087 14.685 C 333.806 11.337,334.034 11.573,329.250 6.599 C 327.417 4.693,325.410 2.641,324.792 2.037 C 323.928 1.195,323.667 0.831,323.667 0.470 L 323.667 0.000 316.000 0.000 L 308.333 0.000 308.333 40.167 M105.833 20.649 C 105.833 20.981,108.301 23.564,117.083 32.426 C 118.275 33.628,123.600 39.031,128.917 44.431 C 134.233 49.832,139.035 54.700,139.586 55.250 C 140.605 56.266,151.570 67.425,159.752 75.773 C 163.353 79.447,164.328 80.355,164.624 80.308 C 164.930 80.260,163.992 79.237,159.121 74.303 C 155.892 71.032,150.534 65.595,147.213 62.220 C 143.893 58.845,139.093 53.974,136.547 51.396 C 134.000 48.818,129.804 44.543,127.221 41.896 C 124.639 39.249,120.439 34.983,117.888 32.416 C 115.337 29.849,111.710 26.174,109.828 24.249 C 105.808 20.138,105.833 20.161,105.833 20.649 M322.791 20.764 C 322.460 21.095,322.668 80.333,323.001 80.333 C 323.332 80.333,323.333 80.207,323.333 51.125 L 323.333 21.917 332.208 30.867 C 342.710 41.458,378.572 77.522,380.250 79.178 C 381.598 80.509,382.581 80.862,381.326 79.565 C 377.653 75.766,346.266 44.256,344.550 42.645 C 344.293 42.404,341.371 39.442,338.055 36.062 C 326.032 23.806,322.894 20.661,322.791 20.764 M105.872 22.167 C 105.872 22.488,105.906 22.619,105.948 22.458 C 105.990 22.298,105.990 22.035,105.948 21.875 C 105.906 21.715,105.872 21.846,105.872 22.167 M199.240 22.875 C 199.279 23.173,199.316 23.552,199.322 23.718 C 199.328 23.884,199.397 23.980,199.476 23.932 C 199.677 23.807,200.127 24.350,201.327 26.167 C 202.434 27.842,203.331 29.047,203.540 29.139 C 203.610 29.169,203.667 29.261,203.667 29.342 C 203.667 29.540,205.066 31.654,208.017 35.917 C 208.524 36.650,210.353 39.313,212.081 41.833 C 213.808 44.354,215.721 47.129,216.332 48.000 C 216.942 48.871,217.751 50.033,218.127 50.583 C 219.635 52.783,224.521 59.887,226.204 62.326 C 227.187 63.751,228.626 65.854,229.401 67.000 C 230.177 68.146,231.154 69.571,231.574 70.167 C 231.994 70.762,232.774 71.887,233.308 72.667 C 234.701 74.699,237.521 78.795,238.095 79.619 C 238.363 80.005,238.719 80.324,238.885 80.327 C 239.242 80.335,239.271 80.390,237.888 78.393 C 237.308 77.555,236.833 76.803,236.833 76.721 C 236.833 76.640,236.683 76.465,236.500 76.333 C 236.317 76.201,236.167 76.008,236.167 75.904 C 236.167 75.800,235.979 75.513,235.750 75.266 C 235.521 75.018,235.333 74.759,235.333 74.690 C 235.333 74.620,235.202 74.417,235.042 74.240 C 234.881 74.062,234.644 73.712,234.515 73.461 C 234.386 73.211,234.142 72.857,233.973 72.676 C 233.805 72.495,233.667 72.307,233.667 72.257 C 233.667 72.169,232.512 70.497,232.338 70.333 C 232.289 70.287,232.143 70.044,232.013 69.792 C 231.883 69.540,231.715 69.333,231.639 69.333 C 231.562 69.333,231.500 69.254,231.500 69.157 C 231.500 68.996,230.864 68.080,230.003 67.000 C 229.821 66.771,229.670 66.490,229.669 66.375 C 229.668 66.260,229.600 66.167,229.519 66.167 C 229.438 66.167,229.254 65.919,229.110 65.616 C 228.966 65.313,228.695 64.927,228.508 64.757 C 228.320 64.587,228.167 64.382,228.167 64.301 C 228.167 64.219,228.029 64.005,227.860 63.824 C 227.691 63.643,227.448 63.289,227.319 63.039 C 227.189 62.788,227.044 62.546,226.995 62.500 C 226.792 62.310,225.667 60.697,225.667 60.596 C 225.667 60.535,225.517 60.325,225.333 60.128 C 225.150 59.931,225.000 59.672,225.000 59.552 C 225.000 59.432,224.940 59.333,224.867 59.333 C 224.793 59.333,224.520 58.996,224.259 58.583 C 223.998 58.171,223.721 57.833,223.642 57.833 C 223.564 57.833,223.500 57.735,223.500 57.615 C 223.500 57.495,223.350 57.235,223.167 57.038 C 222.983 56.842,222.833 56.636,222.833 56.581 C 222.833 56.458,221.589 54.618,221.298 54.309 C 221.180 54.185,220.977 53.877,220.847 53.625 C 220.717 53.373,220.548 53.167,220.472 53.167 C 220.396 53.167,220.333 53.083,220.333 52.981 C 220.333 52.777,219.167 51.117,218.961 51.028 C 218.891 50.997,218.833 50.885,218.833 50.778 C 218.833 50.671,218.608 50.321,218.333 50.000 C 218.059 49.679,217.834 49.342,217.834 49.250 C 217.833 49.158,217.664 48.881,217.458 48.633 C 216.691 47.711,216.474 47.403,216.221 46.875 C 216.079 46.577,215.896 46.333,215.814 46.333 C 215.733 46.333,215.667 46.240,215.666 46.125 C 215.666 46.010,215.479 45.699,215.250 45.432 C 215.021 45.166,214.833 44.904,214.833 44.849 C 214.833 44.795,214.646 44.532,214.416 44.266 C 214.187 43.999,214.000 43.730,214.000 43.667 C 214.000 43.604,213.813 43.334,213.584 43.068 C 213.354 42.801,213.167 42.490,213.167 42.375 C 213.167 42.260,213.092 42.167,213.000 42.167 C 212.908 42.167,212.833 42.089,212.833 41.993 C 212.833 41.897,212.759 41.729,212.669 41.618 C 211.889 40.662,211.667 40.343,211.667 40.184 C 211.667 40.083,211.600 40.000,211.519 40.000 C 211.438 40.000,211.248 39.741,211.098 39.424 C 210.948 39.108,210.732 38.752,210.617 38.633 C 210.188 38.186,209.167 36.698,209.167 36.519 C 209.167 36.417,209.110 36.333,209.042 36.332 C 208.973 36.331,208.619 35.862,208.255 35.290 C 207.891 34.718,207.547 34.212,207.492 34.167 C 207.268 33.981,206.000 32.006,206.000 31.842 C 206.000 31.746,205.936 31.667,205.858 31.667 C 205.779 31.667,205.502 31.329,205.241 30.917 C 204.980 30.504,204.707 30.167,204.633 30.167 C 204.560 30.167,204.500 30.068,204.500 29.948 C 204.500 29.828,204.350 29.569,204.167 29.372 C 203.983 29.175,203.833 28.947,203.833 28.865 C 203.833 28.783,203.665 28.532,203.458 28.307 C 203.252 28.083,202.977 27.697,202.847 27.449 C 202.717 27.202,202.548 27.000,202.472 27.000 C 202.396 27.000,202.333 26.906,202.333 26.792 C 202.333 26.677,202.108 26.321,201.833 26.000 C 201.559 25.679,201.334 25.331,201.334 25.226 C 201.334 25.121,201.147 24.858,200.920 24.642 C 200.692 24.427,200.501 24.175,200.496 24.083 C 200.491 23.992,200.265 23.657,199.993 23.340 C 199.722 23.022,199.500 22.666,199.500 22.548 C 199.500 22.430,199.426 22.333,199.335 22.333 C 199.244 22.333,199.201 22.577,199.240 22.875 M105.885 23.917 C 105.886 24.467,105.917 24.672,105.954 24.372 C 105.991 24.072,105.990 23.622,105.952 23.372 C 105.914 23.122,105.884 23.367,105.885 23.917 M281.470 24.008 C 281.454 24.050,281.382 25.883,281.310 28.083 C 281.129 33.636,281.110 33.900,280.875 34.050 C 280.760 34.123,280.664 34.423,280.661 34.717 C 280.658 35.010,280.551 35.389,280.423 35.558 C 280.295 35.727,280.225 35.959,280.269 36.073 C 280.313 36.187,280.233 36.376,280.093 36.492 C 279.935 36.623,279.873 36.849,279.931 37.080 C 279.994 37.331,279.938 37.488,279.762 37.556 C 279.618 37.611,279.500 37.804,279.500 37.985 C 279.500 38.166,279.425 38.360,279.333 38.417 C 279.242 38.473,279.167 38.665,279.167 38.843 C 279.167 39.021,279.092 39.167,279.000 39.167 C 278.908 39.167,278.833 39.271,278.833 39.398 C 278.833 39.694,278.553 40.219,277.875 41.197 C 277.577 41.626,277.333 42.043,277.333 42.124 C 277.333 42.204,277.197 42.417,277.031 42.596 C 276.864 42.774,276.654 43.052,276.564 43.213 C 275.950 44.310,272.001 48.243,271.276 48.480 C 271.170 48.514,270.924 48.687,270.728 48.865 C 270.330 49.227,269.400 49.792,268.958 49.941 C 268.798 49.995,268.667 50.105,268.667 50.186 C 268.667 50.267,268.517 50.333,268.333 50.333 C 268.150 50.333,268.000 50.408,268.000 50.500 C 268.000 50.592,267.856 50.667,267.681 50.667 C 267.505 50.667,267.336 50.727,267.306 50.802 C 267.233 50.978,265.500 51.833,265.215 51.833 C 265.001 51.833,264.815 51.909,264.044 52.307 C 263.839 52.413,263.492 52.500,263.273 52.500 C 263.053 52.500,262.787 52.605,262.681 52.733 C 262.575 52.861,262.341 52.927,262.161 52.880 C 261.773 52.779,261.729 53.039,262.083 53.333 C 262.221 53.447,262.333 53.630,262.333 53.739 C 262.333 53.848,262.558 54.153,262.833 54.417 C 263.108 54.680,263.333 54.988,263.333 55.101 C 263.333 55.214,263.596 55.554,263.917 55.856 C 264.237 56.159,264.500 56.488,264.500 56.587 C 264.500 56.687,264.760 57.020,265.077 57.327 C 265.394 57.635,265.620 57.941,265.578 58.008 C 265.479 58.169,266.515 59.177,266.677 59.077 C 266.746 59.034,266.763 59.150,266.715 59.333 C 266.666 59.520,266.710 59.667,266.814 59.667 C 266.916 59.667,267.000 59.752,267.000 59.855 C 267.000 60.103,267.672 60.683,267.839 60.580 C 267.911 60.536,267.934 60.633,267.891 60.796 C 267.806 61.121,268.249 61.711,268.706 61.880 C 268.880 61.945,268.956 62.088,268.896 62.244 C 268.842 62.385,268.881 62.500,268.982 62.500 C 269.084 62.500,269.167 62.581,269.167 62.681 C 269.167 62.780,269.410 63.099,269.708 63.389 C 270.006 63.679,270.250 64.003,270.250 64.109 C 270.250 64.214,270.494 64.568,270.792 64.896 C 271.090 65.223,271.333 65.566,271.333 65.658 C 271.333 65.750,271.506 65.939,271.717 66.077 C 271.928 66.215,272.233 66.629,272.396 66.997 C 272.558 67.365,272.759 67.667,272.843 67.667 C 272.927 67.667,273.176 67.948,273.397 68.292 C 273.617 68.635,273.956 69.082,274.149 69.285 C 274.342 69.487,274.500 69.723,274.500 69.809 C 274.500 69.895,274.691 70.142,274.924 70.358 C 275.158 70.573,275.497 71.031,275.678 71.375 C 275.859 71.719,276.064 72.000,276.134 72.000 C 276.204 72.000,276.384 72.206,276.533 72.458 C 276.934 73.136,277.514 73.756,277.697 73.704 C 277.786 73.679,277.809 73.739,277.748 73.836 C 277.604 74.070,278.445 75.167,278.768 75.167 C 278.907 75.167,278.975 75.239,278.921 75.327 C 278.794 75.532,279.520 76.662,279.780 76.665 C 279.889 76.666,280.030 76.835,280.094 77.042 C 280.158 77.248,280.463 77.698,280.772 78.042 C 281.081 78.386,281.333 78.746,281.333 78.841 C 281.333 79.079,282.170 79.898,282.456 79.940 C 282.638 79.966,282.627 79.878,282.405 79.528 C 282.128 79.092,280.832 77.331,280.667 77.167 C 280.621 77.121,279.876 76.146,279.012 75.000 C 278.147 73.854,277.379 72.892,277.303 72.861 C 277.228 72.831,277.167 72.734,277.167 72.646 C 277.167 72.366,276.092 71.013,275.865 71.007 C 275.745 71.003,275.687 70.936,275.735 70.857 C 275.784 70.779,275.563 70.411,275.245 70.039 C 274.927 69.668,274.667 69.282,274.667 69.183 C 274.667 69.084,274.517 68.909,274.333 68.795 C 274.150 68.680,274.000 68.535,274.000 68.473 C 274.000 68.354,271.965 65.602,271.555 65.167 C 271.353 64.952,269.767 62.839,269.002 61.765 C 268.865 61.574,268.377 60.925,267.918 60.323 C 266.053 57.881,265.712 57.434,264.830 56.284 C 262.725 53.536,262.503 53.167,262.959 53.167 C 264.021 53.167,268.517 51.073,270.835 49.499 C 275.361 46.425,280.692 39.052,280.892 35.588 C 280.906 35.357,280.965 35.167,281.025 35.167 C 281.154 35.167,281.565 33.273,281.838 31.417 C 282.196 28.985,281.896 22.940,281.470 24.008 M199.269 25.270 C 199.150 26.036,199.154 79.616,199.274 80.042 C 199.620 81.275,199.666 78.038,199.664 52.708 C 199.662 27.614,199.598 23.161,199.269 25.270 M105.896 26.917 C 105.896 27.925,105.924 28.316,105.957 27.786 C 105.990 27.255,105.990 26.430,105.956 25.952 C 105.922 25.474,105.895 25.908,105.896 26.917 M266.941 28.029 C 266.838 30.220,266.692 31.298,266.482 31.428 C 266.400 31.478,266.333 31.668,266.333 31.850 C 266.333 33.044,264.057 36.061,261.975 37.626 C 258.345 40.354,255.047 40.956,243.553 40.986 C 240.549 40.994,238.002 41.071,237.766 41.161 C 236.978 41.460,237.005 42.683,237.801 42.802 C 238.014 42.834,238.426 43.261,238.847 43.886 C 239.229 44.453,239.673 45.067,239.832 45.250 C 239.992 45.433,241.313 47.308,242.769 49.417 C 244.225 51.525,245.655 53.587,245.947 54.000 C 246.239 54.413,247.181 55.762,248.039 57.000 C 248.897 58.237,250.603 60.675,251.829 62.417 C 253.056 64.158,254.507 66.240,255.054 67.042 C 255.602 67.844,256.113 68.500,256.191 68.500 C 256.269 68.500,256.333 68.595,256.333 68.710 C 256.333 68.826,256.521 69.122,256.750 69.369 C 256.979 69.617,257.167 69.865,257.167 69.921 C 257.167 70.015,259.893 74.036,260.214 74.417 C 260.353 74.581,262.477 77.608,263.718 79.411 C 264.330 80.300,264.833 80.603,264.833 80.083 C 264.833 79.946,264.758 79.833,264.667 79.833 C 264.575 79.833,264.500 79.727,264.500 79.597 C 264.500 79.467,264.444 79.336,264.375 79.306 C 264.202 79.229,263.294 78.031,262.911 77.375 C 262.737 77.077,262.536 76.833,262.464 76.833 C 262.392 76.833,262.333 76.740,262.333 76.625 C 262.333 76.510,262.108 76.154,261.833 75.833 C 261.559 75.512,261.334 75.205,261.334 75.151 C 261.334 75.096,261.146 74.834,260.917 74.568 C 260.688 74.301,260.500 74.024,260.500 73.951 C 260.500 73.879,260.350 73.658,260.167 73.462 C 259.983 73.265,259.833 73.005,259.833 72.885 C 259.833 72.765,259.758 72.667,259.667 72.667 C 259.575 72.667,259.500 72.562,259.500 72.434 C 259.500 72.307,259.387 72.159,259.250 72.106 C 259.112 72.054,259.000 71.900,259.000 71.765 C 259.000 71.630,258.869 71.421,258.708 71.301 C 258.548 71.181,258.311 70.878,258.182 70.628 C 258.052 70.377,257.827 70.040,257.682 69.878 C 257.536 69.716,257.310 69.377,257.180 69.125 C 257.050 68.873,256.885 68.667,256.813 68.667 C 256.741 68.667,256.558 68.404,256.405 68.083 C 256.253 67.762,256.062 67.500,255.981 67.500 C 255.900 67.500,255.833 67.406,255.833 67.292 C 255.833 67.177,255.608 66.821,255.333 66.500 C 255.059 66.179,254.834 65.836,254.834 65.737 C 254.834 65.639,254.646 65.382,254.417 65.167 C 254.188 64.951,254.000 64.682,254.000 64.568 C 254.000 64.454,253.938 64.336,253.862 64.306 C 253.787 64.275,253.341 63.678,252.871 62.979 C 252.402 62.280,251.920 61.605,251.801 61.479 C 251.681 61.353,251.477 61.044,251.347 60.792 C 251.217 60.540,251.048 60.333,250.972 60.333 C 250.896 60.333,250.833 60.240,250.833 60.125 C 250.833 60.010,250.608 59.654,250.333 59.333 C 250.059 59.012,249.834 58.669,249.834 58.571 C 249.834 58.472,249.646 58.215,249.417 58.000 C 249.188 57.785,249.000 57.547,249.000 57.473 C 249.000 57.398,248.890 57.205,248.755 57.044 C 248.356 56.565,246.775 54.327,246.441 53.767 C 246.271 53.483,246.064 53.225,245.982 53.194 C 245.900 53.164,245.833 53.051,245.833 52.944 C 245.833 52.838,245.608 52.487,245.333 52.167 C 245.059 51.846,244.834 51.539,244.834 51.484 C 244.834 51.430,244.646 51.167,244.417 50.901 C 244.188 50.635,244.000 50.329,244.000 50.222 C 244.000 50.115,243.941 50.003,243.869 49.972 C 243.797 49.942,243.294 49.279,242.752 48.500 C 242.210 47.721,241.725 47.046,241.675 47.000 C 241.624 46.954,241.476 46.710,241.347 46.458 C 241.217 46.206,241.048 46.000,240.972 46.000 C 240.896 46.000,240.833 45.906,240.833 45.792 C 240.833 45.677,240.646 45.365,240.416 45.099 C 240.187 44.833,240.000 44.570,240.000 44.516 C 240.000 44.461,239.812 44.199,239.583 43.932 C 239.354 43.666,239.167 43.396,239.167 43.333 C 239.167 43.270,238.979 43.001,238.750 42.734 C 237.581 41.374,237.972 41.301,246.083 41.356 C 252.025 41.396,252.980 41.368,253.401 41.141 C 253.770 40.942,254.043 40.916,254.547 41.029 C 255.054 41.143,255.299 41.118,255.598 40.922 C 255.813 40.782,256.249 40.667,256.568 40.667 C 256.886 40.667,257.193 40.592,257.250 40.500 C 257.307 40.408,257.574 40.333,257.843 40.333 C 258.113 40.333,258.333 40.258,258.333 40.167 C 258.333 40.075,258.521 40.000,258.750 40.000 C 258.979 40.000,259.167 39.925,259.167 39.833 C 259.167 39.742,259.264 39.667,259.384 39.667 C 259.670 39.667,261.333 38.835,261.333 38.692 C 261.333 38.631,261.544 38.488,261.803 38.374 C 262.462 38.082,265.500 35.094,265.500 34.737 C 265.500 34.686,265.688 34.399,265.917 34.098 C 266.146 33.798,266.333 33.432,266.333 33.286 C 266.333 33.139,266.413 32.970,266.511 32.910 C 266.609 32.849,266.648 32.692,266.598 32.560 C 266.547 32.428,266.617 32.278,266.753 32.226 C 266.904 32.168,267.000 31.912,267.000 31.566 C 267.000 31.254,267.085 31.000,267.190 31.000 C 267.323 31.000,267.347 30.684,267.270 29.936 C 267.181 29.068,267.208 28.853,267.414 28.774 C 267.814 28.620,267.763 26.806,267.348 26.430 C 267.036 26.148,267.027 26.183,266.941 28.029 M249.070 69.724 C 249.001 69.905,249.082 70.116,249.289 70.297 C 249.470 70.454,249.743 70.827,249.896 71.125 C 250.050 71.423,250.248 71.667,250.338 71.667 C 250.427 71.667,250.500 71.760,250.500 71.875 C 250.501 71.990,250.725 72.346,251.000 72.667 C 251.275 72.987,251.499 73.344,251.500 73.458 C 251.500 73.573,251.559 73.667,251.631 73.667 C 251.703 73.667,251.905 73.910,252.080 74.208 C 252.467 74.867,252.751 75.167,252.988 75.167 C 253.086 75.167,253.155 75.223,253.140 75.292 C 253.074 75.597,253.513 76.345,253.692 76.234 C 253.807 76.163,253.840 76.188,253.773 76.296 C 253.712 76.396,253.737 76.524,253.831 76.582 C 253.924 76.639,254.000 76.800,254.000 76.938 C 254.000 77.230,254.393 77.667,254.655 77.667 C 254.753 77.667,254.833 77.798,254.834 77.958 C 254.834 78.119,255.019 78.465,255.245 78.729 C 255.472 78.992,255.700 79.341,255.752 79.505 C 255.857 79.838,256.277 80.059,256.407 79.849 C 256.454 79.773,256.025 79.057,255.454 78.256 C 254.884 77.455,254.290 76.601,254.135 76.358 C 253.980 76.115,253.790 75.842,253.713 75.750 C 253.635 75.658,252.722 74.346,251.684 72.833 C 249.453 69.582,249.228 69.314,249.070 69.724 " stroke="none" fill="currentColor" fill-rule="evenodd"></path></g></svg>
