<?xml version="1.0" encoding="UTF-8" standalone="no"?>
<!-- Created with Inkscape (http://www.inkscape.org/) -->

<svg
   xmlns:dc="http://purl.org/dc/elements/1.1/"
   xmlns:cc="http://creativecommons.org/ns#"
   xmlns:rdf="http://www.w3.org/1999/02/22-rdf-syntax-ns#"
   xmlns:svg="http://www.w3.org/2000/svg"
   xmlns="http://www.w3.org/2000/svg"
   xmlns:sodipodi="http://sodipodi.sourceforge.net/DTD/sodipodi-0.dtd"
   xmlns:inkscape="http://www.inkscape.org/namespaces/inkscape"
   width="196.88927mm"
   height="22.137827mm"
   viewBox="0 0 196.88927 22.137827"
   version="1.1"
   id="svg8"
   inkscape:version="0.92.4 (5da689c313, 2019-01-14)"
   sodipodi:docname="jartazi.svg">
  <defs
     id="defs2" />
  <sodipodi:namedview
     id="base"
     pagecolor="#ffffff"
     bordercolor="#666666"
     borderopacity="1.0"
     inkscape:pageopacity="0.0"
     inkscape:pageshadow="2"
     inkscape:zoom="1.4"
     inkscape:cx="398.2182"
     inkscape:cy="-122.81844"
     inkscape:document-units="mm"
     inkscape:current-layer="layer1"
     showgrid="false"
     fit-margin-top="0"
     fit-margin-left="0"
     fit-margin-right="0"
     fit-margin-bottom="0"
     inkscape:window-width="2400"
     inkscape:window-height="1440"
     inkscape:window-x="0"
     inkscape:window-y="80"
     inkscape:window-maximized="1" />
  <metadata
     id="metadata5">
    <rdf:RDF>
      <cc:Work
         rdf:about="">
        <dc:format>image/svg+xml</dc:format>
        <dc:type
           rdf:resource="http://purl.org/dc/dcmitype/StillImage" />
        <dc:title></dc:title>
      </cc:Work>
    </rdf:RDF>
  </metadata>
  <g
     inkscape:label="Layer 1"
     inkscape:groupmode="layer"
     id="layer1"
     transform="translate(386.88528,-7.5206395)">
    <g
       id="g980">
      <path
         id="path902"
         d="m -368.85436,29.309684 c 1.68335,-0.342823 2.97816,-0.98431 3.92175,-1.942963 1.69102,-1.718015 1.87638,-3.011232 1.8901,-13.187354 l 0.009,-6.6586805 h -3.51901 -3.519 l -0.0529,7.5406255 c -0.0503,7.17111 -0.0702,7.570017 -0.40565,8.140418 -0.54382,0.924604 -1.29151,1.110347 -4.58611,1.139295 -4.24242,0.03728 -4.85084,-0.292791 -4.99062,-2.707438 l -0.0818,-1.4129 h -3.34834 -3.34834 l 0.0719,2.513541 c 0.0609,2.13142 0.13233,2.647621 0.46963,3.395487 0.97278,2.156876 2.80165,3.145072 6.37692,3.445637 2.33349,0.196172 9.71075,0.0198 11.1125,-0.265668 z"
         style="fill:#currentColor;stroke-width:0.17638889"
         inkscape:connector-curvature="0" />
      <path
         d="m -348.21686,20.665168 c 0,-0.04658 1.04706,-1.9594 2.32681,-4.250716 2.10662,-3.771794 2.34956,-4.135175 2.56729,-3.839967 0.31023,0.420641 4.6309,7.962909 4.6309,8.08382 0,0.05035 -2.14313,0.09155 -4.7625,0.09155 -2.61938,0 -4.7625,-0.03811 -4.7625,-0.08469 z m -3.61791,6.389915 1.06027,-1.896853 7.29673,0.04477 7.29674,0.04477 1.08174,1.890561 1.08173,1.890561 3.76297,0.0056 c 2.07075,0.0031 3.73652,-0.06356 3.70416,-0.148213 -0.0323,-0.08461 -2.79723,-4.925981 -6.14421,-10.758601 l -6.08542,-10.6047634 -4.65532,0.04297 -4.65531,0.042969 -6.15831,10.4069454 c -3.38708,5.723819 -6.23689,10.547378 -6.33292,10.71902 -0.16505,0.295 0.0405,0.309478 3.75614,0.264584 l 3.93073,-0.04749 z"
         style="fill:#currentColor;stroke-width:0.17638889"
         id="path898"
         inkscape:connector-curvature="0" />
      <path
         d="m -316.46686,15.554231 v -2.741878 h 5.97315 c 6.13339,0 7.63442,0.123622 8.18489,0.674093 0.49361,0.493606 0.76265,2.293127 0.48897,3.270588 -0.41036,1.465695 -0.20966,1.427915 -7.90014,1.487127 l -6.74687,0.05195 z m 0,10.735248 v -2.750653 l 6.3941,0.06935 c 5.00541,0.05429 6.50231,0.122822 6.89239,0.315549 0.81476,0.402552 1.0647,1.105698 1.14469,3.220225 l 0.0717,1.89618 h 3.4359 3.43591 l -0.0599,-2.68993 c -0.0525,-2.3569 -0.10874,-2.788202 -0.45419,-3.483681 -0.58915,-1.186126 -1.28191,-1.566282 -3.33475,-1.829973 -1.73442,-0.222788 -1.73673,-0.223743 -0.8693,-0.358824 3.1678,-0.493306 4.35308,-1.498325 4.87084,-4.130081 0.26479,-1.345877 0.13193,-4.148095 -0.25691,-5.418688 -0.34246,-1.119058 -1.28192,-2.2292807 -2.30582,-2.7249421 -1.65933,-0.8032687 -2.78685,-0.8706074 -14.68723,-0.8771715 l -11.1566,-0.00615 V 18.280362 29.040084 h 3.43958 3.43959 z"
         style="fill:#currentColor;stroke-width:0.17638889"
         id="path894"
         inkscape:connector-curvature="0" />
      <path
         id="path892"
         d="m -273.60436,20.926242 v -8.113889 h 5.02708 5.02709 v -2.64588 -2.6458335 h -13.49375 -13.49375 v 2.6458335 2.645833 h 5.02708 5.02708 v 8.113889 8.113889 h 3.43959 3.43958 z"
         style="fill:#currentColor;stroke-width:0.17638889"
         inkscape:connector-curvature="0" />
      <path
         d="m -252.14248,19.545462 c 0.37121,-0.662416 1.42899,-2.565491 2.35062,-4.229057 0.92163,-1.663567 1.71538,-3.026069 1.76389,-3.027784 0.0485,-0.0017 0.98112,1.564017 2.07248,3.479404 1.09135,1.915388 2.18726,3.819867 2.43534,4.232176 l 0.45106,0.749652 h -4.87416 -4.87416 z m -4.24015,7.598489 1.06931,-1.896181 h 7.297 7.29701 l 1.11992,1.896181 1.11993,1.89618 h 3.69241 c 2.03083,0 3.69241,-0.05274 3.69241,-0.117192 0,-0.06446 -2.75018,-4.90633 -6.11152,-10.759722 l -6.11151,-10.6425305 h -4.61183 -4.61182 l -6.29819,10.6579465 c -3.464,5.86187 -6.29818,10.703745 -6.29818,10.759722 0,0.05598 1.72929,0.101776 3.84287,0.101776 h 3.84288 z"
         style="fill:#currentColor;stroke-width:0.17638889"
         id="path888"
         inkscape:connector-curvature="0" />
      <path
         id="path886"
         d="m -201.32404,26.614784 -0.0491,-2.425347 -8.65528,-0.08819 -8.65529,-0.08819 8.4789,-5.740589 8.4789,-5.740588 0.0489,-2.505592 0.0489,-2.5055925 h -13.41039 -13.4104 V 9.9884128 12.45613 l 8.25791,0.04583 8.25791,0.04582 -8.39021,5.746511 -8.3902,5.746511 -0.0489,2.499669 -0.0489,2.49967 h 13.76816 13.76815 z"
         style="fill:#currentColor;stroke-width:0.17638889"
         inkscape:connector-curvature="0" />
      <path
         id="path880"
         d="M -189.99602,18.280409 V 7.5206395 h -3.2632 -3.26319 V 18.280362 29.040084 h 3.26319 3.2632 z"
         style="fill:#currentColor;stroke-width:0.17638889"
         inkscape:connector-curvature="0" />
    </g>
  </g>
</svg>
