<?xml version="1.0" encoding="UTF-8" standalone="no"?>
<svg
   xmlns:dc="http://purl.org/dc/elements/1.1/"
   xmlns:cc="http://creativecommons.org/ns#"
   xmlns:rdf="http://www.w3.org/1999/02/22-rdf-syntax-ns#"
   xmlns:svg="http://www.w3.org/2000/svg"
   xmlns="http://www.w3.org/2000/svg"
   viewBox="0 0 258.66666 258.66666"
   height="258.66666"
   width="258.66666"
   xml:space="preserve"
   id="svg2"
   version="1.1"><metadata
     id="metadata8"><rdf:RDF><cc:Work
         rdf:about=""><dc:format>image/svg+xml</dc:format><dc:type
           rdf:resource="http://purl.org/dc/dcmitype/StillImage" /></cc:Work></rdf:RDF></metadata><defs
     id="defs6" /><g
     transform="matrix(1.3333333,0,0,-1.3333333,0,258.66667)"
     id="g10"><g
       transform="scale(0.1)"
       id="g12"><path
         id="path14"
         style="fill:none;fill-opacity:1;fill-rule:evenodd;stroke:none"
         d="M 2.59766,1933.23 H 1930.16 V 5.66797 H 2.59766 V 1933.23" /><path
         id="path16"
         style="fill:currentColor;fill-opacity:1;fill-rule:evenodd;stroke:none"
         d="m 1801.14,938.371 c -22.16,11.09 -69.26,41.586 -99.73,58.219 -30.48,16.63 -58.18,47.12 -58.18,47.12 l -58.17,72.09 -58.18,83.16 c 0,0 -27.7,22.18 -24.93,47.13 2.77,24.95 5.54,49.9 -5.54,69.3 -11.08,19.41 -41.55,11.09 -41.55,11.09 0,0 -22.16,-11.09 -63.72,-24.94 -41.55,-13.87 -41.55,13.85 -41.55,13.85 l -49.87,91.49 -41.55,66.53 c 0,0 -5.54,33.27 -8.31,52.68 -2.77,19.4 13.85,44.35 13.85,44.35 l -41.55,22.18 c 0,0 -16.62,24.95 -24.93,49.9 -8.32,24.94 -13.85,27.72 -41.56,33.27 -27.7,5.54 -83.1,-8.33 -83.1,-8.33 -36.02,0 -96.961,-30.49 -96.961,-94.25 0,-63.76 38.781,-99.8 38.781,-99.8 l -19.39,-30.49 -11.078,-69.31 -41.555,-52.67 c 0,0 -19.39,38.81 -38.781,77.62 -19.391,38.81 -36.012,44.36 -38.785,60.99 -2.77,16.63 -16.621,36.04 -16.621,36.04 0,0 0,8.32 0,97.03 0,88.71 -85.875,108.11 -121.891,108.11 0,0 -38.781,-5.54 -66.484,-11.09 -27.703,-5.54 -74.797,-60.98 -74.797,-60.98 l 13.851,-22.18 2.77,-47.13 -36.012,-36.04 24.934,-13.86 5.539,-33.27 -13.852,-30.49 c 0,0 -16.621,-44.36 -22.16,-55.45 -5.543,-11.08 -8.312,-27.72 -52.637,-33.26 -44.32,-5.55 -27.699,11.09 -66.484,8.32 -38.785,-2.78 -66.484,-36.04 -66.484,-55.45 0,-19.4 5.539,-38.81 5.539,-38.81 0,0 5.543,-11.09 2.773,-33.27 -2.773,-22.18 -119.121,-174.65 -119.121,-174.65 0,0 -11.082,-16.63 -49.863,-47.13 C 175.016,985.5 141.773,974.414 75.2891,941.145 8.80469,907.879 33.7344,899.563 44.8164,871.84 c 11.082,-27.723 55.4026,-36.039 88.6446,-36.039 33.246,0 63.715,13.863 63.715,13.863 0,0 83.109,-2.773 119.121,-2.773 36.012,0 44.324,8.312 44.324,44.355 0,36.039 0,60.988 0,60.988 0,0 52.637,47.129 85.879,83.166 33.242,36.04 66.48,52.67 66.48,52.67 0,0 105.274,-171.871 116.352,-185.738 11.082,-13.859 30.473,-52.668 55.406,-52.668 0,0 91.414,0 132.973,0 41.551,0 66.48,36.039 94.184,83.168 27.703,47.125 58.175,83.158 58.175,83.158 0,0 13.852,-66.529 27.7,-116.427 13.85,-49.899 60.94,-52.672 60.94,-52.672 0,0 13.86,0 108.05,0 94.18,0 171.75,127.523 193.91,169.099 22.16,41.59 47.09,91.49 47.09,74.85 0,-16.63 77.57,-77.62 96.96,-88.7 19.39,-11.093 72.03,-60.995 72.03,-60.995 0,0 2.77,-5.543 2.77,-38.813 0,-33.262 27.7,-44.352 55.4,-44.352 27.71,0 116.35,0 160.68,0 44.32,0 63.71,13.86 63.71,38.809 0,24.953 -36.01,30.496 -58.17,41.582 0,0 22.16,-11.086 0,0 z m -1058.23,135.839 -108.035,155.24 88.648,52.68 c 0,0 0,-33.27 11.079,-69.31 11.078,-36.03 8.308,-138.61 8.308,-138.61 z m 437.7,365.93 60.94,-97.03 -80.34,38.82 z m -24.94,-363.16 -5.54,72.08 c 0,0 55.41,16.64 52.64,36.04 -2.77,19.41 -16.63,63.76 -16.63,63.76 0,0 102.5,-33.27 110.81,-36.04 8.32,-2.77 -141.28,-135.84 -141.28,-135.84" /><g
         transform="scale(0.99964,1.00036)"
         id="g20"></g></g></g></svg>
