<?xml version="1.0" encoding="UTF-8" standalone="no"?>
<!-- Created with Inkscape (http://www.inkscape.org/) -->

<svg
   xmlns:dc="http://purl.org/dc/elements/1.1/"
   xmlns:cc="http://creativecommons.org/ns#"
   xmlns:rdf="http://www.w3.org/1999/02/22-rdf-syntax-ns#"
   xmlns:svg="http://www.w3.org/2000/svg"
   xmlns="http://www.w3.org/2000/svg"
   xmlns:sodipodi="http://sodipodi.sourceforge.net/DTD/sodipodi-0.dtd"
   xmlns:inkscape="http://www.inkscape.org/namespaces/inkscape"
   width="200"
   height="112"
   viewBox="0 0 200 112"
   id="svg3246"
   version="1.1"
   inkscape:version="0.48.4 r9939"
   sodipodi:docname="New document 5">
  <defs
     id="defs3248" />
  <sodipodi:namedview
     id="base"
     pagecolor="#ffffff"
     bordercolor="#666666"
     borderopacity="1.0"
     inkscape:pageopacity="0.0"
     inkscape:pageshadow="2"
     inkscape:zoom="3.6607143"
     inkscape:cx="100"
     inkscape:cy="56"
     inkscape:document-units="px"
     inkscape:current-layer="layer1"
     showgrid="false"
     inkscape:window-width="1076"
     inkscape:window-height="627"
     inkscape:window-x="150"
     inkscape:window-y="150"
     inkscape:window-maximized="0" />
  <metadata
     id="metadata3251">
    <rdf:RDF>
      <cc:Work
         rdf:about="">
        <dc:format>image/svg+xml</dc:format>
        <dc:type
           rdf:resource="http://purl.org/dc/dcmitype/StillImage" />
        <dc:title></dc:title>
      </cc:Work>
    </rdf:RDF>
  </metadata>
  <g
     inkscape:label="Layer 1"
     inkscape:groupmode="layer"
     id="layer1"
     transform="translate(0,-940.36218)">
    <g
       id="g3258"
       transform="matrix(0.77926067,0,0,0.77715993,2.8050453,942.33206)">
      <path
         id="path3260"
         d="m 145.9885,6.812404 0.56246,0 0.49996,-0.062499 0.43747,-0.1249982 0.18748,-0.1249983 0.24998,-0.062499 0.12499,-0.1874973 0.18749,-0.1249983 0.24998,-0.3749947 0.0625,-0.2499965 0.12499,-0.1874973 0.12499,-0.499993 -0.24998,-1.3749806 -0.12499,-0.6249912 -0.0625,-0.499993 -0.24998,-0.9999859 -0.24998,-0.74998942 -0.74994,0.3124956 -0.62495,0.62499122 -0.37498,0.3124956 -0.31247,0.4374938 -0.62495,1.062485 -0.43747,0.5624921 -0.18748,0.5624921 -0.0625,0.499993 0.0625,0.4999929 0.12499,0.3749947 0.31247,0.3749947 0.43747,0.3124956 0.56245,0.3124956 z"
         style="fill:currentColor;fill-opacity:1;fill-rule:evenodd;stroke:none"
         inkscape:connector-curvature="0" />
      <path
         id="path3262"
         d="m 150.05068,17.374755 -0.31247,-1.124984 -0.31248,-0.937487 -0.43746,-0.874987 -0.37497,-0.687491 -0.49996,-0.68749 -0.49996,-0.499993 -0.62495,-0.437494 -0.62495,-0.249996 -0.74995,-0.249997 -0.74994,-0.0625 -0.87493,0 -0.81243,0.187498 -0.93743,0.187497 -0.93743,0.374995 -1.06241,0.437493 -0.99992,0.687491 -1.68737,1.124984 -1.43739,1.187483 -2.5623,2.374967 -1.1874,1.124984 -0.93743,1.249982 -1.56238,2.499965 -0.68744,1.124984 -0.56246,1.249983 -0.68744,2.499964 -0.18749,1.249983 -0.0625,1.249982 0.31247,2.562464 0.56246,1.374981 0.68744,1.312481 0.68745,1.187483 0.81244,1.062486 0.81243,0.812488 0.93743,0.812489 0.93742,0.68749 1.06242,0.562492 1.06242,0.312496 1.12491,0.312495 1.1874,0.124998 1.3124,0.0625 1.3124,-0.187498 1.37489,-0.187497 1.43739,-0.437494 1.56237,-0.437494 1.06242,-0.749989 0.49996,-0.437494 0.56246,-0.374995 0.93742,-0.874987 0.37497,-0.499993 0.18749,-0.249997 0.24998,-0.187497 0.68744,-1.124984 0.24998,-0.624992 0.12499,-0.312495 0.18749,-0.249997 0.49996,-1.312481 0.0625,-0.374995 0.12499,-0.312496 0.24998,-0.624991 0,-0.437494 0.0625,-0.374994 0.12499,-0.74999 0,-0.437494 0.0625,-0.374994 0.12499,-0.74999 0,-0.874987 0,-0.437494 0.0625,-0.374995 -0.0625,-1.749975 -0.12499,-0.999986 -0.0625,-0.499993 0,-0.437494 -0.24998,-1.937473 -0.37497,-2.062471 -0.43747,-2.12497 z"
         style="fill:currentColor;fill-opacity:1;fill-rule:evenodd;stroke:none"
         inkscape:connector-curvature="0" />
      <path
         id="path3264"
         d="m 149.67571,45.686856 -0.24998,1.499979 -0.0625,1.499979 0.0625,1.374981 0.18749,1.312481 0.24998,1.187484 0.43747,1.124984 0.49996,0.999986 0.68744,0.999986 0.68745,0.812488 0.87493,0.812489 0.93742,0.68749 1.18741,0.624991 1.18741,0.499993 1.37489,0.437494 1.43739,0.374995 1.62487,0.312495 1.2499,-0.0625 0.62495,-0.124998 0.12499,-0.0625 0.18749,0 0.37497,0 0.24998,-0.124998 0.12499,-0.0625 0.18748,0 0.62495,-0.124999 1.2499,-0.437494 0.49997,-0.374994 0.24998,-0.187498 0.31247,-0.124998 1.12491,-0.68749 0.99992,-0.937487 0.49996,-0.499993 0.24998,-0.249996 0.12499,-0.124999 0.18749,-0.0625 0.87493,-1.187483 0.18749,-0.374995 0.24998,-0.312495 0.49996,-0.624992 0.37497,-0.749989 0.18748,-0.374995 0.24998,-0.312495 0.87493,-1.562478 0.74995,-1.749976 0.74994,-1.812474 0.12499,-0.562492 0.18748,-0.499993 0.37497,-0.999986 0.12499,-0.562492 0.18749,-0.499993 0.37497,-0.999986 0.24998,-1.124984 0.18748,-0.999986 0.0625,-0.999986 0.0625,-0.812489 -0.18748,-0.812488 -0.18749,-0.68749 -0.31247,-0.687491 -0.37497,-0.499993 -0.56246,-0.562492 -0.62495,-0.437494 -0.68744,-0.374994 -0.81244,-0.249997 -0.93743,-0.249996 -1.06241,-0.124999 -1.12491,-0.124998 -1.18741,0.0625 -1.99984,0.187498 -1.81236,0.312495 -1.81236,0.374995 -1.62487,0.499993 -1.56238,0.437494 -1.43738,0.562492 -1.3749,0.624991 -1.1874,0.74999 -1.18741,0.68749 -1.06242,0.812488 -0.99992,0.874988 -0.81243,0.999986 -1.43739,2.062471 -0.56246,1.124984 -0.37497,1.249982 z"
         style="fill:currentColor;fill-opacity:1;fill-rule:evenodd;stroke:none"
         inkscape:connector-curvature="0" />
      <path
         id="path3266"
         d="m 181.48571,31.24956 0.43747,-1.312482 0.37497,-1.124984 0.24998,-0.937487 0.0625,-0.437493 0.12499,-0.312496 -0.81243,-0.0625 -0.87494,0.187497 -0.49996,0.124998 -0.43746,0.249997 -1.06242,0.562492 -0.62495,0.312496 -0.43746,0.374994 -0.31248,0.374995 -0.18749,0.437494 -0.0625,0.374995 0.0625,0.499993 0.18749,0.499992 0.37497,0.562493 0.18749,0.124998 0.24998,0.187497 0.49996,0.187498 0.18748,0 0.24998,0.0625 0.49996,0.0625 0.37497,-0.124998 0.18749,-0.124999 0.24998,-0.0625 0.37497,-0.312495 0.37497,-0.374995 z"
         style="fill:currentColor;fill-opacity:1;fill-rule:evenodd;stroke:none"
         inkscape:connector-curvature="0" />
      <path
         id="path3268"
         d="m 103.74183,6.1874128 0.0625,-0.1249982 0.12499,-0.062499 0.24998,-0.1249982 0.0625,-0.1249983 0.12499,-0.062499 0.24998,-0.1249982 0.31248,-0.3749948 0.18748,-0.3749947 0.0625,-0.4999929 -0.0625,-0.499993 -0.12499,-0.3124956 -0.0625,-0.2499965 L 104.61676,2.7499613 103.86682,1.6874762 103.24187,0.9374868 102.49193,0.3124956 101.86698,0 101.617,0.74998944 l -0.24998,0.99998596 -0.24998,1.1249841 -0.12499,1.3749806 0,0.499993 0.18748,0.4374938 0.18749,0.3749948 0.37497,0.3124956 0.31247,0.1874973 0.49996,0.1249982 0.49997,0 0.68744,0 z"
         style="fill:currentColor;fill-opacity:1;fill-rule:evenodd;stroke:none"
         inkscape:connector-curvature="0" />
      <path
         id="path3270"
         d="m 110.55379,12.874819 -1.12491,-0.687491 -1.06241,-0.437493 -0.99992,-0.374995 -0.87494,-0.187498 -0.93742,-0.187497 -0.81244,0 -0.74994,0.0625 -0.62495,0.249997 -1.3124,0.68749 -0.56245,0.499993 -0.43747,0.68749 -0.81243,1.562478 -0.312479,0.937487 -0.187485,1.124984 -0.562456,2.12497 -0.37497,2.062471 -0.312475,1.937473 -0.124991,1.937473 -0.12499,1.749975 0.06249,1.687476 0.187486,1.562478 0.312475,1.562478 0.312475,1.312482 0.499961,1.312481 0.562459,1.187484 0.74994,1.124984 0.81244,0.937486 0.93742,0.874988 1.06242,0.812489 1.18741,0.68749 0.12499,0 0.18748,0.0625 0.37497,0.124998 0.74994,0.249997 0.12499,0 0.18749,0.0625 0.37497,0.124998 0.74994,0.249997 0.62495,0.124998 0.68745,0.124998 1.37489,0.187498 0.24998,-0.0625 0.31247,0 0.62495,0 1.2499,-0.124998 1.12491,-0.312495 1.12491,-0.312496 0.99992,-0.562492 0.99992,-0.68749 0.87494,-0.812489 0.87493,-0.812489 0.74994,-1.062485 0.74994,-1.187483 0.62495,-1.312481 0.12499,-0.374995 0.0625,-0.187497 0.12499,-0.124999 0.37497,-0.68749 0.12499,-1.312482 0.0625,-1.249982 -0.0625,-1.249982 -0.18748,-1.249983 -0.31248,-1.249982 -0.37497,-1.249982 -0.56245,-1.249983 -0.56246,-1.124984 -0.81243,-1.249982 -0.87494,-1.249983 -0.99992,-1.249982 -1.06241,-1.124984 -1.2499,-1.249983 -1.3124,-1.124984 -1.43739,-1.187483 -1.56238,-1.124984 z"
         style="fill:currentColor;fill-opacity:1;fill-rule:evenodd;stroke:none"
         inkscape:connector-curvature="0" />
      <path
         id="path3272"
         d="m 71.681856,31.062062 0.312475,-0.562492 0.187485,-0.499993 0.06249,-0.499993 0,-0.374994 -0.187485,-0.437494 -0.312475,-0.374995 -0.437466,-0.374995 -0.562456,-0.312495 -1.124911,-0.624991 -0.937426,-0.312496 -0.937426,-0.187497 -0.687446,0.0625 0.06249,0.749989 0.312475,0.937487 0.312476,1.124984 0.562455,1.312482 0.249981,0.374994 0.37497,0.312496 0.374971,0.187497 0.437465,0.124999 0.374971,-0.0625 0.49996,-0.0625 0.499961,-0.187497 0.562456,-0.312496 z"
         style="fill:currentColor;fill-opacity:1;fill-rule:evenodd;stroke:none"
         inkscape:connector-curvature="0" />
      <path
         id="path3274"
         d="m 80.868632,33.562027 -1.312396,-0.0625 -1.124912,0.124998 -1.062416,0.124999 -0.874931,0.249996 -0.874931,0.249997 -0.687446,0.374994 -0.687446,0.437494 -0.437466,0.562492 -0.437465,0.499993 -0.312476,0.68749 -0.24998,0.687491 -0.06249,0.812488 -0.06249,0.812489 0.12499,0.937487 0.187485,0.999986 0.312476,1.124984 0.562455,2.062471 0.687446,2.062471 0.687446,1.812474 0.812436,1.812475 0.812436,1.562478 0.874931,1.437479 0.874931,1.312482 0.999922,1.187483 0.937426,0.937487 1.062416,0.937487 1.062417,0.68749 1.187406,0.68749 1.187407,0.437494 1.249901,0.312496 1.312397,0.187497 1.374892,0.0625 1.499881,-0.312495 1.437387,-0.374995 1.312397,-0.499993 1.249902,-0.499993 1.062416,-0.624991 0.999921,-0.68749 0.374971,-0.437494 0.437465,-0.374995 0.374971,-0.437494 0.437465,-0.374995 0.562456,-0.999985 0.562456,-0.999986 0.437465,-1.124985 0.12499,-0.624991 0,-0.187497 0.06249,-0.124998 0.124994,-0.249997 0,-0.374995 0,-0.187497 0.0625,-0.124998 0.12499,-0.624991 0.0625,-1.374981 -0.0625,-1.499979 -0.12499,-1.499979 L 99.617156,43.811883 99.0547,42.686899 98.367254,41.624414 97.617313,40.686927 96.742382,39.686941 95.804956,38.811953 94.74254,37.999465 93.617628,37.311974 92.305232,36.561985 90.93034,35.936994 89.492953,35.374502 87.993071,34.937008 86.305704,34.437015 84.555842,34.06202 82.743485,33.749525 80.868632,33.562027 z"
         style="fill:currentColor;fill-opacity:1;fill-rule:evenodd;stroke:none"
         inkscape:connector-curvature="0" />
      <path
         id="path3276"
         d="m 97.804799,97.686124 2.124832,1.124984 1.062419,0.499993 1.12491,0.437494 2.18733,0.624995 1.12491,0.24999 1.12491,0.1875 2.24982,0 1.12491,-0.0625 1.12492,-0.125 2.31231,-0.49999 1.12491,-0.312496 1.24991,-0.374995 2.06233,-1.062485 2.12484,-0.749989 2.18732,-0.437494 2.31232,-0.124998 2.31232,0.124998 2.37481,0.437494 2.43731,0.749989 2.5623,1.062485 2.24982,0.874991 1.12491,0.31249 1.18741,0.25 1.06242,0.125 1.12491,0.125 2.24982,0 0.99992,-0.1875 1.06242,-0.25 0.99992,-0.31249 1.12491,-0.374999 1.99984,-0.999985 0.99993,-0.624992 0.49996,-0.374994 0.24998,-0.187498 0.31247,-0.124998 0.43747,-0.624991 0.49996,-0.562492 0.87493,-1.124984 0.37497,-0.624992 0.18748,-0.312495 0.24998,-0.249997 0.74995,-1.124984 0.62495,-1.249982 0.24998,-0.624991 0.12499,-0.312496 0.18748,-0.249996 0.43747,-1.249983 0.37497,-1.187483 0.24998,-1.312482 0.18748,-1.249982 0,-0.68749 0.0625,-0.624992 0,-1.249982 -0.12499,-1.374981 -0.12499,-0.68749 -0.0625,-0.624991 -0.31247,-1.374981 -0.37497,-1.312481 -0.31248,-0.74999 -0.24998,-0.68749 -0.62495,-1.374981 -0.68744,-1.499978 -0.74995,-1.374981 -0.87493,-1.499979 -0.49996,-0.749989 -0.24998,-0.374995 -0.18748,-0.312496 -1.06242,-1.499979 -1.12491,-1.437479 -1.2499,-1.562478 -1.3124,-1.499979 -1.43739,-1.624977 -1.49988,-1.499979 -1.62487,-1.624977 -0.87493,-0.812489 -0.81244,-0.749989 -1.81235,-1.624977 -1.87486,-1.562478 -1.62487,-1.499979 -1.62487,-1.187484 -1.62487,-1.062485 -1.56238,-0.812488 -1.62487,-0.68749 -1.56238,-0.437494 -1.62487,-0.312496 -1.49988,-0.0625 -1.62487,0.0625 -1.49989,0.312496 -1.62487,0.437494 -1.49988,0.68749 -1.56238,0.812488 -1.49988,1.062485 -1.49988,1.187484 -1.49988,1.499979 -1.99985,1.562478 -1.81235,1.624977 -1.74987,1.562478 -1.56237,1.624977 -2.93727,3.124956 -1.37489,1.499979 -1.187409,1.562478 -1.187407,1.437479 -1.062416,1.499979 -0.999921,1.43748 -0.812436,1.499979 -1.437387,2.874959 -0.624951,1.374981 -0.437466,1.43748 -0.437465,1.312481 -0.312475,1.374981 -0.249981,1.312481 -0.06249,1.374981 -0.06249,1.249982 0.12499,1.312482 0.12499,1.249982 0.312476,1.312482 0.312475,1.187483 0.499961,1.249983 0.49996,1.187483 0.687446,1.249982 0.687446,1.124984 0.874931,1.187484 0.874931,1.124984 1.062417,1.187483 z"
         style="fill:currentColor;fill-opacity:1;fill-rule:evenodd;stroke:none"
         inkscape:connector-curvature="0" />
      <path
         id="path3278"
         d="m 234.66902,127.7482 -0.0625,-1.68748 0,-1.37498 0,-1.24998 0,-0.93749 0,-0.81248 0.0625,-0.5625 0,-0.37499 0.12499,-0.125 -9.37426,0 -0.18749,-1.24998 0.18749,-1.06249 12.56151,0 0.0625,1.31249 11.99905,0 0,-8.68738 -43.87154,0 -0.18749,1.12498 0.0625,1.06249 0,5.37492 5.24958,0 0.0625,13.87481 -0.43747,0.0625 -5.18709,0 0,7.1874 43.99654,0 0,-8.24988 -0.24998,-0.1875 -0.12499,-0.0625 -9.99922,0 0.0625,1.43748 -14.31138,0 0,-4.87493 9.56175,0.0625 z"
         style="fill:currentColor;fill-opacity:1;fill-rule:evenodd;stroke:none"
         inkscape:connector-curvature="0" />
      <path
         id="path3280"
         d="m 179.79834,113.5609 -0.93742,0.93749 -0.12499,0.125 -3.18725,3.49995 -0.24998,0.18749 -0.12499,0.1875 -0.12499,0.125 0,0.125 -0.24998,0.125 -0.31248,0.37499 -0.24998,0.3125 -0.12499,0.18749 -0.49996,0.5 -0.31248,0.31249 -0.12499,0.1875 -0.87493,0.87499 -0.74994,0.87498 -1.37489,-1.43748 -0.49996,-0.62499 -2.4998,-2.62496 -0.43747,-0.49999 -0.24998,-0.3125 -2.5623,-2.62496 -0.18748,-0.3125 -2.87478,-3.06245 -17.93608,0 0,0.18749 0,0.5 0,0.62499 0,0.93748 0,1.06249 0,1.37498 0,1.56248 0,1.87497 3.49972,-0.0625 0,13.12482 -2.37481,0 -0.43747,0 -0.24998,0.125 -1.49988,0 0,7.24989 0.56246,0.0625 21.68579,0 0.0625,-0.37499 0,-7.1874 -3.06226,0 -0.0625,-0.0625 -0.56246,0 -0.37497,-0.0625 -0.56245,-0.0625 -0.37497,0 0,-7.37489 1.1874,1.18748 0.18749,0.25 0.99992,0.93748 0.12499,0.1875 0.0625,0.0625 0.12499,0.125 1.87486,1.93747 0.18748,0.3125 0.12499,0.0625 0.12499,0.0625 0.0625,0.0625 0.12499,0.125 0.24998,0.25 0.18748,0.24999 0.37497,0.375 0.37497,0.37499 0.37497,0.375 0,0.125 1.06242,0.93748 0.31248,0.4375 7.74939,0 0.12499,-0.0625 7.68689,-8.56238 0,7.74989 -4.24966,-0.0625 0,7.74989 22.62321,0 0,-7.68739 -4.18717,0 -0.74994,-0.0625 0,-12.87482 5.31208,-0.0625 0,-8.06238 -19.43596,0 -0.37498,0.37499 -0.49996,0.49999 0,0.0625 -0.99992,0.99999 -0.31247,0.31249 -0.18749,0.3125 z"
         style="fill:currentColor;fill-opacity:1;fill-rule:evenodd;stroke:none"
         inkscape:connector-curvature="0" />
      <path
         id="path3282"
         d="m 4.3121605,117.81084 0.062495,0.375 0.062495,11.06234 -0.062495,0.43749 0.1249902,0.4375 0,2.43746 -0.1874852,0.0625 -3.68720971,0 -0.56245571,0.0625 0,6.9999 20.12341592,0 0,-7.0624 -2.562299,0 -0.0625,-0.125 -0.06249,-1.18748 0,-0.87499 0.06249,-0.74999 0.12499,-0.43749 0.562456,0.37499 0.312475,0.125 0.312476,0.1875 0.437465,0.25 1.374892,0.74999 0.24998,0.0625 1.999843,1.06249 0.24998,0.0625 0.0625,0 0.124991,0.0625 0.37497,0.24999 0.0625,0 0.12499,0.0625 0.249981,0.125 -0.124991,0.0625 -1.437386,0 0,6.9999 21.560802,0 0,-7.0624 -1.499882,0 -1.812357,-0.99998 -0.249981,-0.0625 -1.124911,-0.62499 -0.12499,-0.0625 -1.624872,-0.81249 -0.437466,-0.3125 -0.437465,-0.18749 -0.187486,-0.125 -0.24998,-0.125 -0.812436,-0.49999 -0.24998,-0.0625 -1.187407,-0.62499 -0.187485,-0.125 -0.06249,-0.0625 -0.187485,-0.0625 -0.374971,-0.1875 -0.49996,-0.31249 -0.374971,-0.1875 -0.24998,-0.0625 -0.812436,-0.49999 -0.312476,-0.1875 -0.437465,-0.1875 -0.312476,-0.125 -0.812436,-0.49999 -0.562455,-0.3125 -0.374971,-0.24999 0.312476,-0.125 0.312475,-0.37499 0.312475,-0.125 0.249981,-0.1875 0.187485,-0.125 0.12499,0 3.437229,-1.93747 0.374971,-0.125 0.812436,-0.56249 0.812436,-0.3125 2.062338,-1.12498 0.312475,-0.25 0.312475,-0.125 0.749941,-0.37499 0.499961,-0.25 0.187485,-0.18749 0.187485,-0.0625 0.124991,-0.0625 0.187485,-0.0625 1.562377,-0.87499 2.437308,0 0.06249,-6.9999 -20.623376,0 0,3.74995 -0.06249,0.24999 0,0.25 0,0.43749 0,2.43747 -1.062417,0.62499 -0.0625,0.125 -0.749941,0.37499 -0.49996,0.25 -3.749705,2.18747 0,-3.81245 0.312475,-0.0625 3.187249,0 0,-6.6874 -20.56088053,0 0,6.8749 1.68736713,0 0.3749705,0 0.3124754,0 1.562377,0 z"
         style="fill:currentColor;fill-opacity:1;fill-rule:evenodd;stroke:none"
         inkscape:connector-curvature="0" />
      <path
         id="path3284"
         d="m 49.183627,113.12341 0,5.37492 5.249587,0 0.12499,13.87481 -0.437466,0.0625 -5.187091,0 0,7.1874 43.93404,0 0,-8.24988 -0.187485,-0.1875 -0.12499,-0.0625 -9.999213,0 0.06249,1.43748 -14.311373,0 0,-4.87493 9.561747,0.0625 -0.12499,-1.68748 0,-1.37498 0,-1.24998 0,-0.93749 0,-0.81248 0.06249,-0.5625 0,-0.37499 0.124991,-0.125 -9.374262,0 -0.12499,-1.24998 0.12499,-1.06249 12.624006,0 0.06249,1.31249 11.93656,0 0,-8.68738 -43.809051,0 -0.187485,1.12498 -0.06249,0.49999 0.06249,0.5625 z"
         style="fill:currentColor;fill-opacity:1;fill-rule:evenodd;stroke:none"
         inkscape:connector-curvature="0" />
      <path
         id="path3286"
         d="m 115.99087,117.93584 0.37497,-0.125 0.37497,0.0625 4.06218,0 0,-6.9374 -22.998191,0 -0.06249,0.31249 0,6.62491 0.312475,0.0625 4.249666,0 0.0625,0.37499 0,2.24997 0,0.1875 0.0625,0.25 -0.0625,0.49999 0,2.31247 0.12499,0.68749 0,3.43745 0.0625,0.31249 0,3.56245 0.0625,0.3125 0,0.87499 -0.37497,0.0625 -0.37497,0 -2.99977,0 -0.687446,-0.0625 -0.437465,0.12499 0.06249,6.56241 39.871861,0 0,-10.24985 -12.24904,0 -0.0625,0.24999 0,2.18747 0,0.56249 -0.0625,0.25 0,0.3125 -9.31176,-0.0625 0,-14.99979 z"
         style="fill:currentColor;fill-opacity:1;fill-rule:evenodd;stroke:none"
         inkscape:connector-curvature="0" />
    </g>
  </g>
</svg>
