<svg xmlns="http://www.w3.org/2000/svg" id="Laag_1" data-name="Laag 1" viewBox="0 0 908.61 815.36" width="42px"><defs><style>.cls-1{fill:none}.cls-2{fill:currentColor}</style></defs><path class="cls-1" d="M593.15 383.7c5.26-14.43 7.12-29.92 7.12-53.55V192.36c0-63.05-31.63-92.45-94.68-92.45H219.65c-63.05 0-94.57 29.4-94.57 92.45v168.2h175.55V251.18h124v96.69L399.5 383.7" transform="translate(-46.39 -92)"></path><path class="cls-2" d="M410.39 383.65h-22.13l28.45-38.28v-86.28H308.54v109.38H117.18V192.36c0-66.6 34.48-100.36 102.47-100.36h286c68.06 0 102.57 33.76 102.57 100.36v137.8c0 25.46-1.36 38.47-6.83 53.49h-17.23c4.78-13.14 8.21-30 8.21-53.49v-137.8c0-57.68-27.58-84.55-86.77-84.55h-286c-59.13 0-86.67 26.87-86.67 84.55v160.31h159.8V243.28h139.79v107.08z" transform="translate(-46.39 -92)"></path><path class="cls-1" d="M836.7 291.7V7.91H675.85l-83.09 192.37v31.42h64.16v60"></path><path class="cls-2" d="M844.6 291.71h-15.8V15.81H681.05l-80.38 186.11v21.88h64.15v67.91h-15.8V239.6h-64.16l.65-42.46L670.65 0H844.6v291.71z"></path><path class="cls-2" d="M153.07 692.52L111.38 574v118.52h-65V400.37h65v114.31l33.67-114.31h71.11v2.27L165.31 541.5l59.28 148.75v2.27zM232.62 692.52V400.37h65v292.15zM461.27 692.52H351.14c-22.53 0-32.87-11.07-32.87-34V434.37c0-22.94 10.34-34 32.87-34h110.13c23 0 33.67 11.06 33.67 34v68.88h-65.4V455.4h-46.27v182h46.27v-48.93h65.4v70c0 22.98-10.7 34.05-33.67 34.05zM622.29 692.52L580.6 574v118.52h-65V400.37h65v114.31l33.67-114.31h71.11v2.27L634.53 541.5l59.28 148.75v2.27zM731.66 491h-41.33L703 400.37h64.2zM921.33 692.52H816.18c-22.57 0-33.27-11.07-33.27-34v-64.27h65v45.14h41.69v-42.5L794 531.53c-8.83-6.15-11.1-12.24-11.1-25.28v-71.88c0-22.94 10.7-34 33.27-34h105.56c22.54 0 33.27 10.7 33.27 33.63v62h-65.4v-42.5h-41.69v42.06l95.22 65.07c8.79 6.08 11.87 12.6 11.87 25.57v72.33c0 22.92-11.1 33.99-33.67 33.99z" transform="translate(-46.39 -92)"></path><path class="cls-1" d="M123.19 616.08L72.35 688.6v117.85h479.42V649.73H295.24l23.97-33.65"></path><path class="cls-2" d="M559.67 814.35H64.44V686.12l49.04-70.1 19.39.05-52.62 75.04v107.44h463.62V657.63H279.9l29.59-41.56h19.44l-18.35 25.75h249.09v172.53z"></path><path class="cls-1" d="M656.92 616.08v191.37H836.7V616.08"></path><path class="cls-2" d="M844.6 815.36H649.02V616.09h15.8v183.47H828.8V616.09h15.8v199.27z"></path></svg>
