<?xml version="1.0" encoding="UTF-8" standalone="no"?>
<!-- Created with Inkscape (http://www.inkscape.org/) -->

<svg
   xmlns:dc="http://purl.org/dc/elements/1.1/"
   xmlns:cc="http://creativecommons.org/ns#"
   xmlns:rdf="http://www.w3.org/1999/02/22-rdf-syntax-ns#"
   xmlns:svg="http://www.w3.org/2000/svg"
   xmlns="http://www.w3.org/2000/svg"
   xmlns:sodipodi="http://sodipodi.sourceforge.net/DTD/sodipodi-0.dtd"
   xmlns:inkscape="http://www.inkscape.org/namespaces/inkscape"
   id="svg2985"
   version="1.1"
   inkscape:version="0.92.4 5da689c313, 2019-01-14"
   viewBox="0 0 150.20567 123.49832"
   width="150.20567"
   height="123.49832"
   sodipodi:docname="kimo.svg">
  <metadata
     id="metadata2991">
    <rdf:RDF>
      <cc:Work
         rdf:about="">
        <dc:format>image/svg+xml</dc:format>
        <dc:type
           rdf:resource="http://purl.org/dc/dcmitype/StillImage" />
        <dc:title></dc:title>
      </cc:Work>
    </rdf:RDF>
  </metadata>
  <defs
     id="defs2989" />
  <sodipodi:namedview
     pagecolor="#ffffff"
     bordercolor="currentColor"
     borderopacity="1"
     objecttolerance="10"
     gridtolerance="10"
     guidetolerance="10"
     inkscape:pageopacity="0"
     inkscape:pageshadow="2"
     inkscape:window-width="2400"
     inkscape:window-height="1424"
     id="namedview2987"
     showgrid="false"
     inkscape:zoom="4.9214632"
     inkscape:cx="125.53173"
     inkscape:cy="56.232989"
     inkscape:window-x="0"
     inkscape:window-y="88"
     inkscape:window-maximized="1"
     inkscape:current-layer="svg2985"
     fit-margin-top="0"
     fit-margin-left="0"
     fit-margin-right="0"
     fit-margin-bottom="0" />
  <g
     id="g68"
     transform="translate(0.03826308,-13.587496)">
    <path
       style="fill:currentColor"
       d="m 0.44848231,135.72634 c -0.26881145,-0.70051 -0.3671883,-11.16301 -0.2186152,-23.25 L 0.5,90.5 4.823905,90.188891 c 5.434334,-0.391005 6.989646,0.893623 7.372403,6.089324 L 12.5,100.40066 16.455486,95.200331 20.410972,90 h 5.825899 c 4.125582,0 5.985831,0.416776 6.373883,1.428025 0.318975,0.831234 -2.410583,5.178643 -6.531384,10.402635 C 22.185716,106.7667 19,111.09399 19,111.44687 c 0,0.35288 3.418023,5.58504 7.595606,11.62703 4.62443,6.68825 7.367354,11.58024 7.012096,12.50603 -0.44859,1.169 -1.914025,1.45117 -6.337813,1.22033 L 21.515586,136.5 16.757793,129.5649 12,122.6298 v 5.9851 c 0,3.32174 -0.533997,6.5191 -1.2,7.1851 -1.6185334,1.61853 -9.7242961,1.56086 -10.35151769,-0.0737 z m 37.99999969,0 c -0.268811,-0.70051 -0.367188,-11.16301 -0.218615,-23.25 L 38.5,90.5 42.823905,90.188891 C 50.033974,89.67012 50,89.560124 50,113.42244 c 0,15.1381 -0.342218,21.51978 -1.2,22.37756 -1.618533,1.61853 -9.724296,1.56086 -10.351518,-0.0737 z m 16.864528,-0.35303 c -0.343321,-0.89468 1.133303,-11.35718 3.281385,-23.25 L 62.5,90.5 h 5.416156 5.416156 l 4.162082,12.48319 4.162082,12.48318 1.667036,-4.48318 C 84.240382,108.51743 86.230175,102.9 87.745274,98.5 L 90.5,90.5 94.885864,90.185864 c 2.412224,-0.172776 4.8553,0.1553 5.429056,0.729057 1.17566,1.175661 8.55865,42.964359 7.92602,44.862269 -0.4909,1.4727 -9.837703,1.68428 -10.728547,0.24286 -0.333102,-0.53897 -1.29393,-4.92324 -2.135173,-9.74282 -0.841243,-4.81958 -1.637844,-8.87119 -1.770225,-9.00357 -0.132381,-0.13238 -1.786094,4.13939 -3.674919,9.49282 L 86.49785,136.5 h -4.934314 -4.934313 l -3.025198,-9.25 C 71.940166,122.1625 70.301449,118 69.962432,118 c -0.339017,0 -1.173541,3.63952 -1.854499,8.08782 -0.680958,4.44831 -1.481962,8.72331 -1.780008,9.5 -0.813429,2.11977 -10.189237,1.93717 -11.014915,-0.21451 z m 67.94022,0.29666 c -16.61597,-6.02803 -19.2774,-31.6782 -4.37372,-42.152894 C 122.54292,90.942331 124.08667,90.5 129.40917,90.5 c 7.99085,0 13.23856,3.212603 17.56195,10.75129 10.20667,17.79731 -5.74119,40.94036 -23.71789,34.41868 z m 10.7867,-10.7099 c 4.24167,-4.24167 5.30528,-13.32299 2.30172,-19.65253 C 131.55737,95.22542 121,100.88089 121,113.5259 c 0,10.14129 7.6366,16.8375 13.03993,11.43417 z M 65.945781,79.178844 C 56.35431,73.092392 43.952775,56.988939 39.992614,45.478533 33.804585,27.492714 38.474518,18.838197 56.5,14.88635 c 8.943243,-1.960687 29.470025,-1.648428 38,0.578065 16.42315,4.286771 21.34627,11.949671 16.57911,25.805642 -5.25254,15.266787 -15.328142,29.391886 -26.093408,36.580655 -7.788957,5.201266 -12.426568,5.524763 -19.039921,1.328132 z M 81.054219,75.170007 C 97.6982,64.575165 113.50961,33.509614 106.05318,26.053181 100.30762,20.307616 87.472059,17.50844 70.5,18.29975 c -13.211938,0.615997 -21.012048,2.516299 -25.23362,6.147542 -2.484983,2.137493 -2.76466,3.024099 -2.749472,8.716124 0.01222,4.580649 0.758249,8.108593 2.692161,12.731173 2.75637,6.588484 9.083319,16.711332 9.559242,15.29438 0.147571,-0.43936 1.743133,-9.324116 3.545693,-19.743902 L 61.591386,22.5 H 68.045693 74.5 l -0.317566,3.5 -0.317566,3.5 3.14037,-3.75 C 80.116174,22.035148 80.215221,22 87.572804,22 93.002953,22 95,22.349796 95,23.300924 c 0,0.715509 -2.716587,4.504372 -6.036861,8.419696 l -6.036861,7.118771 4.536861,11.286895 C 89.958413,56.334078 92,62.015775 92,62.75228 c 0,1.01355 -1.606744,1.267214 -6.609094,1.04341 L 78.781812,63.5 76.230019,57 c -1.403486,-3.575 -2.715108,-6.698214 -2.914716,-6.940476 -1.04744,-1.271271 -3.940546,3.6715 -4.814475,8.225362 L 67.5,63.5 62.204028,64 l -5.295972,0.5 5.295972,5.194992 c 5.380687,5.278092 10.040875,8.287711 12.850191,8.298847 0.854821,0.0034 3.554821,-1.267336 6,-2.823832 z M 65.30632,55.752883 c 0.441242,-3.289711 1.488665,-5.104357 4.646433,-8.049892 2.242227,-2.091527 4.454819,-3.569132 4.916872,-3.283567 0.462054,0.285565 2.076064,3.908016 3.586691,8.049892 C 81.013175,59.479783 81.40314,60 84.101455,60 c 1.5942,0 2.899868,-0.3375 2.901485,-0.75 0.0016,-0.4125 -1.874702,-5.3258 -4.169598,-10.918444 L 78.660804,38.163113 83.929347,32.081556 89.197889,26 85.348944,26.03659 c -3.538342,0.03363 -4.251443,0.558171 -8.836662,6.5 C 73.769038,36.091464 70.956538,39 70.262282,39 68.799932,39 68.657923,35.178524 69.918546,29.75 70.769836,26.084152 70.724847,26 67.913741,26 65.752852,26 64.908426,26.559244 64.516374,28.25 64.044831,30.283562 59,59.067819 59,59.724734 59,59.87613 60.290749,60 61.868331,60 c 2.618116,0 2.918024,-0.370491 3.437989,-4.247117 z"
       id="path82"
       inkscape:connector-curvature="0" />
    <path
       style="fill:currentColor"
       d="M 0.23122552,113.25 0.5,90.5 h 5 5 l 0.30226,5.25 c 0.166242,2.8875 0.616242,5.21652 1,5.17561 0.383757,-0.0409 2.520183,-2.40342 4.747614,-5.250004 3.81958,-4.881297 4.336412,-5.192476 9.088823,-5.472276 8.499107,-0.500388 8.491657,1.032931 -0.05778,11.89108 C 21.507769,107.26749 18.514816,111.95 18.929909,112.5 23.929351,119.12428 34,134.11751 34,134.93642 34,135.57626 31.468777,136 27.646716,136 H 21.293432 L 16.396716,128.75 11.5,121.5 11.20619,128.75 10.912381,136 H 5.437416 -0.03754897 Z m 38.00000048,0 L 38.5,90.5 h 5 5 l 0.268774,22.75 0.268775,22.75 H 43.5 37.962451 Z m 16.752348,21.5499 c -0.04812,-3.80811 7.557321,-43.411415 8.456427,-44.034587 0.583,-0.404078 2.737125,-0.741578 4.786946,-0.75 4.672008,-0.0192 5.512336,1.232339 9.870187,14.700057 1.818005,5.61845 3.55238,9.97006 3.854165,9.67025 C 82.253085,114.08581 84.3,108.5889 86.5,102.17026 L 90.5,90.5 94.885864,90.185864 c 2.412224,-0.172776 4.786088,0.08609 5.275256,0.575252 C 101.0704,91.670396 108,129.67088 108,133.7479 108,135.80649 107.53519,136 102.59035,136 h -5.409647 l -1.175595,-7.25 c -2.27958,-14.05837 -2.168209,-14.00572 -5.852245,-2.76627 L 86.83735,136.09888 81.754861,135.79944 76.672373,135.5 73.916656,127.28471 c -1.515644,-4.51841 -3.119135,-8.79341 -3.563314,-9.5 -0.487316,-0.77521 -1.415053,2.48285 -2.339313,8.21529 l -1.531717,9.5 -5.741156,0.2999 c -4.191478,0.21896 -5.74559,-0.051 -5.757582,-1 z m 65.436696,-0.68539 C 111.1969,128.4901 106.67667,116.04732 110.1702,105.89922 113.59103,95.962295 120.02897,91 129.5,91 c 9.17193,0 15.94517,4.986576 19.44411,14.3151 1.54545,4.12031 1.28849,13.19147 -0.49479,17.46702 -1.78229,4.27317 -6.71789,9.74339 -10.64966,11.8032 -3.96623,2.07787 -13.62912,1.8161 -17.37939,-0.47081 z m 14.98039,-10.43784 C 137.08682,121.40902 137.5,119.40608 137.5,113.5 c 0,-9.0971 -2.17017,-12.82599 -7.74279,-13.30401 -3.03308,-0.260181 -3.88389,0.17238 -5.90066,3 -1.9363,2.7148 -2.35655,4.55234 -2.35655,10.30401 0,5.75167 0.42025,7.58921 2.35655,10.30401 2.01677,2.82762 2.86758,3.26018 5.90066,3 2.51335,-0.21559 4.15467,-1.12514 5.64345,-3.12734 z M 64.360009,77.67205 C 54.55404,70.429783 44.996382,57.951741 40.929663,47.082461 34.481387,29.847899 37.063926,21.736489 50.566342,16.814951 c 4.72541,-1.72238 8.852621,-2.252269 20.268576,-2.602263 25.85237,-0.792592 39.667922,4.289829 41.744072,15.356678 1.58599,8.454028 -7.18348,27.586491 -17.923293,39.103509 C 80.971465,83.347386 74.604953,85.238525 64.360009,77.67205 Z M 78.535516,76.986497 C 81.898878,75.707749 93.281201,64.865034 97.17044,59.235009 101.54236,52.906253 105.6088,44.260198 107.35039,37.590415 110.02902,27.332047 106.92284,23.432985 93.295332,19.947655 82.52108,17.192065 65.360995,17.264771 54.813847,20.110697 41.779953,23.62762 39.378022,29.058517 44.35299,43.763262 c 2.17697,6.434573 9.348361,18.868721 10.321354,17.895727 0.23346,-0.233459 1.762333,-8.239738 3.397496,-17.79173 C 59.707004,34.315266 61.268344,25.4875 61.541484,24.25 61.988924,22.222819 62.630401,22 68.019052,22 H 74 l 0.03755,3.75 0.03755,3.75 3.212454,-3.750044 c 3.117914,-3.639685 3.409361,-3.750043 9.903436,-3.75 3.680041,2.4e-5 6.97107,0.453235 7.313399,1.007135 0.34233,0.5539 -2.167136,4.379491 -5.576591,8.501314 l -6.199007,7.494223 4.744848,11.589446 c 3.043375,7.433543 4.399346,11.934948 3.781355,12.552939 -0.529921,0.529921 -3.559398,0.826579 -6.732172,0.65924 L 78.754135,63.5 76.263544,56.75 C 74.893719,53.0375 73.443783,50 73.041464,50 71.24868,50 69.059328,53.925007 68.29553,58.508373 L 67.463698,63.5 62.005372,64 56.547045,64.5 60.37171,68.314854 C 65.597377,73.527117 71.930547,78 74.084939,78 c 0.981674,0 2.984434,-0.456077 4.450577,-1.013503 z M 65.441688,55.540285 c 0.536836,-3.579882 1.426087,-5.059517 4.507448,-7.5 C 72.060406,46.368128 74.204394,45 74.713553,45 c 0.50916,0 2.067372,3.2625 3.462693,7.25 2.468889,7.055506 2.633681,7.258266 6.142816,7.558128 L 87.92493,60.116255 83.461866,49.463606 C 81.00718,43.604649 79.304716,38.290991 79.678612,37.655478 80.052508,37.019965 82.302778,34.201484 84.679211,31.392187 87.055645,28.582889 89,25.995389 89,25.642187 89,25.288984 87.491228,25 85.647173,25 c -2.965738,0 -3.975937,0.80363 -8.75,6.960765 -6.485101,8.363872 -8.44073,9.02157 -7.552322,2.539923 0.339185,-2.474622 0.907357,-5.657385 1.262606,-7.072807 0.607615,-2.420933 0.447272,-2.554358 -2.704773,-2.250688 L 64.552006,25.5 l -2.713665,16 c -1.492516,8.8 -2.741717,16.5625 -2.776003,17.25 -0.03619,0.725693 1.148373,1.25 2.824118,1.25 2.650483,0 2.94113,-0.36459 3.555232,-4.459715 z"
       id="path80"
       inkscape:connector-curvature="0" />
    <path
       style="fill:currentColor"
       d="M 0,113.51905 V 91.038104 L 2.3791708,90.44097 c 1.308544,-0.328423 3.671044,-0.449497 5.25,-0.269052 C 10.349252,90.482772 10.526255,90.801142 11,96.234906 l 0.5,5.734904 4.777848,-5.984904 C 20.934988,90.151204 21.17822,90 25.905404,90 c 7.96061,0 7.917039,1.340811 -0.389284,11.97935 l -7.358865,9.42507 7.415387,10.7004 c 10.077832,14.54232 9.971578,13.89623 2.284347,13.89015 l -6.356989,-0.005 -5,-7.24496 -5,-7.24497 -0.29381,7.25 -0.293809,7.25 H 5.4561904 0 Z m 38,0 V 91.038104 l 2.379171,-0.597134 c 1.308544,-0.328423 3.671044,-0.449497 5.25,-0.269052 L 48.5,90.5 48.768774,113.25 49.037549,136 H 43.518774 38 Z m 17,21.31846 C 55,131.44689 62.409454,92.311662 63.252402,91.25 63.79827,90.5625 65.934689,90 68,90 c 2.065311,0 4.204372,0.5625 4.753469,1.25 0.549098,0.6875 2.739254,6.574519 4.867015,13.08226 4.435162,13.56492 3.710362,13.81965 9.481515,-3.33226 1.75807,-5.225 3.691831,-9.830609 4.297246,-10.234687 1.470383,-0.981392 6.783002,-0.936367 8.370041,0.07094 C 100.88346,91.543421 108,128.9932 108,134.1492 108,135.7186 107.19022,136 102.67408,136 h -5.325916 l -1.783798,-10.1917 c -2.022996,-11.55836 -1.940471,-11.59713 -6.687255,3.14116 l -2.29972,7.1404 -4.978772,-0.29493 L 76.619846,135.5 73.599337,126.25 C 71.938056,121.1625 70.28533,117 69.926612,117 c -0.358718,0 -1.192871,3.4875 -1.853673,7.75 C 66.239276,136.57803 66.631839,136 60.432612,136 56.971305,136 55,135.57817 55,134.83751 Z m 66.5,-0.002 c -7.72559,-4.26235 -11.93217,-11.76436 -11.96354,-21.33574 -0.0193,-5.90024 0.43941,-7.83658 2.91997,-12.32486 3.94226,-7.13306 9.0698,-10.177003 17.13143,-10.170017 14.46217,0.01253 23.75837,14.409127 19.41054,30.060227 -1.17724,4.23778 -7.0506,11.39317 -11.04911,13.46087 -3.32622,1.72006 -13.54418,1.91233 -16.44929,0.30952 z m 14.21783,-11.73362 c 3.22976,-4.80873 3.22593,-14.40591 -0.008,-19.20424 C 133.75813,101.00126 132.84201,100.5 129.5,100.5 c -3.34201,0 -4.25813,0.50126 -6.21017,3.39788 -3.37381,5.00641 -3.23869,14.24149 0.28424,19.42593 2.29123,3.37186 2.97444,3.75447 6.21783,3.48214 2.85607,-0.23981 4.13711,-1.04049 5.92593,-3.70383 z M 66.400038,79.166689 C 59.884011,74.432907 47.634774,60.668155 44.194858,54.214213 39.631257,45.652021 36.768794,33.984179 37.946226,28.743817 c 2.170336,-9.65946 11.558185,-13.85933 32.484162,-14.532536 22.648158,-0.728611 36.806052,3.445175 40.891672,12.054976 2.23515,4.710239 2.13158,6.524155 -0.88831,15.557426 C 106.80869,52.667177 101.83019,61.08247 94.347808,69.014185 82.023815,82.078267 74.279995,84.891342 66.400038,79.166689 Z M 81.599962,75.107011 C 94.198438,65.761652 102.64619,53.823821 107.05362,39.137509 109.12666,32.22979 109.1648,31.5688 107.67109,28.436457 105.5754,24.041748 102.59411,22.214418 93.788429,19.927307 84.335246,17.472021 65.844173,17.329182 55.714213,19.633192 45.95392,21.853124 42,25.622072 42,32.705828 c 0,6.514062 3.246115,15.817693 8.185174,23.459377 2.91771,4.514264 4.226309,5.824142 4.772556,4.777219 C 55.371664,60.149091 56.967462,51.625 58.503948,42 60.040435,32.375 61.735709,23.9375 62.271225,23.25 62.83954,22.520391 65.527362,22 68.72748,22 h 5.482591 l -0.381461,4 c -0.209804,2.2 -0.14457,3.990392 0.144964,3.978649 0.289534,-0.01174 1.79311,-1.811744 3.34128,-4 L 80.129709,22 h 6.876128 c 3.781871,0 7.152231,0.446742 7.489688,0.99276 0.337458,0.546018 -2.110985,4.229517 -5.440983,8.185555 C 85.724544,35.134352 83,38.755908 83,39.226217 c 0,0.470308 2.040149,5.805268 4.533664,11.855466 2.493516,6.050198 4.266958,11.4319 3.940983,11.959338 C 91.148673,63.56846 88.236826,64 85.003878,64 h -5.878089 l -2.77858,-7.471688 -2.77858,-7.471688 -2.227254,2.092397 c -1.403227,1.318263 -2.527533,3.990103 -3.038875,7.221688 L 67.49088,63.5 61.692082,64 l -5.798798,0.5 4.303358,4.154152 C 66.22227,74.47086 71.808291,78 74.989508,78 c 1.490728,0 4.465432,-1.301845 6.610454,-2.892989 z M 65.476304,56.140257 c 0.736032,-4.356534 7.803432,-12.27518 9.453148,-10.591748 0.51284,0.52332 2.018608,3.876491 3.346153,7.451491 2.309366,6.218988 2.56973,6.513298 6.022399,6.807584 l 3.608681,0.307583 -2.564745,-6.307583 C 83.93133,50.338413 81.959603,45.427728 80.960324,42.894952 l -1.81687,-4.605048 4.902879,-5.894952 C 86.742917,29.152728 88.96064,26.1625 88.974607,25.75 88.988573,25.3375 87.447767,25 85.550594,25 c -3.092599,0 -3.997699,0.718383 -8.75,6.944927 -2.915327,3.81971 -5.920608,6.96971 -6.678402,7 -1.390288,0.05557 -1.305283,-1.808861 0.490974,-10.768709 0.656835,-3.276336 0.618713,-3.31916 -2.670554,-3 L 64.605712,25.5 61.865923,41 c -3.505363,19.831134 -3.507383,19 0.04618,19 2.600517,0 2.981875,-0.41298 3.564201,-3.859743 z"
       id="path78"
       inkscape:connector-curvature="0" />
    <path
       style="fill:currentColor"
       d="M 0,113.5 V 91 H 5.4500961 10.900192 L 11.200096,96.676846 11.5,102.35369 15.87161,96.676846 20.243219,91 H 26.12161 C 30.442338,91 32,91.364307 32,92.374841 c 0,0.756163 -3.145345,5.306665 -6.989656,10.112229 -3.951935,4.9401 -6.687048,9.23187 -6.293369,9.87516 0.382957,0.62577 3.77125,5.53524 7.529539,10.90992 9.311013,13.31556 9.237481,12.73637 1.610475,12.68522 L 21.5,135.91474 l -5,-7.20737 -5,-7.20737 -0.29381,7.25 -0.293809,7.25 H 5.4561904 0 Z m 38,0 V 91 H 43.5 49 V 113.5 136 H 43.5 38 Z m 17.057418,21.25 c 0.03158,-0.6875 1.747351,-10.7 3.812825,-22.25 l 3.755407,-21 h 5.353331 5.353331 l 4.266795,12.5 c 3.078637,9.01917 4.451235,11.94307 4.929136,10.5 0.364287,-1.1 2.306959,-6.725 4.317049,-12.5 L 90.5,91.5 95.75,91.19774 c 2.8875,-0.166242 5.25158,0.05876 5.25352,0.5 0.002,0.441243 1.57693,9.9819 3.5,21.20146 1.92306,11.21955 3.49648,21.00705 3.49648,21.75 0,0.97067 -1.54777,1.3508 -5.5,1.3508 -4.572204,0 -5.499657,-0.29521 -5.497965,-1.75 0.0011,-0.9625 -0.73996,-5.79268 -1.646844,-10.73373 L 93.706313,114.53254 90.103157,125.01627 86.5,135.5 l -4.630344,0.2999 -4.630345,0.29991 -2.792386,-7.79991 c -5.062148,-14.13997 -4.553256,-13.65131 -6.040056,-5.7999 -0.729065,3.85 -1.589255,8.4625 -1.911534,10.25 -0.576557,3.19784 -0.673506,3.25 -6.040648,3.25 -3.727706,0 -5.436508,-0.39576 -5.397269,-1.25 z M 121.5,134.48355 c -8.12021,-4.3752 -11.87728,-11.01023 -11.88188,-20.98355 -0.004,-7.57021 1.56381,-11.79567 6.24604,-16.839276 C 119.77586,92.447118 123.26175,91 129.5,91 c 6.74396,0 10.16686,1.624599 14.78139,7.015638 8.64696,10.102032 7.01143,25.845112 -3.56858,34.349942 -3.12964,2.51579 -4.86589,3.10427 -10,3.38937 -4.36369,0.24232 -7.1057,-0.13609 -9.21281,-1.2714 z m 12.49583,-9.32553 c 6.1275,-6.1275 6.03868,-18.42686 -0.1708,-23.6518 -3.81742,-3.212138 -5.33055,-3.154541 -8.82086,0.33576 -6.42523,6.42524 -5.7705,19.70615 1.21262,24.59732 3.13509,2.1959 4.53193,1.96582 7.77904,-1.28128 z M 66.945781,79.143628 C 61.323085,75.5311 50.441594,64.099388 46.121359,57.266222 38.783616,45.660371 36.007293,30.780446 39.967685,24.285116 44.033282,17.617239 56.309737,14 74.874071,14 c 19.897532,0 32.684149,4.486391 36.339699,12.750366 1.72799,3.906389 1.81166,4.990161 0.73943,9.57724 -4.02897,17.236218 -18.017054,37.072865 -30.707955,43.547279 -5.589111,2.851352 -8.994377,2.677211 -14.299464,-0.731257 z M 83.650916,73.580677 C 94.097028,65.688032 102.07274,54.293853 106.53922,40.882229 109.60951,31.662996 109.25745,28.235859 104.85998,24.535635 99.415216,19.954168 81.405233,16.30951 69.609155,17.401969 51.892395,19.042754 42.939051,23.180893 41.594074,30.350234 40.495099,36.208275 46.462871,52.356748 52.366557,59.5 55.433986,63.211481 55.17566,63.908075 58.48545,43 61.916407,21.326504 61.684872,21.819644 68.252335,22.197821 L 73.5,22.5 73.303619,27 c -0.178972,4.101078 -0.07019,4.330694 1.227122,2.590158 C 79.788733,22.535776 80.704755,22 87.507714,22 c 8.26421,0 8.373535,1.070592 0.992286,9.717142 -3.025,3.543549 -5.5,6.847781 -5.5,7.342739 0,0.494957 1.849295,5.521467 4.109545,11.170021 2.260249,5.648554 4.341778,10.854447 4.62562,11.568651 0.399239,1.004569 -1.022285,1.230963 -6.278969,1 L 78.661152,62.5 l -2.492671,-6.815177 -2.492672,-6.815178 -2.353999,2.354 c -1.351772,1.351771 -2.676561,4.253371 -3.111621,6.815177 L 67.452567,62.5 61.726283,62.799904 C 58.576828,62.964851 56,63.433657 56,63.841696 c 0,0.836173 6.78888,7.426594 11.826725,11.480994 4.976461,4.004998 8.770703,3.587308 15.824191,-1.742013 z M 65.516082,56.288949 C 66.457161,52.388742 72.17177,45 74.247193,45 c 0.847719,0 1.808801,2.089931 5.173461,11.25 1.625064,4.42413 1.983825,4.75 5.229441,4.75 4.059608,0 4.092257,0.314865 -1.293011,-12.469641 C 81.510688,44.147056 80,39.840555 80,38.960357 80,37.571029 81.583689,35.383356 88.839256,26.75 90.201892,25.128608 90.007754,25 86.197581,25 82.304634,25 81.787147,25.373537 76.5,32 c -6.191623,7.760057 -8.105045,8.770894 -7.098409,3.75 0.358374,-1.7875 0.927446,-4.970697 1.264604,-7.073771 l 0.613014,-3.82377 -3.389604,0.32377 L 64.5,25.5 61.825017,40.5 C 58.261799,60.480785 58.259076,61.218097 61.75,60.816422 c 2.31619,-0.266507 2.910286,-0.980711 3.766082,-4.527473 z"
       id="path76"
       inkscape:connector-curvature="0" />
    <path
       style="fill:currentColor"
       d="M 0.23086846,113.75 0.5,91.5 5.69859,91.199523 10.89718,90.899047 11.19859,96.699523 11.5,102.5 15.870145,96.75 20.240291,91 h 5.879854 c 4.040965,0 5.877657,0.39093 5.872828,1.25 -0.0039,0.6875 -2.725012,4.625 -6.046994,8.75 -3.321982,4.125 -6.447478,8.21804 -6.945547,9.09564 -0.681347,1.20054 1.054931,4.41576 7.012094,12.9849 4.35472,6.26409 7.547633,11.7593 7.095362,12.21157 -0.452271,0.45227 -3.249066,0.68407 -6.2151,0.5151 L 21.5,135.5 l -5,-7.35788 -5,-7.35789 -0.292064,7.60789 L 10.915871,136 H 5.4388042 -0.03826308 Z m 37.99999954,0 L 38.5,91.5 43.75,91.19774 49,90.895481 V 113.44774 136 h -5.519132 -5.519131 z m 17.368322,21.41049 c -0.423426,-0.68512 5.012056,-33.56364 6.937105,-41.961644 0.478839,-2.088927 1.004646,-2.273379 5.701301,-2 L 73.41141,91.5 l 3.863733,12.34723 c 2.125053,6.79097 4.155261,12.0557 4.511573,11.69939 0.356312,-0.35632 2.49502,-5.91257 4.752684,-12.34723 L 90.644243,91.5 95.641447,91.204006 100.63865,90.908013 104.35,112.70401 c 2.04124,11.98779 3.69754,22.15701 3.68067,22.59825 -0.0169,0.44124 -2.38938,0.66624 -5.27224,0.5 L 97.516859,135.5 l -1.229242,-7 C 93.542769,112.86929 94.227172,113.25712 90.11125,125 l -3.68029,10.5 -4.616114,0.30073 -4.616115,0.30074 -3.22378,-9.80074 c -1.773079,-5.3904 -3.538323,-10.14876 -3.922765,-10.57413 -0.384441,-0.42537 -1.258713,2.94963 -1.942826,7.5 C 66.084679,136.69373 66.473477,136 60.950609,136 c -2.657916,0 -5.066055,-0.37778 -5.351419,-0.83951 z M 121.5,134.48674 c -7.62371,-4.09957 -11.94991,-11.71117 -11.90286,-20.9421 0.0337,-6.62216 1.89417,-11.89568 5.7431,-16.279366 C 119.14662,92.930047 123.47865,91 129.40278,91 c 5.6011,0 9.30444,1.377752 12.9388,4.813618 5.00787,4.734342 7.09579,9.914792 7.12831,17.686382 0.0345,8.24564 -2.59625,13.91315 -8.75708,18.86558 -3.12964,2.51579 -4.86589,3.10427 -10,3.38937 -4.35785,0.242 -7.10852,-0.13665 -9.21281,-1.26821 z M 134.22621,125.25 c 6.69347,-7.07856 5.40029,-22.091 -2.17315,-25.22802 -2.57628,-1.067134 -3.4212,-1.010785 -5.52635,0.36856 -7.16602,4.69536 -8.13647,17.16606 -1.91152,24.56399 3.18628,3.78667 6.22151,3.87999 9.61102,0.29547 z M 66.945781,79.173202 C 56.017335,72.224477 43.447136,55.170612 39.596349,42.068499 c -3.609694,-12.28181 -1.255138,-19.512152 7.679907,-23.58336 12.518762,-5.70411 39.683274,-6.013416 53.885954,-0.613566 4.30812,1.637942 9.72532,7.061557 10.74621,10.758931 1.30974,4.743468 -0.77574,12.555768 -6.37191,23.869496 -5.24518,10.604136 -13.418995,20.175 -21.925611,25.673091 -7.164565,4.630682 -10.628305,4.838549 -16.665118,1.000111 z M 81,75.860167 c 5.154748,-3.140503 15.012945,-13.675765 18.854613,-20.149556 4.445547,-7.491423 8.016117,-16.488314 8.792947,-22.155934 0.60198,-4.391891 0.45123,-4.770376 -3.33432,-8.371481 -4.61379,-4.38899 -12.594174,-6.741899 -26.370893,-7.775102 -9.822219,-0.73663 -24.839042,1.478232 -30.864711,4.552299 -4.814968,2.456414 -7.524935,7.72145 -6.63298,12.886829 1.633223,9.458105 9.927525,26.411001 13.012022,26.595542 0.526173,0.03148 2.360887,-8.078021 4.077142,-18.021112 1.716255,-9.943091 3.418218,-18.854283 3.78214,-19.802647 0.532822,-1.388512 1.686231,-1.665363 5.922858,-1.421652 L 73.5,22.5 73.305745,27 73.111491,31.5 75.131742,29 c 5.771962,-7.14263 5.529632,-7 11.893029,-7 8.333113,0 8.577934,1.45269 1.58682,9.415676 C 85.525216,34.931105 83,38.451288 83,39.238305 c 0,1.151486 3.108888,9.206888 8.706863,22.560248 0.421849,1.006274 -0.974428,1.231355 -6.203446,1 L 78.755593,62.5 76.279548,55.791322 c -2.466731,-6.683439 -2.48498,-6.702824 -4.850733,-5.152723 -1.484745,0.972843 -2.604935,2.924856 -2.98907,5.208678 C 67.22081,63.094279 67.31317,63 61.432612,63 58.444676,63 56,63.352872 56,63.78416 56,64.779548 65.692742,74.171823 68.972506,76.354529 72.343393,78.597879 76.807559,78.41439 81,75.860167 Z M 65.536095,56.607871 c 0.494399,-3.296889 1.627239,-5.337941 4.542916,-8.185023 2.136352,-2.086092 4.227888,-3.449282 4.647858,-3.029312 0.419971,0.41997 1.944255,3.990731 3.387298,7.935023 2.545793,6.958454 2.731556,7.180659 6.254774,7.481806 C 86.366024,60.981066 88,60.714553 88,60.218115 88,59.721676 86.2,55.007594 84,49.742377 81.8,44.47716 80,39.597634 80,38.898984 c 0,-0.698649 1.691466,-3.324231 3.758814,-5.834627 7.212729,-8.758472 7.031366,-8.071225 2.113631,-8.009284 -4.218881,0.05314 -4.560905,0.301933 -9.73849,7.083955 -5.919336,7.75363 -7.86467,7.99531 -6.199207,0.770166 C 71.607345,25.653098 71.419041,25 67.654335,25 H 64.308671 L 61.6355,41.25 C 58.289842,61.587996 58.280815,61 61.938727,61 c 2.705604,0 2.990976,-0.348419 3.597368,-4.392129 z"
       id="path74"
       inkscape:connector-curvature="0" />
    <path
       style="fill:currentColor"
       d="m 0.44764466,134.72416 c -0.26927216,-0.70171 -0.367649,-10.71421 -0.2186152,-22.25 L 0.5,91.5 5.69859,91.199523 10.89718,90.899047 11.19859,96.699523 11.5,102.5 15.986828,96.75 20.473656,91 h 5.763172 C 30.206929,91 32,91.392254 32,92.260759 c 0,0.693418 -3.15,5.17493 -7,9.958921 -3.85,4.78398 -7,8.91691 -7,9.18429 0,0.26737 3.560005,5.56854 7.911121,11.78038 4.351117,6.21184 7.699559,11.63657 7.440983,12.05495 C 33.093528,135.65769 30.43767,136 27.450198,136 H 22.01843 L 16.759215,128.4264 11.5,120.85281 11.207936,128.4264 10.915871,136 H 5.9265509 c -3.1228592,0 -5.17247025,-0.47728 -5.47890624,-1.27584 z m 38.00000034,0 c -0.269272,-0.70171 -0.367649,-10.71421 -0.218616,-22.25 L 38.5,91.5 43.75,91.19774 49,90.895481 V 113.44774 136 h -5.031385 c -3.156965,0 -5.213778,-0.47531 -5.52097,-1.27584 z M 55.676439,135.25 C 55.433562,134.8375 56.972832,124.825 59.09704,113 61.221248,101.175 62.968408,91.3875 62.979618,91.25 62.990828,91.1125 65.218849,91 67.930776,91 h 4.930775 l 4.276914,12.95898 c 2.352303,7.12743 4.451942,12.78395 4.665864,12.57002 0.213923,-0.21392 2.317308,-5.93296 4.674189,-12.70897 L 90.763755,91.5 l 4.869451,-0.293636 4.869454,-0.293635 3.35192,19.793631 c 1.84355,10.8865 3.59183,21.05679 3.88507,22.60063 l 0.53315,2.80699 -5.3638,-0.30699 -5.363801,-0.30699 -1.605201,-9.74927 c -0.882861,-5.3621 -1.832871,-9.97694 -2.111133,-10.2552 -0.278262,-0.27826 -2.088993,4.10891 -4.023846,9.74927 l -3.517914,10.2552 -4.544187,0.30073 -4.544187,0.30074 -3.22378,-9.80074 c -1.773079,-5.3904 -3.555801,-10.16624 -3.961605,-10.61297 -0.405803,-0.44673 -1.0397,1.12827 -1.408658,3.5 -0.368958,2.37173 -1.152146,7.12474 -1.740416,10.56224 L 65.79469,136 h -4.838328 c -2.66108,0 -5.037046,-0.3375 -5.279923,-0.75 z m 65.298821,-1.5 c -2.60004,-1.31507 -5.70064,-4.05141 -7.46188,-6.58527 -2.64662,-3.80762 -3.05273,-5.32901 -3.33671,-12.5 -0.27894,-7.04383 9.9e-4,-8.77171 2.03903,-12.58607 1.2993,-2.431729 4.07406,-5.806729 6.16615,-7.499995 3.46448,-2.80404 4.44917,-3.078665 11.03881,-3.078665 6.37339,0 7.66969,0.331539 10.88489,2.783886 7.39328,5.639128 10.88679,15.577404 8.69193,24.726614 -3.31127,13.80294 -16.33249,20.65201 -28.02222,14.7395 z m 13.37546,-8.37344 c 2.56369,-2.56369 4.63813,-7.87558 4.63813,-11.87656 0,-6.84334 -4.77533,-14.5 -9.0434,-14.5 -1.18,0 -3.63507,1.48962 -5.45573,3.31028 -5.82461,5.82461 -5.6764,16.51665 0.318,22.93972 3.22102,3.45137 6.17895,3.4906 9.543,0.12656 z M 66.945474,79.180375 C 60.491482,75.087375 48.665815,61.799466 44.64875,54.126665 37.899024,41.234343 36.318706,29.741117 40.43246,23.462735 46.030077,14.919692 74.772223,11.360337 95.954952,16.58697 102.0321,18.086446 104.2037,19.187001 107.70495,22.541786 111.68752,26.357755 112,27.035754 112,31.860843 112,41.622248 103.71425,58.84546 93.891764,69.501596 88.057222,75.831327 78.52667,82 74.581828,82 72.80033,82 69.428242,80.7549 66.945474,79.180375 Z M 83.63358,73.986896 C 93.738682,66.357471 102.40033,53.869178 107.13833,40.097934 109.81356,32.322256 109.55203,29.565958 105.75,25.465743 97.100332,16.13771 62.276919,14.191252 47.695105,22.220758 c -3.208541,1.76679 -4.53822,3.298962 -5.654113,6.515159 -1.349473,3.889415 -1.288851,4.789163 0.807482,11.984599 2.790288,9.577366 6.839099,16.503078 14.647923,25.056072 12.328551,13.503445 17.129162,15.01143 26.137183,8.210308 z M 56.011743,60.75 c 0.0065,-1.2375 1.356459,-9.885794 3,-19.21843 C 60.655284,32.198933 62,24.211433 62,23.78157 62,23.351706 64.739554,23 68.087898,23 h 6.087898 l -0.648878,4.25 -0.648877,4.25 3.643914,-4.25 C 80.156597,23.010815 80.183473,23 87.082935,23 90.887321,23 94,23.409203 94,23.909339 c 0,0.500137 -2.654214,4.086134 -5.898254,7.968883 l -5.898255,7.059544 4.398255,10.642965 C 89.020786,55.434361 91,60.848364 91,61.611848 91,62.639531 89.464649,63 85.087425,63 H 79.174849 L 76.510461,56.027376 C 73.851752,49.069614 73.840991,49.058081 71.46203,50.616836 68.967523,52.251299 68.577964,53.109235 67.542006,59.25 L 66.909374,63 h -5.454687 c -4.993525,0 -5.453694,-0.190224 -5.442944,-2.25 z m 9.357971,-2 c 0.331637,-1.2375 0.609121,-3.171174 0.616631,-4.297052 0.01551,-2.32528 7.585346,-10.21459 8.716043,-9.083893 0.406506,0.406506 1.908013,3.977266 3.336682,7.935023 2.534065,7.019972 2.687602,7.203511 6.279255,7.506287 C 86.343246,60.981066 88,60.717986 88,60.225742 88,59.733499 86.2,54.906915 84,49.5 81.8,44.093085 80,39.210126 80,38.64898 c 0,-0.561147 1.691466,-3.074227 3.758814,-5.584623 7.212522,-8.758221 7.031035,-8.068917 2.113631,-8.027771 -4.183404,0.035 -4.588087,0.316029 -9.360163,6.5 -4.543657,5.887971 -8.583398,8.697081 -7.155329,4.975593 0.314011,-0.818301 0.87013,-3.743301 1.235819,-6.5 L 71.257661,25 h -3.62883 C 65.632974,25 64,25.276288 64,25.613973 64,26.54163 59.057625,56.167828 58.472099,58.75 58.0203,60.742439 58.351376,61 61.364317,61 c 2.683109,0 3.529896,-0.475676 4.005397,-2.25 z"
       id="path72"
       inkscape:connector-curvature="0" />
    <path
       style="fill:currentColor"
       d="m 0.44764466,134.72416 c -0.26927216,-0.70171 -0.367649,-10.71421 -0.2186152,-22.25 L 0.5,91.5 h 5 5 l 0.5,5.5 0.5,5.5 4.5,-5.694187 4.5,-5.694187 5.75,-0.05581 c 3.583344,-0.03478 5.75,0.362847 5.75,1.055251 0,0.611086 -3.195452,5.118103 -7.101005,10.015593 -3.905553,4.89749 -6.860348,9.46001 -6.566212,10.13893 0.294137,0.67893 3.883818,5.95941 7.97707,11.73441 4.093252,5.775 7.24649,10.8375 7.007195,11.25 -0.239295,0.4125 -2.869811,0.75 -5.845591,0.75 H 22.060948 L 16.780474,128.25 11.5,120.5 11.207936,128.25 10.915871,136 H 5.9265509 c -3.1228592,0 -5.17247025,-0.47728 -5.47890624,-1.27584 z m 38.00000034,0 c -0.269272,-0.70171 -0.367649,-10.71421 -0.218616,-22.25 L 38.5,91.5 h 5 5 l 0.269132,22.25 0.269131,22.25 h -5.050516 c -3.172477,0 -5.23257,-0.47442 -5.540102,-1.27584 z M 55.715949,135.25 c -0.33364,-0.62233 1.353675,-10.81162 6.789474,-41 0.565994,-3.143318 0.74557,-3.25 5.470666,-3.25 h 4.885462 l 4.276914,12.95898 c 2.352303,7.12743 4.520954,12.72108 4.819224,12.43031 0.298271,-0.29076 2.380041,-6.0098 4.626155,-12.70897 L 90.667688,91.5 h 4.912343 4.912339 l 3.7023,21.42885 c 2.03626,11.78587 3.47392,21.79837 3.19479,22.25 -0.27912,0.45163 -2.47561,0.82115 -4.88109,0.82115 -4.968781,0 -4.746001,0.37425 -6.548024,-11 -0.653524,-4.125 -1.528134,-8.12646 -1.943577,-8.89213 -0.481725,-0.88783 -2.008327,2.37242 -4.214229,9 L 86.343662,135.5 81.921831,135.79259 77.5,136.08519 74.09447,126.00549 c -1.873041,-5.54384 -3.725206,-10.27727 -4.115922,-10.51875 -0.390716,-0.24147 -1.518445,4.27522 -2.506064,10.03711 L 65.676813,136 h -4.779389 c -2.628665,0 -4.960328,-0.3375 -5.181475,-0.75 z m 66.691871,-0.67451 c -11.65305,-5.07333 -16.12217,-22.34293 -8.85554,-34.21967 9.53815,-15.589347 31.5561,-10.601635 35.42284,8.02431 3.56288,17.16233 -12.02119,32.52822 -26.5673,26.19536 z m 11.67983,-8.66314 c 5.18213,-5.18213 6.27554,-13.78592 2.66235,-20.94939 -2.623,-5.200319 -6.19736,-6.991419 -10.25907,-5.14078 -3.15927,1.43946 -6.43879,8.26313 -6.46897,13.45994 C 119.97944,120.60576 124.74119,128 129.5,128 c 1.375,0 3.43944,-0.93944 4.58765,-2.08765 z M 69,80.272807 C 64.080735,77.909237 52.06012,65.711457 47.127965,58.078411 42.588129,51.052521 38,38.036202 38,32.182776 38,30.140087 38.836736,26.908611 39.859414,25.001718 47.072067,11.55295 94.524705,10.066479 107.98165,22.867765 111.5085,26.222771 112,27.239482 112,31.180008 112,46.972015 95.482754,72.361357 80.110596,80.19853 75.756595,82.418325 73.496879,82.433432 69,80.272807 Z m 14.662159,-6.099993 c 10.453467,-8.26299 18.527871,-19.494262 22.878691,-31.823621 3.36064,-9.523378 3.2259,-13.428598 -0.59516,-17.249658 C 100.53504,19.688891 85.053149,16.387518 69.541936,17.336767 53.750753,18.30315 46.301261,20.818013 42.950227,26.313822 40.582954,30.196231 40.506933,33.46284 42.612029,40.846093 45.504766,50.991854 49.945836,57.966237 60.061984,68.25 69.427103,77.77029 69.76106,78 74.236737,78 c 3.803054,0 5.408235,-0.651783 9.425422,-3.827186 z M 56.011541,61.25 C 56.017888,60.2875 57.362695,51.625 59,42 60.637305,32.375 61.982112,24.1625 61.988459,23.75 61.994807,23.3375 64.691391,23 67.98087,23 h 5.980869 l -0.61617,4.75 -0.61617,4.75 3.681107,-4.75 3.681107,-4.75 h 6.954194 C 90.870613,23 94,23.3665 94,23.814445 c 0,0.447944 -2.681755,4.000369 -5.959456,7.894277 l -5.959455,7.079833 4.459455,11.094324 C 88.993245,55.984757 91,61.432332 91,61.988601 91,62.555758 88.41814,63 85.121925,63 H 79.24385 L 76.966558,56.75 C 75.714047,53.3125 74.277877,50.05 73.775069,49.5 72.529127,48.137119 68.004072,53.457197 67.986345,56.305764 67.950036,62.140532 67.102285,63 61.383369,63 c -4.464748,0 -5.3814,-0.298621 -5.371828,-1.75 z m 9.38147,-1.831787 C 65.726855,58.548229 66,56.749526 66,55.421093 66,53.172034 72.262524,45 73.986059,45 c 0.414334,0 2.063174,3.4875 3.664088,7.75 2.860085,7.615091 2.975503,7.755403 6.630304,8.060365 C 86.550661,60.999795 88,60.68286 88,59.996991 88,59.378934 86.2,54.483647 84,49.118575 81.8,43.753503 80,39.005626 80,38.567736 80,38.129847 82.25,35.174366 85,32 87.75,28.825634 90,25.95203 90,25.614213 90,25.276396 88.058633,25 85.685851,25 c -4.13948,0 -4.512938,0.263169 -9.224011,6.5 -6.397195,8.46903 -7.588283,8.46903 -5.996779,0 L 71.686544,25 H 67.843272 C 65.729472,25 64,25.34887 64,25.775266 64,26.654664 59.288442,54.041084 58.413049,58.25 57.876063,60.831846 58.05342,61 61.313556,61 c 2.243945,0 3.687213,-0.55962 4.079455,-1.581787 z"
       id="path70"
       inkscape:connector-curvature="0" />
  </g>
</svg>
