<?xml version="1.0" encoding="UTF-8" standalone="no"?>
<svg
   xmlns:dc="http://purl.org/dc/elements/1.1/"
   xmlns:cc="http://creativecommons.org/ns#"
   xmlns:rdf="http://www.w3.org/1999/02/22-rdf-syntax-ns#"
   xmlns:svg="http://www.w3.org/2000/svg"
   xmlns="http://www.w3.org/2000/svg"
   xmlns:sodipodi="http://sodipodi.sourceforge.net/DTD/sodipodi-0.dtd"
   xmlns:inkscape="http://www.inkscape.org/namespaces/inkscape"
   sodipodi:docname="ks7.svg"
   inkscape:version="1.0rc1 (09960d6, 2020-04-09)"
   id="svg8"
   version="1.1"
   viewBox="0 0 79.339996 18.254681"
   height="18.254681mm"
   width="79.339996mm">
  <defs
     id="defs2" />
  <sodipodi:namedview
     inkscape:window-maximized="1"
     inkscape:window-y="0"
     inkscape:window-x="0"
     inkscape:window-height="720"
     inkscape:window-width="1200"
     fit-margin-bottom="0"
     fit-margin-right="0"
     fit-margin-left="0"
     fit-margin-top="0"
     showgrid="false"
     inkscape:document-rotation="0"
     inkscape:current-layer="layer1"
     inkscape:document-units="mm"
     inkscape:cy="-182.87799"
     inkscape:cx="719.03303"
     inkscape:zoom="0.37443324"
     inkscape:pageshadow="2"
     inkscape:pageopacity="0.0"
     borderopacity="1.0"
     bordercolor="#666666"
     pagecolor="#ffffff"
     id="base" />
  <metadata
     id="metadata5">
    <rdf:RDF>
      <cc:Work
         rdf:about="">
        <dc:format>image/svg+xml</dc:format>
        <dc:type
           rdf:resource="http://purl.org/dc/dcmitype/StillImage" />
        <dc:title></dc:title>
      </cc:Work>
    </rdf:RDF>
  </metadata>
  <g
     transform="translate(29.202712,-146.58412)"
     id="layer1"
     inkscape:groupmode="layer"
     inkscape:label="Layer 1">
    <path
       inkscape:connector-curvature="0"
       d=""
       id="path152"
       style="fill:currentColor;stroke-width:0.264583" />
    <path
       inkscape:connector-curvature="0"
       d=""
       id="path148"
       style="fill:currentColor;stroke-width:0.264583" />
    <path
       inkscape:connector-curvature="0"
       d=""
       id="path146"
       style="fill:currentColor;stroke-width:0.264583" />
    <path
       sodipodi:nodetypes="ccccsssccccccccssccccccssccssssssccsccccccccccccsccccccccssscccssccccsccccssssccssssss"
       inkscape:connector-curvature="0"
       id="path220"
       d="m -28.938129,161.79609 v -3.04271 h 8.094537 8.094536 l 3.2164008,2.81842 c 1.769021,1.55013 3.256089,2.91935 3.304596,3.04271 0.04851,0.12336 -1.723703,0.22429 -3.9382438,0.22429 h -4.026439 l -2.477902,-2.42999 -2.477901,-2.42999 v 2.42999 2.42999 h -4.894792 -4.894792 z m 52.393972,2.84427 c 0.004,-0.10914 2.03722,-1.48079 4.51924,-3.04812 l 4.51277,-2.84968 5.33649,0.0716 5.33649,0.0716 -4.7625,2.97059 -4.7625,2.97059 -5.09323,0.006 c -2.80128,0.003 -5.09032,-0.0833 -5.08676,-0.19247 z m -27.5231382,-1.25677 v -1.19062 h 6.746878 c 5.66875,0 6.74687,-0.0604 6.74687,-0.37772 0,-0.31236 -0.94998,-0.39248 -5.4901,-0.46302 -5.064633,-0.0787 -5.574723,-0.13057 -6.581955,-0.66935 -1.002152,-0.53606 -1.421693,-1.03709 -1.421693,-1.69783 0,-0.15964 3.96630498,-0.22542 10.661578,-0.1768 12.7120502,0.0923 12.0950102,-0.0504 12.0885402,2.7955 -0.002,0.97891 -0.0915,1.91085 -0.19844,2.07096 -0.55719,0.83447 -1.42131,0.89951 -11.9509502,0.89951 h -10.600728 z m -25.1354168,-7.27604 v -1.32292 h 4.894792 4.894791 v 1.32292 1.32292 h -4.894791 -4.894792 z m 10.970909,1.07338 c 0.08482,-0.13725 1.029241,-0.73256 2.098708,-1.32292 l 1.944486,-1.07338 4.2007608,0.0134 4.200761,0.0134 -2.513542,1.29604 -2.5135408,1.29604 -3.785928,0.0134 c -2.307875,0.008 -3.725718,-0.084 -3.631705,-0.2361 z m 13.8999238,-0.0885 c 0,-0.74832 0.880886,-1.51945 2.174568,-1.90364 1.11315,-0.33057 3.13543398,-0.40419 11.102624,-0.40419 h 9.7415602 v 1.32292 1.32292 H 7.1774928 c -9.163216,0 -11.509372,-0.0689 -11.509372,-0.33801 z m 24.8708322,-0.98491 v -1.32292 l 12.76615,0.004 c 7.02138,0.002 13.0258,0.0733 13.34315,0.15837 1.01041,0.27098 0.93234,0.85382 -0.22683,1.69351 l -1.09103,0.79035 h -12.39572 -12.39572 z m 18.79546,-2.55355 c 0.006,-0.12352 0.48177,-0.55087 1.05833,-0.94966 1.29947,-0.89883 1.35876,-1.60524 0.1884,-2.24468 -0.81256,-0.44395 -2.73698,-0.46688 -34.9562902,-0.41649 -18.7530078,0.0293 -34.0397848,-0.003 -33.9706098,-0.0724 0.161834,-0.16183 71.94373,-3.28453 75.54979,-3.28661 2.30834,-10e-4 2.7462,0.066 2.89148,0.44456 0.10047,0.26184 0.0151,0.537 -0.20674,0.66611 -0.20787,0.12099 -2.22341,1.27224 -4.47899,2.55834 -2.25557,1.28609 -4.54752,2.60545 -5.09322,2.93189 -0.54571,0.32645 -0.98767,0.49249 -0.98215,0.36898 z"
       style="fill:currentColor;stroke-width:0.264583" />
    <path
       inkscape:connector-curvature="0"
       d=""
       id="path218"
       style="fill:currentColor;stroke-width:0.264583" />
  </g>
</svg>
