<?xml version="1.0" encoding="UTF-8" standalone="no"?>
<svg
   xmlns:dc="http://purl.org/dc/elements/1.1/"
   xmlns:cc="http://creativecommons.org/ns#"
   xmlns:rdf="http://www.w3.org/1999/02/22-rdf-syntax-ns#"
   xmlns:svg="http://www.w3.org/2000/svg"
   xmlns="http://www.w3.org/2000/svg"
   xmlns:sodipodi="http://sodipodi.sourceforge.net/DTD/sodipodi-0.dtd"
   xmlns:inkscape="http://www.inkscape.org/namespaces/inkscape"
   height="1676.5078"
   viewBox="5 5 486.73501 388.86946"
   width="2092.6199"
   version="1.1"
   id="svg14"
   sodipodi:docname="lecoq.svg"
   inkscape:version="0.92.4 5da689c313, 2019-01-14">
  <metadata
     id="metadata20">
    <rdf:RDF>
      <cc:Work
         rdf:about="">
        <dc:format>image/svg+xml</dc:format>
        <dc:type
           rdf:resource="http://purl.org/dc/dcmitype/StillImage" />
        <dc:title></dc:title>
      </cc:Work>
    </rdf:RDF>
  </metadata>
  <defs
     id="defs18" />
  <sodipodi:namedview
     pagecolor="#ffffff"
     bordercolor="#666666"
     borderopacity="1"
     objecttolerance="10"
     gridtolerance="10"
     guidetolerance="10"
     inkscape:pageopacity="0"
     inkscape:pageshadow="2"
     inkscape:window-width="2400"
     inkscape:window-height="1424"
     id="namedview16"
     showgrid="false"
     fit-margin-top="0"
     fit-margin-left="0"
     fit-margin-right="0"
     fit-margin-bottom="0"
     inkscape:zoom="0.10875576"
     inkscape:cx="-747.70116"
     inkscape:cy="594.51151"
     inkscape:window-x="0"
     inkscape:window-y="88"
     inkscape:window-maximized="1"
     inkscape:current-layer="g8" />
  <g
     id="g8"
     style="fill:currentColor"
     transform="translate(-45.472,-0.69866)">
    <path
       d="M 259.795,25.49 C 273.183,22.672 285.517,15.317 294.5,5 c 3.497,5.78 7.141,11.48 10.305,17.446 -2.136,2.87 -5.874,4.325 -8.877,6.233 -14.496,8.316 -31.888,12.094 -48.36,8.33 -9.036,-2.55 -17.512,-7.182 -24.306,-13.682 11.906,2.91 24.386,4.872 36.533,2.162 z M 276,66.761 c 2.723,-15.603 15.056,-27.95 29.205,-34.064 -5.353,4.632 -10.371,10.078 -12.44,17.019 -2.75,8.956 -2.016,19.648 4.178,27.043 4.952,5.94 12.533,8.73 19.755,10.825 20.662,5.38 42.74,5.006 62.615,13.468 15.497,6.3 26.723,21.09 30.113,37.295 2.71,15.804 -0.734,31.888 -6.38,46.664 -8.423,22.011 -20.476,42.367 -32.676,62.456 -30.006,48.28 -62.349,95.13 -90.286,144.665 -0.72,1.268 -1.762,2.203 -3.11,2.817 12.52,-27.738 25.228,-55.501 34.892,-84.413 10.531,-30.487 16.845,-62.722 15.737,-95.065 -1.415,-18.126 -3.657,-36.533 -10.705,-53.445 -7.261,-18.153 -19.235,-33.77 -29.38,-50.322 C 279.256,98.423 272.943,82.632 276,66.761 Z"
       id="path4"
       inkscape:connector-curvature="0" />
    <path
       d="m 304.831,67.536 c -4.979,-8.276 -3.043,-18.928 1.549,-26.95 -0.187,9.464 5.793,18.407 14.896,21.277 -0.894,5.005 -1.241,10.077 -2.15,15.07 -5.472,-1.762 -11.251,-4.192 -14.295,-9.397 z m -94.063,76.137 c 20.796,-3.698 42.7,2.108 59.986,13.962 26.642,18.54 42.286,50.976 41.592,83.278 0.414,19.715 -3.003,39.27 -7.768,58.33 -5.193,19.836 -11.947,39.35 -21.344,57.61 -0.507,1.362 -1.708,2.136 -2.87,2.87 7.489,-22.825 14.256,-46.477 13.335,-70.744 -0.6,-15.137 -3.75,-31.141 -13.695,-43.06 -7.942,-9.745 -22.278,-14.337 -34.064,-9.21 -14.883,6.5 -21.143,25.093 -17.019,40.123 1.228,5.273 4.218,9.851 6.888,14.483 -18.46,-8.797 -29.072,-29.286 -30.367,-49.108 -0.961,-9.316 1.095,-18.487 1.869,-27.71 -7.729,16.258 -12.24,35.252 -6.287,52.818 5.633,18.928 21.37,32.329 37.508,42.473 -22.305,-4.765 -43.461,-17.873 -55.822,-37.32 -8.315,-12.921 -11.399,-28.445 -11.412,-43.622 0.774,-9.664 1.895,-19.328 4.338,-28.725 -7.462,9.37 -10.478,21.464 -12.16,33.117 -2.576,19.968 3.87,40.804 16.992,56.035 12.187,14.522 28.845,24.426 46.037,31.941 4.472,2.083 9.45,3.084 13.562,5.9 -27.524,-3.15 -55.301,-13.094 -75.43,-32.716 -15.657,-15.003 -25.054,-35.866 -27.523,-57.276 -2.456,-19.448 1.975,-39.897 13.28,-56.022 13.71,-20.249 36.468,-33.423 60.374,-37.427 z"
       id="path6"
       inkscape:connector-curvature="0" />
  </g>
  <path
     d="m 328.382,266.76334 c 67.848,19.02 127.687,65.338 163.353,126.085 -54.46,0.147 -108.92,0.134 -163.367,0 v -126.097 z"
     id="path10"
     inkscape:connector-curvature="0"
     style="fill:currentColor" />
  <path
     d="m 5,392.87534 c 23.84,-39.684 57.33,-73.574 97.106,-97.347 17.153,19.915 41.032,33.156 66.34,39.59 0.227,19.248 0,38.522 0.133,57.783 H 5.026 Z"
     id="path12"
     inkscape:connector-curvature="0"
     style="fill:currentColor" />
</svg>
