<?xml version="1.0" encoding="UTF-8" standalone="no"?>
<!-- Created with Inkscape (http://www.inkscape.org/) -->

<svg
   xmlns:dc="http://purl.org/dc/elements/1.1/"
   xmlns:cc="http://creativecommons.org/ns#"
   xmlns:rdf="http://www.w3.org/1999/02/22-rdf-syntax-ns#"
   xmlns:svg="http://www.w3.org/2000/svg"
   xmlns="http://www.w3.org/2000/svg"
   xmlns:sodipodi="http://sodipodi.sourceforge.net/DTD/sodipodi-0.dtd"
   xmlns:inkscape="http://www.inkscape.org/namespaces/inkscape"
   width="66.626457mm"
   height="11.825054mm"
   viewBox="0 0 66.626457 11.825054"
   version="1.1"
   id="svg8"
   inkscape:version="0.92.4 5da689c313, 2019-01-14"
   sodipodi:docname="legea.svg">
  <defs
     id="defs2" />
  <sodipodi:namedview
     id="base"
     pagecolor="#ffffff"
     bordercolor="#666666"
     borderopacity="1.0"
     inkscape:pageopacity="0.0"
     inkscape:pageshadow="2"
     inkscape:zoom="2.8"
     inkscape:cx="110.12764"
     inkscape:cy="-2.9553784"
     inkscape:document-units="mm"
     inkscape:current-layer="layer1"
     showgrid="false"
     inkscape:window-width="2400"
     inkscape:window-height="1424"
     inkscape:window-x="0"
     inkscape:window-y="88"
     inkscape:window-maximized="1"
     fit-margin-top="0"
     fit-margin-left="0"
     fit-margin-right="0"
     fit-margin-bottom="0" />
  <metadata
     id="metadata5">
    <rdf:RDF>
      <cc:Work
         rdf:about="">
        <dc:format>image/svg+xml</dc:format>
        <dc:type
           rdf:resource="http://purl.org/dc/dcmitype/StillImage" />
        <dc:title></dc:title>
      </cc:Work>
    </rdf:RDF>
  </metadata>
  <g
     inkscape:label="Layer 1"
     inkscape:groupmode="layer"
     id="layer1"
     transform="translate(-61.278426,-145.20134)">
    <path
       style="fill:currentColor;stroke-width:0.08466667"
       d="m 90.820884,156.98068 c -0.75361,-0.078 -1.70042,-0.31818 -2.24403,-0.56934 -0.97652,-0.45118 -1.57148,-1.09065 -1.91896,-2.06251 -0.26264,-0.73455 -0.24153,-2.02395 0.0492,-3.00693 0.92757,-3.13601 3.50247,-5.33973 6.9501,-5.94821 1.07704,-0.19009 3.17736,-0.25127 4.43414,-0.12916 2.039106,0.19812 2.951476,0.6899 3.474076,1.87256 0.15067,0.34097 0.33302,1.26534 0.24962,1.26534 -0.0189,0 -0.98581,0.13323 -2.148746,0.29607 -1.16293,0.16284 -2.14004,0.29619 -2.17136,0.29633 -0.0313,1.7e-4 -0.10031,-0.13118 -0.15333,-0.29183 -0.12075,-0.36587 -0.57506,-0.77183 -0.99392,-0.88814 -0.44913,-0.12473 -1.59249,-0.10958 -2.10896,0.0279 -1.46723,0.39067 -2.52218,1.49783 -3.07382,3.22594 -0.33497,1.04937 -0.39365,1.60703 -0.22877,2.17419 0.4049,1.39281 2.34427,1.7248 4.82725,0.82635 l 0.69693,-0.25217 0.17827,-0.54834 0.17828,-0.54834 h -1.43166 c -0.90469,0 -1.43167,-0.0314 -1.43167,-0.0853 0,-0.0469 0.15969,-0.5803 0.35486,-1.18534 l 0.35486,-1.10007 h 3.37953 c 2.880406,0 3.372736,0.0177 3.333516,0.11991 -0.0253,0.0659 -0.37771,1.1651 -0.78312,2.44256 l -0.737096,2.32266 -0.91435,0.39447 c -2.42531,1.04635 -4.24354,1.4251 -6.69936,1.39552 -0.61884,-0.007 -1.25852,-0.0273 -1.4215,-0.0442 z M 61.278429,156.8056 c 0.0034,-0.0349 0.813537,-2.59715 1.800264,-5.69384 l 1.794048,-5.63033 2.179073,-0.0226 c 1.19848,-0.0124 2.17907,0.002 2.17907,0.032 0,0.0552 -2.57331,8.18257 -2.67333,8.44321 -0.05,0.13018 0.21056,0.14104 3.38393,0.14104 1.89094,0 3.43806,0.0134 3.43806,0.0298 0,0.0164 -0.1905,0.62788 -0.42333,1.35885 -0.23283,0.73098 -0.42333,1.34621 -0.42333,1.3672 0,0.021 -2.53365,0.0382 -5.63034,0.0382 -3.09668,0 -5.627534,-0.0286 -5.624115,-0.0635 z m 11.847955,0.0423 c 4.3e-4,-0.0116 0.81102,-2.57387 1.80124,-5.69383 l 1.80039,-5.67267 5.8611,-0.0218 c 3.2236,-0.012 5.86039,-0.012 5.85953,0 -8.7e-4,0.012 -0.16802,0.5361 -0.37146,1.16475 l -0.36988,1.143 -3.67772,0.022 -3.67771,0.022 -0.23709,0.78229 c -0.13041,0.43026 -0.25571,0.84853 -0.27846,0.92949 -0.0387,0.13779 0.17499,0.14861 3.34484,0.16933 l 3.38619,0.0221 -0.35277,1.10067 -0.35277,1.10067 -3.41078,0.0423 -3.41077,0.0423 -0.28799,0.88767 c -0.15839,0.48822 -0.31113,0.99304 -0.33942,1.12184 l -0.0514,0.23416 h 3.73206 c 2.05264,0 3.73206,0.0312 3.73206,0.0693 0,0.0381 -0.17145,0.61235 -0.381,1.27613 -0.20955,0.66379 -0.381,1.22318 -0.381,1.24309 0,0.0199 -2.68605,0.0362 -5.969,0.0362 -3.28295,0 -5.96862,-0.01 -5.96816,-0.0212 z m 26.938116,-0.098 c 0.0151,-0.0656 0.82748,-2.63726 1.80538,-5.71488 l 1.778,-5.59567 5.86816,-9e-5 c 3.22749,-6e-5 5.8516,0.0285 5.83134,0.0634 -0.0203,0.0349 -0.19511,0.56833 -0.38857,1.18534 l -0.35176,1.12183 h -3.66242 -3.66241 l -0.272,0.82985 c -0.14961,0.45641 -0.27201,0.87551 -0.27201,0.93133 0,0.0772 0.80887,0.10149 3.37654,0.10149 h 3.37654 l -0.36131,1.12183 -0.36131,1.12183 -3.41387,0.0423 -3.41387,0.0423 -0.35454,1.12183 -0.35453,1.12184 h 3.76871 c 3.54857,0 3.76631,0.009 3.72738,0.14816 -0.0227,0.0815 -0.20629,0.67204 -0.40789,1.31234 l -0.36654,1.16416 h -5.9582 c -5.07953,0 -5.95416,-0.0176 -5.93082,-0.1192 z m 16.90114,-5.59548 4.46224,-5.7147 2.43417,-3.4e-4 c 1.96444,-2.5e-4 2.43416,0.0213 2.43416,0.11187 0,0.0617 0.36195,2.57997 0.80434,5.59616 0.44238,3.01619 0.80433,5.53746 0.80433,5.60283 0,0.099 -0.37293,0.11887 -2.23461,0.11887 -2.55162,0 -2.33739,0.0773 -2.33739,-0.84301 0,-0.31634 -0.0239,-0.69479 -0.0532,-0.841 l -0.0532,-0.26585 -2.46334,0.0224 -2.46335,0.0224 -0.66546,0.9525 -0.66546,0.9525 h -2.23277 -2.23276 z m 6.12243,1.35927 c 0.033,-0.033 -0.13486,-3.39221 -0.19695,-3.94192 -0.0192,-0.17011 -0.30233,0.18987 -1.44207,1.83355 -0.78,1.12486 -1.41817,2.06784 -1.41817,2.0955 0,0.0574 3.00001,0.0701 3.05719,0.0129 z"
       id="path899"
       inkscape:connector-curvature="0"
       sodipodi:nodetypes="ccccssssscsccccccccssccsccccccccsccscsscssccccccccccccccccccccccsscsscccsccccccccsscccccccscccscccccscssscccccccaccccscc" />
  </g>
</svg>
