<?xml version="1.0" encoding="UTF-8" standalone="no"?>
<svg
   xmlns:dc="http://purl.org/dc/elements/1.1/"
   xmlns:cc="http://creativecommons.org/ns#"
   xmlns:rdf="http://www.w3.org/1999/02/22-rdf-syntax-ns#"
   xmlns:svg="http://www.w3.org/2000/svg"
   xmlns="http://www.w3.org/2000/svg"
   xmlns:sodipodi="http://sodipodi.sourceforge.net/DTD/sodipodi-0.dtd"
   xmlns:inkscape="http://www.inkscape.org/namespaces/inkscape"
   sodipodi:docname="luanvi.svg"
   inkscape:version="1.0rc1 (09960d6, 2020-04-09)"
   version="1.1"
   id="svg69045"
   viewBox="0 0 86.639214 100.14846"
   height="100.14846"
   width="86.639214">
  <defs
     id="defs69047" />
  <sodipodi:namedview
     inkscape:document-rotation="0"
     inkscape:window-maximized="1"
     inkscape:window-y="0"
     inkscape:window-x="0"
     inkscape:window-height="720"
     inkscape:window-width="1200"
     fit-margin-bottom="0"
     fit-margin-right="0"
     fit-margin-left="0"
     fit-margin-top="0"
     showgrid="false"
     inkscape:current-layer="g68923"
     inkscape:document-units="px"
     inkscape:cy="74.007466"
     inkscape:cx="43.319615"
     inkscape:zoom="5.1503326"
     inkscape:pageshadow="2"
     inkscape:pageopacity="0.0"
     borderopacity="1.0"
     bordercolor="#666666"
     pagecolor="#ffffff"
     id="base" />
  <metadata
     id="metadata69050">
    <rdf:RDF>
      <cc:Work
         rdf:about="">
        <dc:format>image/svg+xml</dc:format>
        <dc:type
           rdf:resource="http://purl.org/dc/dcmitype/StillImage" />
        <dc:title></dc:title>
      </cc:Work>
    </rdf:RDF>
  </metadata>
  <g
     transform="translate(-319.53754,-453.64541)"
     id="layer1"
     inkscape:groupmode="layer"
     inkscape:label="Calque 1">
    <g
       transform="matrix(2.2417027,0.20550355,-0.20550355,2.2417027,-77.169149,-156.7137)"
       id="g68923">
      <path
         id="path61250"
         style="fill:currentColor;fill-opacity:1;fill-rule:evenodd;stroke:none"
         d="m 203.4928,288.66013 2.60125,-0.23625 0.7875,9.275 -2.6025,0.23375 z m 4.13375,2.18 2.57875,-0.23125 0.34125,4.0325 c 0,0 0.0925,0.78 0.845,0.655 0.7475,-0.1275 0.95,-0.41625 0.945,-0.78375 -0.002,-0.37625 -0.3425,-4.06125 -0.3425,-4.06125 l 2.6825,-0.2475 0.57375,6.7775 -2.43,0.215 -0.0763,-0.8975 c 0,0 -0.26375,1.1875 -1.975,1.28375 -1.71625,0.0962 -2.21,-0.73 -2.2425,-0.8125 -0.0362,-0.0863 -0.4375,-0.50875 -0.53375,-1.61 l -0.36625,-4.32 z m 16.16,-1.47625 0.57375,6.7175 2.70125,-0.24625 -0.35125,-4.125 c 0,0 0.0125,-0.54125 0.67625,-0.6275 0.665,-0.0825 1.06625,0.205 1.135,0.60625 0.0675,0.405 0.3375,4.00375 0.3375,4.00375 l 2.5475,-0.22875 -0.4175,-4.91125 c 0,0 -0.25,-1.9525 -2.58625,-1.695 0,0 -0.7725,-0.004 -1.29125,0.35125 -0.51375,0.35125 -0.7175,0.92125 -0.7175,0.92125 l -0.085,-0.99 z m 7.54375,-0.6825 2.60375,-0.23375 1.4525,3.98375 0.63125,-4.105 2.49625,-0.2275 -1.475,6.88125 -2.925,0.2625 z m 7.715,-3.4225 2.69875,-0.24 0.16875,1.96875 -2.7,0.245 z m 0.2325,2.74375 2.69625,-0.2475 0.57125,6.69375 -2.7,0.2425 z m -18.86,6.06 c -0.0175,-0.2125 -0.0962,-0.59125 -0.0962,-0.59125 0,0 -0.39375,0.305 -0.95625,0.4275 -0.56,0.1225 -0.8625,0.445 -0.785,0.79875 0.0738,0.355 0.44875,0.7475 1.0775,0.45625 0.6225,-0.29125 0.77875,-0.885 0.76,-1.09125 l 0.1875,1.76125 c -0.49625,0.79875 -1.60875,1.0175 -2.0775,1.09125 -0.47125,0.07 -2.6825,0.009 -2.66,-2.0825 0.0238,-2.09 2.1775,-2.25875 3.09375,-2.39875 0.9175,-0.1425 1.12625,-0.3925 1.215,-0.6325 0.0937,-0.2425 -0.1575,-0.53625 -0.9675,-0.495 -0.81625,0.0512 -0.73625,0.67875 -0.73625,0.67875 l -2.455,0.24875 c 0,0 -0.0775,-0.99375 0.42625,-1.575 0.4075,-0.4675 1.2025,-0.7475 1.94875,-0.9325 0.74375,-0.18375 1.8225,-0.20125 2.59,-0.0588 1.79,0.3325 1.83375,2.04125 1.83375,2.04125 0,0 0.29125,3.7475 0.34125,4.0075 0.0512,0.25375 0.27,0.49625 0.27,0.49625 l -2.57375,0.23125 c -0.15625,-0.205 -0.24875,-0.62 -0.24875,-0.62"
         inkscape:connector-curvature="0" />
      <path
         id="path61254"
         style="fill:currentColor;fill-opacity:1;fill-rule:evenodd;stroke:none"
         d="m 220.6278,284.01013 3.41,-0.31 0.385,4.56 -3.40875,0.30625"
         inkscape:connector-curvature="0" />
      <path
         id="path61258"
         style="fill:none;stroke:#1e3f84;stroke-width:0.0524987;stroke-linecap:butt;stroke-linejoin:miter;stroke-miterlimit:3.864;stroke-dasharray:none;stroke-opacity:1"
         d="m 220.62694,284.01922 3.40903,-0.31081 0.38672,4.5607 -3.41026,0.30574 z"
         inkscape:connector-curvature="0" />
      <path
         id="path61262"
         style="fill:currentColor;fill-opacity:1;fill-rule:evenodd;stroke:none"
         d="m 219.65155,252.22013 -0.77625,1.6 0.9875,0.92"
         inkscape:connector-curvature="0" />
      <path
         id="path61266"
         style="fill:none;stroke:#1e3f84;stroke-width:0.0499988;stroke-linecap:butt;stroke-linejoin:miter;stroke-miterlimit:3.864;stroke-dasharray:none;stroke-opacity:1"
         d="m 219.65153,252.23 -0.7759,1.59974 0.98773,0.92102 z"
         inkscape:connector-curvature="0" />
      <path
         id="path61270"
         style="fill:currentColor;fill-opacity:1;fill-rule:evenodd;stroke:none"
         d="m 220.0078,256.37013 -1.66125,-1.50625 -0.99,2.04625 2.925,2.67875"
         inkscape:connector-curvature="0" />
      <path
         id="path61274"
         style="fill:none;stroke:#1e3f84;stroke-width:0.0499988;stroke-linecap:butt;stroke-linejoin:miter;stroke-miterlimit:3.864;stroke-dasharray:none;stroke-opacity:1"
         d="m 220.00745,256.37968 -1.66141,-1.50586 -0.9902,2.04629 2.92502,2.67807 z"
         inkscape:connector-curvature="0" />
      <path
         id="path61278"
         style="fill:currentColor;fill-opacity:1;fill-rule:evenodd;stroke:none"
         d="m 220.4203,261.21638 -3.57125,-3.2825 -1.0025,2.03375 4.845,4.47"
         inkscape:connector-curvature="0" />
      <path
         id="path61282"
         style="fill:none;stroke:#1e3f84;stroke-width:0.0499988;stroke-linecap:butt;stroke-linejoin:miter;stroke-miterlimit:3.864;stroke-dasharray:none;stroke-opacity:1"
         d="m 220.42004,261.22583 -3.5716,-3.28193 -1.00252,2.03233 4.84507,4.47064 z"
         inkscape:connector-curvature="0" />
      <path
         id="path61286"
         style="fill:currentColor;fill-opacity:1;fill-rule:evenodd;stroke:none"
         d="m 220.82655,266.04013 -5.48625,-5.05 -1,2.0575 6.7625,6.235"
         inkscape:connector-curvature="0" />
      <path
         id="path61290"
         style="fill:none;stroke:#1e3f84;stroke-width:0.0499988;stroke-linecap:butt;stroke-linejoin:miter;stroke-miterlimit:3.864;stroke-dasharray:none;stroke-opacity:1"
         d="m 220.82646,266.05042 -5.48672,-5.04913 -1.00005,2.05644 6.76265,6.2353 z"
         inkscape:connector-curvature="0" />
      <path
         id="path61294"
         style="fill:currentColor;fill-opacity:1;fill-rule:evenodd;stroke:none"
         d="m 221.24905,270.91513 -7.40125,-6.8 -2.90625,0.265 10.5825,9.75125"
         inkscape:connector-curvature="0" />
      <path
         id="path61298"
         style="fill:none;stroke:#1e3f84;stroke-width:0.0499988;stroke-linecap:butt;stroke-linejoin:miter;stroke-miterlimit:3.864;stroke-dasharray:none;stroke-opacity:1"
         d="m 221.24766,270.92574 -7.40184,-6.79983 -2.90655,0.26514 10.58303,9.75065 z"
         inkscape:connector-curvature="0" />
      <path
         id="path61302"
         style="fill:currentColor;fill-opacity:1;fill-rule:evenodd;stroke:none"
         d="m 221.64405,275.77388 -12.18,-11.26 -2.92375,0.26375 15.37625,14.20125"
         inkscape:connector-curvature="0" />
      <path
         id="path61306"
         style="fill:none;stroke:#1e3f84;stroke-width:0.0499988;stroke-linecap:butt;stroke-linejoin:miter;stroke-miterlimit:3.864;stroke-dasharray:none;stroke-opacity:1"
         d="m 221.643,275.78331 -12.17917,-11.25905 -2.92379,0.26261 15.37514,14.20226 z"
         inkscape:connector-curvature="0" />
      <path
         id="path61310"
         style="fill:currentColor;fill-opacity:1;fill-rule:evenodd;stroke:none"
         d="m 222.33405,283.85513 -20.16,-18.68625 2.9775,-0.2675 16.90375,15.69"
         inkscape:connector-curvature="0" />
      <path
         id="path61314"
         style="fill:none;stroke:#1e3f84;stroke-width:0.0499988;stroke-linecap:butt;stroke-linejoin:miter;stroke-miterlimit:3.864;stroke-dasharray:none;stroke-opacity:1"
         d="m 222.33269,283.86444 -20.15986,-18.68558 2.97675,-0.26641 16.90477,15.68909 z"
         inkscape:connector-curvature="0" />
      <path
         id="path61318"
         style="fill:currentColor;fill-opacity:1;fill-rule:evenodd;stroke:none"
         d="m 207.79405,285.16138 -3.00875,-2.61875 -1.4375,3.01875"
         inkscape:connector-curvature="0" />
      <path
         id="path61322"
         style="fill:none;stroke:#1e3f84;stroke-width:0.0499988;stroke-linecap:butt;stroke-linejoin:miter;stroke-miterlimit:3.864;stroke-dasharray:none;stroke-opacity:1"
         d="m 207.7938,285.16985 -3.00877,-2.61971 -1.43726,3.01933 z"
         inkscape:connector-curvature="0" />
      <path
         id="path61326"
         style="fill:currentColor;fill-opacity:1;fill-rule:evenodd;stroke:none"
         d="m 217.9728,284.24263 -9.6675,-8.98125 1.0675,-2.01625 11.515,10.735"
         inkscape:connector-curvature="0" />
      <path
         id="path61330"
         style="fill:none;stroke:#1e3f84;stroke-width:0.0499988;stroke-linecap:butt;stroke-linejoin:miter;stroke-miterlimit:3.864;stroke-dasharray:none;stroke-opacity:1"
         d="m 217.97287,284.25138 -9.66796,-8.9806 1.06902,-2.01711 11.51411,10.7351 z"
         inkscape:connector-curvature="0" />
      <path
         id="path61334"
         style="fill:currentColor;fill-opacity:1;fill-rule:evenodd;stroke:none"
         d="m 213.61155,284.63763 -6.7675,-6.2675 1.01625,-2.06875 8.6925,8.0725"
         inkscape:connector-curvature="0" />
      <path
         id="path61338"
         style="fill:none;stroke:#1e3f84;stroke-width:0.0499988;stroke-linecap:butt;stroke-linejoin:miter;stroke-miterlimit:3.864;stroke-dasharray:none;stroke-opacity:1"
         d="m 213.61059,284.64592 -6.76757,-6.26701 1.01606,-2.06912 8.69254,8.07226 z"
         inkscape:connector-curvature="0" />
      <path
         id="path61342"
         style="fill:currentColor;fill-opacity:1;fill-rule:evenodd;stroke:none"
         d="m 209.1903,285.03513 -3.8625,-3.61625 1.05375,-2.04875 5.75625,5.39875"
         inkscape:connector-curvature="0" />
      <path
         id="path61346"
         style="fill:none;stroke:#1e3f84;stroke-width:0.0499988;stroke-linecap:butt;stroke-linejoin:miter;stroke-miterlimit:3.864;stroke-dasharray:none;stroke-opacity:1"
         d="m 209.18919,285.04427 -3.86226,-3.61558 1.05301,-2.04883 5.75644,5.398 z"
         inkscape:connector-curvature="0" />
      <path
         id="path61350"
         style="fill:currentColor;fill-opacity:1;fill-rule:evenodd;stroke:none"
         d="m 219.63905,252.22138 1.0325,1.44 -0.82,1.08125"
         inkscape:connector-curvature="0" />
      <path
         id="path61354"
         style="fill:none;stroke:#1e3f84;stroke-width:0.0499988;stroke-linecap:butt;stroke-linejoin:miter;stroke-miterlimit:3.864;stroke-dasharray:none;stroke-opacity:1"
         d="m 219.63921,252.23128 1.03207,1.43989 -0.81901,1.08214 z"
         inkscape:connector-curvature="0" />
      <path
         id="path61358"
         style="fill:currentColor;fill-opacity:1;fill-rule:evenodd;stroke:none"
         d="m 219.98655,256.37638 1.3825,-1.7825 1.31875,1.83625 -2.42875,3.16"
         inkscape:connector-curvature="0" />
      <path
         id="path61362"
         style="fill:none;stroke:#1e3f84;stroke-width:0.0499988;stroke-linecap:butt;stroke-linejoin:miter;stroke-miterlimit:3.864;stroke-dasharray:none;stroke-opacity:1"
         d="m 219.98652,256.38603 1.38184,-1.78242 1.31903,1.8357 -2.42869,3.16015 z"
         inkscape:connector-curvature="0" />
      <path
         id="path61366"
         style="fill:currentColor;fill-opacity:1;fill-rule:evenodd;stroke:none"
         d="m 220.4003,261.21638 2.96375,-3.8675 1.33125,1.825 -4.0225,5.26375"
         inkscape:connector-curvature="0" />
      <path
         id="path61370"
         style="fill:none;stroke:#1e3f84;stroke-width:0.0499988;stroke-linecap:butt;stroke-linejoin:miter;stroke-miterlimit:3.864;stroke-dasharray:none;stroke-opacity:1"
         d="m 220.40033,261.22583 2.9632,-3.86677 1.33135,1.82428 -4.02237,5.26353 z"
         inkscape:connector-curvature="0" />
      <path
         id="path61374"
         style="fill:currentColor;fill-opacity:1;fill-rule:evenodd;stroke:none"
         d="m 220.81155,266.04388 4.5525,-5.95625 1.33375,1.845 -5.61375,7.34875"
         inkscape:connector-curvature="0" />
      <path
         id="path61378"
         style="fill:none;stroke:#1e3f84;stroke-width:0.0499988;stroke-linecap:butt;stroke-linejoin:miter;stroke-miterlimit:3.864;stroke-dasharray:none;stroke-opacity:1"
         d="m 220.81045,266.05422 4.55195,-5.95493 1.33381,1.84458 -5.61358,7.34788 z"
         inkscape:connector-curvature="0" />
      <path
         id="path61382"
         style="fill:currentColor;fill-opacity:1;fill-rule:evenodd;stroke:none"
         d="m 221.21655,270.92138 6.1425,-8.02375 2.90625,-0.26 -8.775,11.4975"
         inkscape:connector-curvature="0" />
      <path
         id="path61386"
         style="fill:none;stroke:#1e3f84;stroke-width:0.0499988;stroke-linecap:butt;stroke-linejoin:miter;stroke-miterlimit:3.864;stroke-dasharray:none;stroke-opacity:1"
         d="m 221.21564,270.93082 6.14316,-8.02278 2.90531,-0.26007 -8.77506,11.49628 z"
         inkscape:connector-curvature="0" />
      <path
         id="path61390"
         style="fill:currentColor;fill-opacity:1;fill-rule:evenodd;stroke:none"
         d="m 221.64405,275.77388 10.1,-13.2675 2.92125,-0.2625 -12.74875,16.735"
         inkscape:connector-curvature="0" />
      <path
         id="path61394"
         style="fill:none;stroke:#1e3f84;stroke-width:0.0499988;stroke-linecap:butt;stroke-linejoin:miter;stroke-miterlimit:3.864;stroke-dasharray:none;stroke-opacity:1"
         d="m 221.643,275.78331 10.10025,-13.26601 2.92132,-0.26388 -12.74939,16.73571 z"
         inkscape:connector-curvature="0" />
      <path
         id="path61398"
         style="fill:currentColor;fill-opacity:1;fill-rule:evenodd;stroke:none"
         d="m 222.33405,283.85513 16.7025,-22.00625 -2.98125,0.26875 -14,18.47375"
         inkscape:connector-curvature="0" />
      <path
         id="path61402"
         style="fill:none;stroke:#1e3f84;stroke-width:0.0499988;stroke-linecap:butt;stroke-linejoin:miter;stroke-miterlimit:3.864;stroke-dasharray:none;stroke-opacity:1"
         d="m 222.33269,283.86444 16.70156,-22.00557 -2.98044,0.26895 -13.99946,18.47372 z"
         inkscape:connector-curvature="0" />
      <path
         id="path61406"
         style="fill:currentColor;fill-opacity:1;fill-rule:evenodd;stroke:none"
         d="m 236.87155,282.54013 2.5175,-3.1175 1.92375,2.71625"
         inkscape:connector-curvature="0" />
      <path
         id="path61410"
         style="fill:none;stroke:#1e3f84;stroke-width:0.0499988;stroke-linecap:butt;stroke-linejoin:miter;stroke-miterlimit:3.864;stroke-dasharray:none;stroke-opacity:1"
         d="m 236.87035,282.54888 2.51736,-3.11701 1.92374,2.71612 z"
         inkscape:connector-curvature="0" />
      <path
         id="path61414"
         style="fill:currentColor;fill-opacity:1;fill-rule:evenodd;stroke:none"
         d="m 226.6928,283.45888 8.00375,-10.575 -1.39125,-1.79375 -9.53,12.6325"
         inkscape:connector-curvature="0" />
      <path
         id="path61418"
         style="fill:none;stroke:#1e3f84;stroke-width:0.0499988;stroke-linecap:butt;stroke-linejoin:miter;stroke-miterlimit:3.864;stroke-dasharray:none;stroke-opacity:1"
         d="m 226.69251,283.46737 8.00409,-10.57399 -1.3917,-1.7951 -9.53002,12.63296 z"
         inkscape:connector-curvature="0" />
      <path
         id="path61422"
         style="fill:currentColor;fill-opacity:1;fill-rule:evenodd;stroke:none"
         d="m 231.0528,283.06263 5.6075,-7.3825 -1.34875,-1.8575 -7.20125,9.505"
         inkscape:connector-curvature="0" />
      <path
         id="path61426"
         style="fill:none;stroke:#1e3f84;stroke-width:0.0499988;stroke-linecap:butt;stroke-linejoin:miter;stroke-miterlimit:3.864;stroke-dasharray:none;stroke-opacity:1"
         d="m 231.05233,283.07155 5.60742,-7.38213 -1.34859,-1.85727 -7.20109,9.50454 z"
         inkscape:connector-curvature="0" />
      <path
         id="path61430"
         style="fill:currentColor;fill-opacity:1;fill-rule:evenodd;stroke:none"
         d="m 235.47655,282.66513 3.19125,-4.2525 -1.38125,-1.82625 -4.76,6.345"
         inkscape:connector-curvature="0" />
      <path
         id="path61434"
         style="fill:none;stroke:#1e3f84;stroke-width:0.0499988;stroke-linecap:butt;stroke-linejoin:miter;stroke-miterlimit:3.864;stroke-dasharray:none;stroke-opacity:1"
         d="m 235.4762,282.67447 3.19104,-4.25243 -1.38061,-1.82555 -4.76008,6.34439 z"
         inkscape:connector-curvature="0" />
    </g>
  </g>
</svg>
