<?xml version="1.0" encoding="UTF-8" standalone="no"?>
<svg
   xmlns:dc="http://purl.org/dc/elements/1.1/"
   xmlns:cc="http://creativecommons.org/ns#"
   xmlns:rdf="http://www.w3.org/1999/02/22-rdf-syntax-ns#"
   xmlns:svg="http://www.w3.org/2000/svg"
   xmlns="http://www.w3.org/2000/svg"
   xmlns:sodipodi="http://sodipodi.sourceforge.net/DTD/sodipodi-0.dtd"
   xmlns:inkscape="http://www.inkscape.org/namespaces/inkscape"
   version="1.0"
   width="1037.8845pt"
   height="301.10001pt"
   viewBox="0 0 1037.8845 301.10001"
   preserveAspectRatio="xMidYMid meet"
   id="svg14"
   sodipodi:docname="Screenshot-2019-11-27-at-23.34.05.svg"
   inkscape:version="0.92.4 5da689c313, 2019-01-14">
  <metadata
     id="metadata20">
    <rdf:RDF>
      <cc:Work
         rdf:about="">
        <dc:format>image/svg+xml</dc:format>
        <dc:type
           rdf:resource="http://purl.org/dc/dcmitype/StillImage" />
        <dc:title></dc:title>
      </cc:Work>
    </rdf:RDF>
  </metadata>
  <defs
     id="defs18" />
  <sodipodi:namedview
     pagecolor="#ffffff"
     bordercolor="#666666"
     borderopacity="1"
     objecttolerance="10"
     gridtolerance="10"
     guidetolerance="10"
     inkscape:pageopacity="0"
     inkscape:pageshadow="2"
     inkscape:window-width="2400"
     inkscape:window-height="1424"
     id="namedview16"
     showgrid="false"
     fit-margin-top="0"
     fit-margin-left="0"
     fit-margin-right="0"
     fit-margin-bottom="0"
     inkscape:zoom="0.42563869"
     inkscape:cx="191.89752"
     inkscape:cy="212.13333"
     inkscape:window-x="0"
     inkscape:window-y="88"
     inkscape:window-maximized="1"
     inkscape:current-layer="svg14" />
  <g
     transform="matrix(0.1,0,0,-0.1,-26.115443,311)"
     id="g12"
     style="fill:currentColor;stroke:none">
    <path
       d="m 10030,3101 c 0,-5 -16,-15 -35,-21 -97,-32 -201,-115 -263,-211 -29,-44 -44,-82 -57,-146 -18,-83 -18,-90 -1,-172 22,-104 51,-157 131,-237 138,-139 325,-189 487,-130 151,54 277,173 317,299 7,20 17,37 22,37 5,0 9,51 9,115 0,64 -4,115 -9,115 -5,0 -15,16 -21,35 -40,121 -170,249 -297,292 -23,8 -43,19 -43,24 0,5 -54,9 -120,9 -67,0 -120,-4 -120,-9 z"
       id="path2"
       inkscape:connector-curvature="0" />
    <path
       d="m 286,2625 c -21,-11 -21,-12 -24,-970 -2,-931 -2,-963 18,-1046 31,-135 91,-235 199,-333 19,-17 39,-36 45,-41 41,-37 142,-89 224,-114 69,-21 79,-21 1085,-21 h 1014 l 7,37 c 10,61 7,233 -4,254 -10,18 -28,19 -663,19 -545,0 -660,3 -701,15 -90,27 -167,87 -214,165 l -27,45 -3,986 c -2,828 -5,989 -16,998 -19,16 -910,21 -940,6 z"
       id="path4"
       inkscape:connector-curvature="0" />
    <path
       d="m 8383,2618 c -12,-14 -15,-60 -13,-307 1,-279 0,-290 -19,-300 -13,-8 -238,-11 -688,-11 h -669 l -81,-24 c -120,-35 -205,-86 -303,-185 -90,-91 -149,-190 -171,-289 -17,-72 -23,-716 -9,-831 19,-150 74,-261 185,-373 85,-87 163,-135 292,-177 62,-21 73,-21 1245,-19 l 1183,3 3,1258 c 2,1037 0,1258 -11,1263 -7,2 -219,6 -471,7 -417,2 -459,1 -473,-15 z m -28,-951 c 13,-18 15,-106 15,-617 0,-523 -2,-598 -16,-618 -15,-22 -16,-22 -337,-22 -280,0 -329,3 -377,18 -98,31 -176,95 -218,180 -21,42 -22,53 -22,438 0,383 1,396 21,437 34,66 58,94 118,136 91,63 137,70 494,69 302,0 308,0 322,-21 z"
       id="path6"
       inkscape:connector-curvature="0" />
    <path
       d="m 3195,1990 c -3,-5 -6,-318 -5,-695 0,-591 3,-692 16,-728 8,-23 20,-56 25,-73 5,-18 16,-37 24,-44 8,-7 15,-17 15,-22 0,-17 99,-136 141,-169 93,-73 142,-100 247,-135 l 73,-24 h 909 909 l 73,24 c 65,22 106,41 175,80 41,23 134,110 171,160 53,71 79,118 105,189 22,62 22,63 22,752 v 690 h -480 -480 l -5,-660 c -4,-498 -9,-670 -19,-701 -26,-84 -132,-178 -234,-208 -82,-24 -412,-22 -482,2 -98,35 -170,94 -214,177 l -26,50 -5,670 -5,670 -472,3 c -306,1 -474,-1 -478,-8 z"
       id="path8"
       inkscape:connector-curvature="0" />
    <path
       d="m 9672,1988 c -9,-9 -12,-232 -12,-944 0,-874 1,-932 17,-939 10,-3 220,-6 468,-6 247,1 460,1 473,1 h 22 v 950 950 h -478 c -358,0 -481,-3 -490,-12 z"
       id="path10"
       inkscape:connector-curvature="0" />
  </g>
</svg>
