<?xml version="1.0" standalone="no"?>
<!DOCTYPE svg PUBLIC "-//W3C//DTD SVG 20010904//EN"
 "http://www.w3.org/TR/2001/REC-SVG-20010904/DTD/svg10.dtd">
<svg version="1.0" xmlns="http://www.w3.org/2000/svg"
 width="400.000000pt" height="400.000000pt" viewBox="0 0 400.000000 400.000000"
 preserveAspectRatio="xMidYMid meet">

<g transform="translate(0.000000,400.000000) scale(0.100000,-0.100000)"
fill="currentColor" stroke="none">
<path d="M1965 3553 c-31 -16 -382 -315 -422 -360 -37 -39 -31 -81 20 -130 84
-82 383 -335 405 -344 32 -12 89 -11 115 3 23 12 331 274 404 344 49 46 55 77
22 118 -27 35 -379 340 -421 366 -40 24 -82 25 -123 3z"/>
<path d="M773 3310 c8 -19 209 -480 447 -1025 238 -545 510 -1169 606 -1387
95 -219 179 -409 186 -423 13 -23 24 -1 195 393 100 229 264 604 363 832 418
955 710 1628 710 1635 0 8 -6 3 -311 -260 -640 -551 -823 -706 -852 -722 -47
-24 -142 -22 -192 4 -22 12 -79 54 -125 95 -115 100 -1001 859 -1024 878 -17
13 -17 13 -3 -20z"/>
</g>
</svg>
