<?xml version="1.0" encoding="UTF-8" standalone="no"?>
<svg
   xmlns:dc="http://purl.org/dc/elements/1.1/"
   xmlns:cc="http://creativecommons.org/ns#"
   xmlns:rdf="http://www.w3.org/1999/02/22-rdf-syntax-ns#"
   xmlns:svg="http://www.w3.org/2000/svg"
   xmlns="http://www.w3.org/2000/svg"
   xmlns:sodipodi="http://sodipodi.sourceforge.net/DTD/sodipodi-0.dtd"
   xmlns:inkscape="http://www.inkscape.org/namespaces/inkscape"
   version="1.1"
   id="svg2"
   xml:space="preserve"
   width="824.42291"
   height="136.86679"
   viewBox="0 0 824.4229 136.86679"
   sodipodi:docname="marathon-sports.svg"
   inkscape:version="0.92.4 (5da689c313, 2019-01-14)"><metadata
     id="metadata8"><rdf:RDF><cc:Work
         rdf:about=""><dc:format>image/svg+xml</dc:format><dc:type
           rdf:resource="http://purl.org/dc/dcmitype/StillImage" /><dc:title></dc:title></cc:Work></rdf:RDF></metadata><defs
     id="defs6"><clipPath
       clipPathUnits="userSpaceOnUse"
       id="clipPath22"><path
         d="M 0,595.28 H 841.89 V 0 H 0 Z"
         id="path20"
         inkscape:connector-curvature="0" /></clipPath></defs><sodipodi:namedview
     pagecolor="#ffffff"
     bordercolor="#666666"
     borderopacity="1"
     objecttolerance="10"
     gridtolerance="10"
     guidetolerance="10"
     inkscape:pageopacity="0"
     inkscape:pageshadow="2"
     inkscape:window-width="2400"
     inkscape:window-height="1440"
     id="namedview4"
     showgrid="false"
     fit-margin-top="0"
     fit-margin-left="0"
     fit-margin-right="0"
     fit-margin-bottom="0"
     inkscape:zoom="1.6820038"
     inkscape:cx="402.89456"
     inkscape:cy="40.409638"
     inkscape:window-x="0"
     inkscape:window-y="80"
     inkscape:window-maximized="1"
     inkscape:current-layer="g18" /><g
     id="g10"
     inkscape:groupmode="layer"
     inkscape:label="marathon-sports"
     transform="matrix(1.3333333,0,0,-1.3333333,131.18208,872.61975)"><g
       id="g16"
       transform="translate(-208.72636,267.37153)"><g
         id="g18"
         clip-path="url(#clipPath22)"><g
           id="g32"
           transform="translate(110.3398,359.0254)"><path
             d="m 0,0 h 18.244 v -8.354 c 3.12,3.43 6.588,5.992 10.4,7.686 3.811,1.692 7.969,2.539 12.473,2.539 4.546,0 8.648,-1.114 12.304,-3.342 3.656,-2.228 6.599,-5.48 8.828,-9.757 2.898,4.277 6.454,7.529 10.667,9.757 4.214,2.228 8.817,3.342 13.811,3.342 5.17,0 9.718,-1.203 13.642,-3.609 3.923,-2.406 6.744,-5.547 8.46,-9.423 1.717,-3.876 2.575,-10.181 2.575,-18.912 V -72.711 H 93.026 v 36.89 c 0,8.242 -1.026,13.822 -3.074,16.741 -2.05,2.917 -5.124,4.377 -9.223,4.377 -3.119,0 -5.914,-0.892 -8.386,-2.673 -2.473,-1.783 -4.311,-4.244 -5.514,-7.385 -1.203,-3.14 -1.804,-8.186 -1.804,-15.136 V -72.711 H 46.646 v 35.219 c 0,6.505 -0.479,11.216 -1.439,14.135 -0.961,2.917 -2.401,5.089 -4.321,6.516 -1.92,1.425 -4.242,2.138 -6.968,2.138 -3.036,0 -5.793,-0.902 -8.272,-2.706 -2.479,-1.805 -4.332,-4.334 -5.56,-7.586 -1.228,-3.252 -1.842,-8.376 -1.842,-15.37 V -72.711 H 0 Z"
             style="fill:currentColor;fill-opacity:1;fill-rule:nonzero;stroke:none"
             id="path34"
             inkscape:connector-curvature="0" /></g><g
           id="g36"
           transform="translate(272.7827,344.0552)"><path
             d="m 0,0 c -5.639,0 -10.324,-1.995 -14.054,-5.981 -3.73,-3.988 -5.594,-9.101 -5.594,-15.337 0,-6.282 1.897,-11.452 5.694,-15.505 3.796,-4.054 8.469,-6.081 14.02,-6.081 5.729,0 10.48,1.993 14.254,5.981 3.773,3.986 5.661,9.211 5.661,15.672 0,6.325 -1.888,11.449 -5.661,15.37 C 10.546,-1.961 5.773,0 0,0 M 19.18,14.97 H 37.424 V -57.741 H 19.18 v 7.686 c -3.561,-3.387 -7.132,-5.825 -10.714,-7.318 -3.583,-1.492 -7.465,-2.239 -11.648,-2.239 -9.39,0 -17.512,3.643 -24.364,10.927 -6.854,7.285 -10.28,16.34 -10.28,27.166 0,11.227 3.315,20.427 9.946,27.601 6.63,7.172 14.685,10.759 24.164,10.759 4.361,0 8.454,-0.825 12.281,-2.472 3.827,-1.649 7.365,-4.122 10.615,-7.418 z"
             style="fill:currentColor;fill-opacity:1;fill-rule:nonzero;stroke:none"
             id="path38"
             inkscape:connector-curvature="0" /></g><g
           id="g40"
           transform="translate(323.5537,359.0254)"><path
             d="m 0,0 h 15.638 v -9.156 c 1.693,3.609 3.943,6.349 6.75,8.22 2.806,1.872 5.881,2.807 9.222,2.807 2.361,0 4.834,-0.625 7.418,-1.871 l -5.68,-15.705 c -2.139,1.069 -3.9,1.604 -5.28,1.604 -2.807,0 -5.179,-1.738 -7.117,-5.213 -1.938,-3.475 -2.907,-10.291 -2.907,-20.45 l 0.066,-3.542 V -72.711 H 0 Z"
             style="fill:currentColor;fill-opacity:1;fill-rule:nonzero;stroke:none"
             id="path42"
             inkscape:connector-curvature="0" /></g><g
           id="g44"
           transform="translate(405.2676,344.0552)"><path
             d="m 0,0 c -5.639,0 -10.324,-1.995 -14.054,-5.981 -3.73,-3.988 -5.594,-9.101 -5.594,-15.337 0,-6.282 1.897,-11.452 5.694,-15.505 3.796,-4.054 8.469,-6.081 14.02,-6.081 5.729,0 10.479,1.993 14.254,5.981 3.773,3.986 5.661,9.211 5.661,15.672 0,6.325 -1.888,11.449 -5.661,15.37 C 10.545,-1.961 5.773,0 0,0 M 19.18,14.97 H 37.424 V -57.741 H 19.18 v 7.686 c -3.561,-3.387 -7.133,-5.825 -10.714,-7.318 -3.583,-1.492 -7.465,-2.239 -11.648,-2.239 -9.39,0 -17.512,3.643 -24.365,10.927 -6.853,7.285 -10.279,16.34 -10.279,27.166 0,11.227 3.315,20.427 9.946,27.601 6.63,7.172 14.685,10.759 24.164,10.759 4.361,0 8.454,-0.825 12.281,-2.472 3.827,-1.649 7.365,-4.122 10.615,-7.418 z"
             style="fill:currentColor;fill-opacity:1;fill-rule:nonzero;stroke:none"
             id="path46"
             inkscape:connector-curvature="0" /></g><g
           id="g48"
           transform="translate(462.5195,385.8237)"><path
             d="M 0,0 H 18.244 V -26.798 H 29.07 V -42.503 H 18.244 V -99.509 H 0 v 57.006 h -9.356 v 15.705 H 0 Z"
             style="fill:currentColor;fill-opacity:1;fill-rule:nonzero;stroke:none"
             id="path50"
             inkscape:connector-curvature="0" /></g><g
           id="g52"
           transform="translate(500.5928,387.0933)"><path
             d="m 0,0 h 18.111 v -35.419 c 3.564,3.074 7.151,5.379 10.76,6.917 3.608,1.537 7.261,2.305 10.96,2.305 7.217,0 13.299,-2.496 18.244,-7.485 4.233,-4.322 6.349,-10.671 6.349,-19.046 v -48.051 H 46.446 v 31.878 c 0,8.421 -0.4,14.123 -1.202,17.109 -0.802,2.983 -2.172,5.212 -4.11,6.682 -1.938,1.471 -4.334,2.206 -7.184,2.206 -3.699,0 -6.874,-1.226 -9.523,-3.676 -2.652,-2.451 -4.49,-5.792 -5.514,-10.024 -0.534,-2.184 -0.802,-7.174 -0.802,-14.97 v -29.205 H 0 Z"
             style="fill:currentColor;fill-opacity:1;fill-rule:nonzero;stroke:none"
             id="path54"
             inkscape:connector-curvature="0" /></g><g
           id="g56"
           transform="translate(614.8018,343.7212)"><path
             d="m 0,0 c -5.668,0 -10.388,-1.971 -14.159,-5.915 -3.772,-3.942 -5.656,-8.988 -5.656,-15.136 0,-6.327 1.863,-11.451 5.589,-15.371 3.726,-3.921 8.447,-5.881 14.159,-5.881 5.713,0 10.464,1.982 14.259,5.948 3.792,3.964 5.69,9.065 5.69,15.304 0,6.237 -1.864,11.304 -5.589,15.203 C 10.564,-1.95 5.801,0 0,0 m -0.301,17.175 c 6.861,0 13.31,-1.716 19.347,-5.146 6.037,-3.431 10.748,-8.086 14.135,-13.967 3.384,-5.881 5.079,-12.23 5.079,-19.046 0,-6.862 -1.704,-13.278 -5.113,-19.247 -3.408,-5.971 -8.052,-10.638 -13.934,-14.001 -5.881,-3.363 -12.363,-5.046 -19.447,-5.046 -10.425,0 -19.326,3.709 -26.699,11.127 -7.374,7.419 -11.059,16.429 -11.059,27.033 0,11.361 4.165,20.827 12.497,28.403 7.306,6.592 15.704,9.89 25.194,9.89"
             style="fill:currentColor;fill-opacity:1;fill-rule:nonzero;stroke:none"
             id="path58"
             inkscape:connector-curvature="0" /></g><g
           id="g60"
           transform="translate(664.167,359.0254)"><path
             d="m 0,0 h 18.244 v -7.452 c 4.138,3.488 7.885,5.914 11.245,7.277 3.358,1.364 6.794,2.046 10.309,2.046 7.207,0 13.325,-2.518 18.351,-7.552 4.227,-4.277 6.341,-10.604 6.341,-18.979 V -72.711 H 46.446 v 31.842 c 0,8.677 -0.389,14.438 -1.168,17.287 -0.777,2.849 -2.132,5.018 -4.066,6.509 -1.934,1.491 -4.322,2.237 -7.167,2.237 -3.689,0 -6.856,-1.236 -9.5,-3.705 -2.646,-2.471 -4.48,-5.886 -5.5,-10.247 -0.535,-2.271 -0.801,-7.188 -0.801,-14.752 V -72.711 H 0 Z"
             style="fill:currentColor;fill-opacity:1;fill-rule:nonzero;stroke:none"
             id="path62"
             inkscape:connector-curvature="0" /></g></g></g></g></svg>