<?xml version="1.0" encoding="UTF-8" standalone="no"?>
<svg
   xmlns:dc="http://purl.org/dc/elements/1.1/"
   xmlns:cc="http://creativecommons.org/ns#"
   xmlns:rdf="http://www.w3.org/1999/02/22-rdf-syntax-ns#"
   xmlns:svg="http://www.w3.org/2000/svg"
   xmlns="http://www.w3.org/2000/svg"
   xmlns:sodipodi="http://sodipodi.sourceforge.net/DTD/sodipodi-0.dtd"
   xmlns:inkscape="http://www.inkscape.org/namespaces/inkscape"
   inkscape:version="1.0rc1 (09960d6, 2020-04-09)"
   height="245.65742"
   width="2452.5867"
   sodipodi:docname="masita.svg"
   id="svg62"
   version="1.1"
   viewBox="0 0 2452.5867 245.65742"
   enable-background="new 0 0 2452.7 245.6">
  <metadata
     id="metadata68">
    <rdf:RDF>
      <cc:Work
         rdf:about="">
        <dc:format>image/svg+xml</dc:format>
        <dc:type
           rdf:resource="http://purl.org/dc/dcmitype/StillImage" />
        <dc:title></dc:title>
      </cc:Work>
    </rdf:RDF>
  </metadata>
  <defs
     id="defs66" />
  <sodipodi:namedview
     inkscape:current-layer="svg62"
     inkscape:window-maximized="1"
     inkscape:window-y="0"
     inkscape:window-x="0"
     inkscape:cy="123.52297"
     inkscape:cx="930.15434"
     inkscape:zoom="0.42646879"
     fit-margin-bottom="0"
     fit-margin-right="0"
     fit-margin-left="0"
     fit-margin-top="0"
     showgrid="false"
     id="namedview64"
     inkscape:window-height="720"
     inkscape:window-width="1200"
     inkscape:pageshadow="2"
     inkscape:pageopacity="0"
     guidetolerance="10"
     gridtolerance="10"
     objecttolerance="10"
     borderopacity="1"
     bordercolor="#666666"
     pagecolor="#ffffff" />
  <path
     inkscape:connector-curvature="0"
     id="path60"
     d="m 284.08662,64.190204 c 31.5,-46.2 48.4,-64.20000019 75.6,-64.10000019 h 21.3 c 25.6,-0.5 43.5,13.30000019 79.8,64.20000019 l 91.3,119.699996 c 21.4,24.2 10,61.3 -41.3,61.3 h -24.2 c -31.4,0 -38.3,-10.3 -48.5,-27.1 l -95.5,-129.699996 -20,25.699996 58.4,75.6 c 18.5,25.7 -4.3,55.6 -51.3,55.6 h -22.8 c -22.6,-4.2 -31.7,-10.4 -42.8,-27.1 l -68.4,-89.8 -69.9,89.8 c -14,19.2 -23.6,26.1 -45.599995,27.1 h -25.6 c -54.20000027,0 -62.7000003,-38.5 -48.5000003,-55.6 L 104.48662,64.290204 c 32.8,-45.5 50.2,-62.3000002 78.4,-64.20000019 h 21.4 c 27.6,-0.7 45.9,19.20000019 79.8,64.10000019 z m 382.1,-64.10000019 c 0,0 -39.9,-2.80000001 -39.9,22.80000019 0,25.6 39.9,21.4 39.9,21.4 h 179.6 c 32.8,0 41.3,9.3 41.3,37.1 h -186.7 c -75.7,0.7 -124.9,41.199996 -121.2,69.899996 v 28.5 c 0,35.6 52.7,68.4 129.7,65.6 h 92.7 c 31.6,-1.3 42.5,-5.5 44.2,-22.8 -2.3,-19 -14,-22.6 -44.2,-22.8 h -57 c -27.6,-2.8 -33.9,-8.9 -35.6,-24.2 v -22.8 c 0.4,-14.4 5.5,-21.1 35.6,-27.1 h 101.2 c 29.6,1.8 38.1,7.9 41.3,25.7 v 58.5 c 2.5,22.7 12.7,31.3 54.2,35.6 h 22.8 c 39.09998,-3.7 51.99998,-10.9 54.19998,-35.6 V 71.390204 c 0,-31.4 -37.09998,-71.30000019 -131.19998,-71.30000019 z m 1434.39998,0.1 c 0,0 -39.9,-2.80000001 -39.9,22.80000019 0,25.6 39.9,21.4 39.9,21.4 h 179.6 c 32.8,0 41.3,9.3 41.3,37.1 h -186.8 c -75.7,0.7 -124.9,41.199996 -121.2,69.899996 v 28.5 c 0,35.6 52.7,68.4 129.7,65.6 h 92.7 c 31.6,-1.3 42.5,-5.5 44.2,-22.8 -2.3,-19 -14,-22.6 -44.2,-22.8 h -57 c -27.6,-2.8 -33.9,-8.9 -35.6,-24.2 v -22.8 c 0.4,-14.4 5.5,-21.1 35.6,-27.1 h 101.2 c 29.6,1.8 38.1,7.9 41.3,25.7 v 58.5 c 2.5,22.7 12.7,31.3 54.2,35.6 h 22.8 c 39.1,-3.7 52,-10.9 54.2,-35.6 V 71.490204 c 0,-31.4 -37.1,-71.30000019 -131.2,-71.30000019 z m -670.3,22.70000019 c 0,-19.7000002 -13.9,-21.8000002 -42.8,-22.80000019 h -222.4 c -58.4,0 -124,25.70000019 -124,72.70000019 0.3,45.099996 60.4,72.499996 131.6,72.799996 h 79.5 c 47,1.3 54.9,8.9 57,27.1 -2,23.5 -17.6,27.5 -57,27.1 h -165.4 c -33.5,0 -44.1,4.7 -42.8,22.8 0,19.7 13.9,21.8 42.8,22.8 h 222.4 c 58.4,0 124,-25.7 124,-72.7 -0.3,-45.1 -60.4,-72.5 -131.6,-72.799996 h -79.5 c -46.9,-1.3 -54.9,-8.9 -57,-27.1 2,-23.5 17.6,-27.5 57,-27.1 h 165.4 c 33.5,0 44.2,-4.7 42.8,-22.8 z m 24.2,11.4 c 0,-20 18.5,-34.20000019 54.2,-34.20000019 h 27.1 c 29.9,0 47,15.70000019 47,34.20000019 V 213.8902 c 0,17.1 -14.3,31.4 -47,31.4 h -27.1 c -32.8,0 -54.2,-14.3 -54.2,-31.4 z m 303.7,11.4 V 215.2902 c 0,15.7 14.3,29.9 48.5,29.9 h 37.1 c 37.1,0 45.6,-8.6 45.6,-29.9 V 45.690204 h 125.5 c 0,0 29.9,1.4 29.9,-21.4 0,-22.8000002 -29.9,-22.8000002 -29.9,-22.8000002 h -382.1 c 0,0 -28.5,0 -28.5,22.8000002 0,22.8 28.5,21.4 28.5,21.4 z" />
</svg>
