<?xml version="1.0" encoding="UTF-8" standalone="no"?>
<svg
   xmlns:dc="http://purl.org/dc/elements/1.1/"
   xmlns:cc="http://creativecommons.org/ns#"
   xmlns:rdf="http://www.w3.org/1999/02/22-rdf-syntax-ns#"
   xmlns:svg="http://www.w3.org/2000/svg"
   xmlns="http://www.w3.org/2000/svg"
   xmlns:sodipodi="http://sodipodi.sourceforge.net/DTD/sodipodi-0.dtd"
   xmlns:inkscape="http://www.inkscape.org/namespaces/inkscape"
   sodipodi:docname="mbb.svg"
   inkscape:version="1.0rc1 (09960d6, 2020-04-09)"
   id="svg8"
   version="1.1"
   viewBox="0 0 18.397369 12.195697"
   height="12.195697mm"
   width="18.397369mm">
  <defs
     id="defs2" />
  <sodipodi:namedview
     inkscape:window-maximized="1"
     inkscape:window-y="0"
     inkscape:window-x="0"
     inkscape:window-height="720"
     inkscape:window-width="1200"
     fit-margin-bottom="0"
     fit-margin-right="0"
     fit-margin-left="0"
     fit-margin-top="0"
     showgrid="false"
     inkscape:document-rotation="0"
     inkscape:current-layer="layer1"
     inkscape:document-units="mm"
     inkscape:cy="35.871036"
     inkscape:cx="59.291874"
     inkscape:zoom="2.5715576"
     inkscape:pageshadow="2"
     inkscape:pageopacity="0.0"
     borderopacity="1.0"
     bordercolor="#666666"
     pagecolor="#ffffff"
     id="base" />
  <metadata
     id="metadata5">
    <rdf:RDF>
      <cc:Work
         rdf:about="">
        <dc:format>image/svg+xml</dc:format>
        <dc:type
           rdf:resource="http://purl.org/dc/dcmitype/StillImage" />
        <dc:title></dc:title>
      </cc:Work>
    </rdf:RDF>
  </metadata>
  <g
     transform="translate(58.509174,-47.527283)"
     id="layer1"
     inkscape:groupmode="layer"
     inkscape:label="Layer 1">
    <path
       inkscape:connector-curvature="0"
       id="path102"
       d="m -54.875223,59.234684 c -1.324636,-0.661729 -1.918442,-1.950988 -1.711136,-3.71518 0.156089,-1.328331 0.117267,-1.452844 -0.753492,-2.41667 -1.546397,-1.711676 -1.562035,-4.573402 -0.02881,-5.271986 0.387723,-0.176658 2.049329,-0.303565 3.974598,-0.303565 h 3.308343 l 0.414684,0.992187 0.414684,0.992188 0.299419,-0.926042 0.299419,-0.926042 3.297881,-0.07475 c 3.955254,-0.08964 4.64514,0.119388 5.069584,1.536056 0.423593,1.413834 0.08951,2.767086 -0.973637,3.943865 -0.873184,0.96651 -0.904537,1.071989 -0.762085,2.563901 0.179565,1.880624 -0.431983,3.089117 -1.866538,3.688512 -0.937171,0.391575 -4.637431,0.537529 -4.627187,0.182516 0.0031,-0.109141 0.240577,-1.260776 0.527616,-2.55919 0.28704,-1.298413 0.477522,-2.40512 0.423294,-2.459347 -0.05423,-0.05423 -0.415736,0.442563 -0.803352,1.103981 -0.387616,0.661417 -0.807487,1.202577 -0.933046,1.202577 -0.125559,0 -0.547756,-0.545129 -0.938214,-1.211397 -0.390459,-0.666268 -0.758263,-1.163059 -0.817341,-1.103981 -0.05908,0.05908 0.127435,1.169754 0.414475,2.468167 0.287039,1.298414 0.524467,2.450049 0.527616,2.55919 0.01205,0.417454 -3.81775,0.204101 -4.756774,-0.264995 z m 2.516447,-1.454797 c -0.07671,-0.327422 -0.371986,-1.746701 -0.656176,-3.153953 -0.284189,-1.407253 -0.593792,-2.865768 -0.688006,-3.241146 -0.160726,-0.640384 -0.111609,-0.682505 0.795851,-0.682505 0.915984,0 1.032977,0.104668 2.211496,1.97853 0.68439,1.088191 1.324531,1.98116 1.422536,1.984375 0.098,0.0032 0.743863,-0.887124 1.435242,-1.97853 1.152687,-1.819625 1.330102,-1.984375 2.136915,-1.984375 0.483924,0 0.878398,0.02976 0.87661,0.06615 -0.0018,0.03638 -0.35129,1.730785 -0.77667,3.765344 -0.425379,2.03456 -0.730086,3.74253 -0.677125,3.795491 0.285549,0.285549 1.799545,-0.356179 2.168385,-0.9191 0.355285,-0.542233 0.380775,-0.864443 0.14864,-1.878876 -0.265896,-1.161965 -0.24324,-1.258975 0.444249,-1.902227 1.358712,-1.271289 1.742866,-2.752305 0.925833,-3.569338 -0.353758,-0.353758 -1.310765,-0.415235 -6.416147,-0.412161 -3.300204,0.002 -6.269565,0.07574 -6.598578,0.163908 -1.269017,0.340043 -1.103415,2.09288 0.342435,3.624561 0.640679,0.678711 0.900674,1.159847 0.786363,1.455208 -0.778077,2.010417 -0.06039,3.400905 1.789553,3.46719 0.353026,0.01265 0.433785,-0.129539 0.328594,-0.578542 z"
       style="fill:currentColor;stroke-width:0.264583" />
  </g>
</svg>
