<?xml version="1.0" encoding="UTF-8" standalone="no"?>
<svg
   xmlns:dc="http://purl.org/dc/elements/1.1/"
   xmlns:cc="http://creativecommons.org/ns#"
   xmlns:rdf="http://www.w3.org/1999/02/22-rdf-syntax-ns#"
   xmlns:svg="http://www.w3.org/2000/svg"
   xmlns="http://www.w3.org/2000/svg"
   xmlns:sodipodi="http://sodipodi.sourceforge.net/DTD/sodipodi-0.dtd"
   xmlns:inkscape="http://www.inkscape.org/namespaces/inkscape"
   inkscape:version="1.0rc1 (09960d6, 2020-04-09)"
   sodipodi:docname="mizuno.svg"
   width="288.9516"
   height="111.8483"
   viewBox="0 0 288.9516 111.84831"
   id="svg3424"
   version="1.1">
  <sodipodi:namedview
     inkscape:current-layer="g3386"
     inkscape:window-maximized="1"
     inkscape:window-y="0"
     inkscape:window-x="0"
     inkscape:cy="65.412017"
     inkscape:cx="177.25437"
     inkscape:zoom="2.7491884"
     fit-margin-bottom="0"
     fit-margin-right="0"
     fit-margin-left="0"
     fit-margin-top="0"
     showgrid="false"
     id="namedview98"
     inkscape:window-height="720"
     inkscape:window-width="1200"
     inkscape:pageshadow="2"
     inkscape:pageopacity="0"
     guidetolerance="10"
     gridtolerance="10"
     objecttolerance="10"
     borderopacity="1"
     bordercolor="#666666"
     pagecolor="#ffffff" />
  <defs
     id="defs3426">
    <clipPath
       clipPathUnits="userSpaceOnUse"
       id="clipPath3350">
      <path
         inkscape:connector-curvature="0"
         d="M 0,841.89 H 595.276 V 0 H 0 Z"
         id="path3352" />
    </clipPath>
  </defs>
  <metadata
     id="metadata3429">
    <rdf:RDF>
      <cc:Work
         rdf:about="">
        <dc:format>image/svg+xml</dc:format>
        <dc:type
           rdf:resource="http://purl.org/dc/dcmitype/StillImage" />
        <dc:title></dc:title>
      </cc:Work>
    </rdf:RDF>
  </metadata>
  <g
     id="layer1"
     transform="translate(-149.40002,-447.44274)">
    <g
       transform="matrix(1.0073792,0,0,-1.0073792,-9.5773087,951.25202)"
       id="g3346">
      <g
         id="g3348"
         clip-path="url(#clipPath3350)">
        <g
           id="g3386"
           transform="translate(322.5298,389.0898)">
          <path
             inkscape:connector-curvature="0"
             d="m 0,0 c -3.504,11.245 -8.675,36.434 13.568,52.048 15.894,11.15 64.13,24.327 89.973,33.797 l 18.577,25.184 C 104.397,101.934 81.405,92.618 60.435,86.192 13.692,71.869 -14.266,63.372 -50.28,62.666 -76.203,62.156 -76.559,74.389 -51.335,96.327 -79.656,85.335 -119.26,72.31 -164.717,62.136 c 40.551,-1.14 71.339,-9.384 89.84,-20.13 C -48.526,26.701 -42.139,10.628 -39.164,0 Z m -48.812,46.55 c 12.641,-0.451 22.343,0.542 39.98,4.396 -8.32,-6.203 -15.661,-17.499 -16.488,-26.135 -4.382,6.558 -14.53,16.746 -23.492,21.739"
             style="fill:currentColor;fill-opacity:1;fill-rule:evenodd;stroke:none"
             id="path3388" />
        </g>
      </g>
    </g>
  </g>
</svg>
