<?xml version="1.0" encoding="UTF-8" standalone="no"?>
<svg
   xmlns:dc="http://purl.org/dc/elements/1.1/"
   xmlns:cc="http://creativecommons.org/ns#"
   xmlns:rdf="http://www.w3.org/1999/02/22-rdf-syntax-ns#"
   xmlns:svg="http://www.w3.org/2000/svg"
   xmlns="http://www.w3.org/2000/svg"
   version="1.1"
   id="svg12494"
   viewBox="0 0 300 165.30382"
   height="165.30382"
   width="300">
  <defs
     id="defs12496">
    <clipPath
       id="clipPath12171"
       clipPathUnits="userSpaceOnUse">
      <path
         id="path12173"
         d="m 55.36,702.312 98.302,0 0,53.869 -98.302,0 0,-53.869 z" />
    </clipPath>
  </defs>
  <metadata
     id="metadata12499">
    <rdf:RDF>
      <cc:Work
         rdf:about="">
        <dc:format>image/svg+xml</dc:format>
        <dc:type
           rdf:resource="http://purl.org/dc/dcmitype/StillImage" />
        <dc:title></dc:title>
      </cc:Work>
    </rdf:RDF>
  </metadata>
  <g
     transform="translate(-291.84746,-593.15508)"
     id="layer1">
    <g
       id="g12167"
       transform="matrix(3.0314991,0,0,-3.0314991,125.02367,2886.5171)">
      <g
         clip-path="url(#clipPath12171)"
         id="g12169">
        <g
           transform="translate(92.8631,733.0946)"
           id="g12213">
          <path
             id="path12215"
             style="fill:currentColor;fill-opacity:1;fill-rule:evenodd;stroke:none"
             d="m 0,0 -2.945,-5.086 -16.301,0.917 1.632,2.833 L 0,0 Z m 11.784,16.206 1.477,-5.613 -23.13,1.52 1.631,2.832 20.022,1.261 z m -15.334,6.88 13.539,-0.01 1.022,-3.838 -16.19,1.016 1.629,2.832 z m -1.19,-31.335 -2.351,-4.042 -16.843,-0.018 1.631,2.831 17.563,1.229 z m 29.571,10.905 -4.077,-7.067 3.883,0 c 1.799,0 5.023,0.898 6.015,3.46 0.919,2.381 -0.77,3.61 -1.949,3.61 L 24.831,2.656 Z m 3.888,6.76 3.387,0.021 c 2.254,0.012 4.605,1.043 5.465,3.135 0.793,1.941 -0.273,3.594 -1.686,3.588 l -3.276,0.004 -3.89,-6.748 z m -15.331,1.177 3.42,5.933 11.575,0.743 0.404,0.72 -10.707,0.749 2.504,4.348 19.856,0.001 c 6.106,0 10.623,-2.183 8.867,-8.603 C 48.779,12.539 46.297,7.643 39.018,5.592 40.563,5.408 44.411,3.703 43.748,-0.717 42.57,-8.555 32.422,-12.286 26.777,-12.288 l -23.442,-0.011 -1.155,4.535 12.278,0.866 0.417,0.718 -13.317,0.811 -1.435,5.376 18.949,1.106 0.412,0.712 -34.043,2.148 1.631,2.831 36.644,2.379 0.415,0.713 -10.743,0.697" />
        </g>
      </g>
    </g>
  </g>
</svg>
