<?xml version="1.0" encoding="UTF-8"?>
<!DOCTYPE svg PUBLIC "-//W3C//DTD SVG 1.1//EN" "http://www.w3.org/Graphics/SVG/1.1/DTD/svg11.dtd">
<!-- Creator: CorelDRAW X6 -->
<svg xmlns="http://www.w3.org/2000/svg" xml:space="preserve" width="0.36111in" height="0.416661in" version="1.1" style="shape-rendering:geometricPrecision; text-rendering:geometricPrecision; image-rendering:optimizeQuality; fill-rule:evenodd; clip-rule:evenodd"
viewBox="0 0 361 417"
 xmlns:xlink="http://www.w3.org/1999/xlink">
 <defs>
  <style type="text/css">
   <![CDATA[
    .fil0 {fill:currentColor}
   ]]>
  </style>
 </defs>
 <g id="Layer_x0020_1">
  <metadata id="CorelCorpID_0Corel-Layer"/>
  <path class="fil0" d="M125 175l49 -17 8 10 -5 10 21 -14 10 8 -5 8 16 -12 9 10 -21 23 26 -19 12 10 -16 16 19 -12 10 10 -29 29 12 -6 11 10 -31 33 13 -7 9 11 -51 32 -10 -13 22 -24 -50 32 -11 -11 33 -29 -38 26 -9 -10 10 -13 -19 13 -9 -9 34 -32 -39 24 -10 -10 37 -29 -27 14 -12 -10 49 -36 -10 1 -8 -12zm-23 10l-45 27 -9 -11 7 -10 -9 4 -10 -10 13 -13 -14 7 -11 -11 16 -15 -9 -14 40 -13 7 9 -10 13 12 -8 9 10 -13 14 14 -8 10 14 -7 8 4 0 2 7zm-25 -93l46 -21 9 12 -5 9 10 -6 8 11 -16 16 12 -4 7 9 -10 14 9 10 -22 28 -13 -10 6 -6 -10 0 -9 -10 13 -10 -20 3 -6 -11 8 -4 -11 -1 -4 -10 11 -12 -9 2 -3 -10zm79 -14l48 -13 7 12 -11 7 20 0 3 13 -14 7 9 5 -17 19 7 3 -2 12 -50 9 -5 -12 13 -10 -11 1 -2 -11 16 -10 -11 -2 -3 -10 8 -9 -6 -10zm84 -2l57 22 -5 10 -10 0 9 8 -6 10 -7 -1 6 6 -5 9 -15 1 0 10 -22 0 -2 15 -33 -17 4 -12 12 0 -11 -8 6 -12 14 0 -10 -6 7 -12 15 3 -15 -13 8 -14zm8 108l47 29 10 -12 -7 -9 13 6 10 -9 -8 -11 12 8 7 -11 -28 -40 -13 9 9 9 -16 -9 -11 11 6 8 -10 -5 -10 11 6 6 -7 -1 -10 10zm-224 -100c1,12 2,24 3,35 6,17 40,6 23,-14 -9,-7 -17,-14 -26,-21zm54 -55c-2,12 -3,23 -5,35 2,18 37,15 26,-9 -7,-9 -14,-18 -21,-26zm97 -18c-4,11 -9,22 -13,33 -3,18 32,23 27,-2 -5,-10 -9,-20 -14,-31zm113 25c-10,7 -19,14 -29,21 -12,14 16,37 24,12 1,-11 3,-22 4,-33zm68 84c-12,3 -23,5 -35,8 -16,8 0,40 17,21 6,-10 12,-19 17,-29zm-307 200c25,0 45,20 45,45 0,25 -20,45 -45,45 -25,0 -45,-20 -45,-45 0,-25 20,-45 45,-45zm0 31c8,0 14,6 14,14 0,8 -6,14 -14,14 -8,0 -14,-6 -14,-14 0,-8 6,-14 14,-14zm87 -24l0 -7 -31 0 0 89 31 0 0 -54c4,-8 10,-7 14,0l0 54 31 0 0 -58c0,-25 -28,-40 -45,-24zm97 52l27 0 -6 31 -66 0 24 -54 5 0 -15 39 45 0 0 -2 -38 0 14 -37 2 0 0 -6 -18 0 0 -17 -7 0 0 18 -11 0 0 -31 69 0 -26 58zm71 -10c4,0 8,3 8,8 0,4 -3,8 -8,8 -4,0 -8,-3 -8,-8 0,-4 3,-8 8,-8zm8 -27l-34 0 0 -22 37 0 0 0c16,2 28,15 28,31l0 58 -31 0 0 -4c-4,3 -10,4 -15,4 -17,0 -31,-14 -31,-32 0,-18 14,-32 31,-32 6,0 11,2 15,4l0 -8zm16 -47c2,0 4,1 7,2 2,1 4,3 5,5 1,2 2,4 2,7 0,2 -1,5 -2,7 -1,2 -3,4 -5,5 -2,1 -4,2 -7,2 -2,0 -5,-1 -7,-2 -2,-1 -4,-3 -5,-5 -1,-2 -2,-4 -2,-7 0,-2 1,-5 2,-7 1,-2 3,-4 5,-5 2,-1 4,-2 7,-2zm0 3c-2,0 -4,0 -5,1 -2,1 -3,2 -4,4 -1,2 -1,4 -1,5 0,2 0,4 1,5 1,2 2,3 4,4 2,1 3,1 5,1 2,0 4,0 5,-1 2,-1 3,-2 4,-4 1,-2 1,-3 1,-5 0,-2 0,-4 -1,-5 -1,-2 -2,-3 -4,-4 -2,-1 -3,-1 -5,-1zm-6 18l0 -14 3 0c3,0 4,0 5,0 1,0 2,0 2,1 1,0 1,1 1,1 0,1 1,1 1,2 0,1 0,2 -1,3 -1,1 -2,1 -3,1 0,0 1,0 1,1 0,0 1,1 1,1 0,0 0,1 1,2l2 3 -4 0 -1 -2c-1,-2 -1,-3 -2,-3 -1,0 -1,-1 -2,-1l-1 0 0 6 -3 0zm3 -8l1 0c2,0 3,0 3,0 0,0 1,0 1,-1 0,0 0,-1 0,-1 0,0 0,-1 0,-1 0,0 -1,-1 -1,-1 0,0 -1,0 -3,0l-1 0 0 4z"/>
 </g>
</svg>
