<?xml version="1.0" encoding="UTF-8" standalone="no"?>
<!-- Created with Inkscape (http://www.inkscape.org/) -->

<svg
   xmlns:dc="http://purl.org/dc/elements/1.1/"
   xmlns:cc="http://creativecommons.org/ns#"
   xmlns:rdf="http://www.w3.org/1999/02/22-rdf-syntax-ns#"
   xmlns:svg="http://www.w3.org/2000/svg"
   xmlns="http://www.w3.org/2000/svg"
   xmlns:sodipodi="http://sodipodi.sourceforge.net/DTD/sodipodi-0.dtd"
   xmlns:inkscape="http://www.inkscape.org/namespaces/inkscape"
   width="70.201553mm"
   height="69.726471mm"
   viewBox="0 0 70.201553 69.726471"
   version="1.1"
   id="svg8"
   inkscape:version="0.92.4 5da689c313, 2019-01-14"
   sodipodi:docname="otto.svg">
  <defs
     id="defs2" />
  <sodipodi:namedview
     id="base"
     pagecolor="#ffffff"
     bordercolor="#666666"
     borderopacity="1.0"
     inkscape:pageopacity="0.0"
     inkscape:pageshadow="2"
     inkscape:zoom="0.98994949"
     inkscape:cx="152.73585"
     inkscape:cy="79.591164"
     inkscape:document-units="mm"
     inkscape:current-layer="layer1"
     showgrid="false"
     inkscape:window-width="2400"
     inkscape:window-height="1424"
     inkscape:window-x="0"
     inkscape:window-y="88"
     inkscape:window-maximized="1"
     fit-margin-top="0"
     fit-margin-left="0"
     fit-margin-right="0"
     fit-margin-bottom="0" />
  <metadata
     id="metadata5">
    <rdf:RDF>
      <cc:Work
         rdf:about="">
        <dc:format>image/svg+xml</dc:format>
        <dc:type
           rdf:resource="http://purl.org/dc/dcmitype/StillImage" />
        <dc:title></dc:title>
      </cc:Work>
    </rdf:RDF>
  </metadata>
  <g
     inkscape:label="Layer 1"
     inkscape:groupmode="layer"
     id="layer1"
     transform="translate(131.34489,-53.034488)">
    <path
       style="fill:currentColor;stroke-width:0.65712869"
       d="m -325.88477,200.44531 -17.06835,16.83203 c -18.16407,17.91165 -29.92696,28.08743 -46.06836,39.85547 -5.50001,4.00982 -10.45001,7.66125 -11,8.11328 -0.0814,0.0669 -0.55423,0.3737 -0.89454,0.59961 l 116.00977,5.91797 c 7.19512,-5.98151 12.38477,-10.64961 12.38477,-11.23633 0,-0.46332 -0.84213,-1.88357 -1.8711,-3.15429 -1.7496,-2.16067 -2.02506,-2.20939 -4.25,-0.76172 -3.44602,2.24217 -9.30163,3.99468 -16.27734,4.87109 -6.42884,0.80771 -41.61612,-0.71842 -42.7793,-1.85547 -0.89122,-0.8712 7.2023,-32.72948 10.53516,-41.46875 1.42729,-3.74258 3.37022,-8.11758 4.31836,-9.72265 1.67813,-2.84085 1.66032,-2.98517 -0.65821,-5.45313 z m 40.97852,71.31836 -2.72852,2.26367 z m -2.72852,2.26367 -116.74023,-5.95703 c -2.82302,1.78822 -6.66526,4.19348 -10.89648,6.81055 -7.83754,4.84758 -14.25,8.91976 -14.25,9.04883 0,0.12909 0.50356,1.67955 1.11914,3.44531 0.83421,2.393 1.53442,3.0389 2.75,2.53516 9.96631,-4.13012 17.46019,-5.68778 33.26757,-6.91602 l 7.63477,-0.59375 -0.91211,4.28125 c -0.50154,2.35473 -2.40608,13.05532 -4.23242,23.7793 l -3.32031,19.49804 -0.51563,-9.04296 c -1.10585,-19.39448 -10.13143,-29.38213 -26.59765,-29.43164 -9.258,-0.0278 -14.60063,1.27049 -25.03711,6.08593 -28.36385,13.08723 -44.56438,36.59607 -49.63477,72.02149 -2.71094,18.9406 -1.61166,30.0192 3.875,39.0664 8.18733,13.50048 24.26946,14.80109 47.10352,3.8086 19.48414,-9.37977 33.4702,-24.43683 42.62304,-45.88672 3.38457,-7.93185 3.39692,-7.82736 0.93164,7.38281 -7.42133,45.78811 -9.5699,70.50211 -6.94922,79.94141 1.20541,4.34169 5.73328,9.19725 9.18164,9.8457 1.21747,0.22866 2.8879,0.29748 3.7129,0.15234 0.82499,-0.14528 3.29997,-0.56868 5.5,-0.93945 12.9767,-2.18593 37.12684,-20.41482 54.10546,-40.83984 4.18835,-5.03853 8.46649,-10.17628 9.50586,-11.41797 1.03939,-1.24169 1.88868,-2.40326 1.88868,-2.58203 0,-0.17877 -1.79314,-1.76643 -3.98438,-3.52735 l -3.98242,-3.20117 -7.78711,7.88086 c -15.37912,15.56629 -22.45206,12.57237 -20.82031,-8.8125 1.64191,-21.51817 8.20279,-67.01197 16.24218,-112.61328 l 0.54883,-3.11133 13.14258,-0.54883 c 7.22783,-0.30202 16.31492,-1.23884 20.19336,-2.08203 7.88754,-1.71479 19.41465,-5.68827 21.54883,-7.42773 0.2823,-0.23009 0.78515,-0.65235 0.78515,-0.65235 z m -116.74023,-5.95703 3.45898,-2.22461 z m 145.39844,15.5625 c -0.82566,0.019 -1.67454,0.0586 -2.54492,0.11914 -24.68838,1.71849 -52.46223,23.09643 -62.85547,48.38086 -8.52143,20.73072 -11.58471,49.67259 -6.70899,63.38672 2.91599,8.20192 9.19628,14.09231 17.06446,16.00781 10.84558,2.64034 27.35363,-2.19616 43.10351,-12.6289 18.02337,-11.93874 30.84521,-30.68796 37.14258,-54.31641 2.17609,-8.1649 2.57709,-11.88653 2.6582,-24.61914 0.0946,-14.85692 0.0656,-15.0644 -3.07031,-21.68359 -4.96896,-10.48845 -12.40415,-14.93086 -24.78906,-14.64649 z m -16.92383,14.54492 c 10.19215,0 14.82499,6.92914 16.34766,24.45899 1.52852,17.59718 -2.59091,43.84045 -9.09766,57.95703 -3.17838,6.89556 -8.75297,13.143 -13.17383,14.76563 -9.93876,3.64792 -16.30949,0.82504 -20.86523,-9.24415 -2.15055,-4.75317 -2.33071,-6.46714 -2.31446,-22.15234 0.0189,-18.2409 1.16945,-27.06535 5.21289,-40 5.70559,-18.25172 12.68511,-25.78516 23.89063,-25.78516 z m -163.16602,7.49024 c 5.8837,0.0147 11.36553,3.38645 13.92579,9.78515 6.39023,15.9708 2.49485,55.53141 -7.38086,74.97461 -3.29371,6.48465 -7.05045,10.32435 -12.2168,12.48243 -14.89278,6.2211 -23.78686,-5.12582 -23.7793,-30.33399 0.008,-25.17378 6.74933,-50.46472 16.17774,-60.69336 3.87717,-4.20624 8.69723,-6.22627 13.27343,-6.21484 z"
       transform="scale(0.26458333)"
       id="rect79"
       inkscape:connector-curvature="0"
       sodipodi:nodetypes="ccccccscscsscccccccccsccccccccsssscccccccscscccscccscccccccsssccsscsscsccsssccccss" />
  </g>
</svg>
