<?xml version="1.0" encoding="UTF-8" standalone="no"?>
<!-- Created with Inkscape (http://www.inkscape.org/) -->

<svg
   xmlns:dc="http://purl.org/dc/elements/1.1/"
   xmlns:cc="http://creativecommons.org/ns#"
   xmlns:rdf="http://www.w3.org/1999/02/22-rdf-syntax-ns#"
   xmlns:svg="http://www.w3.org/2000/svg"
   xmlns="http://www.w3.org/2000/svg"
   xmlns:sodipodi="http://sodipodi.sourceforge.net/DTD/sodipodi-0.dtd"
   xmlns:inkscape="http://www.inkscape.org/namespaces/inkscape"
   width="146.73218mm"
   height="72.806854mm"
   viewBox="0 0 146.73218 72.806854"
   version="1.1"
   id="svg8"
   inkscape:version="0.92.4 (5da689c313, 2019-01-14)"
   sodipodi:docname="performax.svg">
  <defs
     id="defs2" />
  <sodipodi:namedview
     id="base"
     borderopacity="1.0"
     inkscape:pageopacity="0.0"
     inkscape:pageshadow="2"
     inkscape:zoom="0.7"
     inkscape:cx="834.81004"
     inkscape:cy="-280.43877"
     inkscape:document-units="mm"
     inkscape:current-layer="layer1"
     showgrid="false"
     inkscape:window-width="2400"
     inkscape:window-height="1440"
     inkscape:window-x="0"
     inkscape:window-y="80"
     inkscape:window-maximized="1"
     fit-margin-top="0"
     fit-margin-left="0"
     fit-margin-right="0"
     fit-margin-bottom="0" />
  <metadata
     id="metadata5">
    <rdf:RDF>
      <cc:Work
         rdf:about="">
        <dc:format>image/svg+xml</dc:format>
        <dc:type
           rdf:resource="http://purl.org/dc/dcmitype/StillImage" />
        <dc:title></dc:title>
      </cc:Work>
    </rdf:RDF>
  </metadata>
  <g
     inkscape:label="Layer 1"
     inkscape:groupmode="layer"
     id="layer1"
     transform="translate(688.60435,15.633573)">
    <path
       id="path882"
       style="fill:currentColor;stroke-width:0.75469244"
       d="m -595.30913,-9.738 c 0.54479,-0.21801 1.19571,-0.1912 1.44649,0.0596 0.25078,0.25078 -0.19497,0.42915 -0.99053,0.39638 -0.87918,-0.0362 -1.05801,-0.21504 -0.45596,-0.45596 z m 4.52815,1.50938 c 0.54479,-0.218 1.19571,-0.19119 1.4465,0.0596 0.25077,0.25078 -0.19497,0.42915 -0.99054,0.39638 -0.87918,-0.0362 -1.058,-0.21505 -0.45596,-0.45596 z m 7.31108,61.622431 c -15.41139,-5.14523 -28.39498,-11.57583 -34.17341,-16.92565 -5.25872,-4.86864 -6.54092,-7.45095 -6.01527,-12.1145 1.39124,-12.34307 24.52735,-24.156351 72.64046,-37.090191 6.64129,-1.78532 10.54682,-3.07951 8.67896,-2.87597 -1.86786,0.20353 -14.7731,1.38557 -28.67831,2.62674 -27.17488,2.42562 -45.05476,4.50748 -58.84827,6.85205 -32.8853,5.58973 -53.62053,13.59422 -57.74826,22.292771 -1.73991,3.66657 -1.15825,8.46261 1.51651,12.50445 l 2.0796,3.14249 1.37763,-2.68528 c 5.4832,-10.68785 22.85623,-21.959841 45.20985,-29.333101 10.25735,-3.38334 35.1671,-9.06744 39.27961,-8.96312 1.01812,0.0258 -2.73363,0.99265 -8.33722,2.14849 -18.76796,3.87124 -35.74906,9.26243 -47.16827,14.97507 -12.21636,6.111431 -22.40231,15.038281 -25.03989,21.944691 l -1.28417,3.36255 2.21899,1.77298 c 1.22044,0.97514 5.10568,2.9224 8.63387,4.32724 6.06838,2.41629 19.33863,6.51457 21.0942,6.51457 0.44595,0 0.0186,-1.27354 -0.94962,-2.8301 -4.63533,-7.45182 -5.58957,-15.12455 -2.64535,-21.27046 5.1758,-10.804211 23.31629,-20.724651 50.49509,-27.614121 10.6913,-2.71011 10.89332,-2.20945 0.30535,0.75677 -17.42969,4.88291 -27.32447,8.9545 -35.90409,14.77411 -14.28599,9.690291 -15.39723,22.210961 -3.13877,35.365181 4.246,4.55626 4.46123,4.67644 11.49658,6.41939 12.76375,3.16211 32.07976,5.36845 49.05501,5.60322 l 7.16958,0.0992 z"
       inkscape:connector-curvature="0"
       sodipodi:nodetypes="ccccccccccccsscsscscsscssscccscssssssccc" />
  </g>
</svg>
