<?xml version="1.0" encoding="UTF-8" standalone="no"?>
<svg
   xmlns:dc="http://purl.org/dc/elements/1.1/"
   xmlns:cc="http://creativecommons.org/ns#"
   xmlns:rdf="http://www.w3.org/1999/02/22-rdf-syntax-ns#"
   xmlns:svg="http://www.w3.org/2000/svg"
   xmlns="http://www.w3.org/2000/svg"
   xmlns:sodipodi="http://sodipodi.sourceforge.net/DTD/sodipodi-0.dtd"
   xmlns:inkscape="http://www.inkscape.org/namespaces/inkscape"
   version="1.0"
   width="242.78786pt"
   height="122.85831pt"
   viewBox="0 0 242.78786 122.85831"
   preserveAspectRatio="xMidYMid meet"
   id="svg16"
   sodipodi:docname="280px-Pirma_Logo.svg"
   inkscape:version="0.92.4 5da689c313, 2019-01-14">
  <metadata
     id="metadata22">
    <rdf:RDF>
      <cc:Work
         rdf:about="">
        <dc:format>image/svg+xml</dc:format>
        <dc:type
           rdf:resource="http://purl.org/dc/dcmitype/StillImage" />
        <dc:title></dc:title>
      </cc:Work>
    </rdf:RDF>
  </metadata>
  <defs
     id="defs20" />
  <sodipodi:namedview
     pagecolor="#ffffff"
     bordercolor="#666666"
     borderopacity="1"
     objecttolerance="10"
     gridtolerance="10"
     guidetolerance="10"
     inkscape:pageopacity="0"
     inkscape:pageshadow="2"
     inkscape:window-width="2400"
     inkscape:window-height="1424"
     id="namedview18"
     showgrid="false"
     fit-margin-top="0"
     fit-margin-left="0"
     fit-margin-right="0"
     fit-margin-bottom="0"
     inkscape:zoom="3.8901099"
     inkscape:cx="172.84102"
     inkscape:cy="51.072148"
     inkscape:window-x="0"
     inkscape:window-y="88"
     inkscape:window-maximized="1"
     inkscape:current-layer="g14" />
  <g
     transform="matrix(0.1,0,0,-0.1,-9.1240377,178.46948)"
     id="g14"
     style="fill:currentColor;stroke:none">
    <path
       d="m 1140,1783 c 0,-4 6,-31 14,-60 28,-106 40,-255 27,-354 C 1154,1161 1076,1026 908,899 755,785 457,662 131,580 c -84,-22 -33,-20 135,5 405,58 746,79 1159,72 171,-3 364,-11 430,-17 146,-13 482,-56 585,-74 41,-7 77,-12 79,-9 8,6 -390,397 -569,559 -356,323 -810,697 -810,667 z m 431,-615 c 202,-178 349,-311 346,-314 -2,-2 -73,1 -158,6 -85,5 -245,10 -356,10 -112,0 -203,3 -203,6 0,3 16,26 36,52 55,72 112,198 136,299 l 22,91 36,-28 c 19,-16 83,-70 141,-122 z"
       id="path2"
       inkscape:connector-curvature="0" />
  </g>
</svg>
