<?xml version="1.0" encoding="UTF-8" standalone="no"?>
<svg
   xmlns:dc="http://purl.org/dc/elements/1.1/"
   xmlns:cc="http://creativecommons.org/ns#"
   xmlns:rdf="http://www.w3.org/1999/02/22-rdf-syntax-ns#"
   xmlns:svg="http://www.w3.org/2000/svg"
   xmlns="http://www.w3.org/2000/svg"
   viewBox="0 0 241.12 187.74667"
   height="187.74667"
   width="241.12"
   xml:space="preserve"
   id="svg2"
   version="1.1"><metadata
     id="metadata8"><rdf:RDF><cc:Work
         rdf:about=""><dc:format>image/svg+xml</dc:format><dc:type
           rdf:resource="http://purl.org/dc/dcmitype/StillImage" /></cc:Work></rdf:RDF></metadata><defs
     id="defs6" /><g
     transform="matrix(1.3333333,0,0,-1.3333333,0,187.74667)"
     id="g10"><g
       transform="scale(0.1)"
       id="g12"><path
         id="path14"
         style="fill:currentColor;fill-opacity:1;fill-rule:evenodd;stroke:none"
         d="m 171.02,1402.07 c -11.622,-1.75 -22.793,-44.53 -45.235,-66.85 -16.445,-16.04 -36.9061,-15.11 -47.8319,-34.97 -4.1211,-7.39 -2.7851,-20.1 -7.4687,-32.29 -9.1797,-24.33 -41.4649,-26.48 -41.4649,-53.03 -0.0625,-28.67 26.8907,-34.13 50.3321,-54.49 18.3007,-16.32 20.0468,-27.63 42.1684,-35.58 18.875,-6.42 47,14.6 72.293,7.03 20.773,-6.19 40.664,-10.62 45.351,-31.94 4.121,-19.7 -0.293,-50.2 -25.476,-46.67 -8.497,0.97 -45.333,13.33 -90.52,8.56 C 68.5469,1055.61 6.29297,1037.8 0.191406,976.945 -3.17969,942.957 38.9102,902.844 79.5156,910.984 c 28.0934,5.547 14.8242,38.672 30.0974,54.774 20.047,20.617 133.672,-71.977 239.289,-71.977 44.434,0 77.547,11.239 110.371,45.645 3.086,2.633 6.817,8.25 11.582,8.617 4.469,-0.367 12.274,-4.766 14.852,-6.641 85.051,-68.343 149.363,-205.504 461.984,-207.105 44,-0.266 94.039,-21.25 134.939,-58.535 36.47,-33.731 57.8,-86.231 78.54,-139.473 31.31,-79.844 87.35,-157.578 172.34,-244 4.64,-4.629 74.64,-59.039 80.23,-63.09 0.88,-0.609 6.04,-12.879 4.25,-19.719 -2.08,-51.859 -9.62,-202.60109 102.79,-209.4096875 27.43,-1.4101525 20.27,17.9413875 20.27,31.1913875 -0.07,26.2578 -4.84,52.3477 8.96,79.2383 18.95,36.961 -40.12,53.969 -38.41,133.93 1.25,59.57 -48.86,49.441 -74.23,94.832 -14.61,26.328 -27.64,40.269 -26.7,72.457 5.74,181.078 -38.54,300.058 -60.58,329.293 -17.23,22.066 -31.46,30.797 -15.71,41.015 93.77,61.965 115.04,119.582 115.04,119.582 49.87,117.251 94.72,224.321 156.59,271.461 12.47,9.74 44.39,33.62 63.96,42.94 57.78,27.21 88.13,43.71 104.91,60.04 26.45,25.81 47.48,79.74 22.06,112.42 -31.64,40.33 -86.32,8.32 -110.44,-6 -172.43,-102.32 -197.82,-282.84 -257.56,-386.482 -47.67,-82.851 -125.14,-143.691 -194.41,-148.668 -51.89,-3.855 -107.9,6.641 -163.62,31.129 -135.562,59.43 -209.707,136.171 -227.254,149.721 -36.406,28.1 -319.148,305.7 -548.191,316.99 0,0 -28.449,56.93 -35.586,57.88 -16.762,2.14 -33.906,-33.98 -46.191,-38.2 -11.555,-3.83 -30.997,39.12 -42.668,37.23 v 0" /></g></g></svg>
