<?xml version="1.0" encoding="UTF-8"?>
<svg xmlns="http://www.w3.org/2000/svg" xmlns:xlink="http://www.w3.org/1999/xlink" width="668pt" height="366.9pt" viewBox="0 0 668 366.9" version="1.1">
<defs>
<clipPath id="clip1">
  <path d="M 0 0 L 668 0 L 668 366.898438 L 0 366.898438 Z M 0 0 "/>
</clipPath>
</defs>
<g id="surface1">
<g clip-path="url(#clip1)" clip-rule="nonzero">
<path style=" stroke:none;fill-rule:evenodd;fill:currentColor;fill-opacity:1;" d="M 0.183594 161.316406 L 32.871094 161.316406 L 32.871094 85.832031 C 34.328125 95.511719 40.503906 100.027344 51.402344 99.382813 L 55.316406 99.140625 C 60.480469 98.816406 64.234375 99.703125 66.496094 101.800781 C 68.792969 103.898438 69.921875 107.527344 69.921875 112.6875 L 69.921875 161.316406 L 102.617188 161.316406 L 102.617188 109.542969 C 102.617188 100.832031 101.285156 94.21875 98.621094 89.703125 C 95.957031 85.1875 91.316406 82.042969 84.699219 80.269531 C 90.347656 75.105469 94.464844 69.785156 97.042969 64.300781 C 99.632813 58.816406 100.921875 52.6875 100.921875 45.914063 C 100.921875 38.171875 99.226563 31.117188 95.835938 24.746094 C 92.488281 18.375 87.644531 13.011719 81.386719 8.65625 C 76.707031 5.429688 72.066406 3.171875 67.382813 1.882813 C 62.703125 0.59375 56.929688 -0.0546875 50.027344 -0.0546875 L 32.871094 -0.0546875 C 29.203125 -0.0546875 26.171875 0.0273438 23.871094 0.1875 C 21.535156 0.351563 19.476563 0.632813 17.738281 1.035156 C 15.964844 1.4375 14.390625 2.042969 13.058594 2.851563 C 11.6875 3.65625 10.273438 4.625 8.820313 5.753906 C 7.082031 7.203125 5.632813 8.65625 4.5 10.109375 C 3.371094 11.558594 2.523438 13.335938 1.875 15.429688 C 1.230469 17.527344 0.789063 20.066406 0.546875 23.050781 C 0.304688 26.035156 0.183594 29.625 0.183594 33.816406 Z M 624.84375 161.316406 C 616.085938 165.074219 618.488281 164.320313 610.953125 168.316406 C 603.414063 172.3125 596.628906 176.460938 590.871094 180.804688 L 590.757813 180.851563 C 415.398438 198.480469 319.558594 218.753906 260.816406 245.6875 C 202.113281 272.601563 180.449219 306.183594 153.445313 350.429688 L 153.386719 350.523438 C 136.109375 352.316406 118.78125 353.980469 101.488281 355.664063 L 101.71875 355.28125 C 119.339844 325.777344 123.828125 308.25 130.515625 282.152344 C 131.445313 278.527344 132.414063 274.746094 133.515625 270.554688 L 133.539063 270.445313 L 231.433594 229.613281 C 163.265625 238.03125 138.335938 244.730469 108.175781 252.835938 L 98.589844 255.402344 C 94.492188 275.386719 90.753906 291.191406 85.238281 307.101563 C 79.710938 323.046875 72.386719 339.101563 61.121094 359.578125 L 61.066406 359.679688 C 40.722656 362.085938 20.371094 364.507813 0.0273438 366.875 L 0.269531 366.484375 C 17.085938 339.351563 29.710938 313.042969 38.152344 287.5625 C 46.589844 262.089844 50.84375 237.445313 50.910156 213.636719 L 50.910156 213.425781 L 51.121094 213.414063 C 149.117188 207.480469 246.71875 199.226563 344.066406 189.441406 C 431.339844 180.667969 509.890625 171.71875 595.058594 161.273438 L 595.058594 -0.0546875 L 624.84375 -0.0546875 C 624.84375 53.734375 624.84375 107.527344 624.84375 161.316406 Z M 32.871094 31.640625 L 47.769531 31.640625 C 61.410156 31.640625 68.230469 37.367188 68.230469 48.816406 C 68.230469 59.625 62.378906 65.511719 50.667969 66.476563 C 44.496094 66.960938 40.058594 68.332031 37.394531 70.589844 C 34.691406 72.847656 33.199219 76.558594 32.871094 81.71875 Z M 211.710938 161.316406 L 211.710938 103.976563 C 211.710938 96.074219 211.1875 89.90625 210.136719 85.46875 C 209.089844 81.035156 207.191406 76.71875 204.40625 72.527344 C 200.695313 66.882813 195.730469 62.484375 189.59375 59.339844 C 183.414063 56.195313 176.882813 54.625 169.898438 54.625 C 166.023438 54.625 162.390625 55.105469 159.078125 56.074219 C 155.773438 57.042969 152.058594 58.65625 148.023438 60.914063 L 148.023438 -0.0546875 L 118.238281 -0.0546875 L 118.238281 161.316406 L 148.023438 161.316406 L 148.023438 103.496094 C 148.023438 98.171875 148.664063 94.21875 149.960938 91.640625 C 151.253906 88.898438 153.269531 86.640625 156.015625 84.863281 C 158.757813 83.089844 161.746094 82.203125 164.976563 82.203125 C 168.203125 82.203125 171.148438 83.011719 173.8125 84.625 C 176.476563 86.234375 178.453125 88.414063 179.746094 91.15625 C 180.554688 92.929688 181.121094 94.746094 181.441406 96.597656 C 181.765625 98.453125 181.925781 100.832031 181.925781 103.734375 L 181.925781 161.316406 Z M 315.964844 57.527344 L 286.175781 57.527344 L 286.175781 109.785156 C 286.175781 114.625 286.097656 118.011719 285.933594 119.945313 C 285.773438 121.882813 285.371094 123.734375 284.726563 125.511719 C 283.757813 128.734375 281.820313 131.316406 278.914063 133.253906 C 276.007813 135.1875 272.859375 136.15625 269.46875 136.15625 C 266.078125 136.15625 262.929688 135.1875 260.023438 133.253906 C 257.117188 131.316406 255.101563 128.816406 253.96875 125.753906 C 253.324219 123.976563 252.921875 122.003906 252.757813 119.824219 C 252.597656 117.648438 252.515625 114.382813 252.515625 110.027344 L 252.515625 57.527344 L 222.730469 57.527344 L 222.730469 110.511719 C 222.730469 118.089844 223.253906 124.261719 224.304688 129.019531 C 225.355469 133.777344 227.171875 138.332031 229.753906 142.6875 C 233.949219 149.300781 239.5625 154.5 246.578125 158.292969 C 253.605469 162.082031 261.152344 163.976563 269.226563 163.976563 C 277.296875 163.976563 284.765625 162.164063 291.621094 158.535156 C 298.488281 154.90625 304.015625 149.703125 308.214844 142.929688 C 309.828125 140.511719 311.121094 138.25 312.089844 136.15625 C 313.058594 134.058594 313.824219 131.800781 314.390625 129.382813 C 314.953125 126.960938 315.359375 124.21875 315.601563 121.15625 C 315.84375 118.089844 315.964844 114.382813 315.964844 110.027344 Z M 475.671875 161.316406 L 475.671875 106.882813 C 475.671875 102.847656 475.550781 99.261719 475.308594 96.117188 C 475.0625 92.96875 474.621094 90.148438 473.976563 87.648438 C 473.328125 85.148438 472.480469 82.769531 471.433594 80.511719 C 470.382813 78.253906 469.050781 75.996094 467.4375 73.734375 C 463.238281 67.769531 458.03125 63.132813 451.816406 59.824219 C 445.601563 56.519531 438.863281 54.867188 431.597656 54.867188 C 425.785156 54.867188 420.578125 55.832031 415.976563 57.769531 C 411.371094 59.703125 406.246094 63.089844 400.597656 67.929688 C 396.078125 63.414063 391.355469 60.066406 386.433594 57.890625 C 381.507813 55.710938 375.980469 54.625 369.84375 54.625 C 362.578125 54.625 355.839844 56.277344 349.621094 59.582031 C 343.410156 62.890625 338.363281 67.527344 334.488281 73.492188 C 333.035156 75.753906 331.824219 77.890625 330.855469 79.90625 C 329.886719 81.921875 329.160156 84.179688 328.675781 86.679688 C 328.191406 89.179688 327.828125 92.042969 327.589844 95.269531 C 327.34375 98.496094 327.222656 102.285156 327.222656 106.640625 L 327.222656 161.316406 L 357.011719 161.316406 L 357.011719 102.042969 C 357.011719 99.945313 357.050781 98.253906 357.132813 96.960938 C 357.210938 95.671875 357.289063 94.582031 357.371094 93.695313 C 357.453125 92.808594 357.65625 92.042969 357.980469 91.398438 C 358.300781 90.753906 358.703125 90.027344 359.191406 89.21875 C 360.480469 87.121094 362.257813 85.429688 364.515625 84.140625 C 366.777344 82.847656 369.199219 82.203125 371.78125 82.203125 C 374.203125 82.203125 376.546875 82.808594 378.804688 84.019531 C 381.066406 85.226563 382.839844 86.882813 384.132813 88.976563 C 384.617188 89.785156 385.019531 90.511719 385.34375 91.15625 C 385.664063 91.800781 385.867188 92.566406 385.949219 93.453125 C 386.03125 94.339844 386.109375 95.429688 386.191406 96.71875 C 386.269531 98.011719 386.3125 99.703125 386.3125 101.800781 L 386.3125 161.316406 L 416.097656 161.316406 L 416.097656 102.042969 C 416.097656 99.785156 416.097656 98.011719 416.097656 96.71875 C 416.097656 95.429688 416.179688 94.339844 416.339844 93.453125 C 416.496094 92.566406 416.785156 91.800781 417.1875 91.15625 C 417.589844 90.511719 418.117188 89.703125 418.722656 88.734375 C 421.628906 84.058594 425.785156 81.71875 431.234375 81.71875 C 433.777344 81.71875 436.199219 82.40625 438.453125 83.777344 C 440.679688 85.148438 442.453125 86.960938 443.703125 89.21875 C 444.511719 90.832031 445.078125 92.484375 445.398438 94.179688 C 445.722656 95.875 445.882813 98.332031 445.882813 101.558594 L 445.882813 161.316406 Z M 551.589844 127.6875 C 548.84375 130.429688 546.179688 132.363281 543.597656 133.492188 C 541.015625 134.621094 538.109375 135.1875 534.878906 135.1875 C 525.191406 135.1875 518.089844 130.347656 513.570313 120.671875 L 563.695313 120.671875 C 570.800781 120.671875 576.449219 119.019531 580.648438 115.710938 C 584.84375 112.40625 586.945313 108.011719 586.945313 102.527344 C 586.945313 96.558594 585.53125 90.792969 582.703125 85.226563 C 579.882813 79.664063 576.046875 74.785156 571.203125 70.589844 C 566.359375 66.398438 560.828125 63.011719 554.617188 60.429688 C 548.398438 57.847656 541.902344 56.558594 535.121094 56.558594 C 527.855469 56.558594 520.996094 57.929688 514.539063 60.671875 C 508.078125 63.414063 502.511719 67.164063 497.828125 71.921875 C 493.148438 76.679688 489.433594 82.242188 486.6875 88.613281 C 483.945313 94.984375 482.570313 101.882813 482.570313 109.300781 C 482.570313 116.71875 483.945313 123.65625 486.6875 130.105469 C 489.433594 136.558594 493.1875 142.203125 497.949219 147.042969 C 502.710938 151.878906 508.28125 155.671875 514.660156 158.414063 C 521.035156 161.15625 527.9375 162.527344 535.363281 162.527344 C 546.828125 162.527344 556.914063 159.460938 565.632813 153.332031 C 574.351563 147.203125 580.808594 138.65625 585.007813 127.6875 Z M 512.601563 99.140625 C 514.371094 94.460938 517.160156 90.792969 520.953125 88.132813 C 524.746094 85.46875 529.230469 84.140625 534.394531 84.140625 C 544.402344 84.140625 551.425781 89.140625 555.464844 99.140625 Z M 668.070313 -0.0546875 L 638.28125 -0.0546875 L 638.28125 161.316406 L 668.070313 161.316406 Z M 668.070313 -0.0546875 "/>
</g>
</g>
</svg>
