<?xml version="1.0" encoding="UTF-8" standalone="no"?>
<svg
   xmlns:dc="http://purl.org/dc/elements/1.1/"
   xmlns:cc="http://creativecommons.org/ns#"
   xmlns:rdf="http://www.w3.org/1999/02/22-rdf-syntax-ns#"
   xmlns:svg="http://www.w3.org/2000/svg"
   xmlns="http://www.w3.org/2000/svg"
   xmlns:sodipodi="http://sodipodi.sourceforge.net/DTD/sodipodi-0.dtd"
   xmlns:inkscape="http://www.inkscape.org/namespaces/inkscape"
   inkscape:version="1.0rc1 (09960d6, 2020-04-09)"
   sodipodi:docname="saltarinrojo.svg"
   version="1.1"
   id="svg2"
   xml:space="preserve"
   width="364.00369"
   height="134.65239"
   viewBox="0 0 364.00369 134.65239"><sodipodi:namedview
     inkscape:current-layer="g12"
     inkscape:window-maximized="1"
     inkscape:window-y="0"
     inkscape:window-x="0"
     inkscape:cy="94.340941"
     inkscape:cx="74.682514"
     inkscape:zoom="1.0172414"
     fit-margin-bottom="0"
     fit-margin-right="0"
     fit-margin-left="0"
     fit-margin-top="0"
     showgrid="false"
     id="namedview80"
     inkscape:window-height="720"
     inkscape:window-width="1200"
     inkscape:pageshadow="2"
     inkscape:pageopacity="0"
     guidetolerance="10"
     gridtolerance="10"
     objecttolerance="10"
     borderopacity="1"
     bordercolor="#666666"
     pagecolor="#ffffff" /><metadata
     id="metadata8"><rdf:RDF><cc:Work
         rdf:about=""><dc:format>image/svg+xml</dc:format><dc:type
           rdf:resource="http://purl.org/dc/dcmitype/StillImage" /><dc:title></dc:title></cc:Work></rdf:RDF></metadata><defs
     id="defs6" /><g
     id="g10"
     transform="matrix(1.3333333,0,0,-1.3333333,-45.289243,210.34094)"><g
       id="g12"
       transform="scale(0.1)"><path
         inkscape:connector-curvature="0"
         d="m 2778.3646,1097.9771 -107.98,3.74 c -4.5,87.77 -48.27,181.63 -131.31,281.58 -98.41,108.66 -220.48,173.42 -366.19,194.26 0,0 -309.11,0 -927.31,0 -109.13,-11.9 -203.44,-48.9 -282.92997,-111 -135.472,-108.79 -209.479,-231.97 -222.018,-369.57 -69.93,-0.01 -104.899,-0.01 -104.899,-0.01 -29.047,-1.38 -52.285,-14.92 -69.719,-40.61 -144.394,-236.44899 -216.593,-354.67499 -216.593,-354.67499 -24.891,-66.645 -2.106,-111.317 68.363,-134.02 565.866,-0.004 848.78597,-0.008 848.78597,-0.008 190.37,22.512 336.57,101.032 438.62,235.547 86.89,-114.816 212.79,-190.629 377.7,-227.433 31.1,-3.516 53.44,-5.547 67.01,-6.094 561.57,0.676 842.36,1.016 842.36,1.016 61.76,7.976 86.58,45.882 74.46,113.714 -147.11,245.473 -220.66,368.21299 -220.66,368.21299 -17.89,29.06 -40.45,44.18 -67.69,45.35 z m -1952.33997,-0.71 1763.22997,-6.77 c -24.56,101.42 -62.91,180.01 -115.06,235.77 -83.07,90.23 -184.98,145.89 -305.72,166.96 0,0 -309.86,-1.13 -929.56,-3.38 -93.39,-9.23 -182.89,-52.85 -268.49997,-130.87 -84.523,-77.94 -132.66,-165.18 -144.39,-261.71 z M 1261.0646,650.77811 c 118.98,12.812 220.14,53.422 303.46,121.836 81.16,66.035 126.84,145.943 137.05,239.73299 0,0 -351.97,-0.38 -1055.91297,-1.13 -147.77,-239.54099 -221.657,-359.30999 -221.657,-359.30999 558.04,-0.754 837.05997,-1.129 837.05997,-1.129 z m 892.8,-0.746 c -118.98,12.812 -220.13,53.425 -303.46,121.835 -81.15,66.036 -126.84,145.95 -137.05,239.72999 0,0 351.97,-0.37 1055.92,-1.13 147.77,-239.53699 221.65,-359.30699 221.65,-359.30699 -558.04,-0.753 -837.06,-1.128 -837.06,-1.128"
         style="fill:currentColor;fill-opacity:1;fill-rule:evenodd;stroke:none"
         id="path16" /></g></g></svg>
