<?xml version="1.0" encoding="UTF-8" standalone="no"?>
<svg
   xmlns:dc="http://purl.org/dc/elements/1.1/"
   xmlns:cc="http://creativecommons.org/ns#"
   xmlns:rdf="http://www.w3.org/1999/02/22-rdf-syntax-ns#"
   xmlns:svg="http://www.w3.org/2000/svg"
   xmlns="http://www.w3.org/2000/svg"
   xmlns:sodipodi="http://sodipodi.sourceforge.net/DTD/sodipodi-0.dtd"
   xmlns:inkscape="http://www.inkscape.org/namespaces/inkscape"
   version="1.1"
   width="1031.0897"
   height="415.71881"
   viewBox="0 0 773.31735 311.78913"
   id="svg9"
   sodipodi:docname="starbade.svg"
   inkscape:version="0.92.4 (5da689c313, 2019-01-14)">
  <metadata
     id="metadata15">
    <rdf:RDF>
      <cc:Work
         rdf:about="">
        <dc:format>image/svg+xml</dc:format>
        <dc:type
           rdf:resource="http://purl.org/dc/dcmitype/StillImage" />
        <dc:title></dc:title>
      </cc:Work>
    </rdf:RDF>
  </metadata>
  <defs
     id="defs13" />
  <sodipodi:namedview
     pagecolor="#ffffff"
     bordercolor="currentColor"
     borderopacity="1"
     objecttolerance="10"
     gridtolerance="10"
     guidetolerance="10"
     inkscape:pageopacity="0"
     inkscape:pageshadow="2"
     inkscape:window-width="2400"
     inkscape:window-height="1440"
     id="namedview11"
     showgrid="false"
     inkscape:zoom="1.1893651"
     inkscape:cx="544.5216"
     inkscape:cy="399.38581"
     inkscape:window-x="0"
     inkscape:window-y="80"
     inkscape:window-maximized="1"
     inkscape:current-layer="Layer-1"
     units="px"
     fit-margin-top="0"
     fit-margin-left="0"
     fit-margin-right="0"
     fit-margin-bottom="0" />
  <g
     id="g7"
     style="enable-background:new"
     transform="translate(0,-283.4865)">
    <g
       id="Layer-1"
       data-name="Capa 1">
      <path
         style="stroke-width:1"
         d="m 266.74515,283.4865 -32.13575,82.53076 -124.40333,0.0674 c -0.2789,-0.005 -35.419125,-0.65894 -39.203625,33.40136 -2.8987,26.09009 9.36628,37.83989 17.03027,45.18018 l 0.47754,0.45703 c 1.2243,1.177 3.39882,3.52262 5.928233,6.32813 -19.986803,-0.18342 -41.603656,0.10618 -41.693856,0.10693 L 43.620119,451.68573 0,513.31757 132.25929,512.7873 c 1.175,0.0989 18.42283,1.35001 32.57813,-9.62549 l 60.20508,29.20166 0.0864,-20.4082 128.00977,1.34765 -0.6958,-1.84863 15.23145,5.92236 -0.33105,77.89897 30.10693,-27.19193 c 0.1386,-0.125 30.41011,-27.33979 54.13331,-56.13868 l 111.03516,1.16895 15.05274,0.15821 17.0874,-5.40967 c 7.3329,-2.93621 16.34913,-7.31271 25.04443,-13.54981 v 0.75 17.91797 h 153.51414 l -22.79001,-60.87012 h -39.66211 l -0.36328,-45.73682 h -2.59277 l 17.71288,-40.25977 h -106.0195 l 0.0439,10.91015 c -0.3645,-0.21309 -0.7301,-0.42378 -1.0957,-0.62988 -14.8547,-8.3676 -31.2015,-10.57699 -36.69141,-10.71679 -1.2566,-0.0317 -2.13531,-0.0258 -2.6455,0.0117 -3.94391,0.2919 -26.61441,0.25836 -37.81642,0.22266 l -30.92138,-82.25537 -36.96533,94.93359 15.53759,40.46631 h -12.31201 c 0.22959,-2.49048 0.2653,-4.80295 0.2959,-6.86425 0.003,-0.216 0.007,-0.4173 0.0952,-1.4795 0.3608,-4.3342 0.0746,-17.6194 -6.46436,-29.06689 -4.4458,-7.7831 -11.44193,-14.80436 -22.35644,-18.46436 -0.89659,-0.30019 -1.85566,-0.58487 -2.87695,-0.85107 -1.19541,-0.3113 -2.15951,-0.53876 -2.87842,-0.67676 l -1.40625,-0.26953 -102.1172,-0.59326 3.15821,5.27637 c -18.1809,-0.4983 -35.64904,-0.46038 -44.54444,-0.39258 z m -0.30323,50.19286 60.68555,161.43019 -113.04053,-1.18945 17.45215,-57.11573 h 25.18506 l -7.13965,33.51563 34.50732,-0.39697 -35.10205,-91.42384 z m 243.73098,0.17139 60.68408,161.42872 -113.03907,-1.18945 17.45215,-57.11572 25.18506,10e-4 -7.13965,33.51417 34.50733,-0.39698 -35.10205,-91.42384 z m -139.41359,45.04395 68.41846,0.39697 c 1.2164,0.23361 2.36072,0.53442 3.43652,0.89502 16.29039,5.46229 16.96596,24.58619 16.59375,29.05079 -0.39648,4.7596 1.09056,14.17935 -7.13964,21.81445 -0.5249,0.48701 1.83489,0.82276 2.30859,1.13086 8.3336,5.4232 8.06043,22.43978 7.09863,29.60889 -3.75281,27.98449 -76.0415,93.01026 -76.0415,93.01026 l 0.59619,-139.81349 c 0,0 32.72239,1.18929 38.2749,0.79248 5.5525,-0.3966 6.14795,-1.58683 6.14795,-7.13965 0,-5.55309 -7.13965,-4.56152 -7.13965,-4.56152 h -37.48242 z m -62.8169,4.6626 c 9.71878,-4e-4 22.75973,0.0984 36.04688,0.49512 26.57419,0.7932 30.53971,18.83937 32.32471,21.41748 1.7847,2.5781 2.77375,21.71794 -9.91846,31.33594 -0.8373,0.63459 1.92235,0.69059 2.75977,1.13819 8.4129,4.49658 8.74072,15.32226 8.74072,15.32226 l 0.0395,48.86133 -30.03516,-11.67627 c 0,0 -0.14839,-22.11316 0.0498,-28.85596 0.19841,-6.7428 -0.99132,-6.34699 -2.57812,-9.91699 -1.5866,-3.56989 -7.93213,-2.57812 -7.93213,-2.57812 l -21.81592,-0.19776 -7.73437,-24.59034 c 0,0 23.8953,0.43279 28.2583,0.23438 4.3628,-0.1984 10.01697,0.0629 10.41357,-7.67139 0.39681,-7.73439 -10.3125,-7.83398 -10.3125,-7.83398 l -35.10205,-0.39697 -9.3208,-24.98731 c 0,0 6.39742,-0.0992 16.11621,-0.0996 z m 273.16555,0.0337 c 7.77503,0.0327 54.26776,7.03265 53.11524,52.37256 -0.9558,37.6124 -38.54505,53.19643 -53.26905,57.86573 -0.8989,0.2849 -1.69765,0.58795 -2.42725,0.73535 -0.1999,0.0405 -9.62985,-24.98218 -9.54785,-25.00489 0.4861,-0.1338 1.00956,-0.2724 1.56006,-0.4204 2.1702,-0.58389 4.75348,-1.27575 7.08838,-1.89405 2.3624,-0.62531 9.33838,-2.87759 9.66358,-3.04688 7.4613,-3.88539 19.60902,-11.19544 19.96142,-27.64013 0.5947,-27.7645 -29.15332,-26.37598 -29.15332,-26.37598 l 0.91113,-0.022 -32.84034,0.022 c -1.72119,-4.0878 -9.17098,-26.3679 -9.51708,-26.36865 -7.49031,-0.0323 39.11176,0.14442 43.82666,-0.20508 0.16733,-0.0124 0.37761,-0.0186 0.62842,-0.0176 z m -335.83596,0.33838 12.34424,25.25977 -49.97608,-0.39698 -0.39697,94.99366 L 174.126,487.72236 V 408.3952 l -39.9624,0.49659 c -1.00771,-0.0426 -1.92959,-0.0402 -2.7715,0.003 -14.7325,0.75801 -5.06103,13.97901 -5.06103,13.97901 0,0 21.81258,21.81534 24.58887,25.18653 2.7762,3.37101 18.04678,16.85617 9.71777,32.72167 -8.3293,15.8653 -26.9707,14.08155 -26.9707,14.08155 l -98.959,0.39551 18.24756,-25.78272 c 0,0 44.522338,-0.59422 64.35353,0.49658 19.83141,1.0907 7.23779,-11.4038 7.23779,-11.4038 0,0 -18.44391,-21.41818 -23.6001,-26.37598 -5.156312,-4.9578 -14.080085,-12.88969 -12.096685,-30.73829 1.9832,-17.8486 21.219735,-17.45215 21.219735,-17.45215 z m 392.3218,0.17432 h 60.48634 l -10.90723,24.78955 -49.4795,0.19775 z m 0.19775,40.2583 h 54.93311 l 0.19922,24.98877 -28.18652,-0.44677 0.0381,21.19482 h 73.35205 l 9.3457,24.96387 -109.68165,-10e-4 z m -481.6553,2.17822 v 0.93165 l -0.89502,-0.91993 z m 263.08595,17.7085 c -2.13811,-0.0389 -4.59701,0.10005 -7.41064,0.44092 l -0.69287,40.75488 c 0,0 40.17522,-40.61299 8.10351,-41.1958 z"
         id="path2-3"
         inkscape:connector-curvature="0" />
    </g>
  </g>
</svg>
