<?xml version="1.0" encoding="UTF-8" standalone="no"?>
<!-- Created with Inkscape (http://www.inkscape.org/) -->

<svg
   xmlns:dc="http://purl.org/dc/elements/1.1/"
   xmlns:cc="http://creativecommons.org/ns#"
   xmlns:rdf="http://www.w3.org/1999/02/22-rdf-syntax-ns#"
   xmlns:svg="http://www.w3.org/2000/svg"
   xmlns="http://www.w3.org/2000/svg"
   xmlns:sodipodi="http://sodipodi.sourceforge.net/DTD/sodipodi-0.dtd"
   xmlns:inkscape="http://www.inkscape.org/namespaces/inkscape"
   width="323.13339mm"
   height="85.983253mm"
   viewBox="0 0 323.13339 85.983253"
   version="1.1"
   id="svg8"
   inkscape:version="0.92.4 5da689c313, 2019-01-14"
   sodipodi:docname="tbs.svg">
  <defs
     id="defs2" />
  <sodipodi:namedview
     id="base"
     pagecolor="#ffffff"
     bordercolor="#666666"
     borderopacity="1.0"
     inkscape:pageopacity="0.0"
     inkscape:pageshadow="2"
     inkscape:zoom="0.7"
     inkscape:cx="209.58676"
     inkscape:cy="558.7914"
     inkscape:document-units="mm"
     inkscape:current-layer="layer1"
     showgrid="false"
     fit-margin-top="0"
     fit-margin-left="0"
     fit-margin-right="0"
     fit-margin-bottom="0"
     inkscape:window-width="2400"
     inkscape:window-height="1424"
     inkscape:window-x="0"
     inkscape:window-y="88"
     inkscape:window-maximized="1" />
  <metadata
     id="metadata5">
    <rdf:RDF>
      <cc:Work
         rdf:about="">
        <dc:format>image/svg+xml</dc:format>
        <dc:type
           rdf:resource="http://purl.org/dc/dcmitype/StillImage" />
        <dc:title></dc:title>
      </cc:Work>
    </rdf:RDF>
  </metadata>
  <g
     inkscape:label="Layer 1"
     inkscape:groupmode="layer"
     id="layer1"
     transform="translate(-273.44522,-192.6477)">
    <path
       style="fill:currentColor;stroke-width:2.15211654"
       d="m 280.48742,266.25627 c 3.87321,-6.80607 10.23674,-17.70116 14.14117,-24.21131 3.90444,-6.51016 7.10146,-12.56299 7.1045,-13.45073 0.003,-0.88775 -4.3525,-1.61409 -9.67899,-1.61409 -5.32649,0 -9.68452,-0.44988 -9.68452,-0.99973 0,-0.54984 4.41253,-8.26775 9.80562,-17.1509 l 9.80562,-16.15119 43.99729,0.10228 c 24.19852,0.0563 43.9973,0.48468 43.9973,0.95206 0,0.46739 -4.49855,8.13927 -9.99678,17.04864 -9.55131,15.47701 -10.35411,16.19884 -18.01606,16.19884 -7.95422,0 -8.14459,0.20955 -23.4616,25.8254 l -15.44232,25.8254 h -24.80672 -24.80671 z m 191.6195,-0.53803 7.09879,-12.9127 h 25.32863 c 15.45101,0 25.32865,-0.83928 25.32865,-2.15212 0,-1.18366 -2.7843,-2.15212 -6.18734,-2.15212 -11.60079,0 -19.78479,-2.71439 -26.17124,-8.68023 -13.99188,-13.07037 -5.09019,-34.25855 17.45143,-41.53868 8.50428,-2.74658 19.33651,-3.58399 46.35997,-3.58399 19.39455,0 35.26279,0.57499 35.26279,1.27777 0,0.70278 -3.1316,6.51349 -6.95914,12.9127 l -6.95915,11.63492 H 560.6929 c -24.9081,0 -31.16209,3.07581 -10.70779,5.26628 24.02653,2.57302 34.51429,12.86802 29.64967,29.10468 -5.73481,19.14114 -20.76683,23.62053 -79.50907,23.69291 l -35.11758,0.0433 z m -122.66304,8.7357 c 0.39455,-1.11369 10.88612,-19.95087 23.3146,-41.86041 l 22.59722,-39.83552 35.04102,-0.10586 c 37.37081,-0.11291 47.42744,1.88714 51.94648,10.33103 5.32677,9.95315 -0.43469,26.24793 -10.79848,30.54076 -6.07401,2.51594 -6.21491,2.86645 -3.07718,7.65524 1.80857,2.76021 3.28468,6.74744 3.28025,8.86049 -0.0129,6.17971 -7.98927,17.52139 -15.57513,22.14654 -6.46867,3.944 -10.91856,4.27715 -57.2301,4.28457 -30.45095,0.005 -49.93369,-0.78896 -49.49868,-2.01684 z m 74.94265,-29.1534 c 2.85122,-3.43552 1.55447,-9.71193 -2.00656,-9.71193 -1.19042,0 -3.66681,2.90535 -5.5031,6.45635 -3.14496,6.08167 -3.10101,6.45634 0.75727,6.45634 2.2528,0 5.29137,-1.44034 6.75239,-3.20076 z m 8.60846,-17.21694 c 1.46102,-1.76042 1.99188,-4.90789 1.17969,-6.99437 -1.33875,-3.43919 -1.86391,-3.31894 -5.62106,1.28707 -2.27939,2.79437 -4.14435,5.94184 -4.14435,6.99438 0,3.06156 5.68382,2.2095 8.58572,-1.28708 z"
       id="path159"
       inkscape:connector-curvature="0"
       sodipodi:nodetypes="sscsssccsssscccsccsssssssscsssscccscsssccscccscsccscsc" />
  </g>
</svg>
