<?xml version="1.0" encoding="UTF-8" standalone="no"?>
<svg
   xmlns:dc="http://purl.org/dc/elements/1.1/"
   xmlns:cc="http://creativecommons.org/ns#"
   xmlns:rdf="http://www.w3.org/1999/02/22-rdf-syntax-ns#"
   xmlns:svg="http://www.w3.org/2000/svg"
   xmlns="http://www.w3.org/2000/svg"
   xmlns:sodipodi="http://sodipodi.sourceforge.net/DTD/sodipodi-0.dtd"
   xmlns:inkscape="http://www.inkscape.org/namespaces/inkscape"
   inkscape:version="1.0rc1 (09960d6, 2020-04-09)"
   sodipodi:docname="uhlsport.svg"
   id="svg158"
   style="clip-rule:evenodd;fill-rule:evenodd;stroke-linejoin:round;stroke-miterlimit:1.41421"
   xml:space="preserve"
   version="1.1"
   viewBox="0 0 105.002 24.353001"
   height="24.353001"
   width="105.002"><metadata
     id="metadata164"><rdf:RDF><cc:Work
         rdf:about=""><dc:format>image/svg+xml</dc:format><dc:type
           rdf:resource="http://purl.org/dc/dcmitype/StillImage" /><dc:title></dc:title></cc:Work></rdf:RDF></metadata><defs
     id="defs162" /><sodipodi:namedview
     inkscape:current-layer="g156"
     inkscape:window-maximized="1"
     inkscape:window-y="0"
     inkscape:window-x="0"
     inkscape:cy="8.159012"
     inkscape:cx="45.167258"
     inkscape:zoom="5.7091118"
     fit-margin-bottom="0"
     fit-margin-right="0"
     fit-margin-left="0"
     fit-margin-top="0"
     showgrid="false"
     id="namedview160"
     inkscape:window-height="720"
     inkscape:window-width="1200"
     inkscape:pageshadow="2"
     inkscape:pageopacity="0"
     guidetolerance="10"
     gridtolerance="10"
     objecttolerance="10"
     borderopacity="1"
     bordercolor="#666666"
     pagecolor="#ffffff" /><g
     transform="translate(-7.026,-2.5669999)"
     id="g156"><path
       inkscape:connector-curvature="0"
       id="path140"
       style="fill:currentColor;fill-rule:nonzero"
       d="m 10.886,7.921 v 7.964 c 0,1.087 0.172,1.93 0.516,2.528 0.344,0.598 0.997,0.897 1.957,0.897 1.069,0 1.835,-0.317 2.297,-0.951 0.462,-0.635 0.693,-1.649 0.693,-3.045 V 7.921 h 3.86 v 14.052 h -3.67 v -1.957 h -0.081 c -0.961,1.559 -2.401,2.338 -4.322,2.338 -1.83,0 -3.139,-0.466 -3.927,-1.399 C 7.42,20.021 7.026,18.586 7.026,16.646 V 7.921 Z" /><path
       inkscape:connector-curvature="0"
       id="path142"
       style="fill:currentColor;fill-rule:nonzero"
       d="m 26.848,2.567 v 7.311 h 0.082 c 0.435,-0.724 1.023,-1.295 1.766,-1.712 0.743,-0.416 1.532,-0.625 2.365,-0.625 1.794,0 3.094,0.453 3.901,1.359 0.806,0.906 1.209,2.337 1.209,4.294 v 8.779 h -3.859 v -7.99 c 0,-1.142 -0.186,-1.993 -0.557,-2.555 -0.372,-0.562 -1.011,-0.843 -1.917,-0.843 -1.033,0 -1.789,0.313 -2.269,0.938 -0.48,0.625 -0.721,1.654 -0.721,3.085 v 7.365 h -3.86 V 2.567 Z" /><rect
       id="rect144"
       style="fill:currentColor;fill-rule:nonzero"
       height="19.406"
       width="3.8599999"
       y="2.5669999"
       x="38.951" /><path
       inkscape:connector-curvature="0"
       id="path146"
       style="fill:currentColor;fill-rule:nonzero"
       d="m 51.362,7.541 c 1.884,0 3.356,0.38 4.417,1.142 1.06,0.76 1.653,1.875 1.78,3.342 h -3.67 c -0.054,-0.67 -0.298,-1.154 -0.734,-1.453 -0.435,-0.3 -1.069,-0.449 -1.902,-0.449 -0.725,0 -1.264,0.108 -1.618,0.326 -0.353,0.218 -0.529,0.544 -0.529,0.979 0,0.326 0.117,0.597 0.353,0.815 0.236,0.217 0.593,0.408 1.073,0.571 0.48,0.163 1.011,0.299 1.591,0.407 1.757,0.345 2.998,0.698 3.723,1.061 0.725,0.362 1.255,0.797 1.59,1.304 0.336,0.508 0.503,1.133 0.503,1.875 0,1.578 -0.575,2.787 -1.726,3.629 -1.151,0.843 -2.713,1.264 -4.688,1.264 -2.066,0 -3.674,-0.443 -4.825,-1.332 -1.15,-0.888 -1.744,-2.093 -1.78,-3.614 h 3.67 c 0,0.724 0.28,1.3 0.842,1.725 0.561,0.426 1.268,0.639 2.12,0.639 0.725,0 1.327,-0.158 1.807,-0.476 0.48,-0.317 0.721,-0.756 0.721,-1.318 0,-0.362 -0.15,-0.661 -0.449,-0.896 -0.299,-0.236 -0.72,-0.445 -1.264,-0.626 -0.543,-0.181 -1.386,-0.39 -2.527,-0.625 -0.907,-0.181 -1.713,-0.426 -2.419,-0.734 -0.707,-0.308 -1.246,-0.711 -1.618,-1.209 -0.371,-0.499 -0.557,-1.11 -0.557,-1.835 0,-0.924 0.222,-1.73 0.666,-2.419 0.444,-0.689 1.123,-1.21 2.038,-1.563 0.915,-0.353 2.053,-0.53 3.412,-0.53 z" /><path
       inkscape:connector-curvature="0"
       id="path148"
       style="fill:currentColor;fill-rule:nonzero"
       d="m 63.753,14.988 c 0,1.378 0.289,2.465 0.869,3.261 0.58,0.798 1.414,1.197 2.501,1.197 1.123,0 1.961,-0.399 2.514,-1.197 0.553,-0.796 0.829,-1.883 0.829,-3.261 0,-1.413 -0.299,-2.523 -0.896,-3.329 -0.599,-0.806 -1.432,-1.21 -2.501,-1.21 -1.07,0 -1.889,0.399 -2.46,1.196 -0.571,0.797 -0.856,1.912 -0.856,3.343 z m 4.186,-7.447 c 1.938,0 3.487,0.679 4.647,2.038 1.159,1.359 1.739,3.199 1.739,5.518 0,2.12 -0.556,3.86 -1.671,5.218 -1.114,1.359 -2.614,2.039 -4.499,2.039 -1.847,0 -3.251,-0.707 -4.212,-2.12 h -0.054 v 6.686 h -3.86 V 7.921 h 3.669 v 1.794 h 0.055 c 0.924,-1.449 2.318,-2.174 4.186,-2.174 z" /><path
       inkscape:connector-curvature="0"
       id="path150"
       style="fill:currentColor;fill-rule:nonzero"
       d="m 79.696,14.961 c 0,1.432 0.29,2.538 0.87,3.316 0.58,0.779 1.422,1.169 2.528,1.169 1.142,0 1.998,-0.399 2.568,-1.197 0.572,-0.796 0.857,-1.893 0.857,-3.288 0,-1.449 -0.295,-2.564 -0.884,-3.343 -0.589,-0.779 -1.445,-1.169 -2.568,-1.169 -1.087,0 -1.921,0.39 -2.501,1.169 -0.58,0.779 -0.87,1.894 -0.87,3.343 z m 3.398,-7.42 c 2.246,0 4.022,0.684 5.327,2.052 1.305,1.368 1.957,3.157 1.957,5.368 0,2.229 -0.666,4.018 -1.998,5.369 -1.332,1.349 -3.094,2.024 -5.286,2.024 -2.23,0 -3.996,-0.684 -5.301,-2.052 -1.304,-1.368 -1.956,-3.148 -1.956,-5.341 0,-2.265 0.666,-4.067 1.997,-5.409 1.332,-1.341 3.085,-2.011 5.26,-2.011 z" /><path
       inkscape:connector-curvature="0"
       id="path152"
       style="fill:currentColor;fill-rule:nonzero"
       d="m 100.772,7.541 c 0.326,0 0.607,0.045 0.843,0.136 v 3.588 c -0.418,-0.091 -0.88,-0.136 -1.387,-0.136 -2.537,0 -3.806,1.504 -3.806,4.512 v 6.332 H 92.563 V 7.921 h 3.67 v 2.61 h 0.053 C 96.667,9.625 97.27,8.9 98.094,8.356 98.919,7.813 99.811,7.541 100.772,7.541 Z" /><path
       inkscape:connector-curvature="0"
       id="path154"
       style="fill:currentColor;fill-rule:nonzero"
       d="m 109.202,3.708 v 4.213 h 2.826 v 2.582 h -2.826 v 6.958 c 0,0.653 0.108,1.088 0.326,1.305 0.217,0.218 0.652,0.326 1.305,0.326 0.47,0 0.869,-0.036 1.195,-0.108 V 22 c -0.543,0.091 -1.305,0.136 -2.283,0.136 -1.486,0 -2.591,-0.253 -3.316,-0.761 -0.725,-0.506 -1.087,-1.385 -1.087,-2.636 v -8.236 h -2.337 V 7.921 h 2.337 V 3.708 Z" /></g></svg>
