<?xml version="1.0" encoding="UTF-8" standalone="no"?>
<svg
   xmlns:dc="http://purl.org/dc/elements/1.1/"
   xmlns:cc="http://creativecommons.org/ns#"
   xmlns:rdf="http://www.w3.org/1999/02/22-rdf-syntax-ns#"
   xmlns:svg="http://www.w3.org/2000/svg"
   xmlns="http://www.w3.org/2000/svg"
   xmlns:sodipodi="http://sodipodi.sourceforge.net/DTD/sodipodi-0.dtd"
   xmlns:inkscape="http://www.inkscape.org/namespaces/inkscape"
   width="2484.7185"
   height="1463.7616"
   viewBox="0 0 238.53298 140.55"
   version="1.1"
   id="svg6"
   sodipodi:docname="under-armour.svg"
   inkscape:version="0.92.4 5da689c313, 2019-01-14">
  <metadata
     id="metadata12">
    <rdf:RDF>
      <cc:Work
         rdf:about="">
        <dc:format>image/svg+xml</dc:format>
        <dc:type
           rdf:resource="http://purl.org/dc/dcmitype/StillImage" />
        <dc:title></dc:title>
      </cc:Work>
    </rdf:RDF>
  </metadata>
  <defs
     id="defs10" />
  <sodipodi:namedview
     pagecolor="#ffffff"
     bordercolor="#666666"
     borderopacity="1"
     objecttolerance="10"
     gridtolerance="10"
     guidetolerance="10"
     inkscape:pageopacity="0"
     inkscape:pageshadow="2"
     inkscape:window-width="2400"
     inkscape:window-height="1424"
     id="namedview8"
     showgrid="false"
     fit-margin-top="0"
     fit-margin-left="0"
     fit-margin-right="0"
     fit-margin-bottom="0"
     inkscape:zoom="0.25173333"
     inkscape:cx="938.71744"
     inkscape:cy="-169.55991"
     inkscape:window-x="0"
     inkscape:window-y="88"
     inkscape:window-maximized="1"
     inkscape:current-layer="svg6" />
  <path
     d="m 238.52833,22.362 c 0,0 -6.882,-5.327 -29.168,-13.512 C 189.80533,1.653 174.86833,0 174.86833,0 l 0.074,42.679 c 0,18.039 -20.385,37.194 -55.199,37.194 h -0.996 C 83.937333,79.873 63.559333,60.718 63.559333,42.679 L 63.627333,0 c 0,0 -14.923,1.652 -34.486,8.85 C 6.8563333,17.035 -0.02466667,22.362 -0.02466667,22.362 1.6273333,56.591 54.801333,84.792 119.23833,84.807 h 0.015 c 64.441,-0.015 117.628,-28.216 119.275,-62.445"
     id="path2"
     inkscape:connector-curvature="0" />
  <path
     d="m 238.55733,118.203 c 0,0 -6.881,5.312 -29.167,13.504 -19.569,7.198 -34.493,8.843 -34.493,8.843 l 0.075,-42.672 c 0,-18.035 -20.386,-37.183 -55.199,-37.183 l -0.49,-0.015 h -0.015 l -0.483,0.015 c -34.816997,0 -55.194997,19.148 -55.194997,37.183 l 0.076,42.672 c 0,0 -14.931,-1.645 -34.493,-8.843 C 6.8943333,123.515 -6.6666667e-4,118.203 -6.6666667e-4,118.203 1.6513333,83.977 54.839333,55.776 119.28433,55.754 c 64.44,0.022 117.629,28.223 119.273,62.449"
     id="path4"
     inkscape:connector-curvature="0"
     sodipodi:nodetypes="cccccccccccccc" />
</svg>
