<?xml version="1.0" encoding="UTF-8" standalone="no"?>
<svg
   xmlns:dc="http://purl.org/dc/elements/1.1/"
   xmlns:cc="http://creativecommons.org/ns#"
   xmlns:rdf="http://www.w3.org/1999/02/22-rdf-syntax-ns#"
   xmlns:svg="http://www.w3.org/2000/svg"
   xmlns="http://www.w3.org/2000/svg"
   xmlns:sodipodi="http://sodipodi.sourceforge.net/DTD/sodipodi-0.dtd"
   xmlns:inkscape="http://www.inkscape.org/namespaces/inkscape"
   inkscape:version="1.0rc1 (09960d6, 2020-04-09)"
   sodipodi:docname="yonex.svg"
   id="svg9904"
   viewBox="-1.64445 -1.64445 62.4725 33.233808"
   height="163.01204"
   width="306.38016"
   version="1.1">
  <metadata
     id="metadata80">
    <rdf:RDF>
      <cc:Work
         rdf:about="">
        <dc:format>image/svg+xml</dc:format>
        <dc:type
           rdf:resource="http://purl.org/dc/dcmitype/StillImage" />
        <dc:title></dc:title>
      </cc:Work>
    </rdf:RDF>
  </metadata>
  <sodipodi:namedview
     inkscape:current-layer="svg9904"
     inkscape:window-maximized="1"
     inkscape:window-y="0"
     inkscape:window-x="0"
     inkscape:cy="-90.479803"
     inkscape:cx="380.87446"
     inkscape:zoom="0.35368636"
     fit-margin-bottom="0"
     fit-margin-right="0"
     fit-margin-left="0"
     fit-margin-top="0"
     showgrid="false"
     id="namedview78"
     inkscape:window-height="720"
     inkscape:window-width="1200"
     inkscape:pageshadow="2"
     inkscape:pageopacity="0"
     guidetolerance="10"
     gridtolerance="10"
     objecttolerance="10"
     borderopacity="1"
     bordercolor="#666666"
     pagecolor="#ffffff" />
  <defs
     id="defs9906" />
  <path
     inkscape:connector-curvature="0"
     style="fill:currentColor;fill-opacity:1;fill-rule:nonzero;stroke:none"
     id="path4064"
     d="m 35.24405,31.590012 c 5.215,0 9.483,-4.244 9.483,-9.503 0,-5.239 -4.268,-9.482 -9.483,-9.482 -5.2585,0 -9.4773,4.243 -9.4773,9.482 0,5.259 4.2188,9.503 9.4773,9.503" />
  <path
     inkscape:connector-curvature="0"
     style="fill:currentColor;fill-opacity:1;fill-rule:nonzero;stroke:none"
     id="path4066"
     d="m 60.82805,-1.6489875 h -27.424 c 8.179,4.735 13.714,13.6009995 13.714,23.7389995 l 13.71,-23.7369995 z" />
  <path
     inkscape:connector-curvature="0"
     style="fill:currentColor;fill-opacity:1;fill-rule:nonzero;stroke:none"
     id="path4068"
     d="M 33.40705,-1.6489875 H 5.98425 c 8.2225,4.735 13.7113,13.6009995 13.7113,23.7389995 l 13.7115,-23.7369995 z" />
  <path
     inkscape:connector-curvature="0"
     style="fill:currentColor;fill-opacity:1;fill-rule:nonzero;stroke:none"
     id="path4070"
     d="m 7.83305,31.590012 c 5.2637,0 9.48,-4.244 9.48,-9.503 0,-5.239 -4.2163,-9.482 -9.48,-9.482 -5.2513,0 -9.4775,4.243 -9.4775,9.482 0,5.259 4.2262,9.503 9.4775,9.503" />
</svg>
