<?xml version="1.0" encoding="UTF-8" standalone="no"?>
<!-- Created with Inkscape (http://www.inkscape.org/) -->

<svg
   xmlns:dc="http://purl.org/dc/elements/1.1/"
   xmlns:cc="http://creativecommons.org/ns#"
   xmlns:rdf="http://www.w3.org/1999/02/22-rdf-syntax-ns#"
   xmlns:svg="http://www.w3.org/2000/svg"
   xmlns="http://www.w3.org/2000/svg"
   xmlns:sodipodi="http://sodipodi.sourceforge.net/DTD/sodipodi-0.dtd"
   xmlns:inkscape="http://www.inkscape.org/namespaces/inkscape"
   width="190.54944mm"
   height="45.302395mm"
   viewBox="0 0 190.54944 45.302395"
   version="1.1"
   id="svg8"
   inkscape:version="0.92.4 (5da689c313, 2019-01-14)"
   sodipodi:docname="zeus.svg">
  <defs
     id="defs2" />
  <sodipodi:namedview
     id="base"
     borderopacity="1.0"
     inkscape:pageopacity="0.0"
     inkscape:pageshadow="2"
     inkscape:zoom="0.7"
     inkscape:cx="-68.467916"
     inkscape:cy="110.10778"
     inkscape:document-units="mm"
     inkscape:current-layer="layer1"
     showgrid="false"
     inkscape:window-width="2400"
     inkscape:window-height="1440"
     inkscape:window-x="0"
     inkscape:window-y="80"
     inkscape:window-maximized="1"
     fit-margin-top="0"
     fit-margin-left="0"
     fit-margin-right="0"
     fit-margin-bottom="0" />
  <metadata
     id="metadata5">
    <rdf:RDF>
      <cc:Work
         rdf:about="">
        <dc:format>image/svg+xml</dc:format>
        <dc:type
           rdf:resource="http://purl.org/dc/dcmitype/StillImage" />
        <dc:title></dc:title>
      </cc:Work>
    </rdf:RDF>
  </metadata>
  <g
     inkscape:label="Layer 1"
     inkscape:groupmode="layer"
     id="layer1"
     transform="translate(2.1263527,-6.7234574)">
    <path
       style="fill:currentColor;stroke-width:1.05778456"
       d="M 65.04296,51.385556 C 51.55395,47.87597 48.903236,36.113119 59.363457,26.182131 c 7.151589,-6.789748 20.188884,-10.2288 29.382353,-7.750644 4.809234,1.296353 10.67515,6.119482 10.67515,8.777405 0,0.88902 -4.885125,3.775155 -11.900074,7.030553 -9.570644,4.441421 -11.071845,5.415283 -7.668941,4.975079 2.327123,-0.301044 5.200232,-0.839022 6.384647,-1.195513 1.716459,-0.516614 2.521512,0.123536 3.966702,3.154111 0.997252,2.091253 1.813189,4.48169 1.813189,5.312083 0,3.149796 -19.844932,6.755077 -26.973523,4.900351 z M 76.85533,30.961123 c 4.190895,-1.89113 4.687948,-2.380353 2.758149,-2.714626 -2.725945,-0.472183 -7.868697,1.766426 -8.49828,3.699265 -0.574292,1.762956 -0.210491,1.700531 5.740131,-0.984639 z m 29.97011,20.651838 c -6.3642,-2.561799 -6.58282,-6.320304 -1.25158,-21.518322 l 3.89606,-11.106737 8.8571,-0.309332 c 8.16221,-0.285062 8.79608,-0.160566 8.0791,1.586675 -2.05517,5.008205 -5.90964,18.564107 -5.41822,19.055507 1.6707,1.670703 3.91558,-1.584012 6.49328,-9.414277 1.59388,-4.841654 3.36869,-9.398008 3.94403,-10.125236 0.67543,-0.853684 3.9458,-1.32223 9.22897,-1.32223 h 8.18288 l -5.42878,15.80392 c -2.98585,8.692156 -5.65539,16.004114 -5.93239,16.248796 -0.27705,0.244673 -4.0124,0.757662 -8.30095,1.139955 -7.40499,0.660098 -7.7699,0.590105 -7.25186,-1.39094 0.50392,-1.926959 0.36734,-1.969261 -1.79139,-0.554805 -2.60891,1.709428 -10.85955,2.891895 -13.30625,1.907026 z m 43.10473,0.02309 c -2.2563,-0.659202 -2.26413,-0.912346 -0.21439,-6.928055 l 1.63676,-4.803642 7.3544,0.526203 c 5.08776,0.364032 7.35441,0.156398 7.35441,-0.673706 0,-0.659954 -0.73297,-1.199917 -1.62882,-1.199917 -0.89584,0 -3.51387,-0.961679 -5.81782,-2.137066 -5.5616,-2.837329 -5.8043,-7.037009 -0.70154,-12.139771 4.3054,-4.305402 9.46177,-5.80753 19.96175,-5.815167 11.50557,-0.0084 11.58488,0.04594 9.51667,6.513403 l -1.70333,5.326397 -4.91858,-0.652473 c -8.03143,-1.065407 -9.42627,0.369786 -2.88802,2.971548 6.45344,2.568008 7.58829,5.235805 4.59314,10.797457 -3.11337,5.781236 -9.09716,8.250956 -20.64459,8.520798 -5.52691,0.129143 -10.88195,-0.0087 -11.90007,-0.306003 z M 17.707125,50.445852 C 6.7987257,50.280878 -2.1263527,49.745856 -2.1263527,49.256933 c 0,-0.48892 5.994849,-7.142458 13.3218767,-14.785642 L 24.517431,20.574597 h -6.97519 c -3.852851,0 -6.975161,-0.464309 -6.975161,-1.037245 0,-0.570484 1.695021,-3.686991 3.766706,-6.925568 l 3.766705,-5.8883266 18.975652,0.1744195 c 11.699929,0.1075542 18.975653,0.5759471 18.975653,1.221623 0,0.5759592 -5.785288,7.0650001 -12.856189,14.4200831 L 30.33945,35.912469 37.642249,36.2005 c 4.016536,0.158407 7.90066,0.501573 8.631351,0.762564 1.456524,0.520242 -5.882077,13.541873 -7.719284,13.697099 -0.557561,0.04711 -9.938792,-0.04932 -20.847191,-0.214329 z"
       id="path880"
       inkscape:connector-curvature="0"
       sodipodi:nodetypes="sscsccccsscccccccsccccscccscscccccsssccccsscccccsccssscssccccccc" />
  </g>
</svg>
