<?xml version="1.0" encoding="UTF-8" standalone="no"?>
<svg
   xmlns:dc="http://purl.org/dc/elements/1.1/"
   xmlns:cc="http://creativecommons.org/ns#"
   xmlns:rdf="http://www.w3.org/1999/02/22-rdf-syntax-ns#"
   xmlns:svg="http://www.w3.org/2000/svg"
   xmlns="http://www.w3.org/2000/svg"
   xmlns:sodipodi="http://sodipodi.sourceforge.net/DTD/sodipodi-0.dtd"
   xmlns:inkscape="http://www.inkscape.org/namespaces/inkscape"
   inkscape:version="1.0rc1 (09960d6, 2020-04-09)"
   sodipodi:docname="zina.svg"
   viewBox="0 0 189.49368 74.457916"
   id="svg45"
   height="74.457916"
   width="189.49368"
   version="1.1">
  <metadata
     id="metadata51">
    <rdf:RDF>
      <cc:Work
         rdf:about="">
        <dc:format>image/svg+xml</dc:format>
        <dc:type
           rdf:resource="http://purl.org/dc/dcmitype/StillImage" />
        <dc:title></dc:title>
      </cc:Work>
    </rdf:RDF>
  </metadata>
  <defs
     id="defs49" />
  <sodipodi:namedview
     inkscape:current-layer="Layer1002"
     inkscape:window-maximized="1"
     inkscape:window-y="0"
     inkscape:window-x="0"
     inkscape:cy="204.07375"
     inkscape:cx="260.53146"
     inkscape:zoom="0.5404508"
     fit-margin-bottom="0"
     fit-margin-right="0"
     fit-margin-left="0"
     fit-margin-top="0"
     showgrid="false"
     id="namedview47"
     inkscape:window-height="720"
     inkscape:window-width="1200"
     inkscape:pageshadow="2"
     inkscape:pageopacity="0"
     guidetolerance="10"
     gridtolerance="10"
     objecttolerance="10"
     borderopacity="1"
     bordercolor="#666666"
     pagecolor="#ffffff" />
  <g
     transform="translate(-37.106327,-216.87113)"
     id="Layer1000">
    <g
       id="Layer1001">
      <path
         inkscape:connector-curvature="0"
         id="path34"
         style="fill:transparent;fill-rule:evenodd"
         d="m 440.7715,245.1691 v -3.3571 l -0.0144,-0.2971 -0.0434,-0.288 -0.0723,-0.2783 -0.1009,-0.2693 -0.1301,-0.2594 -0.1585,-0.2503 -0.1879,-0.2409 -0.216,-0.2316 -0.2458,-0.2217 -0.2738,-0.2123 -0.3027,-0.203 -0.3317,-0.1939 -0.3606,-0.1839 -0.3894,-0.1749 -0.4184,-0.1656 -0.4465,-0.1562 -0.3314,-0.1133 -0.3325,-0.1063 -0.335,-0.099 -0.3368,-0.0921 -0.3393,-0.0839 -0.3404,-0.0771 -0.3433,-0.0697 -0.3447,-0.0627 -0.3475,-0.0547 -0.349,-0.0476 -0.3517,-0.0403 -0.3529,-0.0334 -0.3555,-0.0255 -0.3572,-0.0187 -0.3597,-0.0111 -0.3611,-0.004 h -40.4796 l -0.4278,-0.003 -0.4257,-0.009 -0.4235,-0.0155 -0.4213,-0.0224 -0.4195,-0.0281 -0.4172,-0.0346 -0.415,-0.0408 -0.413,-0.0476 -0.4114,-0.053 -0.409,-0.0601 -0.4068,-0.0658 -0.4045,-0.0728 -0.4031,-0.0783 -0.4005,-0.085 -0.3985,-0.0913 -0.3963,-0.0981 -0.559,-0.1559 -0.523,-0.1667 -0.4867,-0.1774 -0.4504,-0.1879 -0.415,-0.1982 -0.3785,-0.2086 -0.3427,-0.2194 -0.3061,-0.2302 -0.2707,-0.2398 -0.2344,-0.2509 -0.1982,-0.261 -0.1618,-0.2722 -0.1265,-0.282 -0.0901,-0.2928 -0.0539,-0.3033 -0.0178,-0.3141 0.0173,-0.313 0.0524,-0.3033 0.0873,-0.2925 0.1228,-0.2823 0.1573,-0.2713 0.1927,-0.2616 0.2274,-0.2503 0.263,-0.2407 0.2974,-0.2293 0.3328,-0.2194 0.3676,-0.2087 0.4031,-0.1987 0.4374,-0.1873 0.4731,-0.1778 0.508,-0.1666 0.5431,-0.1568 0.3801,-0.1134 0.3841,-0.1063 0.3864,-0.0989 0.3903,-0.0921 0.3926,-0.0842 0.3963,-0.0774 0.3988,-0.0697 0.4028,-0.0627 0.4048,-0.0547 0.4088,-0.0476 0.4116,-0.0403 0.4149,-0.0334 0.4176,-0.0255 0.4209,-0.0187 0.4238,-0.0111 0.4275,-0.004 h 50.5012 l 0.5924,0.003 0.5913,0.009 0.5902,0.015 0.5887,0.021 0.5874,0.0275 0.5862,0.0329 0.5851,0.0394 0.5839,0.0448 0.5822,0.0516 0.5811,0.0572 0.5797,0.0635 0.5786,0.0692 0.5771,0.0757 0.576,0.0813 0.5749,0.0873 0.5737,0.0933 0.5718,0.0998 0.5706,0.1057 0.5694,0.1117 0.5684,0.1173 0.5669,0.1239 0.5658,0.1296 0.5644,0.1357 0.5632,0.1415 0.5616,0.1482 0.5604,0.1537 0.5593,0.1601 0.5581,0.1656 0.5567,0.172 0.5556,0.1781 0.5542,0.1839 0.553,0.1897 0.7379,0.2641 0.7146,0.2713 0.6914,0.2787 0.6681,0.2857 0.6443,0.2937 0.6211,0.3004 0.5978,0.3079 0.5743,0.3149 0.5502,0.3229 0.5273,0.3299 0.504,0.3374 0.4804,0.3444 0.4567,0.3523 0.4337,0.3592 0.4105,0.3665 0.3869,0.3736 0.3628,0.3818 0.3396,0.3886 0.3164,0.3963 0.2931,0.4031 0.2693,0.411 0.246,0.4179 0.2228,0.4257 0.1996,0.4323 0.1754,0.4405 0.1522,0.4473 0.129,0.455 0.1058,0.4617 0.0816,0.4697 0.0587,0.4766 0.0354,0.4841 0.0119,0.491 v 29.0049 l -0.0244,0.4635 -0.0725,0.4496 -0.1214,0.4362 -0.1692,0.4218 -0.2183,0.409 -0.2658,0.3946 -0.315,0.3816 -0.3628,0.3673 -0.4119,0.3547 -0.4598,0.3401 -0.5085,0.3268 -0.5564,0.313 -0.6052,0.2996 -0.6534,0.2857 -0.7022,0.2722 -0.75,0.2585 -0.2809,0.0915 -0.2809,0.0879 -0.2815,0.0851 -0.2818,0.0819 -0.2829,0.0796 -0.2832,0.0766 -0.2837,0.0737 -0.2835,0.07 -0.2849,0.068 -0.2851,0.0649 -0.2857,0.0621 -0.2858,0.0587 -0.2871,0.0567 -0.2869,0.053 -0.2877,0.0507 -0.2877,0.0471 -0.2892,0.0451 -0.2891,0.0416 -0.29,0.0391 -0.29,0.0358 -0.2914,0.0337 -0.2911,0.03 -0.2917,0.0275 -0.2919,0.0241 -0.2931,0.0221 -0.2934,0.0187 -0.294,0.0159 -0.2939,0.0125 -0.2951,0.0105 -0.2954,0.007 -0.2959,0.004 -0.296,10e-4 -0.2968,-10e-4 -0.2959,-0.004 -0.2954,-0.007 -0.2948,-0.0105 -0.2945,-0.0125 -0.2937,-0.0159 -0.2933,-0.0187 -0.2926,-0.0221 -0.2925,-0.0241 -0.2917,-0.0275 -0.2917,-0.03 -0.2905,-0.0337 -0.2903,-0.0358 -0.2897,-0.0391 -0.2891,-0.0416 -0.2883,-0.0451 -0.2886,-0.0471 -0.2874,-0.0507 -0.2874,-0.053 -0.2866,-0.0567 -0.2863,-0.0587 -0.2855,-0.0621 -0.2851,-0.0649 -0.2844,-0.068 -0.2843,-0.07 -0.2834,-0.0737 -0.2832,-0.0766 -0.2823,-0.0796 -0.2821,-0.0819 -0.2812,-0.0851 -0.2809,-0.0879 -0.2804,-0.0915 -0.7509,-0.2424 -0.7021,-0.2585 -0.6537,-0.2744 -0.6049,-0.2903 -0.557,-0.3055 -0.5082,-0.3218 -0.4598,-0.3373 -0.4113,-0.3532 -0.3634,-0.3685 -0.3147,-0.3844 -0.2664,-0.4002 -0.2174,-0.4161 -0.1696,-0.4318 -0.121,-0.4475 -0.0726,-0.4632 -0.0238,-0.4791 v -13.2942 l -0.0144,-0.2812 -0.0434,-0.2744 -0.0723,-0.2667 -0.1009,-0.26 -0.1301,-0.252 -0.1585,-0.2449 -0.1879,-0.2375 -0.216,-0.2308 -0.2458,-0.2225 -0.2738,-0.2157 -0.3027,-0.2083 -0.3317,-0.2013 -0.3606,-0.1933 -0.3894,-0.1863 -0.4184,-0.1788 -0.4465,-0.1721 -0.3314,-0.1134 -0.3325,-0.1063 -0.335,-0.0989 -0.3368,-0.0921 -0.3393,-0.0839 -0.3404,-0.0771 -0.3433,-0.0698 -0.3447,-0.0626 -0.3475,-0.0547 -0.349,-0.0476 -0.3517,-0.0403 -0.3529,-0.0334 -0.3555,-0.0256 -0.3572,-0.0187 -0.3597,-0.011 -0.3611,-0.004 h -22.8113 l -0.362,0.004 -0.3597,0.011 -0.3574,0.0187 -0.3552,0.0256 -0.3538,0.0334 -0.3512,0.0403 -0.3489,0.0476 -0.347,0.0547 -0.3452,0.0626 -0.3433,0.0698 -0.341,0.0771 -0.3385,0.0839 -0.337,0.0921 -0.3348,0.0989 -0.3325,0.1063 -0.3305,0.1134 -0.4473,0.1721 -0.4184,0.1788 -0.3895,0.1863 -0.3603,0.1933 -0.3322,0.2013 -0.3027,0.2083 -0.2739,0.2157 -0.2449,0.2225 -0.2168,0.2308 -0.1871,0.2375 -0.159,0.2449 -0.1293,0.252 -0.1012,0.26 -0.072,0.2667 -0.0434,0.2744 -0.0139,0.2812 v 6.3116 l 0.0139,0.2818 0.0434,0.2744 0.072,0.267 0.1012,0.2594 0.1293,0.2526 0.159,0.2449 0.1871,0.2375 0.2168,0.2302 0.2449,0.2231 0.2739,0.2157 0.3027,0.2083 0.3322,0.2007 0.3603,0.1939 0.3895,0.186 0.4184,0.1788 0.4473,0.1712 0.3305,0.1143 0.3325,0.1063 0.3348,0.0995 0.337,0.0915 0.3385,0.0845 0.341,0.0771 0.3433,0.0697 0.3452,0.0621 0.347,0.0553 0.3489,0.0476 0.3512,0.0403 0.3538,0.0329 0.3552,0.0257 0.3574,0.0185 0.3597,0.011 0.362,0.003 h 11.2076 l 0.4122,0.004 0.4136,0.0111 0.4144,0.0187 0.4158,0.0255 0.4165,0.0334 0.4181,0.0403 0.4186,0.0476 0.4201,0.0547 0.4204,0.0629 0.4221,0.0698 0.4226,0.0774 0.4241,0.0841 0.4246,0.0922 0.4264,0.0989 0.4271,0.1063 0.4284,0.1134 0.5584,0.1729 0.523,0.1823 0.4864,0.1916 0.451,0.2004 0.4141,0.2106 0.379,0.2197 0.3422,0.2293 0.307,0.2384 0.2698,0.2486 0.2347,0.2574 0.1982,0.2667 0.1624,0.2761 0.1259,0.286 0.0907,0.2954 0.0538,0.3047 0.0184,0.3138 -0.0184,0.2988 -0.0538,0.2914 -0.0907,0.284 -0.1259,0.2761 -0.1624,0.2693 -0.1982,0.2617 -0.2347,0.2545 -0.2698,0.2469 -0.307,0.2401 -0.3422,0.2322 -0.379,0.225 -0.4141,0.2175 -0.451,0.2103 -0.4864,0.2029 -0.523,0.1956 -0.5584,0.188 -0.4284,0.1142 -0.4271,0.1063 -0.4264,0.0995 -0.4246,0.0916 -0.4241,0.0847 -0.4226,0.0771 -0.4221,0.0698 -0.4204,0.062 -0.4201,0.0553 -0.4186,0.0476 -0.4181,0.0403 -0.4165,0.0329 -0.4158,0.0258 -0.4144,0.0181 -0.4136,0.0111 -0.4122,0.003 h -20.9647 l -0.5933,-0.003 -0.5913,-0.009 -0.5902,-0.0148 -0.5885,-0.0212 -0.5881,-0.0267 -0.5862,-0.0334 -0.5851,-0.0389 -0.5834,-0.0456 -0.5828,-0.0508 -0.5808,-0.0575 -0.58,-0.0632 -0.5782,-0.0695 -0.5775,-0.0751 -0.5757,-0.0819 -0.5748,-0.0873 -0.5732,-0.0938 -0.5723,-0.099 -0.5706,-0.1057 -0.5698,-0.1111 -0.5681,-0.1179 -0.5672,-0.1236 -0.5655,-0.1299 -0.5647,-0.1354 -0.5626,-0.1423 -0.5621,-0.1474 -0.5604,-0.154 -0.5596,-0.1596 -0.5573,-0.1661 -0.557,-0.1718 -0.5553,-0.1782 -0.5542,-0.184 -0.5522,-0.1902 -0.7387,-0.2634 -0.7146,-0.2712 -0.6917,-0.2787 -0.6675,-0.286 -0.6449,-0.2931 -0.6208,-0.3005 -0.5978,-0.3078 -0.574,-0.3155 -0.5511,-0.3223 -0.5272,-0.33 -0.5043,-0.3373 -0.4799,-0.3447 -0.4572,-0.3518 -0.4332,-0.3594 -0.4104,-0.3665 -0.3861,-0.3745 -0.3637,-0.3809 -0.3396,-0.3887 -0.3166,-0.396 -0.2925,-0.4036 -0.2699,-0.4105 -0.2458,-0.4184 -0.2228,-0.4252 -0.199,-0.4331 -0.176,-0.4399 -0.1522,-0.4476 -0.1293,-0.4547 -0.1049,-0.4623 -0.0822,-0.4692 -0.0581,-0.477 -0.0354,-0.4842 -0.0113,-0.4918 v -4.028 l 0.0113,-0.4831 0.0354,-0.4762 0.0581,-0.4694 0.0822,-0.4635 0.1049,-0.4558 0.1293,-0.4496 0.1522,-0.4422 0.176,-0.4362 0.199,-0.4286 0.2228,-0.4218 0.2458,-0.415 0.2699,-0.409 0.2925,-0.4014 0.3166,-0.3946 0.3396,-0.3878 0.3637,-0.3818 0.3861,-0.3742 0.4104,-0.3674 0.4332,-0.3605 0.4572,-0.3538 0.4799,-0.347 0.5043,-0.3401 0.5272,-0.3334 0.5511,-0.3268 0.574,-0.3192 0.5978,-0.3129 0.6208,-0.3062 0.6449,-0.2993 0.6675,-0.2923 0.6917,-0.2857 0.7146,-0.2789 0.7387,-0.2721 0.5522,-0.1815 0.5542,-0.176 0.5553,-0.1698 0.557,-0.1647 0.5573,-0.1584 0.5596,-0.1531 0.5604,-0.1468 0.5621,-0.1418 0.5626,-0.1352 0.5647,-0.1298 0.5655,-0.1239 0.5672,-0.1188 0.5681,-0.1122 0.5698,-0.1069 0.5706,-0.1009 0.5723,-0.0955 0.5732,-0.089 0.5748,-0.0837 0.5757,-0.0776 0.5775,-0.0723 0.5782,-0.0661 0.58,-0.0609 0.5808,-0.0547 0.5828,-0.0493 0.5834,-0.0428 0.5851,-0.0377 0.5862,-0.0318 0.5881,-0.0263 0.5885,-0.0199 0.5902,-0.0147 0.5913,-0.009 0.5933,-0.003 z m -82.1469,14.5026 v 12.3537 l -0.0243,0.479 -0.0726,0.4632 -0.1213,0.4476 -0.1693,0.4317 -0.2182,0.4161 -0.2659,0.4003 -0.315,0.3846 -0.3628,0.3683 -0.4119,0.3532 -0.4597,0.3373 -0.5089,0.3217 -0.5564,0.3053 -0.6058,0.2903 -0.6534,0.2744 -0.7021,0.2585 -0.7503,0.2423 -0.2809,0.0916 -0.2809,0.0879 -0.2815,0.0853 -0.2818,0.0819 -0.2829,0.0797 -0.2829,0.0765 -0.2837,0.0737 -0.2835,0.0703 -0.2849,0.0683 -0.2849,0.0649 -0.2857,0.0621 -0.2857,0.0587 -0.2872,0.0567 -0.2868,0.053 -0.2878,0.0507 -0.2877,0.0471 -0.2891,0.0451 -0.2891,0.0416 -0.29,0.0391 -0.29,0.0358 -0.2911,0.0337 -0.2912,0.03 -0.2916,0.0275 -0.292,0.0241 -0.2931,0.0221 -0.2934,0.0188 -0.2939,0.0158 -0.294,0.0125 -0.2951,0.0105 -0.2954,0.007 -0.2959,0.004 -0.2959,0.001 -0.305,-0.001 -0.3033,-0.004 -0.3025,-0.007 -0.301,-0.0105 -0.3008,-0.0125 -0.2991,-0.0158 -0.2982,-0.0188 -0.2967,-0.0221 -0.2965,-0.0241 -0.2951,-0.0275 -0.2943,-0.03 -0.2928,-0.0337 -0.2922,-0.0358 -0.2909,-0.0391 -0.29,-0.0416 -0.2885,-0.0451 -0.2883,-0.0471 -0.2869,-0.0507 -0.2863,-0.053 -0.2846,-0.0567 -0.284,-0.0587 -0.2826,-0.0621 -0.2818,-0.0649 -0.2803,-0.0683 -0.2801,-0.0703 -0.2784,-0.0737 -0.2778,-0.0765 -0.2763,-0.0797 -0.2758,-0.0819 -0.2741,-0.0853 -0.2736,-0.0879 -0.2721,-0.0916 -0.7509,-0.2423 -0.7022,-0.2585 -0.6536,-0.2744 -0.6049,-0.2903 -0.5573,-0.3053 -0.5083,-0.3217 -0.4598,-0.3373 -0.4113,-0.3532 -0.3634,-0.3683 -0.3149,-0.3846 -0.2665,-0.4003 -0.2174,-0.4161 -0.1698,-0.4317 -0.121,-0.4476 -0.0726,-0.4632 -0.0238,-0.479 v -29.945 l -0.015,-0.2812 -0.0439,-0.2743 -0.0737,-0.2671 -0.1021,-0.2599 -0.1321,-0.252 -0.1607,-0.2449 -0.1905,-0.2376 -0.2188,-0.2307 -0.2489,-0.2225 -0.2772,-0.2157 -0.3065,-0.2081 -0.335,-0.2013 -0.3648,-0.1933 -0.3932,-0.1862 -0.4227,-0.1789 -0.4507,-0.1718 -0.335,-0.1134 -0.3368,-0.1063 -0.3393,-0.0989 -0.3407,-0.0921 -0.3433,-0.0842 -0.3447,-0.0774 -0.3475,-0.0697 -0.3487,-0.0629 -0.3517,-0.0548 -0.353,-0.0476 -0.3554,-0.0402 -0.3572,-0.0335 -0.3597,-0.0255 -0.3614,-0.0187 -0.364,-0.0111 -0.3651,-0.004 H 302.036 l -0.3659,0.004 -0.364,0.0111 -0.3617,0.0187 -0.3594,0.0255 -0.3578,0.0335 -0.3554,0.0402 -0.3532,0.0476 -0.3509,0.0548 -0.3496,0.0629 -0.3469,0.0697 -0.345,0.0774 -0.3427,0.0842 -0.3404,0.0921 -0.3391,0.0989 -0.3367,0.1063 -0.3351,0.1134 -0.4507,0.1718 -0.4226,0.1789 -0.3932,0.1862 -0.3648,0.1933 -0.3351,0.2013 -0.307,0.2081 -0.2772,0.2157 -0.2489,0.2225 -0.2188,0.2307 -0.1905,0.2376 -0.1607,0.2449 -0.1321,0.252 -0.1021,0.2599 -0.0737,0.2671 -0.0439,0.2743 -0.015,0.2812 v 29.945 l -0.0238,0.479 -0.0726,0.4632 -0.121,0.4476 -0.1696,0.4317 -0.2174,0.4161 -0.2664,0.4003 -0.3147,0.3846 -0.3634,0.3683 -0.4113,0.3532 -0.4598,0.3373 -0.5082,0.3217 -0.5573,0.3053 -0.6049,0.2903 -0.6537,0.2744 -0.7021,0.2585 -0.7509,0.2423 -0.2801,0.0916 -0.2809,0.0879 -0.2812,0.0853 -0.282,0.0819 -0.2824,0.0797 -0.2832,0.0765 -0.2834,0.0737 -0.2843,0.0703 -0.2844,0.0683 -0.2851,0.0649 -0.2855,0.0621 -0.2863,0.0587 -0.2866,0.0567 -0.2874,0.053 -0.2874,0.0507 -0.2886,0.0471 -0.2883,0.0451 -0.2891,0.0416 -0.2897,0.0391 -0.2903,0.0358 -0.2905,0.0337 -0.2917,0.03 -0.2917,0.0275 -0.2925,0.0241 -0.2926,0.0221 -0.2933,0.0188 -0.2937,0.0158 -0.2945,0.0125 -0.2948,0.0105 -0.2954,0.007 -0.2959,0.004 -0.2968,0.001 -0.296,-0.001 -0.2959,-0.004 -0.2954,-0.007 -0.2951,-0.0105 -0.2939,-0.0125 -0.294,-0.0158 -0.2934,-0.0188 -0.2931,-0.0221 -0.2919,-0.0241 -0.2917,-0.0275 -0.2911,-0.03 -0.2914,-0.0337 -0.29,-0.0358 -0.29,-0.0391 -0.2891,-0.0416 -0.2892,-0.0451 -0.2877,-0.0471 -0.2877,-0.0507 -0.2869,-0.053 -0.2871,-0.0567 -0.2857,-0.0587 -0.2858,-0.0621 -0.2851,-0.0649 -0.2849,-0.0683 -0.2835,-0.0703 -0.2837,-0.0737 -0.2832,-0.0765 -0.2829,-0.0797 -0.2818,-0.0819 -0.2815,-0.0853 -0.2809,-0.0879 -0.2809,-0.0916 -0.75,-0.2423 -0.7022,-0.2585 -0.6534,-0.2744 -0.6052,-0.2903 -0.5564,-0.3053 -0.5088,-0.3217 -0.4598,-0.3373 -0.4119,-0.3532 -0.3628,-0.3683 -0.3149,-0.3846 -0.2659,-0.4003 -0.2183,-0.4161 -0.1692,-0.4317 -0.1213,-0.4476 -0.0726,-0.4632 -0.0244,-0.479 0.1315,-29.0053 0.0119,-0.4909 0.0355,-0.4842 0.0586,-0.4765 0.0817,-0.4697 0.1057,-0.4618 0.129,-0.4549 0.1522,-0.4473 0.1755,-0.4405 0.1995,-0.4323 0.2228,-0.4258 0.2461,-0.4178 0.2693,-0.411 0.2934,-0.4031 0.3163,-0.3963 0.3396,-0.3886 0.3631,-0.3819 0.387,-0.3736 0.4104,-0.3665 0.4337,-0.3591 0.4567,-0.3524 0.4804,-0.3444 0.504,-0.3373 0.5273,-0.33 0.5502,-0.3228 0.5743,-0.315 0.5978,-0.3078 0.6211,-0.3005 0.6443,-0.2936 0.6681,-0.2858 0.6914,-0.2786 0.7146,-0.2713 0.7379,-0.2642 0.553,-0.1893 0.5542,-0.184 0.5553,-0.178 0.5567,-0.1721 0.5582,-0.1655 0.5592,-0.1599 0.5604,-0.1536 0.5616,-0.1483 0.5632,-0.1414 0.5644,-0.1358 0.5658,-0.1296 0.5669,-0.1238 0.5684,-0.1174 0.5695,-0.1117 0.5706,-0.1057 0.572,-0.0998 0.5737,-0.0933 0.5749,-0.0873 0.576,-0.0813 0.5771,-0.0757 0.5786,-0.0692 0.5797,-0.0635 0.5811,-0.0572 0.5822,-0.0516 0.5842,-0.0448 0.5851,-0.0394 0.5862,-0.0329 0.5873,-0.0275 0.5888,-0.021 0.5902,-0.015 0.5913,-0.009 0.5924,-0.003 h 35.7327 l 0.5925,0.003 0.591,0.009 0.5893,0.015 0.5879,0.021 0.5859,0.0275 0.5851,0.0329 0.5834,0.0394 0.5819,0.0448 0.58,0.0516 0.5788,0.0572 0.5772,0.0635 0.5757,0.0692 0.574,0.0757 0.5723,0.0813 0.5709,0.0873 0.5698,0.0933 0.5675,0.0998 0.5663,0.1057 0.5647,0.1117 0.5632,0.1174 0.5613,0.1238 0.5604,0.1296 0.5587,0.1358 0.5573,0.1414 0.5553,0.1483 0.5542,0.1536 0.5522,0.1599 0.551,0.1655 0.5494,0.1721 0.5476,0.178 0.5463,0.184 0.5451,0.1893 0.7378,0.2642 0.7152,0.2713 0.692,0.2786 0.6689,0.2858 0.6455,0.2936 0.6225,0.3005 0.5992,0.3078 0.5763,0.315 0.5525,0.3228 0.5298,0.33 0.5065,0.3373 0.4836,0.3444 0.4601,0.3524 0.4374,0.3591 0.4138,0.3665 0.3909,0.3736 0.3671,0.3819 0.3444,0.3886 0.3212,0.3963 0.2982,0.4031 0.2744,0.411 0.2517,0.4178 0.2285,0.4258 0.2055,0.4323 0.1817,0.4405 0.159,0.4473 0.1358,0.4549 0.1128,0.4618 0.0893,0.4697 0.0663,0.4765 0.0431,0.4842 0.0201,0.4909 z m -132.6483,18.2622 -0.7498,-0.2424 -0.7022,-0.2585 -0.6533,-0.2744 -0.6052,-0.2903 -0.5565,-0.3055 -0.5088,-0.3218 -0.4598,-0.3373 -0.4118,-0.3532 -0.3629,-0.3685 -0.3149,-0.3844 -0.2659,-0.4002 -0.2183,-0.4161 -0.1695,-0.4318 -0.1213,-0.4475 -0.0726,-0.4632 -0.0244,-0.4791 v -37.0624 l 0.0244,-0.4782 0.0726,-0.4632 0.1213,-0.4473 0.1695,-0.432 0.2183,-0.4156 0.2659,-0.4005 0.3149,-0.3844 0.3629,-0.369 0.4118,-0.3524 0.4598,-0.3376 0.5088,-0.3214 0.5565,-0.3062 0.6052,-0.29 0.6533,-0.2746 0.7022,-0.2586 0.7498,-0.2432 0.2811,-0.0907 0.281,-0.0879 0.2814,-0.0847 0.2818,-0.0822 0.2829,-0.0791 0.2832,-0.0765 0.2837,-0.0737 0.2835,-0.0709 0.2849,-0.0675 0.2851,-0.0649 0.2858,-0.0618 0.2857,-0.0592 0.2872,-0.0562 0.2868,-0.0535 0.2877,-0.0505 0.2878,-0.0479 0.2891,-0.0442 0.2891,-0.042 0.29,-0.0388 0.29,-0.036 0.2911,-0.0329 0.2911,-0.0306 0.2917,-0.0272 0.292,-0.025 0.2931,-0.0212 0.2934,-0.019 0.2939,-0.0159 0.294,-0.013 0.2951,-0.01 0.2953,-0.008 0.296,-0.004 0.2959,-0.002 0.2968,0.002 0.2959,0.004 0.2954,0.008 0.2948,0.01 0.2945,0.013 0.2934,0.0159 0.2934,0.019 0.2925,0.0212 0.2926,0.025 0.2917,0.0272 0.2916,0.0306 0.2906,0.0329 0.2903,0.036 0.2897,0.0388 0.2891,0.042 0.2883,0.0442 0.2885,0.0479 0.2875,0.0505 0.2874,0.0535 0.2866,0.0562 0.2863,0.0592 0.2854,0.0618 0.2852,0.0649 0.2843,0.0675 0.2843,0.0709 0.2835,0.0737 0.2832,0.0765 0.2823,0.0791 0.2821,0.0822 0.2812,0.0847 0.2809,0.0879 0.2803,0.0907 0.7509,0.2432 0.7022,0.2586 0.6536,0.2746 0.6049,0.29 0.5573,0.3062 0.5083,0.3214 0.4598,0.3376 0.4113,0.3524 0.3634,0.369 0.3149,0.3844 0.2665,0.4005 0.2174,0.4156 0.1698,0.432 0.121,0.4473 0.0726,0.4632 0.0238,0.4782 v 37.0624 l -0.0238,0.4635 -0.0726,0.4496 -0.121,0.4362 -0.1698,0.4218 -0.2174,0.409 -0.2665,0.3946 -0.3149,0.3816 -0.3634,0.3673 -0.4113,0.3547 -0.4598,0.3401 -0.5083,0.3268 -0.5573,0.313 -0.6049,0.2996 -0.6536,0.2857 -0.7022,0.2722 -0.7509,0.2585 -0.5607,0.1791 -0.5644,0.167 -0.5666,0.1556 -0.57,0.1437 -0.5721,0.1327 -0.5743,0.1208 -0.5765,0.1097 -0.5783,0.0975 -0.5791,0.0867 -0.5814,0.0748 -0.5825,0.0638 -0.5837,0.0513 -0.5839,0.0406 -0.5851,0.0283 -0.5854,0.0176 -0.5859,0.005 -0.585,-0.005 -0.5857,-0.0176 -0.5845,-0.0283 -0.5845,-0.0409 -0.5831,-0.0513 -0.5825,-0.0637 -0.5814,-0.0749 -0.58,-0.0867 -0.5779,-0.0975 -0.5766,-0.1097 -0.574,-0.1208 -0.5726,-0.1326 -0.5695,-0.1438 -0.5672,-0.1556 -0.5644,-0.1667 z m -86.1024,0.4025 -1.0052,-0.2934 -0.9411,-0.3107 -0.8759,-0.3268 -0.8115,-0.3444 -0.7458,-0.3606 -0.6818,-0.3778 -0.6165,-0.3943 -0.5519,-0.4116 -0.4864,-0.4278 -0.4218,-0.4447 -0.3566,-0.4612 -0.2926,-0.4788 -0.227,-0.4949 -0.1624,-0.5122 -0.0973,-0.5287 -0.0329,-0.5459 0.007,-0.2331 0.0216,-0.2304 0.0362,-0.2271 0.0505,-0.2242 0.0652,-0.2205 0.0791,-0.2177 0.0938,-0.2143 0.1077,-0.2118 0.123,-0.208 0.1367,-0.205 0.1516,-0.2021 0.1656,-0.199 0.1805,-0.1956 0.1945,-0.1924 0.2095,-0.1894 0.2231,-0.1865 38.37,-31.0193 h -27.4623 l -0.4244,-10e-4 -0.415,-0.002 -0.4073,-0.003 -0.398,-0.003 -0.3903,-0.005 -0.3816,-0.005 -0.3733,-0.006 -0.3639,-0.006 -0.3564,-0.007 -0.3475,-0.008 -0.3393,-0.009 -0.3299,-0.01 -0.3223,-0.0108 -0.3138,-0.0116 -0.3053,-0.0125 -0.296,-0.0125 -0.2883,-0.0139 -0.2797,-0.0144 -0.2713,-0.0156 -0.2619,-0.0159 -0.2543,-0.0167 -0.2458,-0.0176 -0.2372,-0.019 -0.2279,-0.019 -0.2203,-0.0201 -0.2117,-0.0207 -0.2033,-0.0218 -0.1944,-0.0221 -0.1863,-0.0233 -0.1777,-0.0241 -0.1692,-0.0252 -0.5746,-0.1411 -0.5377,-0.1548 -0.5006,-0.1684 -0.4638,-0.182 -0.426,-0.1956 -0.3895,-0.2092 -0.3524,-0.2228 -0.3155,-0.2369 -0.2778,-0.2501 -0.2409,-0.2636 -0.2041,-0.2772 -0.1672,-0.2917 -0.1296,-0.3044 -0.0927,-0.3189 -0.0558,-0.332 -0.0187,-0.3461 0.0144,-0.3138 0.0423,-0.3039 0.0703,-0.2939 0.098,-0.284 0.1265,-0.2739 0.1542,-0.2642 0.1825,-0.2542 0.2104,-0.2444 0.2392,-0.2338 0.2667,-0.2242 0.2948,-0.2143 0.3226,-0.2044 0.351,-0.1942 0.3787,-0.1845 0.407,-0.1744 0.4349,-0.1647 0.4637,-0.1542 0.4913,-0.1445 0.5193,-0.1344 0.547,-0.1247 0.5758,-0.1145 0.6035,-0.1046 0.6315,-0.0947 0.6594,-0.0851 0.6882,-0.0745 0.7158,-0.0646 0.7438,-0.0547 0.7716,-0.0451 0.8002,-0.0349 0.828,-0.0249 0.856,-0.015 0.8839,-0.005 h 45.3586 l 0.4328,0.004 0.4808,0.0119 0.5258,0.0213 0.5655,0.0306 0.6027,0.0414 0.6343,0.0521 0.6625,0.0647 0.6866,0.0768 0.7072,0.091 0.7226,0.1046 0.7347,0.1199 0.7418,0.1355 0.7461,0.1522 0.7452,0.1692 0.741,0.1871 0.7316,0.2055 0.7197,0.2257 0.7027,0.2457 0.6821,0.2668 0.6568,0.2882 0.6278,0.311 0.5947,0.3339 0.5573,0.358 0.5159,0.3827 0.4712,0.4085 0.4209,0.4345 0.3676,0.4615 0.3099,0.489 0.2483,0.5179 0.1823,0.5468 0.1125,0.5768 0.038,0.6072 -0.007,0.2378 -0.0216,0.2339 -0.036,0.2302 -0.0504,0.2262 -0.0644,0.2231 -0.0788,0.2194 -0.0932,0.216 -0.1075,0.2126 -0.1213,0.2094 -0.1355,0.2058 -0.1494,0.2024 -0.1641,0.199 -0.1774,0.1965 -0.192,0.1922 -0.2057,0.1896 -0.22,0.1857 -38.3927,30.8622 h 30.4596 l 0.3235,5e-4 0.3662,10e-4 0.4062,0.003 0.4417,0.005 0.475,0.01 0.5038,0.0139 0.5295,0.0196 0.5513,0.0255 0.5709,0.0334 0.5854,0.0411 0.5972,0.0505 0.6049,0.0601 0.6101,0.0717 0.6108,0.0828 0.6086,0.0961 0.6024,0.1091 0.5936,0.1244 0.5805,0.1395 0.5641,0.1556 0.544,0.1729 0.5212,0.1914 0.4936,0.2103 0.4637,0.2305 0.4289,0.2508 0.3923,0.2733 0.3512,0.2956 0.3067,0.3195 0.2588,0.3436 0.2078,0.3693 0.1522,0.3955 0.0941,0.4229 0.0318,0.4504 -0.0182,0.3617 -0.0558,0.3458 -0.0921,0.33 -0.1301,0.3138 -0.1667,0.2985 -0.2041,0.2829 -0.2407,0.267 -0.2786,0.2509 -0.3147,0.2358 -0.3526,0.22 -0.3889,0.2041 -0.4269,0.1879 -0.4635,0.1726 -0.5009,0.1568 -0.5377,0.1412 -0.5754,0.125 -0.1684,0.0334 -0.1777,0.0318 -0.186,0.0311 -0.1947,0.0298 -0.2024,0.0292 -0.2118,0.0275 -0.2202,0.0269 -0.2288,0.0253 -0.2364,0.0252 -0.2457,0.0235 -0.2543,0.0227 -0.2628,0.0212 -0.2704,0.0207 -0.2798,0.019 -0.2883,0.0185 -0.2968,0.017 -0.3044,0.0167 -0.3138,0.015 -0.3217,0.0142 -0.3308,0.013 -0.3385,0.0125 -0.3478,0.0108 -0.3563,0.01 -0.3648,0.008 -0.3725,0.008 -0.3818,0.007 -0.3898,0.006 -0.3988,0.004 -0.4065,0.004 -0.4159,0.002 -0.4243,10e-4 -0.4329,3e-4 h -50.2375 l -0.5094,-0.004 -0.508,-0.0128 -0.5054,-0.0204 -0.504,-0.0298 -0.5015,-0.0374 -0.5,-0.0462 -0.4975,-0.0544 -0.4957,-0.0635 -0.4933,-0.0709 -0.4915,-0.0799 -0.489,-0.0879 -0.4875,-0.0969 -0.485,-0.1046 -0.4836,-0.1134 -0.4808,-0.1216 z" />
    </g>
    <g
       transform="translate(24.0145,-275.6508)"
       id="Layer1002">
      <path
         inkscape:connector-curvature="0"
         id="path39"
         style="fill:currentColor;fill-rule:evenodd;stroke:#1b1918;stroke-width:0.1363;stroke-linecap:butt;stroke-linejoin:miter;stroke-dasharray:none"
         d="m 66.6438,509.4901 c -16.8055,1.9205 -16.8055,-15.1716 -4.2014,-16.9 l 115.4374,0.3841 c 16.0052,-0.192 30.81,8.258 22.0071,18.2443 0,0 -46.215,35.3364 -49.8161,38.6011 16.4053,-1.5363 16.0052,16.1318 3.6011,17.0921 L 36.0338,566.7196 c -18.806,0 -29.6095,-10.9466 -18.2059,-19.9727 l 36.0117,-27.6545 z" />
      <path
         inkscape:connector-curvature="0"
         id="path41"
         style="fill:transparent;fill-rule:evenodd"
         d="m 68.7427,547.4651 45.0146,-34.5681 h 34.011 l -44.8145,34.5681 z" />
    </g>
  </g>
</svg>
